<?xml version="1.0" encoding="utf-8" ?>
<svg baseProfile="full" height="600" version="1.1" width="1800" xmlns="http://www.w3.org/2000/svg" xmlns:ev="http://www.w3.org/2001/xml-events" xmlns:xlink="http://www.w3.org/1999/xlink"><defs /><rect fill="#222222" height="100%" width="100%" x="0" y="0" /><text fill="white" font-size="20" text-anchor="middle" x="900.0" y="30">Monthly Pushup Totals</text><rect fill="#4DD2FF" height="444.9263502454992" width="30" x="130.0" y="105.07364975450082" /><text fill="white" font-size="12" text-anchor="middle" x="145.0" y="100.07364975450082">5437</text><text fill="white" font-size="12" text-anchor="middle" x="145.0" y="570">2025-05</text><rect fill="#4DD2FF" height="407.85597381342063" width="30" x="300.0" y="142.14402618657937" /><text fill="white" font-size="12" text-anchor="middle" x="315.0" y="137.14402618657937">4984</text><text fill="white" font-size="12" text-anchor="middle" x="315.0" y="570">2025-06</text><rect fill="#4DD2FF" height="318.0851063829787" width="30" x="470.0" y="231.91489361702128" /><text fill="white" font-size="12" text-anchor="middle" x="485.0" y="226.91489361702128">3887</text><text fill="white" font-size="12" text-anchor="middle" x="485.0" y="570">2025-07</text><rect fill="#4DD2FF" height="268.657937806874" width="30" x="640.0" y="281.342062193126" /><text fill="white" font-size="12" text-anchor="middle" x="655.0" y="276.342062193126">3283</text><text fill="white" font-size="12" text-anchor="middle" x="655.0" y="570">2025-08</text><rect fill="#4DD2FF" height="254.33715220949264" width="30" x="810.0" y="295.6628477905074" /><text fill="white" font-size="12" text-anchor="middle" x="825.0" y="290.6628477905074">3108</text><text fill="white" font-size="12" text-anchor="middle" x="825.0" y="570">2025-09</text><rect fill="#4DD2FF" height="334.12438625204584" width="30" x="980.0" y="215.87561374795416" /><text fill="white" font-size="12" text-anchor="middle" x="995.0" y="210.87561374795416">4083</text><text fill="white" font-size="12" text-anchor="middle" x="995.0" y="570">2025-10</text><rect fill="#4DD2FF" height="207.61047463175123" width="30" x="1150.0" y="342.38952536824877" /><text fill="white" font-size="12" text-anchor="middle" x="1165.0" y="337.38952536824877">2537</text><text fill="white" font-size="12" text-anchor="middle" x="1165.0" y="570">2025-11</text><rect fill="#4DD2FF" height="335.76104746317515" width="30" x="1320.0" y="214.23895253682485" /><text fill="white" font-size="12" text-anchor="middle" x="1335.0" y="209.23895253682485">4103</text><text fill="white" font-size="12" text-anchor="middle" x="1335.0" y="570">2025-12</text><rect fill="#4DD2FF" height="500.0" width="30" x="1490.0" y="50.0" /><text fill="white" font-size="12" text-anchor="middle" x="1505.0" y="45.0">6110</text><text fill="white" font-size="12" text-anchor="middle" x="1505.0" y="570">2026-01</text><rect fill="#4DD2FF" height="100.08183306055648" width="30" x="1660.0" y="449.9181669394435" /><text fill="white" font-size="12" text-anchor="middle" x="1675.0" y="444.9181669394435">1223</text><text fill="white" font-size="12" text-anchor="middle" x="1675.0" y="570">2026-02</text><line stroke="white" x1="60" x2="60" y1="50" y2="550" /><line stroke="white" x1="60" x2="1760" y1="550" y2="550" /></svg>