<?xml version="1.0" encoding="utf-8" ?>
<svg baseProfile="full" height="600" version="1.1" width="1800" xmlns="http://www.w3.org/2000/svg" xmlns:ev="http://www.w3.org/2001/xml-events" xmlns:xlink="http://www.w3.org/1999/xlink"><defs /><rect fill="#222222" height="100%" width="100%" x="0" y="0" /><text fill="white" font-size="20" text-anchor="middle" x="900.0" y="30">Monthly Pushup Totals</text><rect fill="#4DD2FF" height="471.1438474870017" width="30" x="139.44444444444446" y="78.85615251299828" /><text fill="white" font-size="12" text-anchor="middle" x="154.44444444444446" y="73.85615251299828">5437</text><text fill="white" font-size="12" text-anchor="middle" x="154.44444444444446" y="570">2025-05</text><rect fill="#4DD2FF" height="431.8890814558059" width="30" x="328.3333333333333" y="118.11091854419408" /><text fill="white" font-size="12" text-anchor="middle" x="343.3333333333333" y="113.11091854419408">4984</text><text fill="white" font-size="12" text-anchor="middle" x="343.3333333333333" y="570">2025-06</text><rect fill="#4DD2FF" height="336.82842287694973" width="30" x="517.2222222222222" y="213.17157712305027" /><text fill="white" font-size="12" text-anchor="middle" x="532.2222222222222" y="208.17157712305027">3887</text><text fill="white" font-size="12" text-anchor="middle" x="532.2222222222222" y="570">2025-07</text><rect fill="#4DD2FF" height="284.48873483535533" width="30" x="706.1111111111111" y="265.51126516464467" /><text fill="white" font-size="12" text-anchor="middle" x="721.1111111111111" y="260.51126516464467">3283</text><text fill="white" font-size="12" text-anchor="middle" x="721.1111111111111" y="570">2025-08</text><rect fill="#4DD2FF" height="269.3240901213171" width="30" x="895.0" y="280.6759098786829" /><text fill="white" font-size="12" text-anchor="middle" x="910.0" y="275.6759098786829">3108</text><text fill="white" font-size="12" text-anchor="middle" x="910.0" y="570">2025-09</text><rect fill="#4DD2FF" height="353.81282495667244" width="30" x="1083.888888888889" y="196.18717504332756" /><text fill="white" font-size="12" text-anchor="middle" x="1098.888888888889" y="191.18717504332756">4083</text><text fill="white" font-size="12" text-anchor="middle" x="1098.888888888889" y="570">2025-10</text><rect fill="#4DD2FF" height="219.84402079722705" width="30" x="1272.7777777777776" y="330.155979202773" /><text fill="white" font-size="12" text-anchor="middle" x="1287.7777777777776" y="325.155979202773">2537</text><text fill="white" font-size="12" text-anchor="middle" x="1287.7777777777776" y="570">2025-11</text><rect fill="#4DD2FF" height="355.5459272097053" width="30" x="1461.6666666666665" y="194.45407279029467" /><text fill="white" font-size="12" text-anchor="middle" x="1476.6666666666665" y="189.45407279029467">4103</text><text fill="white" font-size="12" text-anchor="middle" x="1476.6666666666665" y="570">2025-12</text><rect fill="#4DD2FF" height="500.0" width="30" x="1650.5555555555554" y="50.0" /><text fill="white" font-size="12" text-anchor="middle" x="1665.5555555555554" y="45.0">5770</text><text fill="white" font-size="12" text-anchor="middle" x="1665.5555555555554" y="570">2026-01</text><line stroke="white" x1="60" x2="60" y1="50" y2="550" /><line stroke="white" x1="60" x2="1760" y1="550" y2="550" /></svg>