<?xml version="1.0" encoding="utf-8" ?>
<svg baseProfile="full" height="600" version="1.1" width="1800" xmlns="http://www.w3.org/2000/svg" xmlns:ev="http://www.w3.org/2001/xml-events" xmlns:xlink="http://www.w3.org/1999/xlink"><defs /><rect fill="#222222" height="100%" width="100%" x="0" y="0" /><text fill="white" font-size="20" text-anchor="middle" x="900.0" y="30">Monthly Pushup Totals</text><rect fill="#4DD2FF" height="444.9263502454992" width="30" x="105.71428571428572" y="105.07364975450082" /><text fill="white" font-size="12" text-anchor="middle" x="120.71428571428572" y="100.07364975450082">5437</text><text fill="white" font-size="12" text-anchor="middle" x="120.71428571428572" y="570">2025-05</text><rect fill="#4DD2FF" height="407.85597381342063" width="30" x="227.14285714285717" y="142.14402618657937" /><text fill="white" font-size="12" text-anchor="middle" x="242.14285714285717" y="137.14402618657937">4984</text><text fill="white" font-size="12" text-anchor="middle" x="242.14285714285717" y="570">2025-06</text><rect fill="#4DD2FF" height="318.0851063829787" width="30" x="348.5714285714286" y="231.91489361702128" /><text fill="white" font-size="12" text-anchor="middle" x="363.5714285714286" y="226.91489361702128">3887</text><text fill="white" font-size="12" text-anchor="middle" x="363.5714285714286" y="570">2025-07</text><rect fill="#4DD2FF" height="268.657937806874" width="30" x="470.0" y="281.342062193126" /><text fill="white" font-size="12" text-anchor="middle" x="485.0" y="276.342062193126">3283</text><text fill="white" font-size="12" text-anchor="middle" x="485.0" y="570">2025-08</text><rect fill="#4DD2FF" height="254.33715220949264" width="30" x="591.4285714285714" y="295.6628477905074" /><text fill="white" font-size="12" text-anchor="middle" x="606.4285714285714" y="290.6628477905074">3108</text><text fill="white" font-size="12" text-anchor="middle" x="606.4285714285714" y="570">2025-09</text><rect fill="#4DD2FF" height="334.12438625204584" width="30" x="712.8571428571428" y="215.87561374795416" /><text fill="white" font-size="12" text-anchor="middle" x="727.8571428571428" y="210.87561374795416">4083</text><text fill="white" font-size="12" text-anchor="middle" x="727.8571428571428" y="570">2025-10</text><rect fill="#4DD2FF" height="207.61047463175123" width="30" x="834.2857142857142" y="342.38952536824877" /><text fill="white" font-size="12" text-anchor="middle" x="849.2857142857142" y="337.38952536824877">2537</text><text fill="white" font-size="12" text-anchor="middle" x="849.2857142857142" y="570">2025-11</text><rect fill="#4DD2FF" height="335.76104746317515" width="30" x="955.7142857142857" y="214.23895253682485" /><text fill="white" font-size="12" text-anchor="middle" x="970.7142857142857" y="209.23895253682485">4103</text><text fill="white" font-size="12" text-anchor="middle" x="970.7142857142857" y="570">2025-12</text><rect fill="#4DD2FF" height="500.0" width="30" x="1077.1428571428573" y="50.0" /><text fill="white" font-size="12" text-anchor="middle" x="1092.1428571428573" y="45.0">6110</text><text fill="white" font-size="12" text-anchor="middle" x="1092.1428571428573" y="570">2026-01</text><rect fill="#4DD2FF" height="424.30441898527005" width="30" x="1198.5714285714287" y="125.69558101472995" /><text fill="white" font-size="12" text-anchor="middle" x="1213.5714285714287" y="120.69558101472995">5185</text><text fill="white" font-size="12" text-anchor="middle" x="1213.5714285714287" y="570">2026-02</text><rect fill="#4DD2FF" height="268.9852700490998" width="30" x="1320.0" y="281.0147299509002" /><text fill="white" font-size="12" text-anchor="middle" x="1335.0" y="276.0147299509002">3287</text><text fill="white" font-size="12" text-anchor="middle" x="1335.0" y="570">2026-03</text><rect fill="#4DD2FF" height="25.695581014729953" width="30" x="1441.4285714285716" y="524.3044189852701" /><text fill="white" font-size="12" text-anchor="middle" x="1456.4285714285716" y="519.3044189852701">314</text><text fill="white" font-size="12" text-anchor="middle" x="1456.4285714285716" y="570">2026-04</text><rect fill="#4DD2FF" height="104.6644844517185" width="30" x="1562.857142857143" y="445.3355155482815" /><text fill="white" font-size="12" text-anchor="middle" x="1577.857142857143" y="440.3355155482815">1279</text><text fill="white" font-size="12" text-anchor="middle" x="1577.857142857143" y="570">2026-05</text><rect fill="#4DD2FF" height="4.991816693944354" width="30" x="1684.2857142857144" y="545.0081833060557" /><text fill="white" font-size="12" text-anchor="middle" x="1699.2857142857144" y="540.0081833060557">61</text><text fill="white" font-size="12" text-anchor="middle" x="1699.2857142857144" y="570">2026-06</text><line stroke="white" x1="60" x2="60" y1="50" y2="550" /><line stroke="white" x1="60" x2="1760" y1="550" y2="550" /></svg>