<?xml version="1.0" encoding="utf-8" ?>
<svg baseProfile="full" height="600" version="1.1" width="1800" xmlns="http://www.w3.org/2000/svg" xmlns:ev="http://www.w3.org/2001/xml-events" xmlns:xlink="http://www.w3.org/1999/xlink"><defs /><rect fill="#222222" height="100%" width="100%" x="0" y="0" /><text fill="white" font-size="20" text-anchor="middle" x="900.0" y="30">Monthly Pushup Totals</text><rect fill="#4DD2FF" height="444.9263502454992" width="30" x="122.27272727272727" y="105.07364975450082" /><text fill="white" font-size="12" text-anchor="middle" x="137.27272727272725" y="100.07364975450082">5437</text><text fill="white" font-size="12" text-anchor="middle" x="137.27272727272725" y="570">2025-05</text><rect fill="#4DD2FF" height="407.85597381342063" width="30" x="276.8181818181818" y="142.14402618657937" /><text fill="white" font-size="12" text-anchor="middle" x="291.8181818181818" y="137.14402618657937">4984</text><text fill="white" font-size="12" text-anchor="middle" x="291.8181818181818" y="570">2025-06</text><rect fill="#4DD2FF" height="318.0851063829787" width="30" x="431.3636363636363" y="231.91489361702128" /><text fill="white" font-size="12" text-anchor="middle" x="446.3636363636363" y="226.91489361702128">3887</text><text fill="white" font-size="12" text-anchor="middle" x="446.3636363636363" y="570">2025-07</text><rect fill="#4DD2FF" height="268.657937806874" width="30" x="585.9090909090909" y="281.342062193126" /><text fill="white" font-size="12" text-anchor="middle" x="600.9090909090909" y="276.342062193126">3283</text><text fill="white" font-size="12" text-anchor="middle" x="600.9090909090909" y="570">2025-08</text><rect fill="#4DD2FF" height="254.33715220949264" width="30" x="740.4545454545454" y="295.6628477905074" /><text fill="white" font-size="12" text-anchor="middle" x="755.4545454545454" y="290.6628477905074">3108</text><text fill="white" font-size="12" text-anchor="middle" x="755.4545454545454" y="570">2025-09</text><rect fill="#4DD2FF" height="334.12438625204584" width="30" x="894.9999999999999" y="215.87561374795416" /><text fill="white" font-size="12" text-anchor="middle" x="909.9999999999999" y="210.87561374795416">4083</text><text fill="white" font-size="12" text-anchor="middle" x="909.9999999999999" y="570">2025-10</text><rect fill="#4DD2FF" height="207.61047463175123" width="30" x="1049.5454545454545" y="342.38952536824877" /><text fill="white" font-size="12" text-anchor="middle" x="1064.5454545454545" y="337.38952536824877">2537</text><text fill="white" font-size="12" text-anchor="middle" x="1064.5454545454545" y="570">2025-11</text><rect fill="#4DD2FF" height="335.76104746317515" width="30" x="1204.090909090909" y="214.23895253682485" /><text fill="white" font-size="12" text-anchor="middle" x="1219.090909090909" y="209.23895253682485">4103</text><text fill="white" font-size="12" text-anchor="middle" x="1219.090909090909" y="570">2025-12</text><rect fill="#4DD2FF" height="500.0" width="30" x="1358.6363636363635" y="50.0" /><text fill="white" font-size="12" text-anchor="middle" x="1373.6363636363635" y="45.0">6110</text><text fill="white" font-size="12" text-anchor="middle" x="1373.6363636363635" y="570">2026-01</text><rect fill="#4DD2FF" height="424.30441898527005" width="30" x="1513.181818181818" y="125.69558101472995" /><text fill="white" font-size="12" text-anchor="middle" x="1528.181818181818" y="120.69558101472995">5185</text><text fill="white" font-size="12" text-anchor="middle" x="1528.181818181818" y="570">2026-02</text><rect fill="#4DD2FF" height="165.0572831423895" width="30" x="1667.7272727272725" y="384.9427168576105" /><text fill="white" font-size="12" text-anchor="middle" x="1682.7272727272725" y="379.9427168576105">2017</text><text fill="white" font-size="12" text-anchor="middle" x="1682.7272727272725" y="570">2026-03</text><line stroke="white" x1="60" x2="60" y1="50" y2="550" /><line stroke="white" x1="60" x2="1760" y1="550" y2="550" /></svg>