<?xml version="1.0" encoding="utf-8" ?>
<svg baseProfile="full" height="600" version="1.1" width="1800" xmlns="http://www.w3.org/2000/svg" xmlns:ev="http://www.w3.org/2001/xml-events" xmlns:xlink="http://www.w3.org/1999/xlink"><defs /><rect fill="#222222" height="100%" width="100%" x="0" y="0" /><text fill="white" font-size="20" text-anchor="middle" x="900.0" y="30">Monthly Pushup Totals</text><rect fill="#4DD2FF" height="453.15885980996836" width="30" x="139.44444444444446" y="96.84114019003164" /><text fill="white" font-size="12" text-anchor="middle" x="154.44444444444446" y="91.84114019003164">5437</text><text fill="white" font-size="12" text-anchor="middle" x="154.44444444444446" y="570">2025-05</text><rect fill="#4DD2FF" height="415.40256709451575" width="30" x="328.3333333333333" y="134.59743290548425" /><text fill="white" font-size="12" text-anchor="middle" x="343.3333333333333" y="129.59743290548425">4984</text><text fill="white" font-size="12" text-anchor="middle" x="343.3333333333333" y="570">2025-06</text><rect fill="#4DD2FF" height="323.9706617769628" width="30" x="517.2222222222222" y="226.0293382230372" /><text fill="white" font-size="12" text-anchor="middle" x="532.2222222222222" y="221.0293382230372">3887</text><text fill="white" font-size="12" text-anchor="middle" x="532.2222222222222" y="570">2025-07</text><rect fill="#4DD2FF" height="273.6289381563594" width="30" x="706.1111111111111" y="276.3710618436406" /><text fill="white" font-size="12" text-anchor="middle" x="721.1111111111111" y="271.3710618436406">3283</text><text fill="white" font-size="12" text-anchor="middle" x="721.1111111111111" y="570">2025-08</text><rect fill="#4DD2FF" height="259.0431738623104" width="30" x="895.0" y="290.9568261376896" /><text fill="white" font-size="12" text-anchor="middle" x="910.0" y="285.9568261376896">3108</text><text fill="white" font-size="12" text-anchor="middle" x="910.0" y="570">2025-09</text><rect fill="#4DD2FF" height="340.3067177862977" width="30" x="1083.888888888889" y="209.69328221370228" /><text fill="white" font-size="12" text-anchor="middle" x="1098.888888888889" y="204.69328221370228">4083</text><text fill="white" font-size="12" text-anchor="middle" x="1098.888888888889" y="570">2025-10</text><rect fill="#4DD2FF" height="211.4519086514419" width="30" x="1272.7777777777776" y="338.5480913485581" /><text fill="white" font-size="12" text-anchor="middle" x="1287.7777777777776" y="333.5480913485581">2537</text><text fill="white" font-size="12" text-anchor="middle" x="1287.7777777777776" y="570">2025-11</text><rect fill="#4DD2FF" height="341.9736622770462" width="30" x="1461.6666666666665" y="208.02633772295383" /><text fill="white" font-size="12" text-anchor="middle" x="1476.6666666666665" y="203.02633772295383">4103</text><text fill="white" font-size="12" text-anchor="middle" x="1476.6666666666665" y="570">2025-12</text><rect fill="#4DD2FF" height="500.0" width="30" x="1650.5555555555554" y="50.0" /><text fill="white" font-size="12" text-anchor="middle" x="1665.5555555555554" y="45.0">5999</text><text fill="white" font-size="12" text-anchor="middle" x="1665.5555555555554" y="570">2026-01</text><line stroke="white" x1="60" x2="60" y1="50" y2="550" /><line stroke="white" x1="60" x2="1760" y1="550" y2="550" /></svg>