<?xml version="1.0" encoding="utf-8" ?>
<svg baseProfile="full" height="600" version="1.1" width="1800" xmlns="http://www.w3.org/2000/svg" xmlns:ev="http://www.w3.org/2001/xml-events" xmlns:xlink="http://www.w3.org/1999/xlink"><defs /><rect fill="#222222" height="100%" width="100%" x="0" y="0" /><text fill="white" font-size="20" text-anchor="middle" x="900.0" y="30">Monthly Pushup Totals</text><rect fill="#4DD2FF" height="490.7925618342661" width="30" x="139.44444444444446" y="59.20743816573389" /><text fill="white" font-size="12" text-anchor="middle" x="154.44444444444446" y="54.20743816573389">5437</text><text fill="white" font-size="12" text-anchor="middle" x="154.44444444444446" y="570">2025-05</text><rect fill="#4DD2FF" height="449.9007040982127" width="30" x="328.3333333333333" y="100.09929590178729" /><text fill="white" font-size="12" text-anchor="middle" x="343.3333333333333" y="95.09929590178729">4984</text><text fill="white" font-size="12" text-anchor="middle" x="343.3333333333333" y="570">2025-06</text><rect fill="#4DD2FF" height="350.8756093157609" width="30" x="517.2222222222222" y="199.12439068423907" /><text fill="white" font-size="12" text-anchor="middle" x="532.2222222222222" y="194.12439068423907">3887</text><text fill="white" font-size="12" text-anchor="middle" x="532.2222222222222" y="570">2025-07</text><rect fill="#4DD2FF" height="296.3531323343564" width="30" x="706.1111111111111" y="253.64686766564358" /><text fill="white" font-size="12" text-anchor="middle" x="721.1111111111111" y="248.64686766564358">3283</text><text fill="white" font-size="12" text-anchor="middle" x="721.1111111111111" y="570">2025-08</text><rect fill="#4DD2FF" height="280.55605705000903" width="30" x="895.0" y="269.44394294999097" /><text fill="white" font-size="12" text-anchor="middle" x="910.0" y="264.44394294999097">3108</text><text fill="white" font-size="12" text-anchor="middle" x="910.0" y="570">2025-09</text><rect fill="#4DD2FF" height="368.56833363423004" width="30" x="1083.888888888889" y="181.43166636576996" /><text fill="white" font-size="12" text-anchor="middle" x="1098.888888888889" y="176.43166636576996">4083</text><text fill="white" font-size="12" text-anchor="middle" x="1098.888888888889" y="570">2025-10</text><rect fill="#4DD2FF" height="229.01245712222422" width="30" x="1272.7777777777776" y="320.9875428777758" /><text fill="white" font-size="12" text-anchor="middle" x="1287.7777777777776" y="315.9875428777758">2537</text><text fill="white" font-size="12" text-anchor="middle" x="1287.7777777777776" y="570">2025-11</text><rect fill="#4DD2FF" height="370.3737136667268" width="30" x="1461.6666666666665" y="179.62628633327319" /><text fill="white" font-size="12" text-anchor="middle" x="1476.6666666666665" y="174.62628633327319">4103</text><text fill="white" font-size="12" text-anchor="middle" x="1476.6666666666665" y="570">2025-12</text><rect fill="#4DD2FF" height="500.0" width="30" x="1650.5555555555554" y="50.0" /><text fill="white" font-size="12" text-anchor="middle" x="1665.5555555555554" y="45.0">5539</text><text fill="white" font-size="12" text-anchor="middle" x="1665.5555555555554" y="570">2026-01</text><line stroke="white" x1="60" x2="60" y1="50" y2="550" /><line stroke="white" x1="60" x2="1760" y1="550" y2="550" /></svg>