<?xml version="1.0" encoding="utf-8" ?>
<svg baseProfile="full" height="600" version="1.1" width="1800" xmlns="http://www.w3.org/2000/svg" xmlns:ev="http://www.w3.org/2001/xml-events" xmlns:xlink="http://www.w3.org/1999/xlink"><defs /><rect fill="#222222" height="100%" width="100%" x="0" y="0" /><text fill="white" font-size="20" text-anchor="middle" x="900.0" y="30">Monthly Pushup Totals</text><rect fill="#4DD2FF" height="500.0" width="30" x="166.42857142857144" y="50.0" /><text fill="white" font-size="12" text-anchor="middle" x="181.42857142857144" y="45.0">5437</text><text fill="white" font-size="12" text-anchor="middle" x="181.42857142857144" y="570">2025-05</text><rect fill="#4DD2FF" height="458.34099687327574" width="30" x="409.28571428571433" y="91.65900312672426" /><text fill="white" font-size="12" text-anchor="middle" x="424.28571428571433" y="86.65900312672426">4984</text><text fill="white" font-size="12" text-anchor="middle" x="424.28571428571433" y="570">2025-06</text><rect fill="#4DD2FF" height="357.4581570719146" width="30" x="652.1428571428572" y="192.54184292808537" /><text fill="white" font-size="12" text-anchor="middle" x="667.1428571428572" y="187.54184292808537">3887</text><text fill="white" font-size="12" text-anchor="middle" x="667.1428571428572" y="570">2025-07</text><rect fill="#4DD2FF" height="301.9128195696156" width="30" x="895.0" y="248.08718043038442" /><text fill="white" font-size="12" text-anchor="middle" x="910.0" y="243.08718043038442">3283</text><text fill="white" font-size="12" text-anchor="middle" x="910.0" y="570">2025-08</text><rect fill="#4DD2FF" height="285.81938569063817" width="30" x="1137.857142857143" y="264.18061430936183" /><text fill="white" font-size="12" text-anchor="middle" x="1152.857142857143" y="259.18061430936183">3108</text><text fill="white" font-size="12" text-anchor="middle" x="1152.857142857143" y="570">2025-09</text><rect fill="#4DD2FF" height="375.4828030163693" width="30" x="1380.7142857142856" y="174.5171969836307" /><text fill="white" font-size="12" text-anchor="middle" x="1395.7142857142856" y="169.5171969836307">4083</text><text fill="white" font-size="12" text-anchor="middle" x="1395.7142857142856" y="570">2025-10</text><rect fill="#4DD2FF" height="233.30881000551776" width="30" x="1623.5714285714284" y="316.6911899944822" /><text fill="white" font-size="12" text-anchor="middle" x="1638.5714285714284" y="311.6911899944822">2537</text><text fill="white" font-size="12" text-anchor="middle" x="1638.5714285714284" y="570">2025-11</text><line stroke="white" x1="60" x2="60" y1="50" y2="550" /><line stroke="white" x1="60" x2="1760" y1="550" y2="550" /></svg>