<?xml version="1.0" encoding="utf-8" ?>
<svg baseProfile="full" height="600" version="1.1" width="1800" xmlns="http://www.w3.org/2000/svg" xmlns:ev="http://www.w3.org/2001/xml-events" xmlns:xlink="http://www.w3.org/1999/xlink"><defs /><rect fill="#222222" height="100%" width="100%" x="0" y="0" /><text fill="white" font-size="20" text-anchor="middle" x="900.0" y="30">Monthly Pushup Totals</text><rect fill="#4DD2FF" height="444.9263502454992" width="30" x="115.83333333333333" y="105.07364975450082" /><text fill="white" font-size="12" text-anchor="middle" x="130.83333333333331" y="100.07364975450082">5437</text><text fill="white" font-size="12" text-anchor="middle" x="130.83333333333331" y="570">2025-05</text><rect fill="#4DD2FF" height="407.85597381342063" width="30" x="257.5" y="142.14402618657937" /><text fill="white" font-size="12" text-anchor="middle" x="272.5" y="137.14402618657937">4984</text><text fill="white" font-size="12" text-anchor="middle" x="272.5" y="570">2025-06</text><rect fill="#4DD2FF" height="318.0851063829787" width="30" x="399.16666666666663" y="231.91489361702128" /><text fill="white" font-size="12" text-anchor="middle" x="414.16666666666663" y="226.91489361702128">3887</text><text fill="white" font-size="12" text-anchor="middle" x="414.16666666666663" y="570">2025-07</text><rect fill="#4DD2FF" height="268.657937806874" width="30" x="540.8333333333334" y="281.342062193126" /><text fill="white" font-size="12" text-anchor="middle" x="555.8333333333334" y="276.342062193126">3283</text><text fill="white" font-size="12" text-anchor="middle" x="555.8333333333334" y="570">2025-08</text><rect fill="#4DD2FF" height="254.33715220949264" width="30" x="682.5" y="295.6628477905074" /><text fill="white" font-size="12" text-anchor="middle" x="697.5" y="290.6628477905074">3108</text><text fill="white" font-size="12" text-anchor="middle" x="697.5" y="570">2025-09</text><rect fill="#4DD2FF" height="334.12438625204584" width="30" x="824.1666666666666" y="215.87561374795416" /><text fill="white" font-size="12" text-anchor="middle" x="839.1666666666666" y="210.87561374795416">4083</text><text fill="white" font-size="12" text-anchor="middle" x="839.1666666666666" y="570">2025-10</text><rect fill="#4DD2FF" height="207.61047463175123" width="30" x="965.8333333333334" y="342.38952536824877" /><text fill="white" font-size="12" text-anchor="middle" x="980.8333333333334" y="337.38952536824877">2537</text><text fill="white" font-size="12" text-anchor="middle" x="980.8333333333334" y="570">2025-11</text><rect fill="#4DD2FF" height="335.76104746317515" width="30" x="1107.4999999999998" y="214.23895253682485" /><text fill="white" font-size="12" text-anchor="middle" x="1122.4999999999998" y="209.23895253682485">4103</text><text fill="white" font-size="12" text-anchor="middle" x="1122.4999999999998" y="570">2025-12</text><rect fill="#4DD2FF" height="500.0" width="30" x="1249.1666666666665" y="50.0" /><text fill="white" font-size="12" text-anchor="middle" x="1264.1666666666665" y="45.0">6110</text><text fill="white" font-size="12" text-anchor="middle" x="1264.1666666666665" y="570">2026-01</text><rect fill="#4DD2FF" height="424.30441898527005" width="30" x="1390.8333333333333" y="125.69558101472995" /><text fill="white" font-size="12" text-anchor="middle" x="1405.8333333333333" y="120.69558101472995">5185</text><text fill="white" font-size="12" text-anchor="middle" x="1405.8333333333333" y="570">2026-02</text><rect fill="#4DD2FF" height="268.9852700490998" width="30" x="1532.4999999999998" y="281.0147299509002" /><text fill="white" font-size="12" text-anchor="middle" x="1547.4999999999998" y="276.0147299509002">3287</text><text fill="white" font-size="12" text-anchor="middle" x="1547.4999999999998" y="570">2026-03</text><rect fill="#4DD2FF" height="17.430441898527004" width="30" x="1674.1666666666665" y="532.569558101473" /><text fill="white" font-size="12" text-anchor="middle" x="1689.1666666666665" y="527.569558101473">213</text><text fill="white" font-size="12" text-anchor="middle" x="1689.1666666666665" y="570">2026-04</text><line stroke="white" x1="60" x2="60" y1="50" y2="550" /><line stroke="white" x1="60" x2="1760" y1="550" y2="550" /></svg>