<?xml version="1.0" encoding="utf-8" ?>
<svg baseProfile="full" height="600" version="1.1" width="1800" xmlns="http://www.w3.org/2000/svg" xmlns:ev="http://www.w3.org/2001/xml-events" xmlns:xlink="http://www.w3.org/1999/xlink"><defs /><rect fill="#222222" height="100%" width="100%" x="0" y="0" /><text fill="white" font-size="20" text-anchor="middle" x="900.0" y="30">Monthly Pushup Totals</text><rect fill="#4DD2FF" height="500.0" width="30" x="186.66666666666666" y="50.0" /><text fill="white" font-size="12" text-anchor="middle" x="201.66666666666666" y="45.0">5437</text><text fill="white" font-size="12" text-anchor="middle" x="201.66666666666666" y="570">2025-05</text><rect fill="#4DD2FF" height="458.34099687327574" width="30" x="470.0" y="91.65900312672426" /><text fill="white" font-size="12" text-anchor="middle" x="485.0" y="86.65900312672426">4984</text><text fill="white" font-size="12" text-anchor="middle" x="485.0" y="570">2025-06</text><rect fill="#4DD2FF" height="357.4581570719146" width="30" x="753.3333333333333" y="192.54184292808537" /><text fill="white" font-size="12" text-anchor="middle" x="768.3333333333333" y="187.54184292808537">3887</text><text fill="white" font-size="12" text-anchor="middle" x="768.3333333333333" y="570">2025-07</text><rect fill="#4DD2FF" height="301.9128195696156" width="30" x="1036.6666666666667" y="248.08718043038442" /><text fill="white" font-size="12" text-anchor="middle" x="1051.6666666666667" y="243.08718043038442">3283</text><text fill="white" font-size="12" text-anchor="middle" x="1051.6666666666667" y="570">2025-08</text><rect fill="#4DD2FF" height="285.81938569063817" width="30" x="1320.0" y="264.18061430936183" /><text fill="white" font-size="12" text-anchor="middle" x="1335.0" y="259.18061430936183">3108</text><text fill="white" font-size="12" text-anchor="middle" x="1335.0" y="570">2025-09</text><rect fill="#4DD2FF" height="176.65992275151737" width="30" x="1603.3333333333333" y="373.34007724848266" /><text fill="white" font-size="12" text-anchor="middle" x="1618.3333333333333" y="368.34007724848266">1921</text><text fill="white" font-size="12" text-anchor="middle" x="1618.3333333333333" y="570">2025-10</text><line stroke="white" x1="60" x2="60" y1="50" y2="550" /><line stroke="white" x1="60" x2="1760" y1="550" y2="550" /></svg>