<?xml version="1.0" encoding="utf-8" ?>
<svg baseProfile="full" height="600" version="1.1" width="1800" xmlns="http://www.w3.org/2000/svg" xmlns:ev="http://www.w3.org/2001/xml-events" xmlns:xlink="http://www.w3.org/1999/xlink"><defs /><rect fill="#222222" height="100%" width="100%" x="0" y="0" /><text fill="white" font-size="20" text-anchor="middle" x="900.0" y="30">Weekly Totals (Last 52 Weeks)</text><rect fill="#4DD2FF" height="422.3744292237443" width="27.692307692307693" x="62.5" y="127.6255707762557" /><text fill="white" font-size="12" text-anchor="middle" x="76.34615384615384" y="122.6255707762557">1480</text><text fill="white" font-size="12" text-anchor="middle" transform="rotate(-45,76.34615384615384,570)" x="76.34615384615384" y="570">2025-05-18</text><rect fill="#4DD2FF" height="500.0" width="27.692307692307693" x="95.1923076923077" y="50.0" /><text fill="white" font-size="12" text-anchor="middle" x="109.03846153846155" y="45.0">1752</text><text fill="white" font-size="12" text-anchor="middle" transform="rotate(-45,109.03846153846155,570)" x="109.03846153846155" y="570">2025-05-25</text><rect fill="#4DD2FF" height="341.324200913242" width="27.692307692307693" x="127.88461538461539" y="208.675799086758" /><text fill="white" font-size="12" text-anchor="middle" x="141.73076923076923" y="203.675799086758">1196</text><text fill="white" font-size="12" text-anchor="middle" transform="rotate(-45,141.73076923076923,570)" x="141.73076923076923" y="570">2025-06-01</text><rect fill="#4DD2FF" height="334.7602739726027" width="27.692307692307693" x="160.5769230769231" y="215.2397260273973" /><text fill="white" font-size="12" text-anchor="middle" x="174.42307692307693" y="210.2397260273973">1173</text><text fill="white" font-size="12" text-anchor="middle" transform="rotate(-45,174.42307692307693,570)" x="174.42307692307693" y="570">2025-06-08</text><rect fill="#4DD2FF" height="315.9246575342466" width="27.692307692307693" x="193.26923076923077" y="234.0753424657534" /><text fill="white" font-size="12" text-anchor="middle" x="207.1153846153846" y="229.0753424657534">1107</text><text fill="white" font-size="12" text-anchor="middle" transform="rotate(-45,207.1153846153846,570)" x="207.1153846153846" y="570">2025-06-15</text><rect fill="#4DD2FF" height="359.0182648401826" width="27.692307692307693" x="225.96153846153845" y="190.9817351598174" /><text fill="white" font-size="12" text-anchor="middle" x="239.8076923076923" y="185.9817351598174">1258</text><text fill="white" font-size="12" text-anchor="middle" transform="rotate(-45,239.8076923076923,570)" x="239.8076923076923" y="570">2025-06-22</text><rect fill="#4DD2FF" height="234.5890410958904" width="27.692307692307693" x="258.6538461538462" y="315.41095890410963" /><text fill="white" font-size="12" text-anchor="middle" x="272.50000000000006" y="310.41095890410963">822</text><text fill="white" font-size="12" text-anchor="middle" transform="rotate(-45,272.50000000000006,570)" x="272.50000000000006" y="570">2025-06-29</text><rect fill="#4DD2FF" height="157.2488584474886" width="27.692307692307693" x="291.34615384615387" y="392.7511415525114" /><text fill="white" font-size="12" text-anchor="middle" x="305.19230769230774" y="387.7511415525114">551</text><text fill="white" font-size="12" text-anchor="middle" transform="rotate(-45,305.19230769230774,570)" x="305.19230769230774" y="570">2025-07-06</text><rect fill="#4DD2FF" height="315.9246575342466" width="27.692307692307693" x="324.03846153846155" y="234.0753424657534" /><text fill="white" font-size="12" text-anchor="middle" x="337.8846153846154" y="229.0753424657534">1107</text><text fill="white" font-size="12" text-anchor="middle" transform="rotate(-45,337.8846153846154,570)" x="337.8846153846154" y="570">2025-07-13</text><rect fill="#4DD2FF" height="394.9771689497717" width="27.692307692307693" x="356.7307692307692" y="155.02283105022832" /><text fill="white" font-size="12" text-anchor="middle" x="370.5769230769231" y="150.02283105022832">1384</text><text fill="white" font-size="12" text-anchor="middle" transform="rotate(-45,370.5769230769231,570)" x="370.5769230769231" y="570">2025-07-20</text><rect fill="#4DD2FF" height="106.7351598173516" width="27.692307692307693" x="389.4230769230769" y="443.2648401826484" /><text fill="white" font-size="12" text-anchor="middle" x="403.2692307692308" y="438.2648401826484">374</text><text fill="white" font-size="12" text-anchor="middle" transform="rotate(-45,403.2692307692308,570)" x="403.2692307692308" y="570">2025-07-27</text><rect fill="#4DD2FF" height="217.46575342465755" width="27.692307692307693" x="422.11538461538464" y="332.5342465753424" /><text fill="white" font-size="12" text-anchor="middle" x="435.9615384615385" y="327.5342465753424">762</text><text fill="white" font-size="12" text-anchor="middle" transform="rotate(-45,435.9615384615385,570)" x="435.9615384615385" y="570">2025-08-03</text><rect fill="#4DD2FF" height="241.1529680365297" width="27.692307692307693" x="454.8076923076923" y="308.8470319634703" /><text fill="white" font-size="12" text-anchor="middle" x="468.6538461538462" y="303.8470319634703">845</text><text fill="white" font-size="12" text-anchor="middle" transform="rotate(-45,468.6538461538462,570)" x="468.6538461538462" y="570">2025-08-10</text><rect fill="#4DD2FF" height="249.14383561643837" width="27.692307692307693" x="487.5" y="300.85616438356163" /><text fill="white" font-size="12" text-anchor="middle" x="501.34615384615387" y="295.85616438356163">873</text><text fill="white" font-size="12" text-anchor="middle" transform="rotate(-45,501.34615384615387,570)" x="501.34615384615387" y="570">2025-08-17</text><rect fill="#4DD2FF" height="170.3767123287671" width="27.692307692307693" x="520.1923076923077" y="379.6232876712329" /><text fill="white" font-size="12" text-anchor="middle" x="534.0384615384615" y="374.6232876712329">597</text><text fill="white" font-size="12" text-anchor="middle" transform="rotate(-45,534.0384615384615,570)" x="534.0384615384615" y="570">2025-08-24</text><rect fill="#4DD2FF" height="199.7716894977169" width="27.692307692307693" x="552.8846153846155" y="350.2283105022831" /><text fill="white" font-size="12" text-anchor="middle" x="566.7307692307693" y="345.2283105022831">700</text><text fill="white" font-size="12" text-anchor="middle" transform="rotate(-45,566.7307692307693,570)" x="566.7307692307693" y="570">2025-08-31</text><rect fill="#4DD2FF" height="233.162100456621" width="27.692307692307693" x="585.5769230769231" y="316.83789954337897" /><text fill="white" font-size="12" text-anchor="middle" x="599.4230769230769" y="311.83789954337897">817</text><text fill="white" font-size="12" text-anchor="middle" transform="rotate(-45,599.4230769230769,570)" x="599.4230769230769" y="570">2025-09-07</text><rect fill="#4DD2FF" height="263.1278538812785" width="27.692307692307693" x="618.2692307692308" y="286.8721461187215" /><text fill="white" font-size="12" text-anchor="middle" x="632.1153846153846" y="281.8721461187215">922</text><text fill="white" font-size="12" text-anchor="middle" transform="rotate(-45,632.1153846153846,570)" x="632.1153846153846" y="570">2025-09-14</text><rect fill="#4DD2FF" height="152.1118721461187" width="27.692307692307693" x="650.9615384615385" y="397.8881278538813" /><text fill="white" font-size="12" text-anchor="middle" x="664.8076923076923" y="392.8881278538813">533</text><text fill="white" font-size="12" text-anchor="middle" transform="rotate(-45,664.8076923076923,570)" x="664.8076923076923" y="570">2025-09-21</text><rect fill="#4DD2FF" height="178.08219178082192" width="27.692307692307693" x="683.6538461538462" y="371.9178082191781" /><text fill="white" font-size="12" text-anchor="middle" x="697.5" y="366.9178082191781">624</text><text fill="white" font-size="12" text-anchor="middle" transform="rotate(-45,697.5,570)" x="697.5" y="570">2025-09-28</text><rect fill="#4DD2FF" height="219.17808219178082" width="27.692307692307693" x="716.3461538461538" y="330.82191780821915" /><text fill="white" font-size="12" text-anchor="middle" x="730.1923076923076" y="325.82191780821915">768</text><text fill="white" font-size="12" text-anchor="middle" transform="rotate(-45,730.1923076923076,570)" x="730.1923076923076" y="570">2025-10-05</text><rect fill="#4DD2FF" height="336.472602739726" width="27.692307692307693" x="749.0384615384615" y="213.52739726027397" /><text fill="white" font-size="12" text-anchor="middle" x="762.8846153846154" y="208.52739726027397">1179</text><text fill="white" font-size="12" text-anchor="middle" transform="rotate(-45,762.8846153846154,570)" x="762.8846153846154" y="570">2025-10-12</text><rect fill="#4DD2FF" height="295.9474885844749" width="27.692307692307693" x="781.7307692307693" y="254.0525114155251" /><text fill="white" font-size="12" text-anchor="middle" x="795.5769230769231" y="249.0525114155251">1037</text><text fill="white" font-size="12" text-anchor="middle" transform="rotate(-45,795.5769230769231,570)" x="795.5769230769231" y="570">2025-10-19</text><rect fill="#4DD2FF" height="204.337899543379" width="27.692307692307693" x="814.4230769230769" y="345.66210045662103" /><text fill="white" font-size="12" text-anchor="middle" x="828.2692307692307" y="340.66210045662103">716</text><text fill="white" font-size="12" text-anchor="middle" transform="rotate(-45,828.2692307692307,570)" x="828.2692307692307" y="570">2025-10-26</text><rect fill="#4DD2FF" height="234.5890410958904" width="27.692307692307693" x="847.1153846153846" y="315.41095890410963" /><text fill="white" font-size="12" text-anchor="middle" x="860.9615384615385" y="310.41095890410963">822</text><text fill="white" font-size="12" text-anchor="middle" transform="rotate(-45,860.9615384615385,570)" x="860.9615384615385" y="570">2025-11-02</text><rect fill="#4DD2FF" height="136.41552511415526" width="27.692307692307693" x="879.8076923076924" y="413.58447488584477" /><text fill="white" font-size="12" text-anchor="middle" x="893.6538461538462" y="408.58447488584477">478</text><text fill="white" font-size="12" text-anchor="middle" transform="rotate(-45,893.6538461538462,570)" x="893.6538461538462" y="570">2025-11-09</text><rect fill="#4DD2FF" height="341.6095890410959" width="27.692307692307693" x="912.5" y="208.3904109589041" /><text fill="white" font-size="12" text-anchor="middle" x="926.3461538461538" y="203.3904109589041">1197</text><text fill="white" font-size="12" text-anchor="middle" transform="rotate(-45,926.3461538461538,570)" x="926.3461538461538" y="570">2025-11-16</text><rect fill="#4DD2FF" height="11.415525114155251" width="27.692307692307693" x="945.1923076923077" y="538.5844748858448" /><text fill="white" font-size="12" text-anchor="middle" x="959.0384615384615" y="533.5844748858448">40</text><text fill="white" font-size="12" text-anchor="middle" transform="rotate(-45,959.0384615384615,570)" x="959.0384615384615" y="570">2025-11-23</text><rect fill="#4DD2FF" height="124.14383561643835" width="27.692307692307693" x="977.8846153846155" y="425.85616438356163" /><text fill="white" font-size="12" text-anchor="middle" x="991.7307692307693" y="420.85616438356163">435</text><text fill="white" font-size="12" text-anchor="middle" transform="rotate(-45,991.7307692307693,570)" x="991.7307692307693" y="570">2025-11-30</text><rect fill="#4DD2FF" height="73.91552511415524" width="27.692307692307693" x="1010.5769230769231" y="476.08447488584477" /><text fill="white" font-size="12" text-anchor="middle" x="1024.423076923077" y="471.08447488584477">259</text><text fill="white" font-size="12" text-anchor="middle" transform="rotate(-45,1024.423076923077,570)" x="1024.423076923077" y="570">2025-12-07</text><rect fill="#4DD2FF" height="380.13698630136986" width="27.692307692307693" x="1043.269230769231" y="169.86301369863014" /><text fill="white" font-size="12" text-anchor="middle" x="1057.1153846153848" y="164.86301369863014">1332</text><text fill="white" font-size="12" text-anchor="middle" transform="rotate(-45,1057.1153846153848,570)" x="1057.1153846153848" y="570">2025-12-14</text><rect fill="#4DD2FF" height="361.8721461187215" width="27.692307692307693" x="1075.9615384615386" y="188.1278538812785" /><text fill="white" font-size="12" text-anchor="middle" x="1089.8076923076924" y="183.1278538812785">1268</text><text fill="white" font-size="12" text-anchor="middle" transform="rotate(-45,1089.8076923076924,570)" x="1089.8076923076924" y="570">2025-12-21</text><rect fill="#4DD2FF" height="409.8173515981735" width="27.692307692307693" x="1108.6538461538462" y="140.1826484018265" /><text fill="white" font-size="12" text-anchor="middle" x="1122.5" y="135.1826484018265">1436</text><text fill="white" font-size="12" text-anchor="middle" transform="rotate(-45,1122.5,570)" x="1122.5" y="570">2025-12-28</text><rect fill="#4DD2FF" height="399.2579908675799" width="27.692307692307693" x="1141.3461538461538" y="150.7420091324201" /><text fill="white" font-size="12" text-anchor="middle" x="1155.1923076923076" y="145.7420091324201">1399</text><text fill="white" font-size="12" text-anchor="middle" transform="rotate(-45,1155.1923076923076,570)" x="1155.1923076923076" y="570">2026-01-04</text><rect fill="#4DD2FF" height="424.3721461187215" width="27.692307692307693" x="1174.0384615384617" y="125.6278538812785" /><text fill="white" font-size="12" text-anchor="middle" x="1187.8846153846155" y="120.6278538812785">1487</text><text fill="white" font-size="12" text-anchor="middle" transform="rotate(-45,1187.8846153846155,570)" x="1187.8846153846155" y="570">2026-01-11</text><rect fill="#4DD2FF" height="373.0022831050228" width="27.692307692307693" x="1206.7307692307693" y="176.9977168949772" /><text fill="white" font-size="12" text-anchor="middle" x="1220.576923076923" y="171.9977168949772">1307</text><text fill="white" font-size="12" text-anchor="middle" transform="rotate(-45,1220.576923076923,570)" x="1220.576923076923" y="570">2026-01-18</text><rect fill="#4DD2FF" height="368.1506849315068" width="27.692307692307693" x="1239.423076923077" y="181.84931506849318" /><text fill="white" font-size="12" text-anchor="middle" x="1253.2692307692307" y="176.84931506849318">1290</text><text fill="white" font-size="12" text-anchor="middle" transform="rotate(-45,1253.2692307692307,570)" x="1253.2692307692307" y="570">2026-01-25</text><rect fill="#4DD2FF" height="349.0296803652968" width="27.692307692307693" x="1272.1153846153848" y="200.97031963470317" /><text fill="white" font-size="12" text-anchor="middle" x="1285.9615384615386" y="195.97031963470317">1223</text><text fill="white" font-size="12" text-anchor="middle" transform="rotate(-45,1285.9615384615386,570)" x="1285.9615384615386" y="570">2026-02-01</text><rect fill="#4DD2FF" height="406.6780821917808" width="27.692307692307693" x="1304.8076923076924" y="143.3219178082192" /><text fill="white" font-size="12" text-anchor="middle" x="1318.6538461538462" y="138.3219178082192">1425</text><text fill="white" font-size="12" text-anchor="middle" transform="rotate(-45,1318.6538461538462,570)" x="1318.6538461538462" y="570">2026-02-08</text><rect fill="#4DD2FF" height="311.0730593607306" width="27.692307692307693" x="1337.5" y="238.9269406392694" /><text fill="white" font-size="12" text-anchor="middle" x="1351.3461538461538" y="233.9269406392694">1090</text><text fill="white" font-size="12" text-anchor="middle" transform="rotate(-45,1351.3461538461538,570)" x="1351.3461538461538" y="570">2026-02-15</text><rect fill="#4DD2FF" height="412.9566210045662" width="27.692307692307693" x="1370.1923076923076" y="137.04337899543378" /><text fill="white" font-size="12" text-anchor="middle" x="1384.0384615384614" y="132.04337899543378">1447</text><text fill="white" font-size="12" text-anchor="middle" transform="rotate(-45,1384.0384615384614,570)" x="1384.0384615384614" y="570">2026-02-22</text><rect fill="#4DD2FF" height="343.0365296803653" width="27.692307692307693" x="1402.8846153846155" y="206.96347031963472" /><text fill="white" font-size="12" text-anchor="middle" x="1416.7307692307693" y="201.96347031963472">1202</text><text fill="white" font-size="12" text-anchor="middle" transform="rotate(-45,1416.7307692307693,570)" x="1416.7307692307693" y="570">2026-03-01</text><rect fill="#4DD2FF" height="232.59132420091325" width="27.692307692307693" x="1435.576923076923" y="317.4086757990867" /><text fill="white" font-size="12" text-anchor="middle" x="1449.423076923077" y="312.4086757990867">815</text><text fill="white" font-size="12" text-anchor="middle" transform="rotate(-45,1449.423076923077,570)" x="1449.423076923077" y="570">2026-03-08</text><rect fill="#4DD2FF" height="154.96575342465755" width="27.692307692307693" x="1468.2692307692307" y="395.0342465753424" /><text fill="white" font-size="12" text-anchor="middle" x="1482.1153846153845" y="390.0342465753424">543</text><text fill="white" font-size="12" text-anchor="middle" transform="rotate(-45,1482.1153846153845,570)" x="1482.1153846153845" y="570">2026-03-15</text><rect fill="#4DD2FF" height="142.1232876712329" width="27.692307692307693" x="1500.9615384615386" y="407.8767123287671" /><text fill="white" font-size="12" text-anchor="middle" x="1514.8076923076924" y="402.8767123287671">498</text><text fill="white" font-size="12" text-anchor="middle" transform="rotate(-45,1514.8076923076924,570)" x="1514.8076923076924" y="570">2026-03-22</text><rect fill="#4DD2FF" height="154.96575342465755" width="27.692307692307693" x="1533.6538461538462" y="395.0342465753424" /><text fill="white" font-size="12" text-anchor="middle" x="1547.5" y="390.0342465753424">543</text><text fill="white" font-size="12" text-anchor="middle" transform="rotate(-45,1547.5,570)" x="1547.5" y="570">2026-03-29</text><rect fill="#4DD2FF" height="97.88812785388127" width="27.692307692307693" x="1566.3461538461538" y="452.11187214611874" /><text fill="white" font-size="12" text-anchor="middle" x="1580.1923076923076" y="447.11187214611874">343</text><text fill="white" font-size="12" text-anchor="middle" transform="rotate(-45,1580.1923076923076,570)" x="1580.1923076923076" y="570">2026-05-03</text><rect fill="#4DD2FF" height="78.19634703196347" width="27.692307692307693" x="1599.0384615384617" y="471.80365296803654" /><text fill="white" font-size="12" text-anchor="middle" x="1612.8846153846155" y="466.80365296803654">274</text><text fill="white" font-size="12" text-anchor="middle" transform="rotate(-45,1612.8846153846155,570)" x="1612.8846153846155" y="570">2026-05-10</text><rect fill="#4DD2FF" height="62.214611872146115" width="27.692307692307693" x="1631.7307692307693" y="487.7853881278539" /><text fill="white" font-size="12" text-anchor="middle" x="1645.576923076923" y="482.7853881278539">218</text><text fill="white" font-size="12" text-anchor="middle" transform="rotate(-45,1645.576923076923,570)" x="1645.576923076923" y="570">2026-05-17</text><rect fill="#4DD2FF" height="92.46575342465754" width="27.692307692307693" x="1664.423076923077" y="457.5342465753425" /><text fill="white" font-size="12" text-anchor="middle" x="1678.2692307692307" y="452.5342465753425">324</text><text fill="white" font-size="12" text-anchor="middle" transform="rotate(-45,1678.2692307692307,570)" x="1678.2692307692307" y="570">2026-05-24</text><rect fill="#4DD2FF" height="51.65525114155251" width="27.692307692307693" x="1697.1153846153848" y="498.3447488584475" /><text fill="white" font-size="12" text-anchor="middle" x="1710.9615384615386" y="493.3447488584475">181</text><text fill="white" font-size="12" text-anchor="middle" transform="rotate(-45,1710.9615384615386,570)" x="1710.9615384615386" y="570">2026-05-31</text><rect fill="#4DD2FF" height="11.700913242009133" width="27.692307692307693" x="1729.8076923076924" y="538.2990867579908" /><text fill="white" font-size="12" text-anchor="middle" x="1743.6538461538462" y="533.2990867579908">41</text><text fill="white" font-size="12" text-anchor="middle" transform="rotate(-45,1743.6538461538462,570)" x="1743.6538461538462" y="570">2026-06-07</text><line stroke="white" x1="60" x2="60" y1="50" y2="550" /><line stroke="white" x1="60" x2="1760" y1="550" y2="550" /></svg>