<?xml version="1.0" encoding="utf-8" ?>
<svg baseProfile="full" height="600" version="1.1" width="1800" xmlns="http://www.w3.org/2000/svg" xmlns:ev="http://www.w3.org/2001/xml-events" xmlns:xlink="http://www.w3.org/1999/xlink"><defs /><rect fill="#222222" height="100%" width="100%" x="0" y="0" /><text fill="white" font-size="20" text-anchor="middle" x="900.0" y="30">Weekly Totals (Last 52 Weeks)</text><rect fill="#4DD2FF" height="67.12962962962963" width="30" x="67.97297297297297" y="482.8703703703704" /><text fill="white" font-size="12" text-anchor="middle" x="82.97297297297297" y="477.8703703703704">261</text><text fill="white" font-size="12" text-anchor="middle" transform="rotate(-45,82.97297297297297,570)" x="82.97297297297297" y="570">2025-05-04</text><rect fill="#4DD2FF" height="500.0" width="30" x="113.9189189189189" y="50.0" /><text fill="white" font-size="12" text-anchor="middle" x="128.9189189189189" y="45.0">1944</text><text fill="white" font-size="12" text-anchor="middle" transform="rotate(-45,128.9189189189189,570)" x="128.9189189189189" y="570">2025-05-11</text><rect fill="#4DD2FF" height="380.65843621399176" width="30" x="159.86486486486484" y="169.34156378600824" /><text fill="white" font-size="12" text-anchor="middle" x="174.86486486486484" y="164.34156378600824">1480</text><text fill="white" font-size="12" text-anchor="middle" transform="rotate(-45,174.86486486486484,570)" x="174.86486486486484" y="570">2025-05-18</text><rect fill="#4DD2FF" height="450.61728395061726" width="30" x="205.8108108108108" y="99.38271604938274" /><text fill="white" font-size="12" text-anchor="middle" x="220.8108108108108" y="94.38271604938274">1752</text><text fill="white" font-size="12" text-anchor="middle" transform="rotate(-45,220.8108108108108,570)" x="220.8108108108108" y="570">2025-05-25</text><rect fill="#4DD2FF" height="307.61316872427983" width="30" x="251.75675675675674" y="242.38683127572017" /><text fill="white" font-size="12" text-anchor="middle" x="266.7567567567568" y="237.38683127572017">1196</text><text fill="white" font-size="12" text-anchor="middle" transform="rotate(-45,266.7567567567568,570)" x="266.7567567567568" y="570">2025-06-01</text><rect fill="#4DD2FF" height="301.6975308641975" width="30" x="297.70270270270265" y="248.30246913580248" /><text fill="white" font-size="12" text-anchor="middle" x="312.70270270270265" y="243.30246913580248">1173</text><text fill="white" font-size="12" text-anchor="middle" transform="rotate(-45,312.70270270270265,570)" x="312.70270270270265" y="570">2025-06-08</text><rect fill="#4DD2FF" height="284.72222222222223" width="30" x="343.64864864864865" y="265.27777777777777" /><text fill="white" font-size="12" text-anchor="middle" x="358.64864864864865" y="260.27777777777777">1107</text><text fill="white" font-size="12" text-anchor="middle" transform="rotate(-45,358.64864864864865,570)" x="358.64864864864865" y="570">2025-06-15</text><rect fill="#4DD2FF" height="323.55967078189303" width="30" x="389.5945945945946" y="226.44032921810697" /><text fill="white" font-size="12" text-anchor="middle" x="404.5945945945946" y="221.44032921810697">1258</text><text fill="white" font-size="12" text-anchor="middle" transform="rotate(-45,404.5945945945946,570)" x="404.5945945945946" y="570">2025-06-22</text><rect fill="#4DD2FF" height="211.41975308641975" width="30" x="435.5405405405405" y="338.58024691358025" /><text fill="white" font-size="12" text-anchor="middle" x="450.5405405405405" y="333.58024691358025">822</text><text fill="white" font-size="12" text-anchor="middle" transform="rotate(-45,450.5405405405405,570)" x="450.5405405405405" y="570">2025-06-29</text><rect fill="#4DD2FF" height="141.71810699588477" width="30" x="481.48648648648646" y="408.2818930041152" /><text fill="white" font-size="12" text-anchor="middle" x="496.48648648648646" y="403.2818930041152">551</text><text fill="white" font-size="12" text-anchor="middle" transform="rotate(-45,496.48648648648646,570)" x="496.48648648648646" y="570">2025-07-06</text><rect fill="#4DD2FF" height="284.72222222222223" width="30" x="527.4324324324324" y="265.27777777777777" /><text fill="white" font-size="12" text-anchor="middle" x="542.4324324324324" y="260.27777777777777">1107</text><text fill="white" font-size="12" text-anchor="middle" transform="rotate(-45,542.4324324324324,570)" x="542.4324324324324" y="570">2025-07-13</text><rect fill="#4DD2FF" height="355.9670781893004" width="30" x="573.3783783783784" y="194.03292181069958" /><text fill="white" font-size="12" text-anchor="middle" x="588.3783783783784" y="189.03292181069958">1384</text><text fill="white" font-size="12" text-anchor="middle" transform="rotate(-45,588.3783783783784,570)" x="588.3783783783784" y="570">2025-07-20</text><rect fill="#4DD2FF" height="96.19341563786008" width="30" x="619.3243243243244" y="453.8065843621399" /><text fill="white" font-size="12" text-anchor="middle" x="634.3243243243244" y="448.8065843621399">374</text><text fill="white" font-size="12" text-anchor="middle" transform="rotate(-45,634.3243243243244,570)" x="634.3243243243244" y="570">2025-07-27</text><rect fill="#4DD2FF" height="195.98765432098767" width="30" x="665.2702702702703" y="354.01234567901236" /><text fill="white" font-size="12" text-anchor="middle" x="680.2702702702703" y="349.01234567901236">762</text><text fill="white" font-size="12" text-anchor="middle" transform="rotate(-45,680.2702702702703,570)" x="680.2702702702703" y="570">2025-08-03</text><rect fill="#4DD2FF" height="217.33539094650206" width="30" x="711.2162162162163" y="332.66460905349794" /><text fill="white" font-size="12" text-anchor="middle" x="726.2162162162163" y="327.66460905349794">845</text><text fill="white" font-size="12" text-anchor="middle" transform="rotate(-45,726.2162162162163,570)" x="726.2162162162163" y="570">2025-08-10</text><rect fill="#4DD2FF" height="224.53703703703704" width="30" x="757.1621621621622" y="325.46296296296293" /><text fill="white" font-size="12" text-anchor="middle" x="772.1621621621622" y="320.46296296296293">873</text><text fill="white" font-size="12" text-anchor="middle" transform="rotate(-45,772.1621621621622,570)" x="772.1621621621622" y="570">2025-08-17</text><rect fill="#4DD2FF" height="153.54938271604937" width="30" x="803.1081081081081" y="396.45061728395063" /><text fill="white" font-size="12" text-anchor="middle" x="818.1081081081081" y="391.45061728395063">597</text><text fill="white" font-size="12" text-anchor="middle" transform="rotate(-45,818.1081081081081,570)" x="818.1081081081081" y="570">2025-08-24</text><rect fill="#4DD2FF" height="180.0411522633745" width="30" x="849.0540540540541" y="369.9588477366255" /><text fill="white" font-size="12" text-anchor="middle" x="864.0540540540541" y="364.9588477366255">700</text><text fill="white" font-size="12" text-anchor="middle" transform="rotate(-45,864.0540540540541,570)" x="864.0540540540541" y="570">2025-08-31</text><rect fill="#4DD2FF" height="210.13374485596708" width="30" x="895.0" y="339.86625514403295" /><text fill="white" font-size="12" text-anchor="middle" x="910.0" y="334.86625514403295">817</text><text fill="white" font-size="12" text-anchor="middle" transform="rotate(-45,910.0,570)" x="910.0" y="570">2025-09-07</text><rect fill="#4DD2FF" height="237.13991769547323" width="30" x="940.9459459459459" y="312.86008230452677" /><text fill="white" font-size="12" text-anchor="middle" x="955.9459459459459" y="307.86008230452677">922</text><text fill="white" font-size="12" text-anchor="middle" transform="rotate(-45,955.9459459459459,570)" x="955.9459459459459" y="570">2025-09-14</text><rect fill="#4DD2FF" height="137.08847736625515" width="30" x="986.8918918918919" y="412.9115226337449" /><text fill="white" font-size="12" text-anchor="middle" x="1001.8918918918919" y="407.9115226337449">533</text><text fill="white" font-size="12" text-anchor="middle" transform="rotate(-45,1001.8918918918919,570)" x="1001.8918918918919" y="570">2025-09-21</text><rect fill="#4DD2FF" height="160.49382716049382" width="30" x="1032.8378378378377" y="389.5061728395062" /><text fill="white" font-size="12" text-anchor="middle" x="1047.8378378378377" y="384.5061728395062">624</text><text fill="white" font-size="12" text-anchor="middle" transform="rotate(-45,1047.8378378378377,570)" x="1047.8378378378377" y="570">2025-09-28</text><rect fill="#4DD2FF" height="197.53086419753086" width="30" x="1078.7837837837837" y="352.46913580246917" /><text fill="white" font-size="12" text-anchor="middle" x="1093.7837837837837" y="347.46913580246917">768</text><text fill="white" font-size="12" text-anchor="middle" transform="rotate(-45,1093.7837837837837,570)" x="1093.7837837837837" y="570">2025-10-05</text><rect fill="#4DD2FF" height="303.24074074074076" width="30" x="1124.7297297297296" y="246.75925925925924" /><text fill="white" font-size="12" text-anchor="middle" x="1139.7297297297296" y="241.75925925925924">1179</text><text fill="white" font-size="12" text-anchor="middle" transform="rotate(-45,1139.7297297297296,570)" x="1139.7297297297296" y="570">2025-10-12</text><rect fill="#4DD2FF" height="266.7181069958848" width="30" x="1170.6756756756756" y="283.2818930041152" /><text fill="white" font-size="12" text-anchor="middle" x="1185.6756756756756" y="278.2818930041152">1037</text><text fill="white" font-size="12" text-anchor="middle" transform="rotate(-45,1185.6756756756756,570)" x="1185.6756756756756" y="570">2025-10-19</text><rect fill="#4DD2FF" height="184.15637860082305" width="30" x="1216.6216216216214" y="365.843621399177" /><text fill="white" font-size="12" text-anchor="middle" x="1231.6216216216214" y="360.843621399177">716</text><text fill="white" font-size="12" text-anchor="middle" transform="rotate(-45,1231.6216216216214,570)" x="1231.6216216216214" y="570">2025-10-26</text><rect fill="#4DD2FF" height="211.41975308641975" width="30" x="1262.5675675675675" y="338.58024691358025" /><text fill="white" font-size="12" text-anchor="middle" x="1277.5675675675675" y="333.58024691358025">822</text><text fill="white" font-size="12" text-anchor="middle" transform="rotate(-45,1277.5675675675675,570)" x="1277.5675675675675" y="570">2025-11-02</text><rect fill="#4DD2FF" height="122.94238683127571" width="30" x="1308.5135135135133" y="427.0576131687243" /><text fill="white" font-size="12" text-anchor="middle" x="1323.5135135135133" y="422.0576131687243">478</text><text fill="white" font-size="12" text-anchor="middle" transform="rotate(-45,1323.5135135135133,570)" x="1323.5135135135133" y="570">2025-11-09</text><rect fill="#4DD2FF" height="307.8703703703703" width="30" x="1354.4594594594594" y="242.12962962962968" /><text fill="white" font-size="12" text-anchor="middle" x="1369.4594594594594" y="237.12962962962968">1197</text><text fill="white" font-size="12" text-anchor="middle" transform="rotate(-45,1369.4594594594594,570)" x="1369.4594594594594" y="570">2025-11-16</text><rect fill="#4DD2FF" height="10.2880658436214" width="30" x="1400.4054054054052" y="539.7119341563786" /><text fill="white" font-size="12" text-anchor="middle" x="1415.4054054054052" y="534.7119341563786">40</text><text fill="white" font-size="12" text-anchor="middle" transform="rotate(-45,1415.4054054054052,570)" x="1415.4054054054052" y="570">2025-11-23</text><rect fill="#4DD2FF" height="111.88271604938271" width="30" x="1446.3513513513512" y="438.1172839506173" /><text fill="white" font-size="12" text-anchor="middle" x="1461.3513513513512" y="433.1172839506173">435</text><text fill="white" font-size="12" text-anchor="middle" transform="rotate(-45,1461.3513513513512,570)" x="1461.3513513513512" y="570">2025-11-30</text><rect fill="#4DD2FF" height="66.61522633744856" width="30" x="1492.297297297297" y="483.3847736625514" /><text fill="white" font-size="12" text-anchor="middle" x="1507.297297297297" y="478.3847736625514">259</text><text fill="white" font-size="12" text-anchor="middle" transform="rotate(-45,1507.297297297297,570)" x="1507.297297297297" y="570">2025-12-07</text><rect fill="#4DD2FF" height="342.5925925925926" width="30" x="1538.2432432432431" y="207.4074074074074" /><text fill="white" font-size="12" text-anchor="middle" x="1553.2432432432431" y="202.4074074074074">1332</text><text fill="white" font-size="12" text-anchor="middle" transform="rotate(-45,1553.2432432432431,570)" x="1553.2432432432431" y="570">2025-12-14</text><rect fill="#4DD2FF" height="326.13168724279836" width="30" x="1584.1891891891892" y="223.86831275720164" /><text fill="white" font-size="12" text-anchor="middle" x="1599.1891891891892" y="218.86831275720164">1268</text><text fill="white" font-size="12" text-anchor="middle" transform="rotate(-45,1599.1891891891892,570)" x="1599.1891891891892" y="570">2025-12-21</text><rect fill="#4DD2FF" height="369.34156378600824" width="30" x="1630.135135135135" y="180.65843621399176" /><text fill="white" font-size="12" text-anchor="middle" x="1645.135135135135" y="175.65843621399176">1436</text><text fill="white" font-size="12" text-anchor="middle" transform="rotate(-45,1645.135135135135,570)" x="1645.135135135135" y="570">2025-12-28</text><rect fill="#4DD2FF" height="359.82510288065845" width="30" x="1676.081081081081" y="190.17489711934155" /><text fill="white" font-size="12" text-anchor="middle" x="1691.081081081081" y="185.17489711934155">1399</text><text fill="white" font-size="12" text-anchor="middle" transform="rotate(-45,1691.081081081081,570)" x="1691.081081081081" y="570">2026-01-04</text><rect fill="#4DD2FF" height="225.30864197530863" width="30" x="1722.0270270270269" y="324.69135802469134" /><text fill="white" font-size="12" text-anchor="middle" x="1737.0270270270269" y="319.69135802469134">876</text><text fill="white" font-size="12" text-anchor="middle" transform="rotate(-45,1737.0270270270269,570)" x="1737.0270270270269" y="570">2026-01-11</text><line stroke="white" x1="60" x2="60" y1="50" y2="550" /><line stroke="white" x1="60" x2="1760" y1="550" y2="550" /></svg>