<?xml version="1.0" encoding="utf-8" ?>
<svg baseProfile="full" height="600" version="1.1" width="1800" xmlns="http://www.w3.org/2000/svg" xmlns:ev="http://www.w3.org/2001/xml-events" xmlns:xlink="http://www.w3.org/1999/xlink"><defs /><rect fill="#222222" height="100%" width="100%" x="0" y="0" /><text fill="white" font-size="20" text-anchor="middle" x="900.0" y="30">Weekly Totals (Last 52 Weeks)</text><rect fill="#4DD2FF" height="67.12962962962963" width="30" x="62.70833333333333" y="482.8703703703704" /><text fill="white" font-size="12" text-anchor="middle" x="77.70833333333333" y="477.8703703703704">261</text><text fill="white" font-size="12" text-anchor="middle" transform="rotate(-45,77.70833333333333,570)" x="77.70833333333333" y="570">2025-05-04</text><rect fill="#4DD2FF" height="500.0" width="30" x="98.12499999999999" y="50.0" /><text fill="white" font-size="12" text-anchor="middle" x="113.12499999999999" y="45.0">1944</text><text fill="white" font-size="12" text-anchor="middle" transform="rotate(-45,113.12499999999999,570)" x="113.12499999999999" y="570">2025-05-11</text><rect fill="#4DD2FF" height="380.65843621399176" width="30" x="133.54166666666666" y="169.34156378600824" /><text fill="white" font-size="12" text-anchor="middle" x="148.54166666666666" y="164.34156378600824">1480</text><text fill="white" font-size="12" text-anchor="middle" transform="rotate(-45,148.54166666666666,570)" x="148.54166666666666" y="570">2025-05-18</text><rect fill="#4DD2FF" height="450.61728395061726" width="30" x="168.95833333333334" y="99.38271604938274" /><text fill="white" font-size="12" text-anchor="middle" x="183.95833333333334" y="94.38271604938274">1752</text><text fill="white" font-size="12" text-anchor="middle" transform="rotate(-45,183.95833333333334,570)" x="183.95833333333334" y="570">2025-05-25</text><rect fill="#4DD2FF" height="307.61316872427983" width="30" x="204.375" y="242.38683127572017" /><text fill="white" font-size="12" text-anchor="middle" x="219.375" y="237.38683127572017">1196</text><text fill="white" font-size="12" text-anchor="middle" transform="rotate(-45,219.375,570)" x="219.375" y="570">2025-06-01</text><rect fill="#4DD2FF" height="301.6975308641975" width="30" x="239.79166666666666" y="248.30246913580248" /><text fill="white" font-size="12" text-anchor="middle" x="254.79166666666666" y="243.30246913580248">1173</text><text fill="white" font-size="12" text-anchor="middle" transform="rotate(-45,254.79166666666666,570)" x="254.79166666666666" y="570">2025-06-08</text><rect fill="#4DD2FF" height="284.72222222222223" width="30" x="275.2083333333333" y="265.27777777777777" /><text fill="white" font-size="12" text-anchor="middle" x="290.2083333333333" y="260.27777777777777">1107</text><text fill="white" font-size="12" text-anchor="middle" transform="rotate(-45,290.2083333333333,570)" x="290.2083333333333" y="570">2025-06-15</text><rect fill="#4DD2FF" height="323.55967078189303" width="30" x="310.62499999999994" y="226.44032921810697" /><text fill="white" font-size="12" text-anchor="middle" x="325.62499999999994" y="221.44032921810697">1258</text><text fill="white" font-size="12" text-anchor="middle" transform="rotate(-45,325.62499999999994,570)" x="325.62499999999994" y="570">2025-06-22</text><rect fill="#4DD2FF" height="211.41975308641975" width="30" x="346.04166666666663" y="338.58024691358025" /><text fill="white" font-size="12" text-anchor="middle" x="361.04166666666663" y="333.58024691358025">822</text><text fill="white" font-size="12" text-anchor="middle" transform="rotate(-45,361.04166666666663,570)" x="361.04166666666663" y="570">2025-06-29</text><rect fill="#4DD2FF" height="141.71810699588477" width="30" x="381.4583333333333" y="408.2818930041152" /><text fill="white" font-size="12" text-anchor="middle" x="396.4583333333333" y="403.2818930041152">551</text><text fill="white" font-size="12" text-anchor="middle" transform="rotate(-45,396.4583333333333,570)" x="396.4583333333333" y="570">2025-07-06</text><rect fill="#4DD2FF" height="284.72222222222223" width="30" x="416.87499999999994" y="265.27777777777777" /><text fill="white" font-size="12" text-anchor="middle" x="431.87499999999994" y="260.27777777777777">1107</text><text fill="white" font-size="12" text-anchor="middle" transform="rotate(-45,431.87499999999994,570)" x="431.87499999999994" y="570">2025-07-13</text><rect fill="#4DD2FF" height="355.9670781893004" width="30" x="452.29166666666663" y="194.03292181069958" /><text fill="white" font-size="12" text-anchor="middle" x="467.29166666666663" y="189.03292181069958">1384</text><text fill="white" font-size="12" text-anchor="middle" transform="rotate(-45,467.29166666666663,570)" x="467.29166666666663" y="570">2025-07-20</text><rect fill="#4DD2FF" height="96.19341563786008" width="30" x="487.7083333333333" y="453.8065843621399" /><text fill="white" font-size="12" text-anchor="middle" x="502.7083333333333" y="448.8065843621399">374</text><text fill="white" font-size="12" text-anchor="middle" transform="rotate(-45,502.7083333333333,570)" x="502.7083333333333" y="570">2025-07-27</text><rect fill="#4DD2FF" height="195.98765432098767" width="30" x="523.125" y="354.01234567901236" /><text fill="white" font-size="12" text-anchor="middle" x="538.125" y="349.01234567901236">762</text><text fill="white" font-size="12" text-anchor="middle" transform="rotate(-45,538.125,570)" x="538.125" y="570">2025-08-03</text><rect fill="#4DD2FF" height="217.33539094650206" width="30" x="558.5416666666666" y="332.66460905349794" /><text fill="white" font-size="12" text-anchor="middle" x="573.5416666666666" y="327.66460905349794">845</text><text fill="white" font-size="12" text-anchor="middle" transform="rotate(-45,573.5416666666666,570)" x="573.5416666666666" y="570">2025-08-10</text><rect fill="#4DD2FF" height="224.53703703703704" width="30" x="593.9583333333334" y="325.46296296296293" /><text fill="white" font-size="12" text-anchor="middle" x="608.9583333333334" y="320.46296296296293">873</text><text fill="white" font-size="12" text-anchor="middle" transform="rotate(-45,608.9583333333334,570)" x="608.9583333333334" y="570">2025-08-17</text><rect fill="#4DD2FF" height="153.54938271604937" width="30" x="629.375" y="396.45061728395063" /><text fill="white" font-size="12" text-anchor="middle" x="644.375" y="391.45061728395063">597</text><text fill="white" font-size="12" text-anchor="middle" transform="rotate(-45,644.375,570)" x="644.375" y="570">2025-08-24</text><rect fill="#4DD2FF" height="180.0411522633745" width="30" x="664.7916666666666" y="369.9588477366255" /><text fill="white" font-size="12" text-anchor="middle" x="679.7916666666666" y="364.9588477366255">700</text><text fill="white" font-size="12" text-anchor="middle" transform="rotate(-45,679.7916666666666,570)" x="679.7916666666666" y="570">2025-08-31</text><rect fill="#4DD2FF" height="210.13374485596708" width="30" x="700.2083333333334" y="339.86625514403295" /><text fill="white" font-size="12" text-anchor="middle" x="715.2083333333334" y="334.86625514403295">817</text><text fill="white" font-size="12" text-anchor="middle" transform="rotate(-45,715.2083333333334,570)" x="715.2083333333334" y="570">2025-09-07</text><rect fill="#4DD2FF" height="237.13991769547323" width="30" x="735.625" y="312.86008230452677" /><text fill="white" font-size="12" text-anchor="middle" x="750.625" y="307.86008230452677">922</text><text fill="white" font-size="12" text-anchor="middle" transform="rotate(-45,750.625,570)" x="750.625" y="570">2025-09-14</text><rect fill="#4DD2FF" height="137.08847736625515" width="30" x="771.0416666666666" y="412.9115226337449" /><text fill="white" font-size="12" text-anchor="middle" x="786.0416666666666" y="407.9115226337449">533</text><text fill="white" font-size="12" text-anchor="middle" transform="rotate(-45,786.0416666666666,570)" x="786.0416666666666" y="570">2025-09-21</text><rect fill="#4DD2FF" height="160.49382716049382" width="30" x="806.4583333333334" y="389.5061728395062" /><text fill="white" font-size="12" text-anchor="middle" x="821.4583333333334" y="384.5061728395062">624</text><text fill="white" font-size="12" text-anchor="middle" transform="rotate(-45,821.4583333333334,570)" x="821.4583333333334" y="570">2025-09-28</text><rect fill="#4DD2FF" height="197.53086419753086" width="30" x="841.875" y="352.46913580246917" /><text fill="white" font-size="12" text-anchor="middle" x="856.875" y="347.46913580246917">768</text><text fill="white" font-size="12" text-anchor="middle" transform="rotate(-45,856.875,570)" x="856.875" y="570">2025-10-05</text><rect fill="#4DD2FF" height="303.24074074074076" width="30" x="877.2916666666666" y="246.75925925925924" /><text fill="white" font-size="12" text-anchor="middle" x="892.2916666666666" y="241.75925925925924">1179</text><text fill="white" font-size="12" text-anchor="middle" transform="rotate(-45,892.2916666666666,570)" x="892.2916666666666" y="570">2025-10-12</text><rect fill="#4DD2FF" height="266.7181069958848" width="30" x="912.7083333333334" y="283.2818930041152" /><text fill="white" font-size="12" text-anchor="middle" x="927.7083333333334" y="278.2818930041152">1037</text><text fill="white" font-size="12" text-anchor="middle" transform="rotate(-45,927.7083333333334,570)" x="927.7083333333334" y="570">2025-10-19</text><rect fill="#4DD2FF" height="184.15637860082305" width="30" x="948.125" y="365.843621399177" /><text fill="white" font-size="12" text-anchor="middle" x="963.125" y="360.843621399177">716</text><text fill="white" font-size="12" text-anchor="middle" transform="rotate(-45,963.125,570)" x="963.125" y="570">2025-10-26</text><rect fill="#4DD2FF" height="211.41975308641975" width="30" x="983.5416666666666" y="338.58024691358025" /><text fill="white" font-size="12" text-anchor="middle" x="998.5416666666666" y="333.58024691358025">822</text><text fill="white" font-size="12" text-anchor="middle" transform="rotate(-45,998.5416666666666,570)" x="998.5416666666666" y="570">2025-11-02</text><rect fill="#4DD2FF" height="122.94238683127571" width="30" x="1018.9583333333333" y="427.0576131687243" /><text fill="white" font-size="12" text-anchor="middle" x="1033.9583333333333" y="422.0576131687243">478</text><text fill="white" font-size="12" text-anchor="middle" transform="rotate(-45,1033.9583333333333,570)" x="1033.9583333333333" y="570">2025-11-09</text><rect fill="#4DD2FF" height="307.8703703703703" width="30" x="1054.3749999999998" y="242.12962962962968" /><text fill="white" font-size="12" text-anchor="middle" x="1069.3749999999998" y="237.12962962962968">1197</text><text fill="white" font-size="12" text-anchor="middle" transform="rotate(-45,1069.3749999999998,570)" x="1069.3749999999998" y="570">2025-11-16</text><rect fill="#4DD2FF" height="10.2880658436214" width="30" x="1089.7916666666665" y="539.7119341563786" /><text fill="white" font-size="12" text-anchor="middle" x="1104.7916666666665" y="534.7119341563786">40</text><text fill="white" font-size="12" text-anchor="middle" transform="rotate(-45,1104.7916666666665,570)" x="1104.7916666666665" y="570">2025-11-23</text><rect fill="#4DD2FF" height="111.88271604938271" width="30" x="1125.2083333333333" y="438.1172839506173" /><text fill="white" font-size="12" text-anchor="middle" x="1140.2083333333333" y="433.1172839506173">435</text><text fill="white" font-size="12" text-anchor="middle" transform="rotate(-45,1140.2083333333333,570)" x="1140.2083333333333" y="570">2025-11-30</text><rect fill="#4DD2FF" height="66.61522633744856" width="30" x="1160.6249999999998" y="483.3847736625514" /><text fill="white" font-size="12" text-anchor="middle" x="1175.6249999999998" y="478.3847736625514">259</text><text fill="white" font-size="12" text-anchor="middle" transform="rotate(-45,1175.6249999999998,570)" x="1175.6249999999998" y="570">2025-12-07</text><rect fill="#4DD2FF" height="342.5925925925926" width="30" x="1196.0416666666665" y="207.4074074074074" /><text fill="white" font-size="12" text-anchor="middle" x="1211.0416666666665" y="202.4074074074074">1332</text><text fill="white" font-size="12" text-anchor="middle" transform="rotate(-45,1211.0416666666665,570)" x="1211.0416666666665" y="570">2025-12-14</text><rect fill="#4DD2FF" height="326.13168724279836" width="30" x="1231.4583333333333" y="223.86831275720164" /><text fill="white" font-size="12" text-anchor="middle" x="1246.4583333333333" y="218.86831275720164">1268</text><text fill="white" font-size="12" text-anchor="middle" transform="rotate(-45,1246.4583333333333,570)" x="1246.4583333333333" y="570">2025-12-21</text><rect fill="#4DD2FF" height="369.34156378600824" width="30" x="1266.8749999999998" y="180.65843621399176" /><text fill="white" font-size="12" text-anchor="middle" x="1281.8749999999998" y="175.65843621399176">1436</text><text fill="white" font-size="12" text-anchor="middle" transform="rotate(-45,1281.8749999999998,570)" x="1281.8749999999998" y="570">2025-12-28</text><rect fill="#4DD2FF" height="359.82510288065845" width="30" x="1302.2916666666665" y="190.17489711934155" /><text fill="white" font-size="12" text-anchor="middle" x="1317.2916666666665" y="185.17489711934155">1399</text><text fill="white" font-size="12" text-anchor="middle" transform="rotate(-45,1317.2916666666665,570)" x="1317.2916666666665" y="570">2026-01-04</text><rect fill="#4DD2FF" height="382.45884773662556" width="30" x="1337.7083333333333" y="167.54115226337444" /><text fill="white" font-size="12" text-anchor="middle" x="1352.7083333333333" y="162.54115226337444">1487</text><text fill="white" font-size="12" text-anchor="middle" transform="rotate(-45,1352.7083333333333,570)" x="1352.7083333333333" y="570">2026-01-11</text><rect fill="#4DD2FF" height="336.1625514403292" width="30" x="1373.1249999999998" y="213.8374485596708" /><text fill="white" font-size="12" text-anchor="middle" x="1388.1249999999998" y="208.8374485596708">1307</text><text fill="white" font-size="12" text-anchor="middle" transform="rotate(-45,1388.1249999999998,570)" x="1388.1249999999998" y="570">2026-01-18</text><rect fill="#4DD2FF" height="331.79012345679007" width="30" x="1408.5416666666665" y="218.20987654320993" /><text fill="white" font-size="12" text-anchor="middle" x="1423.5416666666665" y="213.20987654320993">1290</text><text fill="white" font-size="12" text-anchor="middle" transform="rotate(-45,1423.5416666666665,570)" x="1423.5416666666665" y="570">2026-01-25</text><rect fill="#4DD2FF" height="314.5576131687243" width="30" x="1443.9583333333333" y="235.4423868312757" /><text fill="white" font-size="12" text-anchor="middle" x="1458.9583333333333" y="230.4423868312757">1223</text><text fill="white" font-size="12" text-anchor="middle" transform="rotate(-45,1458.9583333333333,570)" x="1458.9583333333333" y="570">2026-02-01</text><rect fill="#4DD2FF" height="366.51234567901236" width="30" x="1479.3749999999998" y="183.48765432098764" /><text fill="white" font-size="12" text-anchor="middle" x="1494.3749999999998" y="178.48765432098764">1425</text><text fill="white" font-size="12" text-anchor="middle" transform="rotate(-45,1494.3749999999998,570)" x="1494.3749999999998" y="570">2026-02-08</text><rect fill="#4DD2FF" height="280.3497942386831" width="30" x="1514.7916666666665" y="269.6502057613169" /><text fill="white" font-size="12" text-anchor="middle" x="1529.7916666666665" y="264.6502057613169">1090</text><text fill="white" font-size="12" text-anchor="middle" transform="rotate(-45,1529.7916666666665,570)" x="1529.7916666666665" y="570">2026-02-15</text><rect fill="#4DD2FF" height="372.1707818930041" width="30" x="1550.2083333333333" y="177.82921810699588" /><text fill="white" font-size="12" text-anchor="middle" x="1565.2083333333333" y="172.82921810699588">1447</text><text fill="white" font-size="12" text-anchor="middle" transform="rotate(-45,1565.2083333333333,570)" x="1565.2083333333333" y="570">2026-02-22</text><rect fill="#4DD2FF" height="309.1563786008231" width="30" x="1585.6249999999998" y="240.84362139917693" /><text fill="white" font-size="12" text-anchor="middle" x="1600.6249999999998" y="235.84362139917693">1202</text><text fill="white" font-size="12" text-anchor="middle" transform="rotate(-45,1600.6249999999998,570)" x="1600.6249999999998" y="570">2026-03-01</text><rect fill="#4DD2FF" height="209.619341563786" width="30" x="1621.0416666666665" y="340.380658436214" /><text fill="white" font-size="12" text-anchor="middle" x="1636.0416666666665" y="335.380658436214">815</text><text fill="white" font-size="12" text-anchor="middle" transform="rotate(-45,1636.0416666666665,570)" x="1636.0416666666665" y="570">2026-03-08</text><rect fill="#4DD2FF" height="139.6604938271605" width="30" x="1656.4583333333333" y="410.3395061728395" /><text fill="white" font-size="12" text-anchor="middle" x="1671.4583333333333" y="405.3395061728395">543</text><text fill="white" font-size="12" text-anchor="middle" transform="rotate(-45,1671.4583333333333,570)" x="1671.4583333333333" y="570">2026-03-15</text><rect fill="#4DD2FF" height="128.08641975308643" width="30" x="1691.8749999999998" y="421.91358024691357" /><text fill="white" font-size="12" text-anchor="middle" x="1706.8749999999998" y="416.91358024691357">498</text><text fill="white" font-size="12" text-anchor="middle" transform="rotate(-45,1706.8749999999998,570)" x="1706.8749999999998" y="570">2026-03-22</text><rect fill="#4DD2FF" height="53.49794238683128" width="30" x="1727.2916666666665" y="496.50205761316874" /><text fill="white" font-size="12" text-anchor="middle" x="1742.2916666666665" y="491.50205761316874">208</text><text fill="white" font-size="12" text-anchor="middle" transform="rotate(-45,1742.2916666666665,570)" x="1742.2916666666665" y="570">2026-03-29</text><line stroke="white" x1="60" x2="60" y1="50" y2="550" /><line stroke="white" x1="60" x2="1760" y1="550" y2="550" /></svg>