<?xml version="1.0" encoding="utf-8" ?>
<svg baseProfile="full" height="600" version="1.1" width="1800" xmlns="http://www.w3.org/2000/svg" xmlns:ev="http://www.w3.org/2001/xml-events" xmlns:xlink="http://www.w3.org/1999/xlink"><defs /><rect fill="#222222" height="100%" width="100%" x="0" y="0" /><text fill="white" font-size="20" text-anchor="middle" x="900.0" y="30">Weekly Totals (Last 52 Weeks)</text><rect fill="#4DD2FF" height="67.12962962962963" width="30" x="66.25" y="482.8703703703704" /><text fill="white" font-size="12" text-anchor="middle" x="81.25" y="477.8703703703704">261</text><text fill="white" font-size="12" text-anchor="middle" transform="rotate(-45,81.25,570)" x="81.25" y="570">2025-05-04</text><rect fill="#4DD2FF" height="500.0" width="30" x="108.75" y="50.0" /><text fill="white" font-size="12" text-anchor="middle" x="123.75" y="45.0">1944</text><text fill="white" font-size="12" text-anchor="middle" transform="rotate(-45,123.75,570)" x="123.75" y="570">2025-05-11</text><rect fill="#4DD2FF" height="380.65843621399176" width="30" x="151.25" y="169.34156378600824" /><text fill="white" font-size="12" text-anchor="middle" x="166.25" y="164.34156378600824">1480</text><text fill="white" font-size="12" text-anchor="middle" transform="rotate(-45,166.25,570)" x="166.25" y="570">2025-05-18</text><rect fill="#4DD2FF" height="450.61728395061726" width="30" x="193.75" y="99.38271604938274" /><text fill="white" font-size="12" text-anchor="middle" x="208.75" y="94.38271604938274">1752</text><text fill="white" font-size="12" text-anchor="middle" transform="rotate(-45,208.75,570)" x="208.75" y="570">2025-05-25</text><rect fill="#4DD2FF" height="307.61316872427983" width="30" x="236.25" y="242.38683127572017" /><text fill="white" font-size="12" text-anchor="middle" x="251.25" y="237.38683127572017">1196</text><text fill="white" font-size="12" text-anchor="middle" transform="rotate(-45,251.25,570)" x="251.25" y="570">2025-06-01</text><rect fill="#4DD2FF" height="301.6975308641975" width="30" x="278.75" y="248.30246913580248" /><text fill="white" font-size="12" text-anchor="middle" x="293.75" y="243.30246913580248">1173</text><text fill="white" font-size="12" text-anchor="middle" transform="rotate(-45,293.75,570)" x="293.75" y="570">2025-06-08</text><rect fill="#4DD2FF" height="284.72222222222223" width="30" x="321.25" y="265.27777777777777" /><text fill="white" font-size="12" text-anchor="middle" x="336.25" y="260.27777777777777">1107</text><text fill="white" font-size="12" text-anchor="middle" transform="rotate(-45,336.25,570)" x="336.25" y="570">2025-06-15</text><rect fill="#4DD2FF" height="323.55967078189303" width="30" x="363.75" y="226.44032921810697" /><text fill="white" font-size="12" text-anchor="middle" x="378.75" y="221.44032921810697">1258</text><text fill="white" font-size="12" text-anchor="middle" transform="rotate(-45,378.75,570)" x="378.75" y="570">2025-06-22</text><rect fill="#4DD2FF" height="211.41975308641975" width="30" x="406.25" y="338.58024691358025" /><text fill="white" font-size="12" text-anchor="middle" x="421.25" y="333.58024691358025">822</text><text fill="white" font-size="12" text-anchor="middle" transform="rotate(-45,421.25,570)" x="421.25" y="570">2025-06-29</text><rect fill="#4DD2FF" height="141.71810699588477" width="30" x="448.75" y="408.2818930041152" /><text fill="white" font-size="12" text-anchor="middle" x="463.75" y="403.2818930041152">551</text><text fill="white" font-size="12" text-anchor="middle" transform="rotate(-45,463.75,570)" x="463.75" y="570">2025-07-06</text><rect fill="#4DD2FF" height="284.72222222222223" width="30" x="491.25" y="265.27777777777777" /><text fill="white" font-size="12" text-anchor="middle" x="506.25" y="260.27777777777777">1107</text><text fill="white" font-size="12" text-anchor="middle" transform="rotate(-45,506.25,570)" x="506.25" y="570">2025-07-13</text><rect fill="#4DD2FF" height="355.9670781893004" width="30" x="533.75" y="194.03292181069958" /><text fill="white" font-size="12" text-anchor="middle" x="548.75" y="189.03292181069958">1384</text><text fill="white" font-size="12" text-anchor="middle" transform="rotate(-45,548.75,570)" x="548.75" y="570">2025-07-20</text><rect fill="#4DD2FF" height="96.19341563786008" width="30" x="576.25" y="453.8065843621399" /><text fill="white" font-size="12" text-anchor="middle" x="591.25" y="448.8065843621399">374</text><text fill="white" font-size="12" text-anchor="middle" transform="rotate(-45,591.25,570)" x="591.25" y="570">2025-07-27</text><rect fill="#4DD2FF" height="195.98765432098767" width="30" x="618.75" y="354.01234567901236" /><text fill="white" font-size="12" text-anchor="middle" x="633.75" y="349.01234567901236">762</text><text fill="white" font-size="12" text-anchor="middle" transform="rotate(-45,633.75,570)" x="633.75" y="570">2025-08-03</text><rect fill="#4DD2FF" height="217.33539094650206" width="30" x="661.25" y="332.66460905349794" /><text fill="white" font-size="12" text-anchor="middle" x="676.25" y="327.66460905349794">845</text><text fill="white" font-size="12" text-anchor="middle" transform="rotate(-45,676.25,570)" x="676.25" y="570">2025-08-10</text><rect fill="#4DD2FF" height="224.53703703703704" width="30" x="703.75" y="325.46296296296293" /><text fill="white" font-size="12" text-anchor="middle" x="718.75" y="320.46296296296293">873</text><text fill="white" font-size="12" text-anchor="middle" transform="rotate(-45,718.75,570)" x="718.75" y="570">2025-08-17</text><rect fill="#4DD2FF" height="153.54938271604937" width="30" x="746.25" y="396.45061728395063" /><text fill="white" font-size="12" text-anchor="middle" x="761.25" y="391.45061728395063">597</text><text fill="white" font-size="12" text-anchor="middle" transform="rotate(-45,761.25,570)" x="761.25" y="570">2025-08-24</text><rect fill="#4DD2FF" height="180.0411522633745" width="30" x="788.75" y="369.9588477366255" /><text fill="white" font-size="12" text-anchor="middle" x="803.75" y="364.9588477366255">700</text><text fill="white" font-size="12" text-anchor="middle" transform="rotate(-45,803.75,570)" x="803.75" y="570">2025-08-31</text><rect fill="#4DD2FF" height="210.13374485596708" width="30" x="831.25" y="339.86625514403295" /><text fill="white" font-size="12" text-anchor="middle" x="846.25" y="334.86625514403295">817</text><text fill="white" font-size="12" text-anchor="middle" transform="rotate(-45,846.25,570)" x="846.25" y="570">2025-09-07</text><rect fill="#4DD2FF" height="237.13991769547323" width="30" x="873.75" y="312.86008230452677" /><text fill="white" font-size="12" text-anchor="middle" x="888.75" y="307.86008230452677">922</text><text fill="white" font-size="12" text-anchor="middle" transform="rotate(-45,888.75,570)" x="888.75" y="570">2025-09-14</text><rect fill="#4DD2FF" height="137.08847736625515" width="30" x="916.25" y="412.9115226337449" /><text fill="white" font-size="12" text-anchor="middle" x="931.25" y="407.9115226337449">533</text><text fill="white" font-size="12" text-anchor="middle" transform="rotate(-45,931.25,570)" x="931.25" y="570">2025-09-21</text><rect fill="#4DD2FF" height="160.49382716049382" width="30" x="958.75" y="389.5061728395062" /><text fill="white" font-size="12" text-anchor="middle" x="973.75" y="384.5061728395062">624</text><text fill="white" font-size="12" text-anchor="middle" transform="rotate(-45,973.75,570)" x="973.75" y="570">2025-09-28</text><rect fill="#4DD2FF" height="197.53086419753086" width="30" x="1001.25" y="352.46913580246917" /><text fill="white" font-size="12" text-anchor="middle" x="1016.25" y="347.46913580246917">768</text><text fill="white" font-size="12" text-anchor="middle" transform="rotate(-45,1016.25,570)" x="1016.25" y="570">2025-10-05</text><rect fill="#4DD2FF" height="303.24074074074076" width="30" x="1043.75" y="246.75925925925924" /><text fill="white" font-size="12" text-anchor="middle" x="1058.75" y="241.75925925925924">1179</text><text fill="white" font-size="12" text-anchor="middle" transform="rotate(-45,1058.75,570)" x="1058.75" y="570">2025-10-12</text><rect fill="#4DD2FF" height="266.7181069958848" width="30" x="1086.25" y="283.2818930041152" /><text fill="white" font-size="12" text-anchor="middle" x="1101.25" y="278.2818930041152">1037</text><text fill="white" font-size="12" text-anchor="middle" transform="rotate(-45,1101.25,570)" x="1101.25" y="570">2025-10-19</text><rect fill="#4DD2FF" height="184.15637860082305" width="30" x="1128.75" y="365.843621399177" /><text fill="white" font-size="12" text-anchor="middle" x="1143.75" y="360.843621399177">716</text><text fill="white" font-size="12" text-anchor="middle" transform="rotate(-45,1143.75,570)" x="1143.75" y="570">2025-10-26</text><rect fill="#4DD2FF" height="211.41975308641975" width="30" x="1171.25" y="338.58024691358025" /><text fill="white" font-size="12" text-anchor="middle" x="1186.25" y="333.58024691358025">822</text><text fill="white" font-size="12" text-anchor="middle" transform="rotate(-45,1186.25,570)" x="1186.25" y="570">2025-11-02</text><rect fill="#4DD2FF" height="122.94238683127571" width="30" x="1213.75" y="427.0576131687243" /><text fill="white" font-size="12" text-anchor="middle" x="1228.75" y="422.0576131687243">478</text><text fill="white" font-size="12" text-anchor="middle" transform="rotate(-45,1228.75,570)" x="1228.75" y="570">2025-11-09</text><rect fill="#4DD2FF" height="307.8703703703703" width="30" x="1256.25" y="242.12962962962968" /><text fill="white" font-size="12" text-anchor="middle" x="1271.25" y="237.12962962962968">1197</text><text fill="white" font-size="12" text-anchor="middle" transform="rotate(-45,1271.25,570)" x="1271.25" y="570">2025-11-16</text><rect fill="#4DD2FF" height="10.2880658436214" width="30" x="1298.75" y="539.7119341563786" /><text fill="white" font-size="12" text-anchor="middle" x="1313.75" y="534.7119341563786">40</text><text fill="white" font-size="12" text-anchor="middle" transform="rotate(-45,1313.75,570)" x="1313.75" y="570">2025-11-23</text><rect fill="#4DD2FF" height="111.88271604938271" width="30" x="1341.25" y="438.1172839506173" /><text fill="white" font-size="12" text-anchor="middle" x="1356.25" y="433.1172839506173">435</text><text fill="white" font-size="12" text-anchor="middle" transform="rotate(-45,1356.25,570)" x="1356.25" y="570">2025-11-30</text><rect fill="#4DD2FF" height="66.61522633744856" width="30" x="1383.75" y="483.3847736625514" /><text fill="white" font-size="12" text-anchor="middle" x="1398.75" y="478.3847736625514">259</text><text fill="white" font-size="12" text-anchor="middle" transform="rotate(-45,1398.75,570)" x="1398.75" y="570">2025-12-07</text><rect fill="#4DD2FF" height="342.5925925925926" width="30" x="1426.25" y="207.4074074074074" /><text fill="white" font-size="12" text-anchor="middle" x="1441.25" y="202.4074074074074">1332</text><text fill="white" font-size="12" text-anchor="middle" transform="rotate(-45,1441.25,570)" x="1441.25" y="570">2025-12-14</text><rect fill="#4DD2FF" height="326.13168724279836" width="30" x="1468.75" y="223.86831275720164" /><text fill="white" font-size="12" text-anchor="middle" x="1483.75" y="218.86831275720164">1268</text><text fill="white" font-size="12" text-anchor="middle" transform="rotate(-45,1483.75,570)" x="1483.75" y="570">2025-12-21</text><rect fill="#4DD2FF" height="369.34156378600824" width="30" x="1511.25" y="180.65843621399176" /><text fill="white" font-size="12" text-anchor="middle" x="1526.25" y="175.65843621399176">1436</text><text fill="white" font-size="12" text-anchor="middle" transform="rotate(-45,1526.25,570)" x="1526.25" y="570">2025-12-28</text><rect fill="#4DD2FF" height="359.82510288065845" width="30" x="1553.75" y="190.17489711934155" /><text fill="white" font-size="12" text-anchor="middle" x="1568.75" y="185.17489711934155">1399</text><text fill="white" font-size="12" text-anchor="middle" transform="rotate(-45,1568.75,570)" x="1568.75" y="570">2026-01-04</text><rect fill="#4DD2FF" height="382.45884773662556" width="30" x="1596.25" y="167.54115226337444" /><text fill="white" font-size="12" text-anchor="middle" x="1611.25" y="162.54115226337444">1487</text><text fill="white" font-size="12" text-anchor="middle" transform="rotate(-45,1611.25,570)" x="1611.25" y="570">2026-01-11</text><rect fill="#4DD2FF" height="336.1625514403292" width="30" x="1638.75" y="213.8374485596708" /><text fill="white" font-size="12" text-anchor="middle" x="1653.75" y="208.8374485596708">1307</text><text fill="white" font-size="12" text-anchor="middle" transform="rotate(-45,1653.75,570)" x="1653.75" y="570">2026-01-18</text><rect fill="#4DD2FF" height="331.79012345679007" width="30" x="1681.25" y="218.20987654320993" /><text fill="white" font-size="12" text-anchor="middle" x="1696.25" y="213.20987654320993">1290</text><text fill="white" font-size="12" text-anchor="middle" transform="rotate(-45,1696.25,570)" x="1696.25" y="570">2026-01-25</text><rect fill="#4DD2FF" height="298.86831275720164" width="30" x="1723.75" y="251.13168724279836" /><text fill="white" font-size="12" text-anchor="middle" x="1738.75" y="246.13168724279836">1162</text><text fill="white" font-size="12" text-anchor="middle" transform="rotate(-45,1738.75,570)" x="1738.75" y="570">2026-02-01</text><line stroke="white" x1="60" x2="60" y1="50" y2="550" /><line stroke="white" x1="60" x2="1760" y1="550" y2="550" /></svg>