<?xml version="1.0" encoding="utf-8" ?>
<svg baseProfile="full" height="600" version="1.1" width="1800" xmlns="http://www.w3.org/2000/svg" xmlns:ev="http://www.w3.org/2001/xml-events" xmlns:xlink="http://www.w3.org/1999/xlink"><defs /><rect fill="#222222" height="100%" width="100%" x="0" y="0" /><text fill="white" font-size="20" text-anchor="middle" x="900.0" y="30">Weekly Totals (Last 52 Weeks)</text><rect fill="#4DD2FF" height="67.12962962962963" width="30" x="70.75757575757575" y="482.8703703703704" /><text fill="white" font-size="12" text-anchor="middle" x="85.75757575757575" y="477.8703703703704">261</text><text fill="white" font-size="12" text-anchor="middle" transform="rotate(-45,85.75757575757575,570)" x="85.75757575757575" y="570">2025-05-04</text><rect fill="#4DD2FF" height="500.0" width="30" x="122.27272727272728" y="50.0" /><text fill="white" font-size="12" text-anchor="middle" x="137.27272727272728" y="45.0">1944</text><text fill="white" font-size="12" text-anchor="middle" transform="rotate(-45,137.27272727272728,570)" x="137.27272727272728" y="570">2025-05-11</text><rect fill="#4DD2FF" height="380.65843621399176" width="30" x="173.78787878787878" y="169.34156378600824" /><text fill="white" font-size="12" text-anchor="middle" x="188.78787878787878" y="164.34156378600824">1480</text><text fill="white" font-size="12" text-anchor="middle" transform="rotate(-45,188.78787878787878,570)" x="188.78787878787878" y="570">2025-05-18</text><rect fill="#4DD2FF" height="450.61728395061726" width="30" x="225.3030303030303" y="99.38271604938274" /><text fill="white" font-size="12" text-anchor="middle" x="240.3030303030303" y="94.38271604938274">1752</text><text fill="white" font-size="12" text-anchor="middle" transform="rotate(-45,240.3030303030303,570)" x="240.3030303030303" y="570">2025-05-25</text><rect fill="#4DD2FF" height="307.61316872427983" width="30" x="276.8181818181818" y="242.38683127572017" /><text fill="white" font-size="12" text-anchor="middle" x="291.8181818181818" y="237.38683127572017">1196</text><text fill="white" font-size="12" text-anchor="middle" transform="rotate(-45,291.8181818181818,570)" x="291.8181818181818" y="570">2025-06-01</text><rect fill="#4DD2FF" height="301.6975308641975" width="30" x="328.3333333333333" y="248.30246913580248" /><text fill="white" font-size="12" text-anchor="middle" x="343.3333333333333" y="243.30246913580248">1173</text><text fill="white" font-size="12" text-anchor="middle" transform="rotate(-45,343.3333333333333,570)" x="343.3333333333333" y="570">2025-06-08</text><rect fill="#4DD2FF" height="284.72222222222223" width="30" x="379.8484848484849" y="265.27777777777777" /><text fill="white" font-size="12" text-anchor="middle" x="394.8484848484849" y="260.27777777777777">1107</text><text fill="white" font-size="12" text-anchor="middle" transform="rotate(-45,394.8484848484849,570)" x="394.8484848484849" y="570">2025-06-15</text><rect fill="#4DD2FF" height="323.55967078189303" width="30" x="431.3636363636364" y="226.44032921810697" /><text fill="white" font-size="12" text-anchor="middle" x="446.3636363636364" y="221.44032921810697">1258</text><text fill="white" font-size="12" text-anchor="middle" transform="rotate(-45,446.3636363636364,570)" x="446.3636363636364" y="570">2025-06-22</text><rect fill="#4DD2FF" height="211.41975308641975" width="30" x="482.8787878787879" y="338.58024691358025" /><text fill="white" font-size="12" text-anchor="middle" x="497.8787878787879" y="333.58024691358025">822</text><text fill="white" font-size="12" text-anchor="middle" transform="rotate(-45,497.8787878787879,570)" x="497.8787878787879" y="570">2025-06-29</text><rect fill="#4DD2FF" height="141.71810699588477" width="30" x="534.3939393939394" y="408.2818930041152" /><text fill="white" font-size="12" text-anchor="middle" x="549.3939393939394" y="403.2818930041152">551</text><text fill="white" font-size="12" text-anchor="middle" transform="rotate(-45,549.3939393939394,570)" x="549.3939393939394" y="570">2025-07-06</text><rect fill="#4DD2FF" height="284.72222222222223" width="30" x="585.9090909090909" y="265.27777777777777" /><text fill="white" font-size="12" text-anchor="middle" x="600.9090909090909" y="260.27777777777777">1107</text><text fill="white" font-size="12" text-anchor="middle" transform="rotate(-45,600.9090909090909,570)" x="600.9090909090909" y="570">2025-07-13</text><rect fill="#4DD2FF" height="355.9670781893004" width="30" x="637.4242424242424" y="194.03292181069958" /><text fill="white" font-size="12" text-anchor="middle" x="652.4242424242424" y="189.03292181069958">1384</text><text fill="white" font-size="12" text-anchor="middle" transform="rotate(-45,652.4242424242424,570)" x="652.4242424242424" y="570">2025-07-20</text><rect fill="#4DD2FF" height="96.19341563786008" width="30" x="688.939393939394" y="453.8065843621399" /><text fill="white" font-size="12" text-anchor="middle" x="703.939393939394" y="448.8065843621399">374</text><text fill="white" font-size="12" text-anchor="middle" transform="rotate(-45,703.939393939394,570)" x="703.939393939394" y="570">2025-07-27</text><rect fill="#4DD2FF" height="195.98765432098767" width="30" x="740.4545454545455" y="354.01234567901236" /><text fill="white" font-size="12" text-anchor="middle" x="755.4545454545455" y="349.01234567901236">762</text><text fill="white" font-size="12" text-anchor="middle" transform="rotate(-45,755.4545454545455,570)" x="755.4545454545455" y="570">2025-08-03</text><rect fill="#4DD2FF" height="217.33539094650206" width="30" x="791.969696969697" y="332.66460905349794" /><text fill="white" font-size="12" text-anchor="middle" x="806.969696969697" y="327.66460905349794">845</text><text fill="white" font-size="12" text-anchor="middle" transform="rotate(-45,806.969696969697,570)" x="806.969696969697" y="570">2025-08-10</text><rect fill="#4DD2FF" height="224.53703703703704" width="30" x="843.4848484848485" y="325.46296296296293" /><text fill="white" font-size="12" text-anchor="middle" x="858.4848484848485" y="320.46296296296293">873</text><text fill="white" font-size="12" text-anchor="middle" transform="rotate(-45,858.4848484848485,570)" x="858.4848484848485" y="570">2025-08-17</text><rect fill="#4DD2FF" height="153.54938271604937" width="30" x="895.0" y="396.45061728395063" /><text fill="white" font-size="12" text-anchor="middle" x="910.0" y="391.45061728395063">597</text><text fill="white" font-size="12" text-anchor="middle" transform="rotate(-45,910.0,570)" x="910.0" y="570">2025-08-24</text><rect fill="#4DD2FF" height="180.0411522633745" width="30" x="946.5151515151515" y="369.9588477366255" /><text fill="white" font-size="12" text-anchor="middle" x="961.5151515151515" y="364.9588477366255">700</text><text fill="white" font-size="12" text-anchor="middle" transform="rotate(-45,961.5151515151515,570)" x="961.5151515151515" y="570">2025-08-31</text><rect fill="#4DD2FF" height="210.13374485596708" width="30" x="998.030303030303" y="339.86625514403295" /><text fill="white" font-size="12" text-anchor="middle" x="1013.030303030303" y="334.86625514403295">817</text><text fill="white" font-size="12" text-anchor="middle" transform="rotate(-45,1013.030303030303,570)" x="1013.030303030303" y="570">2025-09-07</text><rect fill="#4DD2FF" height="237.13991769547323" width="30" x="1049.5454545454545" y="312.86008230452677" /><text fill="white" font-size="12" text-anchor="middle" x="1064.5454545454545" y="307.86008230452677">922</text><text fill="white" font-size="12" text-anchor="middle" transform="rotate(-45,1064.5454545454545,570)" x="1064.5454545454545" y="570">2025-09-14</text><rect fill="#4DD2FF" height="137.08847736625515" width="30" x="1101.060606060606" y="412.9115226337449" /><text fill="white" font-size="12" text-anchor="middle" x="1116.060606060606" y="407.9115226337449">533</text><text fill="white" font-size="12" text-anchor="middle" transform="rotate(-45,1116.060606060606,570)" x="1116.060606060606" y="570">2025-09-21</text><rect fill="#4DD2FF" height="160.49382716049382" width="30" x="1152.5757575757575" y="389.5061728395062" /><text fill="white" font-size="12" text-anchor="middle" x="1167.5757575757575" y="384.5061728395062">624</text><text fill="white" font-size="12" text-anchor="middle" transform="rotate(-45,1167.5757575757575,570)" x="1167.5757575757575" y="570">2025-09-28</text><rect fill="#4DD2FF" height="197.53086419753086" width="30" x="1204.090909090909" y="352.46913580246917" /><text fill="white" font-size="12" text-anchor="middle" x="1219.090909090909" y="347.46913580246917">768</text><text fill="white" font-size="12" text-anchor="middle" transform="rotate(-45,1219.090909090909,570)" x="1219.090909090909" y="570">2025-10-05</text><rect fill="#4DD2FF" height="303.24074074074076" width="30" x="1255.6060606060605" y="246.75925925925924" /><text fill="white" font-size="12" text-anchor="middle" x="1270.6060606060605" y="241.75925925925924">1179</text><text fill="white" font-size="12" text-anchor="middle" transform="rotate(-45,1270.6060606060605,570)" x="1270.6060606060605" y="570">2025-10-12</text><rect fill="#4DD2FF" height="266.7181069958848" width="30" x="1307.1212121212122" y="283.2818930041152" /><text fill="white" font-size="12" text-anchor="middle" x="1322.1212121212122" y="278.2818930041152">1037</text><text fill="white" font-size="12" text-anchor="middle" transform="rotate(-45,1322.1212121212122,570)" x="1322.1212121212122" y="570">2025-10-19</text><rect fill="#4DD2FF" height="184.15637860082305" width="30" x="1358.6363636363637" y="365.843621399177" /><text fill="white" font-size="12" text-anchor="middle" x="1373.6363636363637" y="360.843621399177">716</text><text fill="white" font-size="12" text-anchor="middle" transform="rotate(-45,1373.6363636363637,570)" x="1373.6363636363637" y="570">2025-10-26</text><rect fill="#4DD2FF" height="211.41975308641975" width="30" x="1410.1515151515152" y="338.58024691358025" /><text fill="white" font-size="12" text-anchor="middle" x="1425.1515151515152" y="333.58024691358025">822</text><text fill="white" font-size="12" text-anchor="middle" transform="rotate(-45,1425.1515151515152,570)" x="1425.1515151515152" y="570">2025-11-02</text><rect fill="#4DD2FF" height="122.94238683127571" width="30" x="1461.6666666666667" y="427.0576131687243" /><text fill="white" font-size="12" text-anchor="middle" x="1476.6666666666667" y="422.0576131687243">478</text><text fill="white" font-size="12" text-anchor="middle" transform="rotate(-45,1476.6666666666667,570)" x="1476.6666666666667" y="570">2025-11-09</text><rect fill="#4DD2FF" height="307.8703703703703" width="30" x="1513.1818181818182" y="242.12962962962968" /><text fill="white" font-size="12" text-anchor="middle" x="1528.1818181818182" y="237.12962962962968">1197</text><text fill="white" font-size="12" text-anchor="middle" transform="rotate(-45,1528.1818181818182,570)" x="1528.1818181818182" y="570">2025-11-16</text><rect fill="#4DD2FF" height="10.2880658436214" width="30" x="1564.6969696969697" y="539.7119341563786" /><text fill="white" font-size="12" text-anchor="middle" x="1579.6969696969697" y="534.7119341563786">40</text><text fill="white" font-size="12" text-anchor="middle" transform="rotate(-45,1579.6969696969697,570)" x="1579.6969696969697" y="570">2025-11-23</text><rect fill="#4DD2FF" height="111.88271604938271" width="30" x="1616.2121212121212" y="438.1172839506173" /><text fill="white" font-size="12" text-anchor="middle" x="1631.2121212121212" y="433.1172839506173">435</text><text fill="white" font-size="12" text-anchor="middle" transform="rotate(-45,1631.2121212121212,570)" x="1631.2121212121212" y="570">2025-11-30</text><rect fill="#4DD2FF" height="66.61522633744856" width="30" x="1667.7272727272727" y="483.3847736625514" /><text fill="white" font-size="12" text-anchor="middle" x="1682.7272727272727" y="478.3847736625514">259</text><text fill="white" font-size="12" text-anchor="middle" transform="rotate(-45,1682.7272727272727,570)" x="1682.7272727272727" y="570">2025-12-07</text><rect fill="#4DD2FF" height="92.33539094650206" width="30" x="1719.2424242424242" y="457.66460905349794" /><text fill="white" font-size="12" text-anchor="middle" x="1734.2424242424242" y="452.66460905349794">359</text><text fill="white" font-size="12" text-anchor="middle" transform="rotate(-45,1734.2424242424242,570)" x="1734.2424242424242" y="570">2025-12-14</text><line stroke="white" x1="60" x2="60" y1="50" y2="550" /><line stroke="white" x1="60" x2="1760" y1="550" y2="550" /></svg>