<?xml version="1.0" encoding="utf-8" ?>
<svg baseProfile="full" height="600" version="1.1" width="1800" xmlns="http://www.w3.org/2000/svg" xmlns:ev="http://www.w3.org/2001/xml-events" xmlns:xlink="http://www.w3.org/1999/xlink"><defs /><rect fill="#222222" height="100%" width="100%" x="0" y="0" /><text fill="white" font-size="20" text-anchor="middle" x="900.0" y="30">Weekly Totals (Last 52 Weeks)</text><rect fill="#4DD2FF" height="67.12962962962963" width="27.692307692307693" x="62.5" y="482.8703703703704" /><text fill="white" font-size="12" text-anchor="middle" x="76.34615384615384" y="477.8703703703704">261</text><text fill="white" font-size="12" text-anchor="middle" transform="rotate(-45,76.34615384615384,570)" x="76.34615384615384" y="570">2025-05-04</text><rect fill="#4DD2FF" height="500.0" width="27.692307692307693" x="95.1923076923077" y="50.0" /><text fill="white" font-size="12" text-anchor="middle" x="109.03846153846155" y="45.0">1944</text><text fill="white" font-size="12" text-anchor="middle" transform="rotate(-45,109.03846153846155,570)" x="109.03846153846155" y="570">2025-05-11</text><rect fill="#4DD2FF" height="380.65843621399176" width="27.692307692307693" x="127.88461538461539" y="169.34156378600824" /><text fill="white" font-size="12" text-anchor="middle" x="141.73076923076923" y="164.34156378600824">1480</text><text fill="white" font-size="12" text-anchor="middle" transform="rotate(-45,141.73076923076923,570)" x="141.73076923076923" y="570">2025-05-18</text><rect fill="#4DD2FF" height="450.61728395061726" width="27.692307692307693" x="160.5769230769231" y="99.38271604938274" /><text fill="white" font-size="12" text-anchor="middle" x="174.42307692307693" y="94.38271604938274">1752</text><text fill="white" font-size="12" text-anchor="middle" transform="rotate(-45,174.42307692307693,570)" x="174.42307692307693" y="570">2025-05-25</text><rect fill="#4DD2FF" height="307.61316872427983" width="27.692307692307693" x="193.26923076923077" y="242.38683127572017" /><text fill="white" font-size="12" text-anchor="middle" x="207.1153846153846" y="237.38683127572017">1196</text><text fill="white" font-size="12" text-anchor="middle" transform="rotate(-45,207.1153846153846,570)" x="207.1153846153846" y="570">2025-06-01</text><rect fill="#4DD2FF" height="301.6975308641975" width="27.692307692307693" x="225.96153846153845" y="248.30246913580248" /><text fill="white" font-size="12" text-anchor="middle" x="239.8076923076923" y="243.30246913580248">1173</text><text fill="white" font-size="12" text-anchor="middle" transform="rotate(-45,239.8076923076923,570)" x="239.8076923076923" y="570">2025-06-08</text><rect fill="#4DD2FF" height="284.72222222222223" width="27.692307692307693" x="258.6538461538462" y="265.27777777777777" /><text fill="white" font-size="12" text-anchor="middle" x="272.50000000000006" y="260.27777777777777">1107</text><text fill="white" font-size="12" text-anchor="middle" transform="rotate(-45,272.50000000000006,570)" x="272.50000000000006" y="570">2025-06-15</text><rect fill="#4DD2FF" height="323.55967078189303" width="27.692307692307693" x="291.34615384615387" y="226.44032921810697" /><text fill="white" font-size="12" text-anchor="middle" x="305.19230769230774" y="221.44032921810697">1258</text><text fill="white" font-size="12" text-anchor="middle" transform="rotate(-45,305.19230769230774,570)" x="305.19230769230774" y="570">2025-06-22</text><rect fill="#4DD2FF" height="211.41975308641975" width="27.692307692307693" x="324.03846153846155" y="338.58024691358025" /><text fill="white" font-size="12" text-anchor="middle" x="337.8846153846154" y="333.58024691358025">822</text><text fill="white" font-size="12" text-anchor="middle" transform="rotate(-45,337.8846153846154,570)" x="337.8846153846154" y="570">2025-06-29</text><rect fill="#4DD2FF" height="141.71810699588477" width="27.692307692307693" x="356.7307692307692" y="408.2818930041152" /><text fill="white" font-size="12" text-anchor="middle" x="370.5769230769231" y="403.2818930041152">551</text><text fill="white" font-size="12" text-anchor="middle" transform="rotate(-45,370.5769230769231,570)" x="370.5769230769231" y="570">2025-07-06</text><rect fill="#4DD2FF" height="284.72222222222223" width="27.692307692307693" x="389.4230769230769" y="265.27777777777777" /><text fill="white" font-size="12" text-anchor="middle" x="403.2692307692308" y="260.27777777777777">1107</text><text fill="white" font-size="12" text-anchor="middle" transform="rotate(-45,403.2692307692308,570)" x="403.2692307692308" y="570">2025-07-13</text><rect fill="#4DD2FF" height="355.9670781893004" width="27.692307692307693" x="422.11538461538464" y="194.03292181069958" /><text fill="white" font-size="12" text-anchor="middle" x="435.9615384615385" y="189.03292181069958">1384</text><text fill="white" font-size="12" text-anchor="middle" transform="rotate(-45,435.9615384615385,570)" x="435.9615384615385" y="570">2025-07-20</text><rect fill="#4DD2FF" height="96.19341563786008" width="27.692307692307693" x="454.8076923076923" y="453.8065843621399" /><text fill="white" font-size="12" text-anchor="middle" x="468.6538461538462" y="448.8065843621399">374</text><text fill="white" font-size="12" text-anchor="middle" transform="rotate(-45,468.6538461538462,570)" x="468.6538461538462" y="570">2025-07-27</text><rect fill="#4DD2FF" height="195.98765432098767" width="27.692307692307693" x="487.5" y="354.01234567901236" /><text fill="white" font-size="12" text-anchor="middle" x="501.34615384615387" y="349.01234567901236">762</text><text fill="white" font-size="12" text-anchor="middle" transform="rotate(-45,501.34615384615387,570)" x="501.34615384615387" y="570">2025-08-03</text><rect fill="#4DD2FF" height="217.33539094650206" width="27.692307692307693" x="520.1923076923077" y="332.66460905349794" /><text fill="white" font-size="12" text-anchor="middle" x="534.0384615384615" y="327.66460905349794">845</text><text fill="white" font-size="12" text-anchor="middle" transform="rotate(-45,534.0384615384615,570)" x="534.0384615384615" y="570">2025-08-10</text><rect fill="#4DD2FF" height="224.53703703703704" width="27.692307692307693" x="552.8846153846155" y="325.46296296296293" /><text fill="white" font-size="12" text-anchor="middle" x="566.7307692307693" y="320.46296296296293">873</text><text fill="white" font-size="12" text-anchor="middle" transform="rotate(-45,566.7307692307693,570)" x="566.7307692307693" y="570">2025-08-17</text><rect fill="#4DD2FF" height="153.54938271604937" width="27.692307692307693" x="585.5769230769231" y="396.45061728395063" /><text fill="white" font-size="12" text-anchor="middle" x="599.4230769230769" y="391.45061728395063">597</text><text fill="white" font-size="12" text-anchor="middle" transform="rotate(-45,599.4230769230769,570)" x="599.4230769230769" y="570">2025-08-24</text><rect fill="#4DD2FF" height="180.0411522633745" width="27.692307692307693" x="618.2692307692308" y="369.9588477366255" /><text fill="white" font-size="12" text-anchor="middle" x="632.1153846153846" y="364.9588477366255">700</text><text fill="white" font-size="12" text-anchor="middle" transform="rotate(-45,632.1153846153846,570)" x="632.1153846153846" y="570">2025-08-31</text><rect fill="#4DD2FF" height="210.13374485596708" width="27.692307692307693" x="650.9615384615385" y="339.86625514403295" /><text fill="white" font-size="12" text-anchor="middle" x="664.8076923076923" y="334.86625514403295">817</text><text fill="white" font-size="12" text-anchor="middle" transform="rotate(-45,664.8076923076923,570)" x="664.8076923076923" y="570">2025-09-07</text><rect fill="#4DD2FF" height="237.13991769547323" width="27.692307692307693" x="683.6538461538462" y="312.86008230452677" /><text fill="white" font-size="12" text-anchor="middle" x="697.5" y="307.86008230452677">922</text><text fill="white" font-size="12" text-anchor="middle" transform="rotate(-45,697.5,570)" x="697.5" y="570">2025-09-14</text><rect fill="#4DD2FF" height="137.08847736625515" width="27.692307692307693" x="716.3461538461538" y="412.9115226337449" /><text fill="white" font-size="12" text-anchor="middle" x="730.1923076923076" y="407.9115226337449">533</text><text fill="white" font-size="12" text-anchor="middle" transform="rotate(-45,730.1923076923076,570)" x="730.1923076923076" y="570">2025-09-21</text><rect fill="#4DD2FF" height="160.49382716049382" width="27.692307692307693" x="749.0384615384615" y="389.5061728395062" /><text fill="white" font-size="12" text-anchor="middle" x="762.8846153846154" y="384.5061728395062">624</text><text fill="white" font-size="12" text-anchor="middle" transform="rotate(-45,762.8846153846154,570)" x="762.8846153846154" y="570">2025-09-28</text><rect fill="#4DD2FF" height="197.53086419753086" width="27.692307692307693" x="781.7307692307693" y="352.46913580246917" /><text fill="white" font-size="12" text-anchor="middle" x="795.5769230769231" y="347.46913580246917">768</text><text fill="white" font-size="12" text-anchor="middle" transform="rotate(-45,795.5769230769231,570)" x="795.5769230769231" y="570">2025-10-05</text><rect fill="#4DD2FF" height="303.24074074074076" width="27.692307692307693" x="814.4230769230769" y="246.75925925925924" /><text fill="white" font-size="12" text-anchor="middle" x="828.2692307692307" y="241.75925925925924">1179</text><text fill="white" font-size="12" text-anchor="middle" transform="rotate(-45,828.2692307692307,570)" x="828.2692307692307" y="570">2025-10-12</text><rect fill="#4DD2FF" height="266.7181069958848" width="27.692307692307693" x="847.1153846153846" y="283.2818930041152" /><text fill="white" font-size="12" text-anchor="middle" x="860.9615384615385" y="278.2818930041152">1037</text><text fill="white" font-size="12" text-anchor="middle" transform="rotate(-45,860.9615384615385,570)" x="860.9615384615385" y="570">2025-10-19</text><rect fill="#4DD2FF" height="184.15637860082305" width="27.692307692307693" x="879.8076923076924" y="365.843621399177" /><text fill="white" font-size="12" text-anchor="middle" x="893.6538461538462" y="360.843621399177">716</text><text fill="white" font-size="12" text-anchor="middle" transform="rotate(-45,893.6538461538462,570)" x="893.6538461538462" y="570">2025-10-26</text><rect fill="#4DD2FF" height="211.41975308641975" width="27.692307692307693" x="912.5" y="338.58024691358025" /><text fill="white" font-size="12" text-anchor="middle" x="926.3461538461538" y="333.58024691358025">822</text><text fill="white" font-size="12" text-anchor="middle" transform="rotate(-45,926.3461538461538,570)" x="926.3461538461538" y="570">2025-11-02</text><rect fill="#4DD2FF" height="122.94238683127571" width="27.692307692307693" x="945.1923076923077" y="427.0576131687243" /><text fill="white" font-size="12" text-anchor="middle" x="959.0384615384615" y="422.0576131687243">478</text><text fill="white" font-size="12" text-anchor="middle" transform="rotate(-45,959.0384615384615,570)" x="959.0384615384615" y="570">2025-11-09</text><rect fill="#4DD2FF" height="307.8703703703703" width="27.692307692307693" x="977.8846153846155" y="242.12962962962968" /><text fill="white" font-size="12" text-anchor="middle" x="991.7307692307693" y="237.12962962962968">1197</text><text fill="white" font-size="12" text-anchor="middle" transform="rotate(-45,991.7307692307693,570)" x="991.7307692307693" y="570">2025-11-16</text><rect fill="#4DD2FF" height="10.2880658436214" width="27.692307692307693" x="1010.5769230769231" y="539.7119341563786" /><text fill="white" font-size="12" text-anchor="middle" x="1024.423076923077" y="534.7119341563786">40</text><text fill="white" font-size="12" text-anchor="middle" transform="rotate(-45,1024.423076923077,570)" x="1024.423076923077" y="570">2025-11-23</text><rect fill="#4DD2FF" height="111.88271604938271" width="27.692307692307693" x="1043.269230769231" y="438.1172839506173" /><text fill="white" font-size="12" text-anchor="middle" x="1057.1153846153848" y="433.1172839506173">435</text><text fill="white" font-size="12" text-anchor="middle" transform="rotate(-45,1057.1153846153848,570)" x="1057.1153846153848" y="570">2025-11-30</text><rect fill="#4DD2FF" height="66.61522633744856" width="27.692307692307693" x="1075.9615384615386" y="483.3847736625514" /><text fill="white" font-size="12" text-anchor="middle" x="1089.8076923076924" y="478.3847736625514">259</text><text fill="white" font-size="12" text-anchor="middle" transform="rotate(-45,1089.8076923076924,570)" x="1089.8076923076924" y="570">2025-12-07</text><rect fill="#4DD2FF" height="342.5925925925926" width="27.692307692307693" x="1108.6538461538462" y="207.4074074074074" /><text fill="white" font-size="12" text-anchor="middle" x="1122.5" y="202.4074074074074">1332</text><text fill="white" font-size="12" text-anchor="middle" transform="rotate(-45,1122.5,570)" x="1122.5" y="570">2025-12-14</text><rect fill="#4DD2FF" height="326.13168724279836" width="27.692307692307693" x="1141.3461538461538" y="223.86831275720164" /><text fill="white" font-size="12" text-anchor="middle" x="1155.1923076923076" y="218.86831275720164">1268</text><text fill="white" font-size="12" text-anchor="middle" transform="rotate(-45,1155.1923076923076,570)" x="1155.1923076923076" y="570">2025-12-21</text><rect fill="#4DD2FF" height="369.34156378600824" width="27.692307692307693" x="1174.0384615384617" y="180.65843621399176" /><text fill="white" font-size="12" text-anchor="middle" x="1187.8846153846155" y="175.65843621399176">1436</text><text fill="white" font-size="12" text-anchor="middle" transform="rotate(-45,1187.8846153846155,570)" x="1187.8846153846155" y="570">2025-12-28</text><rect fill="#4DD2FF" height="359.82510288065845" width="27.692307692307693" x="1206.7307692307693" y="190.17489711934155" /><text fill="white" font-size="12" text-anchor="middle" x="1220.576923076923" y="185.17489711934155">1399</text><text fill="white" font-size="12" text-anchor="middle" transform="rotate(-45,1220.576923076923,570)" x="1220.576923076923" y="570">2026-01-04</text><rect fill="#4DD2FF" height="382.45884773662556" width="27.692307692307693" x="1239.423076923077" y="167.54115226337444" /><text fill="white" font-size="12" text-anchor="middle" x="1253.2692307692307" y="162.54115226337444">1487</text><text fill="white" font-size="12" text-anchor="middle" transform="rotate(-45,1253.2692307692307,570)" x="1253.2692307692307" y="570">2026-01-11</text><rect fill="#4DD2FF" height="336.1625514403292" width="27.692307692307693" x="1272.1153846153848" y="213.8374485596708" /><text fill="white" font-size="12" text-anchor="middle" x="1285.9615384615386" y="208.8374485596708">1307</text><text fill="white" font-size="12" text-anchor="middle" transform="rotate(-45,1285.9615384615386,570)" x="1285.9615384615386" y="570">2026-01-18</text><rect fill="#4DD2FF" height="331.79012345679007" width="27.692307692307693" x="1304.8076923076924" y="218.20987654320993" /><text fill="white" font-size="12" text-anchor="middle" x="1318.6538461538462" y="213.20987654320993">1290</text><text fill="white" font-size="12" text-anchor="middle" transform="rotate(-45,1318.6538461538462,570)" x="1318.6538461538462" y="570">2026-01-25</text><rect fill="#4DD2FF" height="314.5576131687243" width="27.692307692307693" x="1337.5" y="235.4423868312757" /><text fill="white" font-size="12" text-anchor="middle" x="1351.3461538461538" y="230.4423868312757">1223</text><text fill="white" font-size="12" text-anchor="middle" transform="rotate(-45,1351.3461538461538,570)" x="1351.3461538461538" y="570">2026-02-01</text><rect fill="#4DD2FF" height="366.51234567901236" width="27.692307692307693" x="1370.1923076923076" y="183.48765432098764" /><text fill="white" font-size="12" text-anchor="middle" x="1384.0384615384614" y="178.48765432098764">1425</text><text fill="white" font-size="12" text-anchor="middle" transform="rotate(-45,1384.0384615384614,570)" x="1384.0384615384614" y="570">2026-02-08</text><rect fill="#4DD2FF" height="280.3497942386831" width="27.692307692307693" x="1402.8846153846155" y="269.6502057613169" /><text fill="white" font-size="12" text-anchor="middle" x="1416.7307692307693" y="264.6502057613169">1090</text><text fill="white" font-size="12" text-anchor="middle" transform="rotate(-45,1416.7307692307693,570)" x="1416.7307692307693" y="570">2026-02-15</text><rect fill="#4DD2FF" height="372.1707818930041" width="27.692307692307693" x="1435.576923076923" y="177.82921810699588" /><text fill="white" font-size="12" text-anchor="middle" x="1449.423076923077" y="172.82921810699588">1447</text><text fill="white" font-size="12" text-anchor="middle" transform="rotate(-45,1449.423076923077,570)" x="1449.423076923077" y="570">2026-02-22</text><rect fill="#4DD2FF" height="309.1563786008231" width="27.692307692307693" x="1468.2692307692307" y="240.84362139917693" /><text fill="white" font-size="12" text-anchor="middle" x="1482.1153846153845" y="235.84362139917693">1202</text><text fill="white" font-size="12" text-anchor="middle" transform="rotate(-45,1482.1153846153845,570)" x="1482.1153846153845" y="570">2026-03-01</text><rect fill="#4DD2FF" height="209.619341563786" width="27.692307692307693" x="1500.9615384615386" y="340.380658436214" /><text fill="white" font-size="12" text-anchor="middle" x="1514.8076923076924" y="335.380658436214">815</text><text fill="white" font-size="12" text-anchor="middle" transform="rotate(-45,1514.8076923076924,570)" x="1514.8076923076924" y="570">2026-03-08</text><rect fill="#4DD2FF" height="139.6604938271605" width="27.692307692307693" x="1533.6538461538462" y="410.3395061728395" /><text fill="white" font-size="12" text-anchor="middle" x="1547.5" y="405.3395061728395">543</text><text fill="white" font-size="12" text-anchor="middle" transform="rotate(-45,1547.5,570)" x="1547.5" y="570">2026-03-15</text><rect fill="#4DD2FF" height="128.08641975308643" width="27.692307692307693" x="1566.3461538461538" y="421.91358024691357" /><text fill="white" font-size="12" text-anchor="middle" x="1580.1923076923076" y="416.91358024691357">498</text><text fill="white" font-size="12" text-anchor="middle" transform="rotate(-45,1580.1923076923076,570)" x="1580.1923076923076" y="570">2026-03-22</text><rect fill="#4DD2FF" height="139.6604938271605" width="27.692307692307693" x="1599.0384615384617" y="410.3395061728395" /><text fill="white" font-size="12" text-anchor="middle" x="1612.8846153846155" y="405.3395061728395">543</text><text fill="white" font-size="12" text-anchor="middle" transform="rotate(-45,1612.8846153846155,570)" x="1612.8846153846155" y="570">2026-03-29</text><rect fill="#4DD2FF" height="88.2201646090535" width="27.692307692307693" x="1631.7307692307693" y="461.7798353909465" /><text fill="white" font-size="12" text-anchor="middle" x="1645.576923076923" y="456.7798353909465">343</text><text fill="white" font-size="12" text-anchor="middle" transform="rotate(-45,1645.576923076923,570)" x="1645.576923076923" y="570">2026-05-03</text><rect fill="#4DD2FF" height="70.47325102880659" width="27.692307692307693" x="1664.423076923077" y="479.5267489711934" /><text fill="white" font-size="12" text-anchor="middle" x="1678.2692307692307" y="474.5267489711934">274</text><text fill="white" font-size="12" text-anchor="middle" transform="rotate(-45,1678.2692307692307,570)" x="1678.2692307692307" y="570">2026-05-10</text><rect fill="#4DD2FF" height="56.06995884773663" width="27.692307692307693" x="1697.1153846153848" y="493.93004115226336" /><text fill="white" font-size="12" text-anchor="middle" x="1710.9615384615386" y="488.93004115226336">218</text><text fill="white" font-size="12" text-anchor="middle" transform="rotate(-45,1710.9615384615386,570)" x="1710.9615384615386" y="570">2026-05-17</text><rect fill="#4DD2FF" height="70.47325102880659" width="27.692307692307693" x="1729.8076923076924" y="479.5267489711934" /><text fill="white" font-size="12" text-anchor="middle" x="1743.6538461538462" y="474.5267489711934">274</text><text fill="white" font-size="12" text-anchor="middle" transform="rotate(-45,1743.6538461538462,570)" x="1743.6538461538462" y="570">2026-05-24</text><line stroke="white" x1="60" x2="60" y1="50" y2="550" /><line stroke="white" x1="60" x2="1760" y1="550" y2="550" /></svg>