<?xml version="1.0" encoding="utf-8" ?>
<svg baseProfile="full" height="600" version="1.1" width="1800" xmlns="http://www.w3.org/2000/svg" xmlns:ev="http://www.w3.org/2001/xml-events" xmlns:xlink="http://www.w3.org/1999/xlink"><defs /><rect fill="#222222" height="100%" width="100%" x="0" y="0" /><text fill="white" font-size="20" text-anchor="middle" x="900.0" y="30">Weekly Totals (Last 52 Weeks)</text><rect fill="#4DD2FF" height="67.12962962962963" width="30" x="76.48148148148148" y="482.8703703703704" /><text fill="white" font-size="12" text-anchor="middle" x="91.48148148148148" y="477.8703703703704">261</text><text fill="white" font-size="12" text-anchor="middle" transform="rotate(-45,91.48148148148148,570)" x="91.48148148148148" y="570">2025-05-04</text><rect fill="#4DD2FF" height="500.0" width="30" x="139.44444444444446" y="50.0" /><text fill="white" font-size="12" text-anchor="middle" x="154.44444444444446" y="45.0">1944</text><text fill="white" font-size="12" text-anchor="middle" transform="rotate(-45,154.44444444444446,570)" x="154.44444444444446" y="570">2025-05-11</text><rect fill="#4DD2FF" height="380.65843621399176" width="30" x="202.4074074074074" y="169.34156378600824" /><text fill="white" font-size="12" text-anchor="middle" x="217.4074074074074" y="164.34156378600824">1480</text><text fill="white" font-size="12" text-anchor="middle" transform="rotate(-45,217.4074074074074,570)" x="217.4074074074074" y="570">2025-05-18</text><rect fill="#4DD2FF" height="450.61728395061726" width="30" x="265.3703703703704" y="99.38271604938274" /><text fill="white" font-size="12" text-anchor="middle" x="280.3703703703704" y="94.38271604938274">1752</text><text fill="white" font-size="12" text-anchor="middle" transform="rotate(-45,280.3703703703704,570)" x="280.3703703703704" y="570">2025-05-25</text><rect fill="#4DD2FF" height="307.61316872427983" width="30" x="328.3333333333333" y="242.38683127572017" /><text fill="white" font-size="12" text-anchor="middle" x="343.3333333333333" y="237.38683127572017">1196</text><text fill="white" font-size="12" text-anchor="middle" transform="rotate(-45,343.3333333333333,570)" x="343.3333333333333" y="570">2025-06-01</text><rect fill="#4DD2FF" height="301.6975308641975" width="30" x="391.29629629629625" y="248.30246913580248" /><text fill="white" font-size="12" text-anchor="middle" x="406.29629629629625" y="243.30246913580248">1173</text><text fill="white" font-size="12" text-anchor="middle" transform="rotate(-45,406.29629629629625,570)" x="406.29629629629625" y="570">2025-06-08</text><rect fill="#4DD2FF" height="284.72222222222223" width="30" x="454.25925925925924" y="265.27777777777777" /><text fill="white" font-size="12" text-anchor="middle" x="469.25925925925924" y="260.27777777777777">1107</text><text fill="white" font-size="12" text-anchor="middle" transform="rotate(-45,469.25925925925924,570)" x="469.25925925925924" y="570">2025-06-15</text><rect fill="#4DD2FF" height="323.55967078189303" width="30" x="517.2222222222223" y="226.44032921810697" /><text fill="white" font-size="12" text-anchor="middle" x="532.2222222222223" y="221.44032921810697">1258</text><text fill="white" font-size="12" text-anchor="middle" transform="rotate(-45,532.2222222222223,570)" x="532.2222222222223" y="570">2025-06-22</text><rect fill="#4DD2FF" height="211.41975308641975" width="30" x="580.1851851851852" y="338.58024691358025" /><text fill="white" font-size="12" text-anchor="middle" x="595.1851851851852" y="333.58024691358025">822</text><text fill="white" font-size="12" text-anchor="middle" transform="rotate(-45,595.1851851851852,570)" x="595.1851851851852" y="570">2025-06-29</text><rect fill="#4DD2FF" height="141.71810699588477" width="30" x="643.1481481481482" y="408.2818930041152" /><text fill="white" font-size="12" text-anchor="middle" x="658.1481481481482" y="403.2818930041152">551</text><text fill="white" font-size="12" text-anchor="middle" transform="rotate(-45,658.1481481481482,570)" x="658.1481481481482" y="570">2025-07-06</text><rect fill="#4DD2FF" height="284.72222222222223" width="30" x="706.1111111111111" y="265.27777777777777" /><text fill="white" font-size="12" text-anchor="middle" x="721.1111111111111" y="260.27777777777777">1107</text><text fill="white" font-size="12" text-anchor="middle" transform="rotate(-45,721.1111111111111,570)" x="721.1111111111111" y="570">2025-07-13</text><rect fill="#4DD2FF" height="355.9670781893004" width="30" x="769.0740740740741" y="194.03292181069958" /><text fill="white" font-size="12" text-anchor="middle" x="784.0740740740741" y="189.03292181069958">1384</text><text fill="white" font-size="12" text-anchor="middle" transform="rotate(-45,784.0740740740741,570)" x="784.0740740740741" y="570">2025-07-20</text><rect fill="#4DD2FF" height="96.19341563786008" width="30" x="832.0370370370371" y="453.8065843621399" /><text fill="white" font-size="12" text-anchor="middle" x="847.0370370370371" y="448.8065843621399">374</text><text fill="white" font-size="12" text-anchor="middle" transform="rotate(-45,847.0370370370371,570)" x="847.0370370370371" y="570">2025-07-27</text><rect fill="#4DD2FF" height="195.98765432098767" width="30" x="895.0" y="354.01234567901236" /><text fill="white" font-size="12" text-anchor="middle" x="910.0" y="349.01234567901236">762</text><text fill="white" font-size="12" text-anchor="middle" transform="rotate(-45,910.0,570)" x="910.0" y="570">2025-08-03</text><rect fill="#4DD2FF" height="217.33539094650206" width="30" x="957.962962962963" y="332.66460905349794" /><text fill="white" font-size="12" text-anchor="middle" x="972.962962962963" y="327.66460905349794">845</text><text fill="white" font-size="12" text-anchor="middle" transform="rotate(-45,972.962962962963,570)" x="972.962962962963" y="570">2025-08-10</text><rect fill="#4DD2FF" height="224.53703703703704" width="30" x="1020.925925925926" y="325.46296296296293" /><text fill="white" font-size="12" text-anchor="middle" x="1035.925925925926" y="320.46296296296293">873</text><text fill="white" font-size="12" text-anchor="middle" transform="rotate(-45,1035.925925925926,570)" x="1035.925925925926" y="570">2025-08-17</text><rect fill="#4DD2FF" height="153.54938271604937" width="30" x="1083.888888888889" y="396.45061728395063" /><text fill="white" font-size="12" text-anchor="middle" x="1098.888888888889" y="391.45061728395063">597</text><text fill="white" font-size="12" text-anchor="middle" transform="rotate(-45,1098.888888888889,570)" x="1098.888888888889" y="570">2025-08-24</text><rect fill="#4DD2FF" height="180.0411522633745" width="30" x="1146.851851851852" y="369.9588477366255" /><text fill="white" font-size="12" text-anchor="middle" x="1161.851851851852" y="364.9588477366255">700</text><text fill="white" font-size="12" text-anchor="middle" transform="rotate(-45,1161.851851851852,570)" x="1161.851851851852" y="570">2025-08-31</text><rect fill="#4DD2FF" height="210.13374485596708" width="30" x="1209.8148148148148" y="339.86625514403295" /><text fill="white" font-size="12" text-anchor="middle" x="1224.8148148148148" y="334.86625514403295">817</text><text fill="white" font-size="12" text-anchor="middle" transform="rotate(-45,1224.8148148148148,570)" x="1224.8148148148148" y="570">2025-09-07</text><rect fill="#4DD2FF" height="237.13991769547323" width="30" x="1272.7777777777778" y="312.86008230452677" /><text fill="white" font-size="12" text-anchor="middle" x="1287.7777777777778" y="307.86008230452677">922</text><text fill="white" font-size="12" text-anchor="middle" transform="rotate(-45,1287.7777777777778,570)" x="1287.7777777777778" y="570">2025-09-14</text><rect fill="#4DD2FF" height="137.08847736625515" width="30" x="1335.7407407407406" y="412.9115226337449" /><text fill="white" font-size="12" text-anchor="middle" x="1350.7407407407406" y="407.9115226337449">533</text><text fill="white" font-size="12" text-anchor="middle" transform="rotate(-45,1350.7407407407406,570)" x="1350.7407407407406" y="570">2025-09-21</text><rect fill="#4DD2FF" height="160.49382716049382" width="30" x="1398.7037037037037" y="389.5061728395062" /><text fill="white" font-size="12" text-anchor="middle" x="1413.7037037037037" y="384.5061728395062">624</text><text fill="white" font-size="12" text-anchor="middle" transform="rotate(-45,1413.7037037037037,570)" x="1413.7037037037037" y="570">2025-09-28</text><rect fill="#4DD2FF" height="197.53086419753086" width="30" x="1461.6666666666667" y="352.46913580246917" /><text fill="white" font-size="12" text-anchor="middle" x="1476.6666666666667" y="347.46913580246917">768</text><text fill="white" font-size="12" text-anchor="middle" transform="rotate(-45,1476.6666666666667,570)" x="1476.6666666666667" y="570">2025-10-05</text><rect fill="#4DD2FF" height="303.24074074074076" width="30" x="1524.6296296296296" y="246.75925925925924" /><text fill="white" font-size="12" text-anchor="middle" x="1539.6296296296296" y="241.75925925925924">1179</text><text fill="white" font-size="12" text-anchor="middle" transform="rotate(-45,1539.6296296296296,570)" x="1539.6296296296296" y="570">2025-10-12</text><rect fill="#4DD2FF" height="266.7181069958848" width="30" x="1587.5925925925926" y="283.2818930041152" /><text fill="white" font-size="12" text-anchor="middle" x="1602.5925925925926" y="278.2818930041152">1037</text><text fill="white" font-size="12" text-anchor="middle" transform="rotate(-45,1602.5925925925926,570)" x="1602.5925925925926" y="570">2025-10-19</text><rect fill="#4DD2FF" height="184.15637860082305" width="30" x="1650.5555555555557" y="365.843621399177" /><text fill="white" font-size="12" text-anchor="middle" x="1665.5555555555557" y="360.843621399177">716</text><text fill="white" font-size="12" text-anchor="middle" transform="rotate(-45,1665.5555555555557,570)" x="1665.5555555555557" y="570">2025-10-26</text><rect fill="#4DD2FF" height="70.21604938271605" width="30" x="1713.5185185185185" y="479.78395061728395" /><text fill="white" font-size="12" text-anchor="middle" x="1728.5185185185185" y="474.78395061728395">273</text><text fill="white" font-size="12" text-anchor="middle" transform="rotate(-45,1728.5185185185185,570)" x="1728.5185185185185" y="570">2025-11-02</text><line stroke="white" x1="60" x2="60" y1="50" y2="550" /><line stroke="white" x1="60" x2="1760" y1="550" y2="550" /></svg>