<?xml version="1.0" encoding="utf-8" ?>
<svg baseProfile="full" height="600" version="1.1" width="1800" xmlns="http://www.w3.org/2000/svg" xmlns:ev="http://www.w3.org/2001/xml-events" xmlns:xlink="http://www.w3.org/1999/xlink"><defs /><rect fill="#222222" height="100%" width="100%" x="0" y="0" /><text fill="white" font-size="20" text-anchor="middle" x="900.0" y="30">Weekly Totals (Last 52 Weeks)</text><rect fill="#4DD2FF" height="67.12962962962963" width="30" x="74.3103448275862" y="482.8703703703704" /><text fill="white" font-size="12" text-anchor="middle" x="89.3103448275862" y="477.8703703703704">261</text><text fill="white" font-size="12" text-anchor="middle" transform="rotate(-45,89.3103448275862,570)" x="89.3103448275862" y="570">2025-05-04</text><rect fill="#4DD2FF" height="500.0" width="30" x="132.9310344827586" y="50.0" /><text fill="white" font-size="12" text-anchor="middle" x="147.9310344827586" y="45.0">1944</text><text fill="white" font-size="12" text-anchor="middle" transform="rotate(-45,147.9310344827586,570)" x="147.9310344827586" y="570">2025-05-11</text><rect fill="#4DD2FF" height="380.65843621399176" width="30" x="191.55172413793105" y="169.34156378600824" /><text fill="white" font-size="12" text-anchor="middle" x="206.55172413793105" y="164.34156378600824">1480</text><text fill="white" font-size="12" text-anchor="middle" transform="rotate(-45,206.55172413793105,570)" x="206.55172413793105" y="570">2025-05-18</text><rect fill="#4DD2FF" height="450.61728395061726" width="30" x="250.17241379310343" y="99.38271604938274" /><text fill="white" font-size="12" text-anchor="middle" x="265.17241379310343" y="94.38271604938274">1752</text><text fill="white" font-size="12" text-anchor="middle" transform="rotate(-45,265.17241379310343,570)" x="265.17241379310343" y="570">2025-05-25</text><rect fill="#4DD2FF" height="307.61316872427983" width="30" x="308.7931034482759" y="242.38683127572017" /><text fill="white" font-size="12" text-anchor="middle" x="323.7931034482759" y="237.38683127572017">1196</text><text fill="white" font-size="12" text-anchor="middle" transform="rotate(-45,323.7931034482759,570)" x="323.7931034482759" y="570">2025-06-01</text><rect fill="#4DD2FF" height="301.6975308641975" width="30" x="367.4137931034483" y="248.30246913580248" /><text fill="white" font-size="12" text-anchor="middle" x="382.4137931034483" y="243.30246913580248">1173</text><text fill="white" font-size="12" text-anchor="middle" transform="rotate(-45,382.4137931034483,570)" x="382.4137931034483" y="570">2025-06-08</text><rect fill="#4DD2FF" height="284.72222222222223" width="30" x="426.0344827586207" y="265.27777777777777" /><text fill="white" font-size="12" text-anchor="middle" x="441.0344827586207" y="260.27777777777777">1107</text><text fill="white" font-size="12" text-anchor="middle" transform="rotate(-45,441.0344827586207,570)" x="441.0344827586207" y="570">2025-06-15</text><rect fill="#4DD2FF" height="323.55967078189303" width="30" x="484.6551724137931" y="226.44032921810697" /><text fill="white" font-size="12" text-anchor="middle" x="499.6551724137931" y="221.44032921810697">1258</text><text fill="white" font-size="12" text-anchor="middle" transform="rotate(-45,499.6551724137931,570)" x="499.6551724137931" y="570">2025-06-22</text><rect fill="#4DD2FF" height="211.41975308641975" width="30" x="543.2758620689655" y="338.58024691358025" /><text fill="white" font-size="12" text-anchor="middle" x="558.2758620689655" y="333.58024691358025">822</text><text fill="white" font-size="12" text-anchor="middle" transform="rotate(-45,558.2758620689655,570)" x="558.2758620689655" y="570">2025-06-29</text><rect fill="#4DD2FF" height="141.71810699588477" width="30" x="601.8965517241379" y="408.2818930041152" /><text fill="white" font-size="12" text-anchor="middle" x="616.8965517241379" y="403.2818930041152">551</text><text fill="white" font-size="12" text-anchor="middle" transform="rotate(-45,616.8965517241379,570)" x="616.8965517241379" y="570">2025-07-06</text><rect fill="#4DD2FF" height="284.72222222222223" width="30" x="660.5172413793103" y="265.27777777777777" /><text fill="white" font-size="12" text-anchor="middle" x="675.5172413793103" y="260.27777777777777">1107</text><text fill="white" font-size="12" text-anchor="middle" transform="rotate(-45,675.5172413793103,570)" x="675.5172413793103" y="570">2025-07-13</text><rect fill="#4DD2FF" height="355.9670781893004" width="30" x="719.1379310344827" y="194.03292181069958" /><text fill="white" font-size="12" text-anchor="middle" x="734.1379310344827" y="189.03292181069958">1384</text><text fill="white" font-size="12" text-anchor="middle" transform="rotate(-45,734.1379310344827,570)" x="734.1379310344827" y="570">2025-07-20</text><rect fill="#4DD2FF" height="96.19341563786008" width="30" x="777.7586206896551" y="453.8065843621399" /><text fill="white" font-size="12" text-anchor="middle" x="792.7586206896551" y="448.8065843621399">374</text><text fill="white" font-size="12" text-anchor="middle" transform="rotate(-45,792.7586206896551,570)" x="792.7586206896551" y="570">2025-07-27</text><rect fill="#4DD2FF" height="195.98765432098767" width="30" x="836.3793103448276" y="354.01234567901236" /><text fill="white" font-size="12" text-anchor="middle" x="851.3793103448276" y="349.01234567901236">762</text><text fill="white" font-size="12" text-anchor="middle" transform="rotate(-45,851.3793103448276,570)" x="851.3793103448276" y="570">2025-08-03</text><rect fill="#4DD2FF" height="217.33539094650206" width="30" x="894.9999999999999" y="332.66460905349794" /><text fill="white" font-size="12" text-anchor="middle" x="909.9999999999999" y="327.66460905349794">845</text><text fill="white" font-size="12" text-anchor="middle" transform="rotate(-45,909.9999999999999,570)" x="909.9999999999999" y="570">2025-08-10</text><rect fill="#4DD2FF" height="224.53703703703704" width="30" x="953.6206896551723" y="325.46296296296293" /><text fill="white" font-size="12" text-anchor="middle" x="968.6206896551723" y="320.46296296296293">873</text><text fill="white" font-size="12" text-anchor="middle" transform="rotate(-45,968.6206896551723,570)" x="968.6206896551723" y="570">2025-08-17</text><rect fill="#4DD2FF" height="153.54938271604937" width="30" x="1012.2413793103448" y="396.45061728395063" /><text fill="white" font-size="12" text-anchor="middle" x="1027.2413793103447" y="391.45061728395063">597</text><text fill="white" font-size="12" text-anchor="middle" transform="rotate(-45,1027.2413793103447,570)" x="1027.2413793103447" y="570">2025-08-24</text><rect fill="#4DD2FF" height="180.0411522633745" width="30" x="1070.8620689655174" y="369.9588477366255" /><text fill="white" font-size="12" text-anchor="middle" x="1085.8620689655174" y="364.9588477366255">700</text><text fill="white" font-size="12" text-anchor="middle" transform="rotate(-45,1085.8620689655174,570)" x="1085.8620689655174" y="570">2025-08-31</text><rect fill="#4DD2FF" height="210.13374485596708" width="30" x="1129.4827586206898" y="339.86625514403295" /><text fill="white" font-size="12" text-anchor="middle" x="1144.4827586206898" y="334.86625514403295">817</text><text fill="white" font-size="12" text-anchor="middle" transform="rotate(-45,1144.4827586206898,570)" x="1144.4827586206898" y="570">2025-09-07</text><rect fill="#4DD2FF" height="237.13991769547323" width="30" x="1188.103448275862" y="312.86008230452677" /><text fill="white" font-size="12" text-anchor="middle" x="1203.103448275862" y="307.86008230452677">922</text><text fill="white" font-size="12" text-anchor="middle" transform="rotate(-45,1203.103448275862,570)" x="1203.103448275862" y="570">2025-09-14</text><rect fill="#4DD2FF" height="137.08847736625515" width="30" x="1246.7241379310346" y="412.9115226337449" /><text fill="white" font-size="12" text-anchor="middle" x="1261.7241379310346" y="407.9115226337449">533</text><text fill="white" font-size="12" text-anchor="middle" transform="rotate(-45,1261.7241379310346,570)" x="1261.7241379310346" y="570">2025-09-21</text><rect fill="#4DD2FF" height="160.49382716049382" width="30" x="1305.344827586207" y="389.5061728395062" /><text fill="white" font-size="12" text-anchor="middle" x="1320.344827586207" y="384.5061728395062">624</text><text fill="white" font-size="12" text-anchor="middle" transform="rotate(-45,1320.344827586207,570)" x="1320.344827586207" y="570">2025-09-28</text><rect fill="#4DD2FF" height="197.53086419753086" width="30" x="1363.9655172413793" y="352.46913580246917" /><text fill="white" font-size="12" text-anchor="middle" x="1378.9655172413793" y="347.46913580246917">768</text><text fill="white" font-size="12" text-anchor="middle" transform="rotate(-45,1378.9655172413793,570)" x="1378.9655172413793" y="570">2025-10-05</text><rect fill="#4DD2FF" height="303.24074074074076" width="30" x="1422.5862068965519" y="246.75925925925924" /><text fill="white" font-size="12" text-anchor="middle" x="1437.5862068965519" y="241.75925925925924">1179</text><text fill="white" font-size="12" text-anchor="middle" transform="rotate(-45,1437.5862068965519,570)" x="1437.5862068965519" y="570">2025-10-12</text><rect fill="#4DD2FF" height="266.7181069958848" width="30" x="1481.2068965517242" y="283.2818930041152" /><text fill="white" font-size="12" text-anchor="middle" x="1496.2068965517242" y="278.2818930041152">1037</text><text fill="white" font-size="12" text-anchor="middle" transform="rotate(-45,1496.2068965517242,570)" x="1496.2068965517242" y="570">2025-10-19</text><rect fill="#4DD2FF" height="184.15637860082305" width="30" x="1539.8275862068965" y="365.843621399177" /><text fill="white" font-size="12" text-anchor="middle" x="1554.8275862068965" y="360.843621399177">716</text><text fill="white" font-size="12" text-anchor="middle" transform="rotate(-45,1554.8275862068965,570)" x="1554.8275862068965" y="570">2025-10-26</text><rect fill="#4DD2FF" height="211.41975308641975" width="30" x="1598.448275862069" y="338.58024691358025" /><text fill="white" font-size="12" text-anchor="middle" x="1613.448275862069" y="333.58024691358025">822</text><text fill="white" font-size="12" text-anchor="middle" transform="rotate(-45,1613.448275862069,570)" x="1613.448275862069" y="570">2025-11-02</text><rect fill="#4DD2FF" height="122.94238683127571" width="30" x="1657.0689655172414" y="427.0576131687243" /><text fill="white" font-size="12" text-anchor="middle" x="1672.0689655172414" y="422.0576131687243">478</text><text fill="white" font-size="12" text-anchor="middle" transform="rotate(-45,1672.0689655172414,570)" x="1672.0689655172414" y="570">2025-11-09</text><rect fill="#4DD2FF" height="69.44444444444444" width="30" x="1715.6896551724137" y="480.55555555555554" /><text fill="white" font-size="12" text-anchor="middle" x="1730.6896551724137" y="475.55555555555554">270</text><text fill="white" font-size="12" text-anchor="middle" transform="rotate(-45,1730.6896551724137,570)" x="1730.6896551724137" y="570">2025-11-16</text><line stroke="white" x1="60" x2="60" y1="50" y2="550" /><line stroke="white" x1="60" x2="1760" y1="550" y2="550" /></svg>