<?xml version="1.0" encoding="utf-8" ?>
<svg baseProfile="full" height="600" version="1.1" width="1800" xmlns="http://www.w3.org/2000/svg" xmlns:ev="http://www.w3.org/2001/xml-events" xmlns:xlink="http://www.w3.org/1999/xlink"><defs /><rect fill="#222222" height="100%" width="100%" x="0" y="0" /><text fill="white" font-size="20" text-anchor="middle" x="900.0" y="30">Weekly Totals (Last 52 Weeks)</text><rect fill="#4DD2FF" height="67.12962962962963" width="30" x="64.76744186046511" y="482.8703703703704" /><text fill="white" font-size="12" text-anchor="middle" x="79.76744186046511" y="477.8703703703704">261</text><text fill="white" font-size="12" text-anchor="middle" transform="rotate(-45,79.76744186046511,570)" x="79.76744186046511" y="570">2025-05-04</text><rect fill="#4DD2FF" height="500.0" width="30" x="104.30232558139534" y="50.0" /><text fill="white" font-size="12" text-anchor="middle" x="119.30232558139534" y="45.0">1944</text><text fill="white" font-size="12" text-anchor="middle" transform="rotate(-45,119.30232558139534,570)" x="119.30232558139534" y="570">2025-05-11</text><rect fill="#4DD2FF" height="380.65843621399176" width="30" x="143.83720930232556" y="169.34156378600824" /><text fill="white" font-size="12" text-anchor="middle" x="158.83720930232556" y="164.34156378600824">1480</text><text fill="white" font-size="12" text-anchor="middle" transform="rotate(-45,158.83720930232556,570)" x="158.83720930232556" y="570">2025-05-18</text><rect fill="#4DD2FF" height="450.61728395061726" width="30" x="183.37209302325581" y="99.38271604938274" /><text fill="white" font-size="12" text-anchor="middle" x="198.37209302325581" y="94.38271604938274">1752</text><text fill="white" font-size="12" text-anchor="middle" transform="rotate(-45,198.37209302325581,570)" x="198.37209302325581" y="570">2025-05-25</text><rect fill="#4DD2FF" height="307.61316872427983" width="30" x="222.90697674418604" y="242.38683127572017" /><text fill="white" font-size="12" text-anchor="middle" x="237.90697674418604" y="237.38683127572017">1196</text><text fill="white" font-size="12" text-anchor="middle" transform="rotate(-45,237.90697674418604,570)" x="237.90697674418604" y="570">2025-06-01</text><rect fill="#4DD2FF" height="301.6975308641975" width="30" x="262.44186046511624" y="248.30246913580248" /><text fill="white" font-size="12" text-anchor="middle" x="277.44186046511624" y="243.30246913580248">1173</text><text fill="white" font-size="12" text-anchor="middle" transform="rotate(-45,277.44186046511624,570)" x="277.44186046511624" y="570">2025-06-08</text><rect fill="#4DD2FF" height="284.72222222222223" width="30" x="301.9767441860465" y="265.27777777777777" /><text fill="white" font-size="12" text-anchor="middle" x="316.9767441860465" y="260.27777777777777">1107</text><text fill="white" font-size="12" text-anchor="middle" transform="rotate(-45,316.9767441860465,570)" x="316.9767441860465" y="570">2025-06-15</text><rect fill="#4DD2FF" height="323.55967078189303" width="30" x="341.51162790697674" y="226.44032921810697" /><text fill="white" font-size="12" text-anchor="middle" x="356.51162790697674" y="221.44032921810697">1258</text><text fill="white" font-size="12" text-anchor="middle" transform="rotate(-45,356.51162790697674,570)" x="356.51162790697674" y="570">2025-06-22</text><rect fill="#4DD2FF" height="211.41975308641975" width="30" x="381.04651162790697" y="338.58024691358025" /><text fill="white" font-size="12" text-anchor="middle" x="396.04651162790697" y="333.58024691358025">822</text><text fill="white" font-size="12" text-anchor="middle" transform="rotate(-45,396.04651162790697,570)" x="396.04651162790697" y="570">2025-06-29</text><rect fill="#4DD2FF" height="141.71810699588477" width="30" x="420.5813953488372" y="408.2818930041152" /><text fill="white" font-size="12" text-anchor="middle" x="435.5813953488372" y="403.2818930041152">551</text><text fill="white" font-size="12" text-anchor="middle" transform="rotate(-45,435.5813953488372,570)" x="435.5813953488372" y="570">2025-07-06</text><rect fill="#4DD2FF" height="284.72222222222223" width="30" x="460.1162790697674" y="265.27777777777777" /><text fill="white" font-size="12" text-anchor="middle" x="475.1162790697674" y="260.27777777777777">1107</text><text fill="white" font-size="12" text-anchor="middle" transform="rotate(-45,475.1162790697674,570)" x="475.1162790697674" y="570">2025-07-13</text><rect fill="#4DD2FF" height="355.9670781893004" width="30" x="499.65116279069764" y="194.03292181069958" /><text fill="white" font-size="12" text-anchor="middle" x="514.6511627906976" y="189.03292181069958">1384</text><text fill="white" font-size="12" text-anchor="middle" transform="rotate(-45,514.6511627906976,570)" x="514.6511627906976" y="570">2025-07-20</text><rect fill="#4DD2FF" height="96.19341563786008" width="30" x="539.186046511628" y="453.8065843621399" /><text fill="white" font-size="12" text-anchor="middle" x="554.186046511628" y="448.8065843621399">374</text><text fill="white" font-size="12" text-anchor="middle" transform="rotate(-45,554.186046511628,570)" x="554.186046511628" y="570">2025-07-27</text><rect fill="#4DD2FF" height="195.98765432098767" width="30" x="578.7209302325582" y="354.01234567901236" /><text fill="white" font-size="12" text-anchor="middle" x="593.7209302325582" y="349.01234567901236">762</text><text fill="white" font-size="12" text-anchor="middle" transform="rotate(-45,593.7209302325582,570)" x="593.7209302325582" y="570">2025-08-03</text><rect fill="#4DD2FF" height="217.33539094650206" width="30" x="618.2558139534884" y="332.66460905349794" /><text fill="white" font-size="12" text-anchor="middle" x="633.2558139534884" y="327.66460905349794">845</text><text fill="white" font-size="12" text-anchor="middle" transform="rotate(-45,633.2558139534884,570)" x="633.2558139534884" y="570">2025-08-10</text><rect fill="#4DD2FF" height="224.53703703703704" width="30" x="657.7906976744187" y="325.46296296296293" /><text fill="white" font-size="12" text-anchor="middle" x="672.7906976744187" y="320.46296296296293">873</text><text fill="white" font-size="12" text-anchor="middle" transform="rotate(-45,672.7906976744187,570)" x="672.7906976744187" y="570">2025-08-17</text><rect fill="#4DD2FF" height="153.54938271604937" width="30" x="697.3255813953489" y="396.45061728395063" /><text fill="white" font-size="12" text-anchor="middle" x="712.3255813953489" y="391.45061728395063">597</text><text fill="white" font-size="12" text-anchor="middle" transform="rotate(-45,712.3255813953489,570)" x="712.3255813953489" y="570">2025-08-24</text><rect fill="#4DD2FF" height="180.0411522633745" width="30" x="736.8604651162791" y="369.9588477366255" /><text fill="white" font-size="12" text-anchor="middle" x="751.8604651162791" y="364.9588477366255">700</text><text fill="white" font-size="12" text-anchor="middle" transform="rotate(-45,751.8604651162791,570)" x="751.8604651162791" y="570">2025-08-31</text><rect fill="#4DD2FF" height="210.13374485596708" width="30" x="776.3953488372093" y="339.86625514403295" /><text fill="white" font-size="12" text-anchor="middle" x="791.3953488372093" y="334.86625514403295">817</text><text fill="white" font-size="12" text-anchor="middle" transform="rotate(-45,791.3953488372093,570)" x="791.3953488372093" y="570">2025-09-07</text><rect fill="#4DD2FF" height="237.13991769547323" width="30" x="815.9302325581396" y="312.86008230452677" /><text fill="white" font-size="12" text-anchor="middle" x="830.9302325581396" y="307.86008230452677">922</text><text fill="white" font-size="12" text-anchor="middle" transform="rotate(-45,830.9302325581396,570)" x="830.9302325581396" y="570">2025-09-14</text><rect fill="#4DD2FF" height="137.08847736625515" width="30" x="855.4651162790698" y="412.9115226337449" /><text fill="white" font-size="12" text-anchor="middle" x="870.4651162790698" y="407.9115226337449">533</text><text fill="white" font-size="12" text-anchor="middle" transform="rotate(-45,870.4651162790698,570)" x="870.4651162790698" y="570">2025-09-21</text><rect fill="#4DD2FF" height="160.49382716049382" width="30" x="895.0" y="389.5061728395062" /><text fill="white" font-size="12" text-anchor="middle" x="910.0" y="384.5061728395062">624</text><text fill="white" font-size="12" text-anchor="middle" transform="rotate(-45,910.0,570)" x="910.0" y="570">2025-09-28</text><rect fill="#4DD2FF" height="197.53086419753086" width="30" x="934.5348837209302" y="352.46913580246917" /><text fill="white" font-size="12" text-anchor="middle" x="949.5348837209302" y="347.46913580246917">768</text><text fill="white" font-size="12" text-anchor="middle" transform="rotate(-45,949.5348837209302,570)" x="949.5348837209302" y="570">2025-10-05</text><rect fill="#4DD2FF" height="303.24074074074076" width="30" x="974.0697674418604" y="246.75925925925924" /><text fill="white" font-size="12" text-anchor="middle" x="989.0697674418604" y="241.75925925925924">1179</text><text fill="white" font-size="12" text-anchor="middle" transform="rotate(-45,989.0697674418604,570)" x="989.0697674418604" y="570">2025-10-12</text><rect fill="#4DD2FF" height="266.7181069958848" width="30" x="1013.6046511627908" y="283.2818930041152" /><text fill="white" font-size="12" text-anchor="middle" x="1028.6046511627908" y="278.2818930041152">1037</text><text fill="white" font-size="12" text-anchor="middle" transform="rotate(-45,1028.6046511627908,570)" x="1028.6046511627908" y="570">2025-10-19</text><rect fill="#4DD2FF" height="184.15637860082305" width="30" x="1053.139534883721" y="365.843621399177" /><text fill="white" font-size="12" text-anchor="middle" x="1068.139534883721" y="360.843621399177">716</text><text fill="white" font-size="12" text-anchor="middle" transform="rotate(-45,1068.139534883721,570)" x="1068.139534883721" y="570">2025-10-26</text><rect fill="#4DD2FF" height="211.41975308641975" width="30" x="1092.6744186046512" y="338.58024691358025" /><text fill="white" font-size="12" text-anchor="middle" x="1107.6744186046512" y="333.58024691358025">822</text><text fill="white" font-size="12" text-anchor="middle" transform="rotate(-45,1107.6744186046512,570)" x="1107.6744186046512" y="570">2025-11-02</text><rect fill="#4DD2FF" height="122.94238683127571" width="30" x="1132.2093023255813" y="427.0576131687243" /><text fill="white" font-size="12" text-anchor="middle" x="1147.2093023255813" y="422.0576131687243">478</text><text fill="white" font-size="12" text-anchor="middle" transform="rotate(-45,1147.2093023255813,570)" x="1147.2093023255813" y="570">2025-11-09</text><rect fill="#4DD2FF" height="307.8703703703703" width="30" x="1171.7441860465117" y="242.12962962962968" /><text fill="white" font-size="12" text-anchor="middle" x="1186.7441860465117" y="237.12962962962968">1197</text><text fill="white" font-size="12" text-anchor="middle" transform="rotate(-45,1186.7441860465117,570)" x="1186.7441860465117" y="570">2025-11-16</text><rect fill="#4DD2FF" height="10.2880658436214" width="30" x="1211.2790697674418" y="539.7119341563786" /><text fill="white" font-size="12" text-anchor="middle" x="1226.2790697674418" y="534.7119341563786">40</text><text fill="white" font-size="12" text-anchor="middle" transform="rotate(-45,1226.2790697674418,570)" x="1226.2790697674418" y="570">2025-11-23</text><rect fill="#4DD2FF" height="111.88271604938271" width="30" x="1250.8139534883721" y="438.1172839506173" /><text fill="white" font-size="12" text-anchor="middle" x="1265.8139534883721" y="433.1172839506173">435</text><text fill="white" font-size="12" text-anchor="middle" transform="rotate(-45,1265.8139534883721,570)" x="1265.8139534883721" y="570">2025-11-30</text><rect fill="#4DD2FF" height="66.61522633744856" width="30" x="1290.3488372093022" y="483.3847736625514" /><text fill="white" font-size="12" text-anchor="middle" x="1305.3488372093022" y="478.3847736625514">259</text><text fill="white" font-size="12" text-anchor="middle" transform="rotate(-45,1305.3488372093022,570)" x="1305.3488372093022" y="570">2025-12-07</text><rect fill="#4DD2FF" height="342.5925925925926" width="30" x="1329.8837209302326" y="207.4074074074074" /><text fill="white" font-size="12" text-anchor="middle" x="1344.8837209302326" y="202.4074074074074">1332</text><text fill="white" font-size="12" text-anchor="middle" transform="rotate(-45,1344.8837209302326,570)" x="1344.8837209302326" y="570">2025-12-14</text><rect fill="#4DD2FF" height="326.13168724279836" width="30" x="1369.418604651163" y="223.86831275720164" /><text fill="white" font-size="12" text-anchor="middle" x="1384.418604651163" y="218.86831275720164">1268</text><text fill="white" font-size="12" text-anchor="middle" transform="rotate(-45,1384.418604651163,570)" x="1384.418604651163" y="570">2025-12-21</text><rect fill="#4DD2FF" height="369.34156378600824" width="30" x="1408.953488372093" y="180.65843621399176" /><text fill="white" font-size="12" text-anchor="middle" x="1423.953488372093" y="175.65843621399176">1436</text><text fill="white" font-size="12" text-anchor="middle" transform="rotate(-45,1423.953488372093,570)" x="1423.953488372093" y="570">2025-12-28</text><rect fill="#4DD2FF" height="359.82510288065845" width="30" x="1448.4883720930234" y="190.17489711934155" /><text fill="white" font-size="12" text-anchor="middle" x="1463.4883720930234" y="185.17489711934155">1399</text><text fill="white" font-size="12" text-anchor="middle" transform="rotate(-45,1463.4883720930234,570)" x="1463.4883720930234" y="570">2026-01-04</text><rect fill="#4DD2FF" height="382.45884773662556" width="30" x="1488.0232558139535" y="167.54115226337444" /><text fill="white" font-size="12" text-anchor="middle" x="1503.0232558139535" y="162.54115226337444">1487</text><text fill="white" font-size="12" text-anchor="middle" transform="rotate(-45,1503.0232558139535,570)" x="1503.0232558139535" y="570">2026-01-11</text><rect fill="#4DD2FF" height="336.1625514403292" width="30" x="1527.5581395348838" y="213.8374485596708" /><text fill="white" font-size="12" text-anchor="middle" x="1542.5581395348838" y="208.8374485596708">1307</text><text fill="white" font-size="12" text-anchor="middle" transform="rotate(-45,1542.5581395348838,570)" x="1542.5581395348838" y="570">2026-01-18</text><rect fill="#4DD2FF" height="331.79012345679007" width="30" x="1567.093023255814" y="218.20987654320993" /><text fill="white" font-size="12" text-anchor="middle" x="1582.093023255814" y="213.20987654320993">1290</text><text fill="white" font-size="12" text-anchor="middle" transform="rotate(-45,1582.093023255814,570)" x="1582.093023255814" y="570">2026-01-25</text><rect fill="#4DD2FF" height="314.5576131687243" width="30" x="1606.6279069767443" y="235.4423868312757" /><text fill="white" font-size="12" text-anchor="middle" x="1621.6279069767443" y="230.4423868312757">1223</text><text fill="white" font-size="12" text-anchor="middle" transform="rotate(-45,1621.6279069767443,570)" x="1621.6279069767443" y="570">2026-02-01</text><rect fill="#4DD2FF" height="366.51234567901236" width="30" x="1646.1627906976744" y="183.48765432098764" /><text fill="white" font-size="12" text-anchor="middle" x="1661.1627906976744" y="178.48765432098764">1425</text><text fill="white" font-size="12" text-anchor="middle" transform="rotate(-45,1661.1627906976744,570)" x="1661.1627906976744" y="570">2026-02-08</text><rect fill="#4DD2FF" height="280.3497942386831" width="30" x="1685.6976744186047" y="269.6502057613169" /><text fill="white" font-size="12" text-anchor="middle" x="1700.6976744186047" y="264.6502057613169">1090</text><text fill="white" font-size="12" text-anchor="middle" transform="rotate(-45,1700.6976744186047,570)" x="1700.6976744186047" y="570">2026-02-15</text><rect fill="#4DD2FF" height="13.117283950617283" width="30" x="1725.2325581395348" y="536.8827160493827" /><text fill="white" font-size="12" text-anchor="middle" x="1740.2325581395348" y="531.8827160493827">51</text><text fill="white" font-size="12" text-anchor="middle" transform="rotate(-45,1740.2325581395348,570)" x="1740.2325581395348" y="570">2026-02-22</text><line stroke="white" x1="60" x2="60" y1="50" y2="550" /><line stroke="white" x1="60" x2="1760" y1="550" y2="550" /></svg>