<?xml version="1.0" encoding="utf-8" ?>
<svg baseProfile="full" height="600" version="1.1" width="1800" xmlns="http://www.w3.org/2000/svg" xmlns:ev="http://www.w3.org/2001/xml-events" xmlns:xlink="http://www.w3.org/1999/xlink"><defs /><rect fill="#222222" height="100%" width="100%" x="0" y="0" /><text fill="white" font-size="20" text-anchor="middle" x="900.0" y="30">Weekly Totals (Last 52 Weeks)</text><rect fill="#4DD2FF" height="67.12962962962963" width="30" x="77.6923076923077" y="482.8703703703704" /><text fill="white" font-size="12" text-anchor="middle" x="92.6923076923077" y="477.8703703703704">261</text><text fill="white" font-size="12" text-anchor="middle" transform="rotate(-45,92.6923076923077,570)" x="92.6923076923077" y="570">2025-05-04</text><rect fill="#4DD2FF" height="500.0" width="30" x="143.0769230769231" y="50.0" /><text fill="white" font-size="12" text-anchor="middle" x="158.0769230769231" y="45.0">1944</text><text fill="white" font-size="12" text-anchor="middle" transform="rotate(-45,158.0769230769231,570)" x="158.0769230769231" y="570">2025-05-11</text><rect fill="#4DD2FF" height="380.65843621399176" width="30" x="208.46153846153845" y="169.34156378600824" /><text fill="white" font-size="12" text-anchor="middle" x="223.46153846153845" y="164.34156378600824">1480</text><text fill="white" font-size="12" text-anchor="middle" transform="rotate(-45,223.46153846153845,570)" x="223.46153846153845" y="570">2025-05-18</text><rect fill="#4DD2FF" height="450.61728395061726" width="30" x="273.84615384615387" y="99.38271604938274" /><text fill="white" font-size="12" text-anchor="middle" x="288.84615384615387" y="94.38271604938274">1752</text><text fill="white" font-size="12" text-anchor="middle" transform="rotate(-45,288.84615384615387,570)" x="288.84615384615387" y="570">2025-05-25</text><rect fill="#4DD2FF" height="307.61316872427983" width="30" x="339.2307692307692" y="242.38683127572017" /><text fill="white" font-size="12" text-anchor="middle" x="354.2307692307692" y="237.38683127572017">1196</text><text fill="white" font-size="12" text-anchor="middle" transform="rotate(-45,354.2307692307692,570)" x="354.2307692307692" y="570">2025-06-01</text><rect fill="#4DD2FF" height="301.6975308641975" width="30" x="404.6153846153846" y="248.30246913580248" /><text fill="white" font-size="12" text-anchor="middle" x="419.6153846153846" y="243.30246913580248">1173</text><text fill="white" font-size="12" text-anchor="middle" transform="rotate(-45,419.6153846153846,570)" x="419.6153846153846" y="570">2025-06-08</text><rect fill="#4DD2FF" height="284.72222222222223" width="30" x="470.0" y="265.27777777777777" /><text fill="white" font-size="12" text-anchor="middle" x="485.0" y="260.27777777777777">1107</text><text fill="white" font-size="12" text-anchor="middle" transform="rotate(-45,485.0,570)" x="485.0" y="570">2025-06-15</text><rect fill="#4DD2FF" height="323.55967078189303" width="30" x="535.3846153846155" y="226.44032921810697" /><text fill="white" font-size="12" text-anchor="middle" x="550.3846153846155" y="221.44032921810697">1258</text><text fill="white" font-size="12" text-anchor="middle" transform="rotate(-45,550.3846153846155,570)" x="550.3846153846155" y="570">2025-06-22</text><rect fill="#4DD2FF" height="211.41975308641975" width="30" x="600.7692307692308" y="338.58024691358025" /><text fill="white" font-size="12" text-anchor="middle" x="615.7692307692308" y="333.58024691358025">822</text><text fill="white" font-size="12" text-anchor="middle" transform="rotate(-45,615.7692307692308,570)" x="615.7692307692308" y="570">2025-06-29</text><rect fill="#4DD2FF" height="141.71810699588477" width="30" x="666.1538461538462" y="408.2818930041152" /><text fill="white" font-size="12" text-anchor="middle" x="681.1538461538462" y="403.2818930041152">551</text><text fill="white" font-size="12" text-anchor="middle" transform="rotate(-45,681.1538461538462,570)" x="681.1538461538462" y="570">2025-07-06</text><rect fill="#4DD2FF" height="284.72222222222223" width="30" x="731.5384615384615" y="265.27777777777777" /><text fill="white" font-size="12" text-anchor="middle" x="746.5384615384615" y="260.27777777777777">1107</text><text fill="white" font-size="12" text-anchor="middle" transform="rotate(-45,746.5384615384615,570)" x="746.5384615384615" y="570">2025-07-13</text><rect fill="#4DD2FF" height="355.9670781893004" width="30" x="796.923076923077" y="194.03292181069958" /><text fill="white" font-size="12" text-anchor="middle" x="811.923076923077" y="189.03292181069958">1384</text><text fill="white" font-size="12" text-anchor="middle" transform="rotate(-45,811.923076923077,570)" x="811.923076923077" y="570">2025-07-20</text><rect fill="#4DD2FF" height="96.19341563786008" width="30" x="862.3076923076924" y="453.8065843621399" /><text fill="white" font-size="12" text-anchor="middle" x="877.3076923076924" y="448.8065843621399">374</text><text fill="white" font-size="12" text-anchor="middle" transform="rotate(-45,877.3076923076924,570)" x="877.3076923076924" y="570">2025-07-27</text><rect fill="#4DD2FF" height="195.98765432098767" width="30" x="927.6923076923077" y="354.01234567901236" /><text fill="white" font-size="12" text-anchor="middle" x="942.6923076923077" y="349.01234567901236">762</text><text fill="white" font-size="12" text-anchor="middle" transform="rotate(-45,942.6923076923077,570)" x="942.6923076923077" y="570">2025-08-03</text><rect fill="#4DD2FF" height="217.33539094650206" width="30" x="993.0769230769232" y="332.66460905349794" /><text fill="white" font-size="12" text-anchor="middle" x="1008.0769230769232" y="327.66460905349794">845</text><text fill="white" font-size="12" text-anchor="middle" transform="rotate(-45,1008.0769230769232,570)" x="1008.0769230769232" y="570">2025-08-10</text><rect fill="#4DD2FF" height="224.53703703703704" width="30" x="1058.4615384615386" y="325.46296296296293" /><text fill="white" font-size="12" text-anchor="middle" x="1073.4615384615386" y="320.46296296296293">873</text><text fill="white" font-size="12" text-anchor="middle" transform="rotate(-45,1073.4615384615386,570)" x="1073.4615384615386" y="570">2025-08-17</text><rect fill="#4DD2FF" height="153.54938271604937" width="30" x="1123.8461538461538" y="396.45061728395063" /><text fill="white" font-size="12" text-anchor="middle" x="1138.8461538461538" y="391.45061728395063">597</text><text fill="white" font-size="12" text-anchor="middle" transform="rotate(-45,1138.8461538461538,570)" x="1138.8461538461538" y="570">2025-08-24</text><rect fill="#4DD2FF" height="180.0411522633745" width="30" x="1189.2307692307693" y="369.9588477366255" /><text fill="white" font-size="12" text-anchor="middle" x="1204.2307692307693" y="364.9588477366255">700</text><text fill="white" font-size="12" text-anchor="middle" transform="rotate(-45,1204.2307692307693,570)" x="1204.2307692307693" y="570">2025-08-31</text><rect fill="#4DD2FF" height="210.13374485596708" width="30" x="1254.6153846153845" y="339.86625514403295" /><text fill="white" font-size="12" text-anchor="middle" x="1269.6153846153845" y="334.86625514403295">817</text><text fill="white" font-size="12" text-anchor="middle" transform="rotate(-45,1269.6153846153845,570)" x="1269.6153846153845" y="570">2025-09-07</text><rect fill="#4DD2FF" height="237.13991769547323" width="30" x="1320.0" y="312.86008230452677" /><text fill="white" font-size="12" text-anchor="middle" x="1335.0" y="307.86008230452677">922</text><text fill="white" font-size="12" text-anchor="middle" transform="rotate(-45,1335.0,570)" x="1335.0" y="570">2025-09-14</text><rect fill="#4DD2FF" height="137.08847736625515" width="30" x="1385.3846153846152" y="412.9115226337449" /><text fill="white" font-size="12" text-anchor="middle" x="1400.3846153846152" y="407.9115226337449">533</text><text fill="white" font-size="12" text-anchor="middle" transform="rotate(-45,1400.3846153846152,570)" x="1400.3846153846152" y="570">2025-09-21</text><rect fill="#4DD2FF" height="160.49382716049382" width="30" x="1450.7692307692307" y="389.5061728395062" /><text fill="white" font-size="12" text-anchor="middle" x="1465.7692307692307" y="384.5061728395062">624</text><text fill="white" font-size="12" text-anchor="middle" transform="rotate(-45,1465.7692307692307,570)" x="1465.7692307692307" y="570">2025-09-28</text><rect fill="#4DD2FF" height="197.53086419753086" width="30" x="1516.1538461538462" y="352.46913580246917" /><text fill="white" font-size="12" text-anchor="middle" x="1531.1538461538462" y="347.46913580246917">768</text><text fill="white" font-size="12" text-anchor="middle" transform="rotate(-45,1531.1538461538462,570)" x="1531.1538461538462" y="570">2025-10-05</text><rect fill="#4DD2FF" height="303.24074074074076" width="30" x="1581.5384615384614" y="246.75925925925924" /><text fill="white" font-size="12" text-anchor="middle" x="1596.5384615384614" y="241.75925925925924">1179</text><text fill="white" font-size="12" text-anchor="middle" transform="rotate(-45,1596.5384615384614,570)" x="1596.5384615384614" y="570">2025-10-12</text><rect fill="#4DD2FF" height="266.7181069958848" width="30" x="1646.923076923077" y="283.2818930041152" /><text fill="white" font-size="12" text-anchor="middle" x="1661.923076923077" y="278.2818930041152">1037</text><text fill="white" font-size="12" text-anchor="middle" transform="rotate(-45,1661.923076923077,570)" x="1661.923076923077" y="570">2025-10-19</text><rect fill="#4DD2FF" height="46.29629629629629" width="30" x="1712.3076923076924" y="503.7037037037037" /><text fill="white" font-size="12" text-anchor="middle" x="1727.3076923076924" y="498.7037037037037">180</text><text fill="white" font-size="12" text-anchor="middle" transform="rotate(-45,1727.3076923076924,570)" x="1727.3076923076924" y="570">2025-10-26</text><line stroke="white" x1="60" x2="60" y1="50" y2="550" /><line stroke="white" x1="60" x2="1760" y1="550" y2="550" /></svg>