<?xml version="1.0" encoding="utf-8" ?>
<svg baseProfile="full" height="600" version="1.1" width="1800" xmlns="http://www.w3.org/2000/svg" xmlns:ev="http://www.w3.org/2001/xml-events" xmlns:xlink="http://www.w3.org/1999/xlink"><defs /><rect fill="#222222" height="100%" width="100%" x="0" y="0" /><text fill="white" font-size="20" text-anchor="middle" x="900.0" y="30">Weekly Totals (Last 52 Weeks)</text><rect fill="#4DD2FF" height="67.12962962962963" width="30" x="66.7948717948718" y="482.8703703703704" /><text fill="white" font-size="12" text-anchor="middle" x="81.7948717948718" y="477.8703703703704">261</text><text fill="white" font-size="12" text-anchor="middle" transform="rotate(-45,81.7948717948718,570)" x="81.7948717948718" y="570">2025-05-04</text><rect fill="#4DD2FF" height="500.0" width="30" x="110.38461538461539" y="50.0" /><text fill="white" font-size="12" text-anchor="middle" x="125.38461538461539" y="45.0">1944</text><text fill="white" font-size="12" text-anchor="middle" transform="rotate(-45,125.38461538461539,570)" x="125.38461538461539" y="570">2025-05-11</text><rect fill="#4DD2FF" height="380.65843621399176" width="30" x="153.97435897435898" y="169.34156378600824" /><text fill="white" font-size="12" text-anchor="middle" x="168.97435897435898" y="164.34156378600824">1480</text><text fill="white" font-size="12" text-anchor="middle" transform="rotate(-45,168.97435897435898,570)" x="168.97435897435898" y="570">2025-05-18</text><rect fill="#4DD2FF" height="450.61728395061726" width="30" x="197.56410256410257" y="99.38271604938274" /><text fill="white" font-size="12" text-anchor="middle" x="212.56410256410257" y="94.38271604938274">1752</text><text fill="white" font-size="12" text-anchor="middle" transform="rotate(-45,212.56410256410257,570)" x="212.56410256410257" y="570">2025-05-25</text><rect fill="#4DD2FF" height="307.61316872427983" width="30" x="241.15384615384616" y="242.38683127572017" /><text fill="white" font-size="12" text-anchor="middle" x="256.1538461538462" y="237.38683127572017">1196</text><text fill="white" font-size="12" text-anchor="middle" transform="rotate(-45,256.1538461538462,570)" x="256.1538461538462" y="570">2025-06-01</text><rect fill="#4DD2FF" height="301.6975308641975" width="30" x="284.7435897435897" y="248.30246913580248" /><text fill="white" font-size="12" text-anchor="middle" x="299.7435897435897" y="243.30246913580248">1173</text><text fill="white" font-size="12" text-anchor="middle" transform="rotate(-45,299.7435897435897,570)" x="299.7435897435897" y="570">2025-06-08</text><rect fill="#4DD2FF" height="284.72222222222223" width="30" x="328.33333333333337" y="265.27777777777777" /><text fill="white" font-size="12" text-anchor="middle" x="343.33333333333337" y="260.27777777777777">1107</text><text fill="white" font-size="12" text-anchor="middle" transform="rotate(-45,343.33333333333337,570)" x="343.33333333333337" y="570">2025-06-15</text><rect fill="#4DD2FF" height="323.55967078189303" width="30" x="371.9230769230769" y="226.44032921810697" /><text fill="white" font-size="12" text-anchor="middle" x="386.9230769230769" y="221.44032921810697">1258</text><text fill="white" font-size="12" text-anchor="middle" transform="rotate(-45,386.9230769230769,570)" x="386.9230769230769" y="570">2025-06-22</text><rect fill="#4DD2FF" height="211.41975308641975" width="30" x="415.51282051282055" y="338.58024691358025" /><text fill="white" font-size="12" text-anchor="middle" x="430.51282051282055" y="333.58024691358025">822</text><text fill="white" font-size="12" text-anchor="middle" transform="rotate(-45,430.51282051282055,570)" x="430.51282051282055" y="570">2025-06-29</text><rect fill="#4DD2FF" height="141.71810699588477" width="30" x="459.1025641025641" y="408.2818930041152" /><text fill="white" font-size="12" text-anchor="middle" x="474.1025641025641" y="403.2818930041152">551</text><text fill="white" font-size="12" text-anchor="middle" transform="rotate(-45,474.1025641025641,570)" x="474.1025641025641" y="570">2025-07-06</text><rect fill="#4DD2FF" height="284.72222222222223" width="30" x="502.69230769230774" y="265.27777777777777" /><text fill="white" font-size="12" text-anchor="middle" x="517.6923076923077" y="260.27777777777777">1107</text><text fill="white" font-size="12" text-anchor="middle" transform="rotate(-45,517.6923076923077,570)" x="517.6923076923077" y="570">2025-07-13</text><rect fill="#4DD2FF" height="355.9670781893004" width="30" x="546.2820512820513" y="194.03292181069958" /><text fill="white" font-size="12" text-anchor="middle" x="561.2820512820513" y="189.03292181069958">1384</text><text fill="white" font-size="12" text-anchor="middle" transform="rotate(-45,561.2820512820513,570)" x="561.2820512820513" y="570">2025-07-20</text><rect fill="#4DD2FF" height="96.19341563786008" width="30" x="589.8717948717949" y="453.8065843621399" /><text fill="white" font-size="12" text-anchor="middle" x="604.8717948717949" y="448.8065843621399">374</text><text fill="white" font-size="12" text-anchor="middle" transform="rotate(-45,604.8717948717949,570)" x="604.8717948717949" y="570">2025-07-27</text><rect fill="#4DD2FF" height="195.98765432098767" width="30" x="633.4615384615386" y="354.01234567901236" /><text fill="white" font-size="12" text-anchor="middle" x="648.4615384615386" y="349.01234567901236">762</text><text fill="white" font-size="12" text-anchor="middle" transform="rotate(-45,648.4615384615386,570)" x="648.4615384615386" y="570">2025-08-03</text><rect fill="#4DD2FF" height="217.33539094650206" width="30" x="677.0512820512821" y="332.66460905349794" /><text fill="white" font-size="12" text-anchor="middle" x="692.0512820512821" y="327.66460905349794">845</text><text fill="white" font-size="12" text-anchor="middle" transform="rotate(-45,692.0512820512821,570)" x="692.0512820512821" y="570">2025-08-10</text><rect fill="#4DD2FF" height="224.53703703703704" width="30" x="720.6410256410256" y="325.46296296296293" /><text fill="white" font-size="12" text-anchor="middle" x="735.6410256410256" y="320.46296296296293">873</text><text fill="white" font-size="12" text-anchor="middle" transform="rotate(-45,735.6410256410256,570)" x="735.6410256410256" y="570">2025-08-17</text><rect fill="#4DD2FF" height="153.54938271604937" width="30" x="764.2307692307693" y="396.45061728395063" /><text fill="white" font-size="12" text-anchor="middle" x="779.2307692307693" y="391.45061728395063">597</text><text fill="white" font-size="12" text-anchor="middle" transform="rotate(-45,779.2307692307693,570)" x="779.2307692307693" y="570">2025-08-24</text><rect fill="#4DD2FF" height="180.0411522633745" width="30" x="807.8205128205129" y="369.9588477366255" /><text fill="white" font-size="12" text-anchor="middle" x="822.8205128205129" y="364.9588477366255">700</text><text fill="white" font-size="12" text-anchor="middle" transform="rotate(-45,822.8205128205129,570)" x="822.8205128205129" y="570">2025-08-31</text><rect fill="#4DD2FF" height="210.13374485596708" width="30" x="851.4102564102565" y="339.86625514403295" /><text fill="white" font-size="12" text-anchor="middle" x="866.4102564102565" y="334.86625514403295">817</text><text fill="white" font-size="12" text-anchor="middle" transform="rotate(-45,866.4102564102565,570)" x="866.4102564102565" y="570">2025-09-07</text><rect fill="#4DD2FF" height="237.13991769547323" width="30" x="895.0" y="312.86008230452677" /><text fill="white" font-size="12" text-anchor="middle" x="910.0" y="307.86008230452677">922</text><text fill="white" font-size="12" text-anchor="middle" transform="rotate(-45,910.0,570)" x="910.0" y="570">2025-09-14</text><rect fill="#4DD2FF" height="137.08847736625515" width="30" x="938.5897435897436" y="412.9115226337449" /><text fill="white" font-size="12" text-anchor="middle" x="953.5897435897436" y="407.9115226337449">533</text><text fill="white" font-size="12" text-anchor="middle" transform="rotate(-45,953.5897435897436,570)" x="953.5897435897436" y="570">2025-09-21</text><rect fill="#4DD2FF" height="160.49382716049382" width="30" x="982.1794871794873" y="389.5061728395062" /><text fill="white" font-size="12" text-anchor="middle" x="997.1794871794873" y="384.5061728395062">624</text><text fill="white" font-size="12" text-anchor="middle" transform="rotate(-45,997.1794871794873,570)" x="997.1794871794873" y="570">2025-09-28</text><rect fill="#4DD2FF" height="197.53086419753086" width="30" x="1025.7692307692307" y="352.46913580246917" /><text fill="white" font-size="12" text-anchor="middle" x="1040.7692307692307" y="347.46913580246917">768</text><text fill="white" font-size="12" text-anchor="middle" transform="rotate(-45,1040.7692307692307,570)" x="1040.7692307692307" y="570">2025-10-05</text><rect fill="#4DD2FF" height="303.24074074074076" width="30" x="1069.3589743589744" y="246.75925925925924" /><text fill="white" font-size="12" text-anchor="middle" x="1084.3589743589744" y="241.75925925925924">1179</text><text fill="white" font-size="12" text-anchor="middle" transform="rotate(-45,1084.3589743589744,570)" x="1084.3589743589744" y="570">2025-10-12</text><rect fill="#4DD2FF" height="266.7181069958848" width="30" x="1112.948717948718" y="283.2818930041152" /><text fill="white" font-size="12" text-anchor="middle" x="1127.948717948718" y="278.2818930041152">1037</text><text fill="white" font-size="12" text-anchor="middle" transform="rotate(-45,1127.948717948718,570)" x="1127.948717948718" y="570">2025-10-19</text><rect fill="#4DD2FF" height="184.15637860082305" width="30" x="1156.5384615384617" y="365.843621399177" /><text fill="white" font-size="12" text-anchor="middle" x="1171.5384615384617" y="360.843621399177">716</text><text fill="white" font-size="12" text-anchor="middle" transform="rotate(-45,1171.5384615384617,570)" x="1171.5384615384617" y="570">2025-10-26</text><rect fill="#4DD2FF" height="211.41975308641975" width="30" x="1200.1282051282053" y="338.58024691358025" /><text fill="white" font-size="12" text-anchor="middle" x="1215.1282051282053" y="333.58024691358025">822</text><text fill="white" font-size="12" text-anchor="middle" transform="rotate(-45,1215.1282051282053,570)" x="1215.1282051282053" y="570">2025-11-02</text><rect fill="#4DD2FF" height="122.94238683127571" width="30" x="1243.7179487179487" y="427.0576131687243" /><text fill="white" font-size="12" text-anchor="middle" x="1258.7179487179487" y="422.0576131687243">478</text><text fill="white" font-size="12" text-anchor="middle" transform="rotate(-45,1258.7179487179487,570)" x="1258.7179487179487" y="570">2025-11-09</text><rect fill="#4DD2FF" height="307.8703703703703" width="30" x="1287.3076923076924" y="242.12962962962968" /><text fill="white" font-size="12" text-anchor="middle" x="1302.3076923076924" y="237.12962962962968">1197</text><text fill="white" font-size="12" text-anchor="middle" transform="rotate(-45,1302.3076923076924,570)" x="1302.3076923076924" y="570">2025-11-16</text><rect fill="#4DD2FF" height="10.2880658436214" width="30" x="1330.897435897436" y="539.7119341563786" /><text fill="white" font-size="12" text-anchor="middle" x="1345.897435897436" y="534.7119341563786">40</text><text fill="white" font-size="12" text-anchor="middle" transform="rotate(-45,1345.897435897436,570)" x="1345.897435897436" y="570">2025-11-23</text><rect fill="#4DD2FF" height="111.88271604938271" width="30" x="1374.4871794871794" y="438.1172839506173" /><text fill="white" font-size="12" text-anchor="middle" x="1389.4871794871794" y="433.1172839506173">435</text><text fill="white" font-size="12" text-anchor="middle" transform="rotate(-45,1389.4871794871794,570)" x="1389.4871794871794" y="570">2025-11-30</text><rect fill="#4DD2FF" height="66.61522633744856" width="30" x="1418.076923076923" y="483.3847736625514" /><text fill="white" font-size="12" text-anchor="middle" x="1433.076923076923" y="478.3847736625514">259</text><text fill="white" font-size="12" text-anchor="middle" transform="rotate(-45,1433.076923076923,570)" x="1433.076923076923" y="570">2025-12-07</text><rect fill="#4DD2FF" height="342.5925925925926" width="30" x="1461.6666666666667" y="207.4074074074074" /><text fill="white" font-size="12" text-anchor="middle" x="1476.6666666666667" y="202.4074074074074">1332</text><text fill="white" font-size="12" text-anchor="middle" transform="rotate(-45,1476.6666666666667,570)" x="1476.6666666666667" y="570">2025-12-14</text><rect fill="#4DD2FF" height="326.13168724279836" width="30" x="1505.2564102564104" y="223.86831275720164" /><text fill="white" font-size="12" text-anchor="middle" x="1520.2564102564104" y="218.86831275720164">1268</text><text fill="white" font-size="12" text-anchor="middle" transform="rotate(-45,1520.2564102564104,570)" x="1520.2564102564104" y="570">2025-12-21</text><rect fill="#4DD2FF" height="369.34156378600824" width="30" x="1548.846153846154" y="180.65843621399176" /><text fill="white" font-size="12" text-anchor="middle" x="1563.846153846154" y="175.65843621399176">1436</text><text fill="white" font-size="12" text-anchor="middle" transform="rotate(-45,1563.846153846154,570)" x="1563.846153846154" y="570">2025-12-28</text><rect fill="#4DD2FF" height="359.82510288065845" width="30" x="1592.4358974358975" y="190.17489711934155" /><text fill="white" font-size="12" text-anchor="middle" x="1607.4358974358975" y="185.17489711934155">1399</text><text fill="white" font-size="12" text-anchor="middle" transform="rotate(-45,1607.4358974358975,570)" x="1607.4358974358975" y="570">2026-01-04</text><rect fill="#4DD2FF" height="382.45884773662556" width="30" x="1636.025641025641" y="167.54115226337444" /><text fill="white" font-size="12" text-anchor="middle" x="1651.025641025641" y="162.54115226337444">1487</text><text fill="white" font-size="12" text-anchor="middle" transform="rotate(-45,1651.025641025641,570)" x="1651.025641025641" y="570">2026-01-11</text><rect fill="#4DD2FF" height="336.1625514403292" width="30" x="1679.6153846153848" y="213.8374485596708" /><text fill="white" font-size="12" text-anchor="middle" x="1694.6153846153848" y="208.8374485596708">1307</text><text fill="white" font-size="12" text-anchor="middle" transform="rotate(-45,1694.6153846153848,570)" x="1694.6153846153848" y="570">2026-01-18</text><rect fill="#4DD2FF" height="244.34156378600824" width="30" x="1723.2051282051282" y="305.65843621399176" /><text fill="white" font-size="12" text-anchor="middle" x="1738.2051282051282" y="300.65843621399176">950</text><text fill="white" font-size="12" text-anchor="middle" transform="rotate(-45,1738.2051282051282,570)" x="1738.2051282051282" y="570">2026-01-25</text><line stroke="white" x1="60" x2="60" y1="50" y2="550" /><line stroke="white" x1="60" x2="1760" y1="550" y2="550" /></svg>