<?xml version="1.0" encoding="utf-8" ?>
<svg baseProfile="full" height="600" version="1.1" width="1800" xmlns="http://www.w3.org/2000/svg" xmlns:ev="http://www.w3.org/2001/xml-events" xmlns:xlink="http://www.w3.org/1999/xlink"><defs /><rect fill="#222222" height="100%" width="100%" x="0" y="0" /><text fill="white" font-size="20" text-anchor="middle" x="900.0" y="30">Weekly Totals (Last 52 Weeks)</text><rect fill="#4DD2FF" height="67.12962962962963" width="30" x="69.28571428571428" y="482.8703703703704" /><text fill="white" font-size="12" text-anchor="middle" x="84.28571428571428" y="477.8703703703704">261</text><text fill="white" font-size="12" text-anchor="middle" transform="rotate(-45,84.28571428571428,570)" x="84.28571428571428" y="570">2025-05-04</text><rect fill="#4DD2FF" height="500.0" width="30" x="117.85714285714286" y="50.0" /><text fill="white" font-size="12" text-anchor="middle" x="132.85714285714286" y="45.0">1944</text><text fill="white" font-size="12" text-anchor="middle" transform="rotate(-45,132.85714285714286,570)" x="132.85714285714286" y="570">2025-05-11</text><rect fill="#4DD2FF" height="380.65843621399176" width="30" x="166.42857142857142" y="169.34156378600824" /><text fill="white" font-size="12" text-anchor="middle" x="181.42857142857142" y="164.34156378600824">1480</text><text fill="white" font-size="12" text-anchor="middle" transform="rotate(-45,181.42857142857142,570)" x="181.42857142857142" y="570">2025-05-18</text><rect fill="#4DD2FF" height="450.61728395061726" width="30" x="215.0" y="99.38271604938274" /><text fill="white" font-size="12" text-anchor="middle" x="230.0" y="94.38271604938274">1752</text><text fill="white" font-size="12" text-anchor="middle" transform="rotate(-45,230.0,570)" x="230.0" y="570">2025-05-25</text><rect fill="#4DD2FF" height="307.61316872427983" width="30" x="263.57142857142856" y="242.38683127572017" /><text fill="white" font-size="12" text-anchor="middle" x="278.57142857142856" y="237.38683127572017">1196</text><text fill="white" font-size="12" text-anchor="middle" transform="rotate(-45,278.57142857142856,570)" x="278.57142857142856" y="570">2025-06-01</text><rect fill="#4DD2FF" height="301.6975308641975" width="30" x="312.1428571428571" y="248.30246913580248" /><text fill="white" font-size="12" text-anchor="middle" x="327.1428571428571" y="243.30246913580248">1173</text><text fill="white" font-size="12" text-anchor="middle" transform="rotate(-45,327.1428571428571,570)" x="327.1428571428571" y="570">2025-06-08</text><rect fill="#4DD2FF" height="284.72222222222223" width="30" x="360.7142857142857" y="265.27777777777777" /><text fill="white" font-size="12" text-anchor="middle" x="375.7142857142857" y="260.27777777777777">1107</text><text fill="white" font-size="12" text-anchor="middle" transform="rotate(-45,375.7142857142857,570)" x="375.7142857142857" y="570">2025-06-15</text><rect fill="#4DD2FF" height="323.55967078189303" width="30" x="409.2857142857143" y="226.44032921810697" /><text fill="white" font-size="12" text-anchor="middle" x="424.2857142857143" y="221.44032921810697">1258</text><text fill="white" font-size="12" text-anchor="middle" transform="rotate(-45,424.2857142857143,570)" x="424.2857142857143" y="570">2025-06-22</text><rect fill="#4DD2FF" height="211.41975308641975" width="30" x="457.85714285714283" y="338.58024691358025" /><text fill="white" font-size="12" text-anchor="middle" x="472.85714285714283" y="333.58024691358025">822</text><text fill="white" font-size="12" text-anchor="middle" transform="rotate(-45,472.85714285714283,570)" x="472.85714285714283" y="570">2025-06-29</text><rect fill="#4DD2FF" height="141.71810699588477" width="30" x="506.4285714285714" y="408.2818930041152" /><text fill="white" font-size="12" text-anchor="middle" x="521.4285714285713" y="403.2818930041152">551</text><text fill="white" font-size="12" text-anchor="middle" transform="rotate(-45,521.4285714285713,570)" x="521.4285714285713" y="570">2025-07-06</text><rect fill="#4DD2FF" height="284.72222222222223" width="30" x="555.0" y="265.27777777777777" /><text fill="white" font-size="12" text-anchor="middle" x="570.0" y="260.27777777777777">1107</text><text fill="white" font-size="12" text-anchor="middle" transform="rotate(-45,570.0,570)" x="570.0" y="570">2025-07-13</text><rect fill="#4DD2FF" height="355.9670781893004" width="30" x="603.5714285714286" y="194.03292181069958" /><text fill="white" font-size="12" text-anchor="middle" x="618.5714285714286" y="189.03292181069958">1384</text><text fill="white" font-size="12" text-anchor="middle" transform="rotate(-45,618.5714285714286,570)" x="618.5714285714286" y="570">2025-07-20</text><rect fill="#4DD2FF" height="96.19341563786008" width="30" x="652.1428571428572" y="453.8065843621399" /><text fill="white" font-size="12" text-anchor="middle" x="667.1428571428572" y="448.8065843621399">374</text><text fill="white" font-size="12" text-anchor="middle" transform="rotate(-45,667.1428571428572,570)" x="667.1428571428572" y="570">2025-07-27</text><rect fill="#4DD2FF" height="195.98765432098767" width="30" x="700.7142857142858" y="354.01234567901236" /><text fill="white" font-size="12" text-anchor="middle" x="715.7142857142858" y="349.01234567901236">762</text><text fill="white" font-size="12" text-anchor="middle" transform="rotate(-45,715.7142857142858,570)" x="715.7142857142858" y="570">2025-08-03</text><rect fill="#4DD2FF" height="217.33539094650206" width="30" x="749.2857142857143" y="332.66460905349794" /><text fill="white" font-size="12" text-anchor="middle" x="764.2857142857143" y="327.66460905349794">845</text><text fill="white" font-size="12" text-anchor="middle" transform="rotate(-45,764.2857142857143,570)" x="764.2857142857143" y="570">2025-08-10</text><rect fill="#4DD2FF" height="224.53703703703704" width="30" x="797.8571428571429" y="325.46296296296293" /><text fill="white" font-size="12" text-anchor="middle" x="812.8571428571429" y="320.46296296296293">873</text><text fill="white" font-size="12" text-anchor="middle" transform="rotate(-45,812.8571428571429,570)" x="812.8571428571429" y="570">2025-08-17</text><rect fill="#4DD2FF" height="153.54938271604937" width="30" x="846.4285714285714" y="396.45061728395063" /><text fill="white" font-size="12" text-anchor="middle" x="861.4285714285714" y="391.45061728395063">597</text><text fill="white" font-size="12" text-anchor="middle" transform="rotate(-45,861.4285714285714,570)" x="861.4285714285714" y="570">2025-08-24</text><rect fill="#4DD2FF" height="180.0411522633745" width="30" x="895.0" y="369.9588477366255" /><text fill="white" font-size="12" text-anchor="middle" x="910.0" y="364.9588477366255">700</text><text fill="white" font-size="12" text-anchor="middle" transform="rotate(-45,910.0,570)" x="910.0" y="570">2025-08-31</text><rect fill="#4DD2FF" height="210.13374485596708" width="30" x="943.5714285714286" y="339.86625514403295" /><text fill="white" font-size="12" text-anchor="middle" x="958.5714285714286" y="334.86625514403295">817</text><text fill="white" font-size="12" text-anchor="middle" transform="rotate(-45,958.5714285714286,570)" x="958.5714285714286" y="570">2025-09-07</text><rect fill="#4DD2FF" height="237.13991769547323" width="30" x="992.1428571428571" y="312.86008230452677" /><text fill="white" font-size="12" text-anchor="middle" x="1007.1428571428571" y="307.86008230452677">922</text><text fill="white" font-size="12" text-anchor="middle" transform="rotate(-45,1007.1428571428571,570)" x="1007.1428571428571" y="570">2025-09-14</text><rect fill="#4DD2FF" height="137.08847736625515" width="30" x="1040.7142857142856" y="412.9115226337449" /><text fill="white" font-size="12" text-anchor="middle" x="1055.7142857142856" y="407.9115226337449">533</text><text fill="white" font-size="12" text-anchor="middle" transform="rotate(-45,1055.7142857142856,570)" x="1055.7142857142856" y="570">2025-09-21</text><rect fill="#4DD2FF" height="160.49382716049382" width="30" x="1089.2857142857142" y="389.5061728395062" /><text fill="white" font-size="12" text-anchor="middle" x="1104.2857142857142" y="384.5061728395062">624</text><text fill="white" font-size="12" text-anchor="middle" transform="rotate(-45,1104.2857142857142,570)" x="1104.2857142857142" y="570">2025-09-28</text><rect fill="#4DD2FF" height="197.53086419753086" width="30" x="1137.8571428571427" y="352.46913580246917" /><text fill="white" font-size="12" text-anchor="middle" x="1152.8571428571427" y="347.46913580246917">768</text><text fill="white" font-size="12" text-anchor="middle" transform="rotate(-45,1152.8571428571427,570)" x="1152.8571428571427" y="570">2025-10-05</text><rect fill="#4DD2FF" height="303.24074074074076" width="30" x="1186.4285714285713" y="246.75925925925924" /><text fill="white" font-size="12" text-anchor="middle" x="1201.4285714285713" y="241.75925925925924">1179</text><text fill="white" font-size="12" text-anchor="middle" transform="rotate(-45,1201.4285714285713,570)" x="1201.4285714285713" y="570">2025-10-12</text><rect fill="#4DD2FF" height="266.7181069958848" width="30" x="1235.0" y="283.2818930041152" /><text fill="white" font-size="12" text-anchor="middle" x="1250.0" y="278.2818930041152">1037</text><text fill="white" font-size="12" text-anchor="middle" transform="rotate(-45,1250.0,570)" x="1250.0" y="570">2025-10-19</text><rect fill="#4DD2FF" height="184.15637860082305" width="30" x="1283.5714285714284" y="365.843621399177" /><text fill="white" font-size="12" text-anchor="middle" x="1298.5714285714284" y="360.843621399177">716</text><text fill="white" font-size="12" text-anchor="middle" transform="rotate(-45,1298.5714285714284,570)" x="1298.5714285714284" y="570">2025-10-26</text><rect fill="#4DD2FF" height="211.41975308641975" width="30" x="1332.142857142857" y="338.58024691358025" /><text fill="white" font-size="12" text-anchor="middle" x="1347.142857142857" y="333.58024691358025">822</text><text fill="white" font-size="12" text-anchor="middle" transform="rotate(-45,1347.142857142857,570)" x="1347.142857142857" y="570">2025-11-02</text><rect fill="#4DD2FF" height="122.94238683127571" width="30" x="1380.7142857142856" y="427.0576131687243" /><text fill="white" font-size="12" text-anchor="middle" x="1395.7142857142856" y="422.0576131687243">478</text><text fill="white" font-size="12" text-anchor="middle" transform="rotate(-45,1395.7142857142856,570)" x="1395.7142857142856" y="570">2025-11-09</text><rect fill="#4DD2FF" height="307.8703703703703" width="30" x="1429.2857142857142" y="242.12962962962968" /><text fill="white" font-size="12" text-anchor="middle" x="1444.2857142857142" y="237.12962962962968">1197</text><text fill="white" font-size="12" text-anchor="middle" transform="rotate(-45,1444.2857142857142,570)" x="1444.2857142857142" y="570">2025-11-16</text><rect fill="#4DD2FF" height="10.2880658436214" width="30" x="1477.8571428571427" y="539.7119341563786" /><text fill="white" font-size="12" text-anchor="middle" x="1492.8571428571427" y="534.7119341563786">40</text><text fill="white" font-size="12" text-anchor="middle" transform="rotate(-45,1492.8571428571427,570)" x="1492.8571428571427" y="570">2025-11-23</text><rect fill="#4DD2FF" height="111.88271604938271" width="30" x="1526.4285714285713" y="438.1172839506173" /><text fill="white" font-size="12" text-anchor="middle" x="1541.4285714285713" y="433.1172839506173">435</text><text fill="white" font-size="12" text-anchor="middle" transform="rotate(-45,1541.4285714285713,570)" x="1541.4285714285713" y="570">2025-11-30</text><rect fill="#4DD2FF" height="66.61522633744856" width="30" x="1574.9999999999998" y="483.3847736625514" /><text fill="white" font-size="12" text-anchor="middle" x="1589.9999999999998" y="478.3847736625514">259</text><text fill="white" font-size="12" text-anchor="middle" transform="rotate(-45,1589.9999999999998,570)" x="1589.9999999999998" y="570">2025-12-07</text><rect fill="#4DD2FF" height="342.5925925925926" width="30" x="1623.5714285714284" y="207.4074074074074" /><text fill="white" font-size="12" text-anchor="middle" x="1638.5714285714284" y="202.4074074074074">1332</text><text fill="white" font-size="12" text-anchor="middle" transform="rotate(-45,1638.5714285714284,570)" x="1638.5714285714284" y="570">2025-12-14</text><rect fill="#4DD2FF" height="326.13168724279836" width="30" x="1672.142857142857" y="223.86831275720164" /><text fill="white" font-size="12" text-anchor="middle" x="1687.142857142857" y="218.86831275720164">1268</text><text fill="white" font-size="12" text-anchor="middle" transform="rotate(-45,1687.142857142857,570)" x="1687.142857142857" y="570">2025-12-21</text><rect fill="#4DD2FF" height="263.11728395061726" width="30" x="1720.7142857142856" y="286.88271604938274" /><text fill="white" font-size="12" text-anchor="middle" x="1735.7142857142856" y="281.88271604938274">1023</text><text fill="white" font-size="12" text-anchor="middle" transform="rotate(-45,1735.7142857142856,570)" x="1735.7142857142856" y="570">2025-12-28</text><line stroke="white" x1="60" x2="60" y1="50" y2="550" /><line stroke="white" x1="60" x2="1760" y1="550" y2="550" /></svg>