<?xml version="1.0" encoding="utf-8" ?>
<svg baseProfile="full" height="600" version="1.1" width="1800" xmlns="http://www.w3.org/2000/svg" xmlns:ev="http://www.w3.org/2001/xml-events" xmlns:xlink="http://www.w3.org/1999/xlink"><defs /><rect fill="#222222" height="100%" width="100%" x="0" y="0" /><text fill="white" font-size="20" text-anchor="middle" x="900.0" y="30">Weekly Totals (Last 52 Weeks)</text><rect fill="#4DD2FF" height="67.12962962962963" width="29.693877551020407" x="62.5" y="482.8703703703704" /><text fill="white" font-size="12" text-anchor="middle" x="77.34693877551021" y="477.8703703703704">261</text><text fill="white" font-size="12" text-anchor="middle" transform="rotate(-45,77.34693877551021,570)" x="77.34693877551021" y="570">2025-05-04</text><rect fill="#4DD2FF" height="500.0" width="29.693877551020407" x="97.1938775510204" y="50.0" /><text fill="white" font-size="12" text-anchor="middle" x="112.0408163265306" y="45.0">1944</text><text fill="white" font-size="12" text-anchor="middle" transform="rotate(-45,112.0408163265306,570)" x="112.0408163265306" y="570">2025-05-11</text><rect fill="#4DD2FF" height="380.65843621399176" width="29.693877551020407" x="131.8877551020408" y="169.34156378600824" /><text fill="white" font-size="12" text-anchor="middle" x="146.73469387755102" y="164.34156378600824">1480</text><text fill="white" font-size="12" text-anchor="middle" transform="rotate(-45,146.73469387755102,570)" x="146.73469387755102" y="570">2025-05-18</text><rect fill="#4DD2FF" height="450.61728395061726" width="29.693877551020407" x="166.5816326530612" y="99.38271604938274" /><text fill="white" font-size="12" text-anchor="middle" x="181.42857142857142" y="94.38271604938274">1752</text><text fill="white" font-size="12" text-anchor="middle" transform="rotate(-45,181.42857142857142,570)" x="181.42857142857142" y="570">2025-05-25</text><rect fill="#4DD2FF" height="307.61316872427983" width="29.693877551020407" x="201.27551020408163" y="242.38683127572017" /><text fill="white" font-size="12" text-anchor="middle" x="216.12244897959184" y="237.38683127572017">1196</text><text fill="white" font-size="12" text-anchor="middle" transform="rotate(-45,216.12244897959184,570)" x="216.12244897959184" y="570">2025-06-01</text><rect fill="#4DD2FF" height="301.6975308641975" width="29.693877551020407" x="235.96938775510205" y="248.30246913580248" /><text fill="white" font-size="12" text-anchor="middle" x="250.81632653061226" y="243.30246913580248">1173</text><text fill="white" font-size="12" text-anchor="middle" transform="rotate(-45,250.81632653061226,570)" x="250.81632653061226" y="570">2025-06-08</text><rect fill="#4DD2FF" height="284.72222222222223" width="29.693877551020407" x="270.6632653061224" y="265.27777777777777" /><text fill="white" font-size="12" text-anchor="middle" x="285.5102040816326" y="260.27777777777777">1107</text><text fill="white" font-size="12" text-anchor="middle" transform="rotate(-45,285.5102040816326,570)" x="285.5102040816326" y="570">2025-06-15</text><rect fill="#4DD2FF" height="323.55967078189303" width="29.693877551020407" x="305.35714285714283" y="226.44032921810697" /><text fill="white" font-size="12" text-anchor="middle" x="320.204081632653" y="221.44032921810697">1258</text><text fill="white" font-size="12" text-anchor="middle" transform="rotate(-45,320.204081632653,570)" x="320.204081632653" y="570">2025-06-22</text><rect fill="#4DD2FF" height="211.41975308641975" width="29.693877551020407" x="340.05102040816325" y="338.58024691358025" /><text fill="white" font-size="12" text-anchor="middle" x="354.89795918367344" y="333.58024691358025">822</text><text fill="white" font-size="12" text-anchor="middle" transform="rotate(-45,354.89795918367344,570)" x="354.89795918367344" y="570">2025-06-29</text><rect fill="#4DD2FF" height="141.71810699588477" width="29.693877551020407" x="374.7448979591837" y="408.2818930041152" /><text fill="white" font-size="12" text-anchor="middle" x="389.59183673469386" y="403.2818930041152">551</text><text fill="white" font-size="12" text-anchor="middle" transform="rotate(-45,389.59183673469386,570)" x="389.59183673469386" y="570">2025-07-06</text><rect fill="#4DD2FF" height="284.72222222222223" width="29.693877551020407" x="409.4387755102041" y="265.27777777777777" /><text fill="white" font-size="12" text-anchor="middle" x="424.2857142857143" y="260.27777777777777">1107</text><text fill="white" font-size="12" text-anchor="middle" transform="rotate(-45,424.2857142857143,570)" x="424.2857142857143" y="570">2025-07-13</text><rect fill="#4DD2FF" height="355.9670781893004" width="29.693877551020407" x="444.13265306122446" y="194.03292181069958" /><text fill="white" font-size="12" text-anchor="middle" x="458.97959183673464" y="189.03292181069958">1384</text><text fill="white" font-size="12" text-anchor="middle" transform="rotate(-45,458.97959183673464,570)" x="458.97959183673464" y="570">2025-07-20</text><rect fill="#4DD2FF" height="96.19341563786008" width="29.693877551020407" x="478.8265306122449" y="453.8065843621399" /><text fill="white" font-size="12" text-anchor="middle" x="493.67346938775506" y="448.8065843621399">374</text><text fill="white" font-size="12" text-anchor="middle" transform="rotate(-45,493.67346938775506,570)" x="493.67346938775506" y="570">2025-07-27</text><rect fill="#4DD2FF" height="195.98765432098767" width="29.693877551020407" x="513.5204081632653" y="354.01234567901236" /><text fill="white" font-size="12" text-anchor="middle" x="528.3673469387755" y="349.01234567901236">762</text><text fill="white" font-size="12" text-anchor="middle" transform="rotate(-45,528.3673469387755,570)" x="528.3673469387755" y="570">2025-08-03</text><rect fill="#4DD2FF" height="217.33539094650206" width="29.693877551020407" x="548.2142857142857" y="332.66460905349794" /><text fill="white" font-size="12" text-anchor="middle" x="563.0612244897959" y="327.66460905349794">845</text><text fill="white" font-size="12" text-anchor="middle" transform="rotate(-45,563.0612244897959,570)" x="563.0612244897959" y="570">2025-08-10</text><rect fill="#4DD2FF" height="224.53703703703704" width="29.693877551020407" x="582.9081632653061" y="325.46296296296293" /><text fill="white" font-size="12" text-anchor="middle" x="597.7551020408164" y="320.46296296296293">873</text><text fill="white" font-size="12" text-anchor="middle" transform="rotate(-45,597.7551020408164,570)" x="597.7551020408164" y="570">2025-08-17</text><rect fill="#4DD2FF" height="153.54938271604937" width="29.693877551020407" x="617.6020408163265" y="396.45061728395063" /><text fill="white" font-size="12" text-anchor="middle" x="632.4489795918367" y="391.45061728395063">597</text><text fill="white" font-size="12" text-anchor="middle" transform="rotate(-45,632.4489795918367,570)" x="632.4489795918367" y="570">2025-08-24</text><rect fill="#4DD2FF" height="180.0411522633745" width="29.693877551020407" x="652.2959183673469" y="369.9588477366255" /><text fill="white" font-size="12" text-anchor="middle" x="667.1428571428571" y="364.9588477366255">700</text><text fill="white" font-size="12" text-anchor="middle" transform="rotate(-45,667.1428571428571,570)" x="667.1428571428571" y="570">2025-08-31</text><rect fill="#4DD2FF" height="210.13374485596708" width="29.693877551020407" x="686.9897959183673" y="339.86625514403295" /><text fill="white" font-size="12" text-anchor="middle" x="701.8367346938776" y="334.86625514403295">817</text><text fill="white" font-size="12" text-anchor="middle" transform="rotate(-45,701.8367346938776,570)" x="701.8367346938776" y="570">2025-09-07</text><rect fill="#4DD2FF" height="237.13991769547323" width="29.693877551020407" x="721.6836734693877" y="312.86008230452677" /><text fill="white" font-size="12" text-anchor="middle" x="736.530612244898" y="307.86008230452677">922</text><text fill="white" font-size="12" text-anchor="middle" transform="rotate(-45,736.530612244898,570)" x="736.530612244898" y="570">2025-09-14</text><rect fill="#4DD2FF" height="137.08847736625515" width="29.693877551020407" x="756.3775510204082" y="412.9115226337449" /><text fill="white" font-size="12" text-anchor="middle" x="771.2244897959184" y="407.9115226337449">533</text><text fill="white" font-size="12" text-anchor="middle" transform="rotate(-45,771.2244897959184,570)" x="771.2244897959184" y="570">2025-09-21</text><rect fill="#4DD2FF" height="160.49382716049382" width="29.693877551020407" x="791.0714285714286" y="389.5061728395062" /><text fill="white" font-size="12" text-anchor="middle" x="805.9183673469388" y="384.5061728395062">624</text><text fill="white" font-size="12" text-anchor="middle" transform="rotate(-45,805.9183673469388,570)" x="805.9183673469388" y="570">2025-09-28</text><rect fill="#4DD2FF" height="197.53086419753086" width="29.693877551020407" x="825.7653061224489" y="352.46913580246917" /><text fill="white" font-size="12" text-anchor="middle" x="840.6122448979592" y="347.46913580246917">768</text><text fill="white" font-size="12" text-anchor="middle" transform="rotate(-45,840.6122448979592,570)" x="840.6122448979592" y="570">2025-10-05</text><rect fill="#4DD2FF" height="303.24074074074076" width="29.693877551020407" x="860.4591836734694" y="246.75925925925924" /><text fill="white" font-size="12" text-anchor="middle" x="875.3061224489796" y="241.75925925925924">1179</text><text fill="white" font-size="12" text-anchor="middle" transform="rotate(-45,875.3061224489796,570)" x="875.3061224489796" y="570">2025-10-12</text><rect fill="#4DD2FF" height="266.7181069958848" width="29.693877551020407" x="895.1530612244898" y="283.2818930041152" /><text fill="white" font-size="12" text-anchor="middle" x="910.0" y="278.2818930041152">1037</text><text fill="white" font-size="12" text-anchor="middle" transform="rotate(-45,910.0,570)" x="910.0" y="570">2025-10-19</text><rect fill="#4DD2FF" height="184.15637860082305" width="29.693877551020407" x="929.8469387755101" y="365.843621399177" /><text fill="white" font-size="12" text-anchor="middle" x="944.6938775510204" y="360.843621399177">716</text><text fill="white" font-size="12" text-anchor="middle" transform="rotate(-45,944.6938775510204,570)" x="944.6938775510204" y="570">2025-10-26</text><rect fill="#4DD2FF" height="211.41975308641975" width="29.693877551020407" x="964.5408163265306" y="338.58024691358025" /><text fill="white" font-size="12" text-anchor="middle" x="979.3877551020408" y="333.58024691358025">822</text><text fill="white" font-size="12" text-anchor="middle" transform="rotate(-45,979.3877551020408,570)" x="979.3877551020408" y="570">2025-11-02</text><rect fill="#4DD2FF" height="122.94238683127571" width="29.693877551020407" x="999.234693877551" y="427.0576131687243" /><text fill="white" font-size="12" text-anchor="middle" x="1014.0816326530612" y="422.0576131687243">478</text><text fill="white" font-size="12" text-anchor="middle" transform="rotate(-45,1014.0816326530612,570)" x="1014.0816326530612" y="570">2025-11-09</text><rect fill="#4DD2FF" height="307.8703703703703" width="29.693877551020407" x="1033.9285714285713" y="242.12962962962968" /><text fill="white" font-size="12" text-anchor="middle" x="1048.7755102040815" y="237.12962962962968">1197</text><text fill="white" font-size="12" text-anchor="middle" transform="rotate(-45,1048.7755102040815,570)" x="1048.7755102040815" y="570">2025-11-16</text><rect fill="#4DD2FF" height="10.2880658436214" width="29.693877551020407" x="1068.6224489795918" y="539.7119341563786" /><text fill="white" font-size="12" text-anchor="middle" x="1083.469387755102" y="534.7119341563786">40</text><text fill="white" font-size="12" text-anchor="middle" transform="rotate(-45,1083.469387755102,570)" x="1083.469387755102" y="570">2025-11-23</text><rect fill="#4DD2FF" height="111.88271604938271" width="29.693877551020407" x="1103.3163265306123" y="438.1172839506173" /><text fill="white" font-size="12" text-anchor="middle" x="1118.1632653061224" y="433.1172839506173">435</text><text fill="white" font-size="12" text-anchor="middle" transform="rotate(-45,1118.1632653061224,570)" x="1118.1632653061224" y="570">2025-11-30</text><rect fill="#4DD2FF" height="66.61522633744856" width="29.693877551020407" x="1138.0102040816325" y="483.3847736625514" /><text fill="white" font-size="12" text-anchor="middle" x="1152.8571428571427" y="478.3847736625514">259</text><text fill="white" font-size="12" text-anchor="middle" transform="rotate(-45,1152.8571428571427,570)" x="1152.8571428571427" y="570">2025-12-07</text><rect fill="#4DD2FF" height="342.5925925925926" width="29.693877551020407" x="1172.704081632653" y="207.4074074074074" /><text fill="white" font-size="12" text-anchor="middle" x="1187.5510204081631" y="202.4074074074074">1332</text><text fill="white" font-size="12" text-anchor="middle" transform="rotate(-45,1187.5510204081631,570)" x="1187.5510204081631" y="570">2025-12-14</text><rect fill="#4DD2FF" height="326.13168724279836" width="29.693877551020407" x="1207.3979591836735" y="223.86831275720164" /><text fill="white" font-size="12" text-anchor="middle" x="1222.2448979591836" y="218.86831275720164">1268</text><text fill="white" font-size="12" text-anchor="middle" transform="rotate(-45,1222.2448979591836,570)" x="1222.2448979591836" y="570">2025-12-21</text><rect fill="#4DD2FF" height="369.34156378600824" width="29.693877551020407" x="1242.0918367346937" y="180.65843621399176" /><text fill="white" font-size="12" text-anchor="middle" x="1256.9387755102039" y="175.65843621399176">1436</text><text fill="white" font-size="12" text-anchor="middle" transform="rotate(-45,1256.9387755102039,570)" x="1256.9387755102039" y="570">2025-12-28</text><rect fill="#4DD2FF" height="359.82510288065845" width="29.693877551020407" x="1276.7857142857142" y="190.17489711934155" /><text fill="white" font-size="12" text-anchor="middle" x="1291.6326530612243" y="185.17489711934155">1399</text><text fill="white" font-size="12" text-anchor="middle" transform="rotate(-45,1291.6326530612243,570)" x="1291.6326530612243" y="570">2026-01-04</text><rect fill="#4DD2FF" height="382.45884773662556" width="29.693877551020407" x="1311.4795918367347" y="167.54115226337444" /><text fill="white" font-size="12" text-anchor="middle" x="1326.3265306122448" y="162.54115226337444">1487</text><text fill="white" font-size="12" text-anchor="middle" transform="rotate(-45,1326.3265306122448,570)" x="1326.3265306122448" y="570">2026-01-11</text><rect fill="#4DD2FF" height="336.1625514403292" width="29.693877551020407" x="1346.173469387755" y="213.8374485596708" /><text fill="white" font-size="12" text-anchor="middle" x="1361.020408163265" y="208.8374485596708">1307</text><text fill="white" font-size="12" text-anchor="middle" transform="rotate(-45,1361.020408163265,570)" x="1361.020408163265" y="570">2026-01-18</text><rect fill="#4DD2FF" height="331.79012345679007" width="29.693877551020407" x="1380.8673469387754" y="218.20987654320993" /><text fill="white" font-size="12" text-anchor="middle" x="1395.7142857142856" y="213.20987654320993">1290</text><text fill="white" font-size="12" text-anchor="middle" transform="rotate(-45,1395.7142857142856,570)" x="1395.7142857142856" y="570">2026-01-25</text><rect fill="#4DD2FF" height="314.5576131687243" width="29.693877551020407" x="1415.561224489796" y="235.4423868312757" /><text fill="white" font-size="12" text-anchor="middle" x="1430.408163265306" y="230.4423868312757">1223</text><text fill="white" font-size="12" text-anchor="middle" transform="rotate(-45,1430.408163265306,570)" x="1430.408163265306" y="570">2026-02-01</text><rect fill="#4DD2FF" height="366.51234567901236" width="29.693877551020407" x="1450.2551020408164" y="183.48765432098764" /><text fill="white" font-size="12" text-anchor="middle" x="1465.1020408163265" y="178.48765432098764">1425</text><text fill="white" font-size="12" text-anchor="middle" transform="rotate(-45,1465.1020408163265,570)" x="1465.1020408163265" y="570">2026-02-08</text><rect fill="#4DD2FF" height="280.3497942386831" width="29.693877551020407" x="1484.9489795918366" y="269.6502057613169" /><text fill="white" font-size="12" text-anchor="middle" x="1499.7959183673468" y="264.6502057613169">1090</text><text fill="white" font-size="12" text-anchor="middle" transform="rotate(-45,1499.7959183673468,570)" x="1499.7959183673468" y="570">2026-02-15</text><rect fill="#4DD2FF" height="372.1707818930041" width="29.693877551020407" x="1519.642857142857" y="177.82921810699588" /><text fill="white" font-size="12" text-anchor="middle" x="1534.4897959183672" y="172.82921810699588">1447</text><text fill="white" font-size="12" text-anchor="middle" transform="rotate(-45,1534.4897959183672,570)" x="1534.4897959183672" y="570">2026-02-22</text><rect fill="#4DD2FF" height="309.1563786008231" width="29.693877551020407" x="1554.3367346938776" y="240.84362139917693" /><text fill="white" font-size="12" text-anchor="middle" x="1569.1836734693877" y="235.84362139917693">1202</text><text fill="white" font-size="12" text-anchor="middle" transform="rotate(-45,1569.1836734693877,570)" x="1569.1836734693877" y="570">2026-03-01</text><rect fill="#4DD2FF" height="209.619341563786" width="29.693877551020407" x="1589.0306122448978" y="340.380658436214" /><text fill="white" font-size="12" text-anchor="middle" x="1603.877551020408" y="335.380658436214">815</text><text fill="white" font-size="12" text-anchor="middle" transform="rotate(-45,1603.877551020408,570)" x="1603.877551020408" y="570">2026-03-08</text><rect fill="#4DD2FF" height="139.6604938271605" width="29.693877551020407" x="1623.7244897959183" y="410.3395061728395" /><text fill="white" font-size="12" text-anchor="middle" x="1638.5714285714284" y="405.3395061728395">543</text><text fill="white" font-size="12" text-anchor="middle" transform="rotate(-45,1638.5714285714284,570)" x="1638.5714285714284" y="570">2026-03-15</text><rect fill="#4DD2FF" height="128.08641975308643" width="29.693877551020407" x="1658.4183673469388" y="421.91358024691357" /><text fill="white" font-size="12" text-anchor="middle" x="1673.265306122449" y="416.91358024691357">498</text><text fill="white" font-size="12" text-anchor="middle" transform="rotate(-45,1673.265306122449,570)" x="1673.265306122449" y="570">2026-03-22</text><rect fill="#4DD2FF" height="139.6604938271605" width="29.693877551020407" x="1693.112244897959" y="410.3395061728395" /><text fill="white" font-size="12" text-anchor="middle" x="1707.9591836734692" y="405.3395061728395">543</text><text fill="white" font-size="12" text-anchor="middle" transform="rotate(-45,1707.9591836734692,570)" x="1707.9591836734692" y="570">2026-03-29</text><rect fill="#4DD2FF" height="88.2201646090535" width="29.693877551020407" x="1727.8061224489795" y="461.7798353909465" /><text fill="white" font-size="12" text-anchor="middle" x="1742.6530612244896" y="456.7798353909465">343</text><text fill="white" font-size="12" text-anchor="middle" transform="rotate(-45,1742.6530612244896,570)" x="1742.6530612244896" y="570">2026-05-03</text><line stroke="white" x1="60" x2="60" y1="50" y2="550" /><line stroke="white" x1="60" x2="1760" y1="550" y2="550" /></svg>