<?xml version="1.0" encoding="utf-8" ?>
<svg baseProfile="full" height="600" version="1.1" width="1800" xmlns="http://www.w3.org/2000/svg" xmlns:ev="http://www.w3.org/2001/xml-events" xmlns:xlink="http://www.w3.org/1999/xlink"><defs /><rect fill="#222222" height="100%" width="100%" x="0" y="0" /><text fill="white" font-size="20" text-anchor="middle" x="900.0" y="30">Weekly Totals (Last 52 Weeks)</text><rect fill="#4DD2FF" height="67.12962962962963" width="30" x="67.36842105263158" y="482.8703703703704" /><text fill="white" font-size="12" text-anchor="middle" x="82.36842105263158" y="477.8703703703704">261</text><text fill="white" font-size="12" text-anchor="middle" transform="rotate(-45,82.36842105263158,570)" x="82.36842105263158" y="570">2025-05-04</text><rect fill="#4DD2FF" height="500.0" width="30" x="112.10526315789473" y="50.0" /><text fill="white" font-size="12" text-anchor="middle" x="127.10526315789473" y="45.0">1944</text><text fill="white" font-size="12" text-anchor="middle" transform="rotate(-45,127.10526315789473,570)" x="127.10526315789473" y="570">2025-05-11</text><rect fill="#4DD2FF" height="380.65843621399176" width="30" x="156.8421052631579" y="169.34156378600824" /><text fill="white" font-size="12" text-anchor="middle" x="171.8421052631579" y="164.34156378600824">1480</text><text fill="white" font-size="12" text-anchor="middle" transform="rotate(-45,171.8421052631579,570)" x="171.8421052631579" y="570">2025-05-18</text><rect fill="#4DD2FF" height="450.61728395061726" width="30" x="201.57894736842107" y="99.38271604938274" /><text fill="white" font-size="12" text-anchor="middle" x="216.57894736842107" y="94.38271604938274">1752</text><text fill="white" font-size="12" text-anchor="middle" transform="rotate(-45,216.57894736842107,570)" x="216.57894736842107" y="570">2025-05-25</text><rect fill="#4DD2FF" height="307.61316872427983" width="30" x="246.31578947368422" y="242.38683127572017" /><text fill="white" font-size="12" text-anchor="middle" x="261.3157894736842" y="237.38683127572017">1196</text><text fill="white" font-size="12" text-anchor="middle" transform="rotate(-45,261.3157894736842,570)" x="261.3157894736842" y="570">2025-06-01</text><rect fill="#4DD2FF" height="301.6975308641975" width="30" x="291.05263157894734" y="248.30246913580248" /><text fill="white" font-size="12" text-anchor="middle" x="306.05263157894734" y="243.30246913580248">1173</text><text fill="white" font-size="12" text-anchor="middle" transform="rotate(-45,306.05263157894734,570)" x="306.05263157894734" y="570">2025-06-08</text><rect fill="#4DD2FF" height="284.72222222222223" width="30" x="335.7894736842105" y="265.27777777777777" /><text fill="white" font-size="12" text-anchor="middle" x="350.7894736842105" y="260.27777777777777">1107</text><text fill="white" font-size="12" text-anchor="middle" transform="rotate(-45,350.7894736842105,570)" x="350.7894736842105" y="570">2025-06-15</text><rect fill="#4DD2FF" height="323.55967078189303" width="30" x="380.52631578947364" y="226.44032921810697" /><text fill="white" font-size="12" text-anchor="middle" x="395.52631578947364" y="221.44032921810697">1258</text><text fill="white" font-size="12" text-anchor="middle" transform="rotate(-45,395.52631578947364,570)" x="395.52631578947364" y="570">2025-06-22</text><rect fill="#4DD2FF" height="211.41975308641975" width="30" x="425.2631578947368" y="338.58024691358025" /><text fill="white" font-size="12" text-anchor="middle" x="440.2631578947368" y="333.58024691358025">822</text><text fill="white" font-size="12" text-anchor="middle" transform="rotate(-45,440.2631578947368,570)" x="440.2631578947368" y="570">2025-06-29</text><rect fill="#4DD2FF" height="141.71810699588477" width="30" x="470.0" y="408.2818930041152" /><text fill="white" font-size="12" text-anchor="middle" x="485.0" y="403.2818930041152">551</text><text fill="white" font-size="12" text-anchor="middle" transform="rotate(-45,485.0,570)" x="485.0" y="570">2025-07-06</text><rect fill="#4DD2FF" height="284.72222222222223" width="30" x="514.7368421052631" y="265.27777777777777" /><text fill="white" font-size="12" text-anchor="middle" x="529.7368421052631" y="260.27777777777777">1107</text><text fill="white" font-size="12" text-anchor="middle" transform="rotate(-45,529.7368421052631,570)" x="529.7368421052631" y="570">2025-07-13</text><rect fill="#4DD2FF" height="355.9670781893004" width="30" x="559.4736842105264" y="194.03292181069958" /><text fill="white" font-size="12" text-anchor="middle" x="574.4736842105264" y="189.03292181069958">1384</text><text fill="white" font-size="12" text-anchor="middle" transform="rotate(-45,574.4736842105264,570)" x="574.4736842105264" y="570">2025-07-20</text><rect fill="#4DD2FF" height="96.19341563786008" width="30" x="604.2105263157895" y="453.8065843621399" /><text fill="white" font-size="12" text-anchor="middle" x="619.2105263157895" y="448.8065843621399">374</text><text fill="white" font-size="12" text-anchor="middle" transform="rotate(-45,619.2105263157895,570)" x="619.2105263157895" y="570">2025-07-27</text><rect fill="#4DD2FF" height="195.98765432098767" width="30" x="648.9473684210526" y="354.01234567901236" /><text fill="white" font-size="12" text-anchor="middle" x="663.9473684210526" y="349.01234567901236">762</text><text fill="white" font-size="12" text-anchor="middle" transform="rotate(-45,663.9473684210526,570)" x="663.9473684210526" y="570">2025-08-03</text><rect fill="#4DD2FF" height="217.33539094650206" width="30" x="693.6842105263157" y="332.66460905349794" /><text fill="white" font-size="12" text-anchor="middle" x="708.6842105263157" y="327.66460905349794">845</text><text fill="white" font-size="12" text-anchor="middle" transform="rotate(-45,708.6842105263157,570)" x="708.6842105263157" y="570">2025-08-10</text><rect fill="#4DD2FF" height="224.53703703703704" width="30" x="738.421052631579" y="325.46296296296293" /><text fill="white" font-size="12" text-anchor="middle" x="753.421052631579" y="320.46296296296293">873</text><text fill="white" font-size="12" text-anchor="middle" transform="rotate(-45,753.421052631579,570)" x="753.421052631579" y="570">2025-08-17</text><rect fill="#4DD2FF" height="153.54938271604937" width="30" x="783.1578947368421" y="396.45061728395063" /><text fill="white" font-size="12" text-anchor="middle" x="798.1578947368421" y="391.45061728395063">597</text><text fill="white" font-size="12" text-anchor="middle" transform="rotate(-45,798.1578947368421,570)" x="798.1578947368421" y="570">2025-08-24</text><rect fill="#4DD2FF" height="180.0411522633745" width="30" x="827.8947368421052" y="369.9588477366255" /><text fill="white" font-size="12" text-anchor="middle" x="842.8947368421052" y="364.9588477366255">700</text><text fill="white" font-size="12" text-anchor="middle" transform="rotate(-45,842.8947368421052,570)" x="842.8947368421052" y="570">2025-08-31</text><rect fill="#4DD2FF" height="210.13374485596708" width="30" x="872.6315789473684" y="339.86625514403295" /><text fill="white" font-size="12" text-anchor="middle" x="887.6315789473684" y="334.86625514403295">817</text><text fill="white" font-size="12" text-anchor="middle" transform="rotate(-45,887.6315789473684,570)" x="887.6315789473684" y="570">2025-09-07</text><rect fill="#4DD2FF" height="237.13991769547323" width="30" x="917.3684210526316" y="312.86008230452677" /><text fill="white" font-size="12" text-anchor="middle" x="932.3684210526316" y="307.86008230452677">922</text><text fill="white" font-size="12" text-anchor="middle" transform="rotate(-45,932.3684210526316,570)" x="932.3684210526316" y="570">2025-09-14</text><rect fill="#4DD2FF" height="137.08847736625515" width="30" x="962.1052631578947" y="412.9115226337449" /><text fill="white" font-size="12" text-anchor="middle" x="977.1052631578947" y="407.9115226337449">533</text><text fill="white" font-size="12" text-anchor="middle" transform="rotate(-45,977.1052631578947,570)" x="977.1052631578947" y="570">2025-09-21</text><rect fill="#4DD2FF" height="160.49382716049382" width="30" x="1006.8421052631579" y="389.5061728395062" /><text fill="white" font-size="12" text-anchor="middle" x="1021.8421052631579" y="384.5061728395062">624</text><text fill="white" font-size="12" text-anchor="middle" transform="rotate(-45,1021.8421052631579,570)" x="1021.8421052631579" y="570">2025-09-28</text><rect fill="#4DD2FF" height="197.53086419753086" width="30" x="1051.5789473684213" y="352.46913580246917" /><text fill="white" font-size="12" text-anchor="middle" x="1066.5789473684213" y="347.46913580246917">768</text><text fill="white" font-size="12" text-anchor="middle" transform="rotate(-45,1066.5789473684213,570)" x="1066.5789473684213" y="570">2025-10-05</text><rect fill="#4DD2FF" height="303.24074074074076" width="30" x="1096.3157894736844" y="246.75925925925924" /><text fill="white" font-size="12" text-anchor="middle" x="1111.3157894736844" y="241.75925925925924">1179</text><text fill="white" font-size="12" text-anchor="middle" transform="rotate(-45,1111.3157894736844,570)" x="1111.3157894736844" y="570">2025-10-12</text><rect fill="#4DD2FF" height="266.7181069958848" width="30" x="1141.0526315789475" y="283.2818930041152" /><text fill="white" font-size="12" text-anchor="middle" x="1156.0526315789475" y="278.2818930041152">1037</text><text fill="white" font-size="12" text-anchor="middle" transform="rotate(-45,1156.0526315789475,570)" x="1156.0526315789475" y="570">2025-10-19</text><rect fill="#4DD2FF" height="184.15637860082305" width="30" x="1185.7894736842106" y="365.843621399177" /><text fill="white" font-size="12" text-anchor="middle" x="1200.7894736842106" y="360.843621399177">716</text><text fill="white" font-size="12" text-anchor="middle" transform="rotate(-45,1200.7894736842106,570)" x="1200.7894736842106" y="570">2025-10-26</text><rect fill="#4DD2FF" height="211.41975308641975" width="30" x="1230.5263157894738" y="338.58024691358025" /><text fill="white" font-size="12" text-anchor="middle" x="1245.5263157894738" y="333.58024691358025">822</text><text fill="white" font-size="12" text-anchor="middle" transform="rotate(-45,1245.5263157894738,570)" x="1245.5263157894738" y="570">2025-11-02</text><rect fill="#4DD2FF" height="122.94238683127571" width="30" x="1275.2631578947369" y="427.0576131687243" /><text fill="white" font-size="12" text-anchor="middle" x="1290.2631578947369" y="422.0576131687243">478</text><text fill="white" font-size="12" text-anchor="middle" transform="rotate(-45,1290.2631578947369,570)" x="1290.2631578947369" y="570">2025-11-09</text><rect fill="#4DD2FF" height="307.8703703703703" width="30" x="1320.0" y="242.12962962962968" /><text fill="white" font-size="12" text-anchor="middle" x="1335.0" y="237.12962962962968">1197</text><text fill="white" font-size="12" text-anchor="middle" transform="rotate(-45,1335.0,570)" x="1335.0" y="570">2025-11-16</text><rect fill="#4DD2FF" height="10.2880658436214" width="30" x="1364.7368421052633" y="539.7119341563786" /><text fill="white" font-size="12" text-anchor="middle" x="1379.7368421052633" y="534.7119341563786">40</text><text fill="white" font-size="12" text-anchor="middle" transform="rotate(-45,1379.7368421052633,570)" x="1379.7368421052633" y="570">2025-11-23</text><rect fill="#4DD2FF" height="111.88271604938271" width="30" x="1409.4736842105265" y="438.1172839506173" /><text fill="white" font-size="12" text-anchor="middle" x="1424.4736842105265" y="433.1172839506173">435</text><text fill="white" font-size="12" text-anchor="middle" transform="rotate(-45,1424.4736842105265,570)" x="1424.4736842105265" y="570">2025-11-30</text><rect fill="#4DD2FF" height="66.61522633744856" width="30" x="1454.2105263157896" y="483.3847736625514" /><text fill="white" font-size="12" text-anchor="middle" x="1469.2105263157896" y="478.3847736625514">259</text><text fill="white" font-size="12" text-anchor="middle" transform="rotate(-45,1469.2105263157896,570)" x="1469.2105263157896" y="570">2025-12-07</text><rect fill="#4DD2FF" height="342.5925925925926" width="30" x="1498.9473684210527" y="207.4074074074074" /><text fill="white" font-size="12" text-anchor="middle" x="1513.9473684210527" y="202.4074074074074">1332</text><text fill="white" font-size="12" text-anchor="middle" transform="rotate(-45,1513.9473684210527,570)" x="1513.9473684210527" y="570">2025-12-14</text><rect fill="#4DD2FF" height="326.13168724279836" width="30" x="1543.6842105263158" y="223.86831275720164" /><text fill="white" font-size="12" text-anchor="middle" x="1558.6842105263158" y="218.86831275720164">1268</text><text fill="white" font-size="12" text-anchor="middle" transform="rotate(-45,1558.6842105263158,570)" x="1558.6842105263158" y="570">2025-12-21</text><rect fill="#4DD2FF" height="369.34156378600824" width="30" x="1588.421052631579" y="180.65843621399176" /><text fill="white" font-size="12" text-anchor="middle" x="1603.421052631579" y="175.65843621399176">1436</text><text fill="white" font-size="12" text-anchor="middle" transform="rotate(-45,1603.421052631579,570)" x="1603.421052631579" y="570">2025-12-28</text><rect fill="#4DD2FF" height="359.82510288065845" width="30" x="1633.157894736842" y="190.17489711934155" /><text fill="white" font-size="12" text-anchor="middle" x="1648.157894736842" y="185.17489711934155">1399</text><text fill="white" font-size="12" text-anchor="middle" transform="rotate(-45,1648.157894736842,570)" x="1648.157894736842" y="570">2026-01-04</text><rect fill="#4DD2FF" height="382.45884773662556" width="30" x="1677.8947368421054" y="167.54115226337444" /><text fill="white" font-size="12" text-anchor="middle" x="1692.8947368421054" y="162.54115226337444">1487</text><text fill="white" font-size="12" text-anchor="middle" transform="rotate(-45,1692.8947368421054,570)" x="1692.8947368421054" y="570">2026-01-11</text><rect fill="#4DD2FF" height="315.58641975308643" width="30" x="1722.6315789473686" y="234.41358024691357" /><text fill="white" font-size="12" text-anchor="middle" x="1737.6315789473686" y="229.41358024691357">1227</text><text fill="white" font-size="12" text-anchor="middle" transform="rotate(-45,1737.6315789473686,570)" x="1737.6315789473686" y="570">2026-01-18</text><line stroke="white" x1="60" x2="60" y1="50" y2="550" /><line stroke="white" x1="60" x2="1760" y1="550" y2="550" /></svg>