<?xml version="1.0" encoding="utf-8" ?>
<svg baseProfile="full" height="600" version="1.1" width="1800" xmlns="http://www.w3.org/2000/svg" xmlns:ev="http://www.w3.org/2001/xml-events" xmlns:xlink="http://www.w3.org/1999/xlink"><defs /><rect fill="#222222" height="100%" width="100%" x="0" y="0" /><text fill="white" font-size="20" text-anchor="middle" x="900.0" y="30">Weekly Totals (Last 52 Weeks)</text><rect fill="#4DD2FF" height="67.12962962962963" width="30" x="65.73170731707317" y="482.8703703703704" /><text fill="white" font-size="12" text-anchor="middle" x="80.73170731707317" y="477.8703703703704">261</text><text fill="white" font-size="12" text-anchor="middle" transform="rotate(-45,80.73170731707317,570)" x="80.73170731707317" y="570">2025-05-04</text><rect fill="#4DD2FF" height="500.0" width="30" x="107.19512195121952" y="50.0" /><text fill="white" font-size="12" text-anchor="middle" x="122.19512195121952" y="45.0">1944</text><text fill="white" font-size="12" text-anchor="middle" transform="rotate(-45,122.19512195121952,570)" x="122.19512195121952" y="570">2025-05-11</text><rect fill="#4DD2FF" height="380.65843621399176" width="30" x="148.65853658536585" y="169.34156378600824" /><text fill="white" font-size="12" text-anchor="middle" x="163.65853658536585" y="164.34156378600824">1480</text><text fill="white" font-size="12" text-anchor="middle" transform="rotate(-45,163.65853658536585,570)" x="163.65853658536585" y="570">2025-05-18</text><rect fill="#4DD2FF" height="450.61728395061726" width="30" x="190.12195121951217" y="99.38271604938274" /><text fill="white" font-size="12" text-anchor="middle" x="205.12195121951217" y="94.38271604938274">1752</text><text fill="white" font-size="12" text-anchor="middle" transform="rotate(-45,205.12195121951217,570)" x="205.12195121951217" y="570">2025-05-25</text><rect fill="#4DD2FF" height="307.61316872427983" width="30" x="231.58536585365852" y="242.38683127572017" /><text fill="white" font-size="12" text-anchor="middle" x="246.58536585365852" y="237.38683127572017">1196</text><text fill="white" font-size="12" text-anchor="middle" transform="rotate(-45,246.58536585365852,570)" x="246.58536585365852" y="570">2025-06-01</text><rect fill="#4DD2FF" height="301.6975308641975" width="30" x="273.0487804878049" y="248.30246913580248" /><text fill="white" font-size="12" text-anchor="middle" x="288.0487804878049" y="243.30246913580248">1173</text><text fill="white" font-size="12" text-anchor="middle" transform="rotate(-45,288.0487804878049,570)" x="288.0487804878049" y="570">2025-06-08</text><rect fill="#4DD2FF" height="284.72222222222223" width="30" x="314.5121951219512" y="265.27777777777777" /><text fill="white" font-size="12" text-anchor="middle" x="329.5121951219512" y="260.27777777777777">1107</text><text fill="white" font-size="12" text-anchor="middle" transform="rotate(-45,329.5121951219512,570)" x="329.5121951219512" y="570">2025-06-15</text><rect fill="#4DD2FF" height="323.55967078189303" width="30" x="355.9756097560976" y="226.44032921810697" /><text fill="white" font-size="12" text-anchor="middle" x="370.9756097560976" y="221.44032921810697">1258</text><text fill="white" font-size="12" text-anchor="middle" transform="rotate(-45,370.9756097560976,570)" x="370.9756097560976" y="570">2025-06-22</text><rect fill="#4DD2FF" height="211.41975308641975" width="30" x="397.4390243902439" y="338.58024691358025" /><text fill="white" font-size="12" text-anchor="middle" x="412.4390243902439" y="333.58024691358025">822</text><text fill="white" font-size="12" text-anchor="middle" transform="rotate(-45,412.4390243902439,570)" x="412.4390243902439" y="570">2025-06-29</text><rect fill="#4DD2FF" height="141.71810699588477" width="30" x="438.9024390243902" y="408.2818930041152" /><text fill="white" font-size="12" text-anchor="middle" x="453.9024390243902" y="403.2818930041152">551</text><text fill="white" font-size="12" text-anchor="middle" transform="rotate(-45,453.9024390243902,570)" x="453.9024390243902" y="570">2025-07-06</text><rect fill="#4DD2FF" height="284.72222222222223" width="30" x="480.3658536585366" y="265.27777777777777" /><text fill="white" font-size="12" text-anchor="middle" x="495.3658536585366" y="260.27777777777777">1107</text><text fill="white" font-size="12" text-anchor="middle" transform="rotate(-45,495.3658536585366,570)" x="495.3658536585366" y="570">2025-07-13</text><rect fill="#4DD2FF" height="355.9670781893004" width="30" x="521.8292682926829" y="194.03292181069958" /><text fill="white" font-size="12" text-anchor="middle" x="536.8292682926829" y="189.03292181069958">1384</text><text fill="white" font-size="12" text-anchor="middle" transform="rotate(-45,536.8292682926829,570)" x="536.8292682926829" y="570">2025-07-20</text><rect fill="#4DD2FF" height="96.19341563786008" width="30" x="563.2926829268292" y="453.8065843621399" /><text fill="white" font-size="12" text-anchor="middle" x="578.2926829268292" y="448.8065843621399">374</text><text fill="white" font-size="12" text-anchor="middle" transform="rotate(-45,578.2926829268292,570)" x="578.2926829268292" y="570">2025-07-27</text><rect fill="#4DD2FF" height="195.98765432098767" width="30" x="604.7560975609756" y="354.01234567901236" /><text fill="white" font-size="12" text-anchor="middle" x="619.7560975609756" y="349.01234567901236">762</text><text fill="white" font-size="12" text-anchor="middle" transform="rotate(-45,619.7560975609756,570)" x="619.7560975609756" y="570">2025-08-03</text><rect fill="#4DD2FF" height="217.33539094650206" width="30" x="646.219512195122" y="332.66460905349794" /><text fill="white" font-size="12" text-anchor="middle" x="661.219512195122" y="327.66460905349794">845</text><text fill="white" font-size="12" text-anchor="middle" transform="rotate(-45,661.219512195122,570)" x="661.219512195122" y="570">2025-08-10</text><rect fill="#4DD2FF" height="224.53703703703704" width="30" x="687.6829268292682" y="325.46296296296293" /><text fill="white" font-size="12" text-anchor="middle" x="702.6829268292682" y="320.46296296296293">873</text><text fill="white" font-size="12" text-anchor="middle" transform="rotate(-45,702.6829268292682,570)" x="702.6829268292682" y="570">2025-08-17</text><rect fill="#4DD2FF" height="153.54938271604937" width="30" x="729.1463414634146" y="396.45061728395063" /><text fill="white" font-size="12" text-anchor="middle" x="744.1463414634146" y="391.45061728395063">597</text><text fill="white" font-size="12" text-anchor="middle" transform="rotate(-45,744.1463414634146,570)" x="744.1463414634146" y="570">2025-08-24</text><rect fill="#4DD2FF" height="180.0411522633745" width="30" x="770.609756097561" y="369.9588477366255" /><text fill="white" font-size="12" text-anchor="middle" x="785.609756097561" y="364.9588477366255">700</text><text fill="white" font-size="12" text-anchor="middle" transform="rotate(-45,785.609756097561,570)" x="785.609756097561" y="570">2025-08-31</text><rect fill="#4DD2FF" height="210.13374485596708" width="30" x="812.0731707317073" y="339.86625514403295" /><text fill="white" font-size="12" text-anchor="middle" x="827.0731707317073" y="334.86625514403295">817</text><text fill="white" font-size="12" text-anchor="middle" transform="rotate(-45,827.0731707317073,570)" x="827.0731707317073" y="570">2025-09-07</text><rect fill="#4DD2FF" height="237.13991769547323" width="30" x="853.5365853658536" y="312.86008230452677" /><text fill="white" font-size="12" text-anchor="middle" x="868.5365853658536" y="307.86008230452677">922</text><text fill="white" font-size="12" text-anchor="middle" transform="rotate(-45,868.5365853658536,570)" x="868.5365853658536" y="570">2025-09-14</text><rect fill="#4DD2FF" height="137.08847736625515" width="30" x="895.0" y="412.9115226337449" /><text fill="white" font-size="12" text-anchor="middle" x="910.0" y="407.9115226337449">533</text><text fill="white" font-size="12" text-anchor="middle" transform="rotate(-45,910.0,570)" x="910.0" y="570">2025-09-21</text><rect fill="#4DD2FF" height="160.49382716049382" width="30" x="936.4634146341463" y="389.5061728395062" /><text fill="white" font-size="12" text-anchor="middle" x="951.4634146341463" y="384.5061728395062">624</text><text fill="white" font-size="12" text-anchor="middle" transform="rotate(-45,951.4634146341463,570)" x="951.4634146341463" y="570">2025-09-28</text><rect fill="#4DD2FF" height="197.53086419753086" width="30" x="977.9268292682926" y="352.46913580246917" /><text fill="white" font-size="12" text-anchor="middle" x="992.9268292682926" y="347.46913580246917">768</text><text fill="white" font-size="12" text-anchor="middle" transform="rotate(-45,992.9268292682926,570)" x="992.9268292682926" y="570">2025-10-05</text><rect fill="#4DD2FF" height="303.24074074074076" width="30" x="1019.390243902439" y="246.75925925925924" /><text fill="white" font-size="12" text-anchor="middle" x="1034.3902439024391" y="241.75925925925924">1179</text><text fill="white" font-size="12" text-anchor="middle" transform="rotate(-45,1034.3902439024391,570)" x="1034.3902439024391" y="570">2025-10-12</text><rect fill="#4DD2FF" height="266.7181069958848" width="30" x="1060.8536585365853" y="283.2818930041152" /><text fill="white" font-size="12" text-anchor="middle" x="1075.8536585365853" y="278.2818930041152">1037</text><text fill="white" font-size="12" text-anchor="middle" transform="rotate(-45,1075.8536585365853,570)" x="1075.8536585365853" y="570">2025-10-19</text><rect fill="#4DD2FF" height="184.15637860082305" width="30" x="1102.3170731707316" y="365.843621399177" /><text fill="white" font-size="12" text-anchor="middle" x="1117.3170731707316" y="360.843621399177">716</text><text fill="white" font-size="12" text-anchor="middle" transform="rotate(-45,1117.3170731707316,570)" x="1117.3170731707316" y="570">2025-10-26</text><rect fill="#4DD2FF" height="211.41975308641975" width="30" x="1143.780487804878" y="338.58024691358025" /><text fill="white" font-size="12" text-anchor="middle" x="1158.780487804878" y="333.58024691358025">822</text><text fill="white" font-size="12" text-anchor="middle" transform="rotate(-45,1158.780487804878,570)" x="1158.780487804878" y="570">2025-11-02</text><rect fill="#4DD2FF" height="122.94238683127571" width="30" x="1185.2439024390244" y="427.0576131687243" /><text fill="white" font-size="12" text-anchor="middle" x="1200.2439024390244" y="422.0576131687243">478</text><text fill="white" font-size="12" text-anchor="middle" transform="rotate(-45,1200.2439024390244,570)" x="1200.2439024390244" y="570">2025-11-09</text><rect fill="#4DD2FF" height="307.8703703703703" width="30" x="1226.7073170731708" y="242.12962962962968" /><text fill="white" font-size="12" text-anchor="middle" x="1241.7073170731708" y="237.12962962962968">1197</text><text fill="white" font-size="12" text-anchor="middle" transform="rotate(-45,1241.7073170731708,570)" x="1241.7073170731708" y="570">2025-11-16</text><rect fill="#4DD2FF" height="10.2880658436214" width="30" x="1268.170731707317" y="539.7119341563786" /><text fill="white" font-size="12" text-anchor="middle" x="1283.170731707317" y="534.7119341563786">40</text><text fill="white" font-size="12" text-anchor="middle" transform="rotate(-45,1283.170731707317,570)" x="1283.170731707317" y="570">2025-11-23</text><rect fill="#4DD2FF" height="111.88271604938271" width="30" x="1309.6341463414633" y="438.1172839506173" /><text fill="white" font-size="12" text-anchor="middle" x="1324.6341463414633" y="433.1172839506173">435</text><text fill="white" font-size="12" text-anchor="middle" transform="rotate(-45,1324.6341463414633,570)" x="1324.6341463414633" y="570">2025-11-30</text><rect fill="#4DD2FF" height="66.61522633744856" width="30" x="1351.0975609756097" y="483.3847736625514" /><text fill="white" font-size="12" text-anchor="middle" x="1366.0975609756097" y="478.3847736625514">259</text><text fill="white" font-size="12" text-anchor="middle" transform="rotate(-45,1366.0975609756097,570)" x="1366.0975609756097" y="570">2025-12-07</text><rect fill="#4DD2FF" height="342.5925925925926" width="30" x="1392.560975609756" y="207.4074074074074" /><text fill="white" font-size="12" text-anchor="middle" x="1407.560975609756" y="202.4074074074074">1332</text><text fill="white" font-size="12" text-anchor="middle" transform="rotate(-45,1407.560975609756,570)" x="1407.560975609756" y="570">2025-12-14</text><rect fill="#4DD2FF" height="326.13168724279836" width="30" x="1434.0243902439024" y="223.86831275720164" /><text fill="white" font-size="12" text-anchor="middle" x="1449.0243902439024" y="218.86831275720164">1268</text><text fill="white" font-size="12" text-anchor="middle" transform="rotate(-45,1449.0243902439024,570)" x="1449.0243902439024" y="570">2025-12-21</text><rect fill="#4DD2FF" height="369.34156378600824" width="30" x="1475.4878048780488" y="180.65843621399176" /><text fill="white" font-size="12" text-anchor="middle" x="1490.4878048780488" y="175.65843621399176">1436</text><text fill="white" font-size="12" text-anchor="middle" transform="rotate(-45,1490.4878048780488,570)" x="1490.4878048780488" y="570">2025-12-28</text><rect fill="#4DD2FF" height="359.82510288065845" width="30" x="1516.9512195121952" y="190.17489711934155" /><text fill="white" font-size="12" text-anchor="middle" x="1531.9512195121952" y="185.17489711934155">1399</text><text fill="white" font-size="12" text-anchor="middle" transform="rotate(-45,1531.9512195121952,570)" x="1531.9512195121952" y="570">2026-01-04</text><rect fill="#4DD2FF" height="382.45884773662556" width="30" x="1558.4146341463413" y="167.54115226337444" /><text fill="white" font-size="12" text-anchor="middle" x="1573.4146341463413" y="162.54115226337444">1487</text><text fill="white" font-size="12" text-anchor="middle" transform="rotate(-45,1573.4146341463413,570)" x="1573.4146341463413" y="570">2026-01-11</text><rect fill="#4DD2FF" height="336.1625514403292" width="30" x="1599.8780487804877" y="213.8374485596708" /><text fill="white" font-size="12" text-anchor="middle" x="1614.8780487804877" y="208.8374485596708">1307</text><text fill="white" font-size="12" text-anchor="middle" transform="rotate(-45,1614.8780487804877,570)" x="1614.8780487804877" y="570">2026-01-18</text><rect fill="#4DD2FF" height="331.79012345679007" width="30" x="1641.341463414634" y="218.20987654320993" /><text fill="white" font-size="12" text-anchor="middle" x="1656.341463414634" y="213.20987654320993">1290</text><text fill="white" font-size="12" text-anchor="middle" transform="rotate(-45,1656.341463414634,570)" x="1656.341463414634" y="570">2026-01-25</text><rect fill="#4DD2FF" height="314.5576131687243" width="30" x="1682.8048780487804" y="235.4423868312757" /><text fill="white" font-size="12" text-anchor="middle" x="1697.8048780487804" y="230.4423868312757">1223</text><text fill="white" font-size="12" text-anchor="middle" transform="rotate(-45,1697.8048780487804,570)" x="1697.8048780487804" y="570">2026-02-01</text><rect fill="#4DD2FF" height="209.3621399176955" width="30" x="1724.2682926829268" y="340.63786008230454" /><text fill="white" font-size="12" text-anchor="middle" x="1739.2682926829268" y="335.63786008230454">814</text><text fill="white" font-size="12" text-anchor="middle" transform="rotate(-45,1739.2682926829268,570)" x="1739.2682926829268" y="570">2026-02-08</text><line stroke="white" x1="60" x2="60" y1="50" y2="550" /><line stroke="white" x1="60" x2="1760" y1="550" y2="550" /></svg>