<?xml version="1.0" encoding="utf-8" ?>
<svg baseProfile="full" height="600" version="1.1" width="1800" xmlns="http://www.w3.org/2000/svg" xmlns:ev="http://www.w3.org/2001/xml-events" xmlns:xlink="http://www.w3.org/1999/xlink"><defs /><rect fill="#222222" height="100%" width="100%" x="0" y="0" /><text fill="white" font-size="20" text-anchor="middle" x="900.0" y="30">Weekly Totals (Last 52 Weeks)</text><rect fill="#4DD2FF" height="67.12962962962963" width="30" x="72.41935483870968" y="482.8703703703704" /><text fill="white" font-size="12" text-anchor="middle" x="87.41935483870968" y="477.8703703703704">261</text><text fill="white" font-size="12" text-anchor="middle" transform="rotate(-45,87.41935483870968,570)" x="87.41935483870968" y="570">2025-05-04</text><rect fill="#4DD2FF" height="500.0" width="30" x="127.25806451612904" y="50.0" /><text fill="white" font-size="12" text-anchor="middle" x="142.25806451612902" y="45.0">1944</text><text fill="white" font-size="12" text-anchor="middle" transform="rotate(-45,142.25806451612902,570)" x="142.25806451612902" y="570">2025-05-11</text><rect fill="#4DD2FF" height="380.65843621399176" width="30" x="182.09677419354838" y="169.34156378600824" /><text fill="white" font-size="12" text-anchor="middle" x="197.09677419354838" y="164.34156378600824">1480</text><text fill="white" font-size="12" text-anchor="middle" transform="rotate(-45,197.09677419354838,570)" x="197.09677419354838" y="570">2025-05-18</text><rect fill="#4DD2FF" height="450.61728395061726" width="30" x="236.93548387096772" y="99.38271604938274" /><text fill="white" font-size="12" text-anchor="middle" x="251.93548387096772" y="94.38271604938274">1752</text><text fill="white" font-size="12" text-anchor="middle" transform="rotate(-45,251.93548387096772,570)" x="251.93548387096772" y="570">2025-05-25</text><rect fill="#4DD2FF" height="307.61316872427983" width="30" x="291.77419354838713" y="242.38683127572017" /><text fill="white" font-size="12" text-anchor="middle" x="306.77419354838713" y="237.38683127572017">1196</text><text fill="white" font-size="12" text-anchor="middle" transform="rotate(-45,306.77419354838713,570)" x="306.77419354838713" y="570">2025-06-01</text><rect fill="#4DD2FF" height="301.6975308641975" width="30" x="346.61290322580646" y="248.30246913580248" /><text fill="white" font-size="12" text-anchor="middle" x="361.61290322580646" y="243.30246913580248">1173</text><text fill="white" font-size="12" text-anchor="middle" transform="rotate(-45,361.61290322580646,570)" x="361.61290322580646" y="570">2025-06-08</text><rect fill="#4DD2FF" height="284.72222222222223" width="30" x="401.4516129032258" y="265.27777777777777" /><text fill="white" font-size="12" text-anchor="middle" x="416.4516129032258" y="260.27777777777777">1107</text><text fill="white" font-size="12" text-anchor="middle" transform="rotate(-45,416.4516129032258,570)" x="416.4516129032258" y="570">2025-06-15</text><rect fill="#4DD2FF" height="323.55967078189303" width="30" x="456.2903225806452" y="226.44032921810697" /><text fill="white" font-size="12" text-anchor="middle" x="471.2903225806452" y="221.44032921810697">1258</text><text fill="white" font-size="12" text-anchor="middle" transform="rotate(-45,471.2903225806452,570)" x="471.2903225806452" y="570">2025-06-22</text><rect fill="#4DD2FF" height="211.41975308641975" width="30" x="511.1290322580645" y="338.58024691358025" /><text fill="white" font-size="12" text-anchor="middle" x="526.1290322580645" y="333.58024691358025">822</text><text fill="white" font-size="12" text-anchor="middle" transform="rotate(-45,526.1290322580645,570)" x="526.1290322580645" y="570">2025-06-29</text><rect fill="#4DD2FF" height="141.71810699588477" width="30" x="565.9677419354838" y="408.2818930041152" /><text fill="white" font-size="12" text-anchor="middle" x="580.9677419354838" y="403.2818930041152">551</text><text fill="white" font-size="12" text-anchor="middle" transform="rotate(-45,580.9677419354838,570)" x="580.9677419354838" y="570">2025-07-06</text><rect fill="#4DD2FF" height="284.72222222222223" width="30" x="620.8064516129032" y="265.27777777777777" /><text fill="white" font-size="12" text-anchor="middle" x="635.8064516129032" y="260.27777777777777">1107</text><text fill="white" font-size="12" text-anchor="middle" transform="rotate(-45,635.8064516129032,570)" x="635.8064516129032" y="570">2025-07-13</text><rect fill="#4DD2FF" height="355.9670781893004" width="30" x="675.6451612903226" y="194.03292181069958" /><text fill="white" font-size="12" text-anchor="middle" x="690.6451612903226" y="189.03292181069958">1384</text><text fill="white" font-size="12" text-anchor="middle" transform="rotate(-45,690.6451612903226,570)" x="690.6451612903226" y="570">2025-07-20</text><rect fill="#4DD2FF" height="96.19341563786008" width="30" x="730.4838709677418" y="453.8065843621399" /><text fill="white" font-size="12" text-anchor="middle" x="745.4838709677418" y="448.8065843621399">374</text><text fill="white" font-size="12" text-anchor="middle" transform="rotate(-45,745.4838709677418,570)" x="745.4838709677418" y="570">2025-07-27</text><rect fill="#4DD2FF" height="195.98765432098767" width="30" x="785.3225806451612" y="354.01234567901236" /><text fill="white" font-size="12" text-anchor="middle" x="800.3225806451612" y="349.01234567901236">762</text><text fill="white" font-size="12" text-anchor="middle" transform="rotate(-45,800.3225806451612,570)" x="800.3225806451612" y="570">2025-08-03</text><rect fill="#4DD2FF" height="217.33539094650206" width="30" x="840.1612903225806" y="332.66460905349794" /><text fill="white" font-size="12" text-anchor="middle" x="855.1612903225806" y="327.66460905349794">845</text><text fill="white" font-size="12" text-anchor="middle" transform="rotate(-45,855.1612903225806,570)" x="855.1612903225806" y="570">2025-08-10</text><rect fill="#4DD2FF" height="224.53703703703704" width="30" x="894.9999999999999" y="325.46296296296293" /><text fill="white" font-size="12" text-anchor="middle" x="909.9999999999999" y="320.46296296296293">873</text><text fill="white" font-size="12" text-anchor="middle" transform="rotate(-45,909.9999999999999,570)" x="909.9999999999999" y="570">2025-08-17</text><rect fill="#4DD2FF" height="153.54938271604937" width="30" x="949.8387096774193" y="396.45061728395063" /><text fill="white" font-size="12" text-anchor="middle" x="964.8387096774193" y="391.45061728395063">597</text><text fill="white" font-size="12" text-anchor="middle" transform="rotate(-45,964.8387096774193,570)" x="964.8387096774193" y="570">2025-08-24</text><rect fill="#4DD2FF" height="180.0411522633745" width="30" x="1004.6774193548387" y="369.9588477366255" /><text fill="white" font-size="12" text-anchor="middle" x="1019.6774193548387" y="364.9588477366255">700</text><text fill="white" font-size="12" text-anchor="middle" transform="rotate(-45,1019.6774193548387,570)" x="1019.6774193548387" y="570">2025-08-31</text><rect fill="#4DD2FF" height="210.13374485596708" width="30" x="1059.516129032258" y="339.86625514403295" /><text fill="white" font-size="12" text-anchor="middle" x="1074.516129032258" y="334.86625514403295">817</text><text fill="white" font-size="12" text-anchor="middle" transform="rotate(-45,1074.516129032258,570)" x="1074.516129032258" y="570">2025-09-07</text><rect fill="#4DD2FF" height="237.13991769547323" width="30" x="1114.3548387096776" y="312.86008230452677" /><text fill="white" font-size="12" text-anchor="middle" x="1129.3548387096776" y="307.86008230452677">922</text><text fill="white" font-size="12" text-anchor="middle" transform="rotate(-45,1129.3548387096776,570)" x="1129.3548387096776" y="570">2025-09-14</text><rect fill="#4DD2FF" height="137.08847736625515" width="30" x="1169.1935483870968" y="412.9115226337449" /><text fill="white" font-size="12" text-anchor="middle" x="1184.1935483870968" y="407.9115226337449">533</text><text fill="white" font-size="12" text-anchor="middle" transform="rotate(-45,1184.1935483870968,570)" x="1184.1935483870968" y="570">2025-09-21</text><rect fill="#4DD2FF" height="160.49382716049382" width="30" x="1224.032258064516" y="389.5061728395062" /><text fill="white" font-size="12" text-anchor="middle" x="1239.032258064516" y="384.5061728395062">624</text><text fill="white" font-size="12" text-anchor="middle" transform="rotate(-45,1239.032258064516,570)" x="1239.032258064516" y="570">2025-09-28</text><rect fill="#4DD2FF" height="197.53086419753086" width="30" x="1278.8709677419356" y="352.46913580246917" /><text fill="white" font-size="12" text-anchor="middle" x="1293.8709677419356" y="347.46913580246917">768</text><text fill="white" font-size="12" text-anchor="middle" transform="rotate(-45,1293.8709677419356,570)" x="1293.8709677419356" y="570">2025-10-05</text><rect fill="#4DD2FF" height="303.24074074074076" width="30" x="1333.7096774193549" y="246.75925925925924" /><text fill="white" font-size="12" text-anchor="middle" x="1348.7096774193549" y="241.75925925925924">1179</text><text fill="white" font-size="12" text-anchor="middle" transform="rotate(-45,1348.7096774193549,570)" x="1348.7096774193549" y="570">2025-10-12</text><rect fill="#4DD2FF" height="266.7181069958848" width="30" x="1388.5483870967741" y="283.2818930041152" /><text fill="white" font-size="12" text-anchor="middle" x="1403.5483870967741" y="278.2818930041152">1037</text><text fill="white" font-size="12" text-anchor="middle" transform="rotate(-45,1403.5483870967741,570)" x="1403.5483870967741" y="570">2025-10-19</text><rect fill="#4DD2FF" height="184.15637860082305" width="30" x="1443.3870967741937" y="365.843621399177" /><text fill="white" font-size="12" text-anchor="middle" x="1458.3870967741937" y="360.843621399177">716</text><text fill="white" font-size="12" text-anchor="middle" transform="rotate(-45,1458.3870967741937,570)" x="1458.3870967741937" y="570">2025-10-26</text><rect fill="#4DD2FF" height="211.41975308641975" width="30" x="1498.225806451613" y="338.58024691358025" /><text fill="white" font-size="12" text-anchor="middle" x="1513.225806451613" y="333.58024691358025">822</text><text fill="white" font-size="12" text-anchor="middle" transform="rotate(-45,1513.225806451613,570)" x="1513.225806451613" y="570">2025-11-02</text><rect fill="#4DD2FF" height="122.94238683127571" width="30" x="1553.0645161290322" y="427.0576131687243" /><text fill="white" font-size="12" text-anchor="middle" x="1568.0645161290322" y="422.0576131687243">478</text><text fill="white" font-size="12" text-anchor="middle" transform="rotate(-45,1568.0645161290322,570)" x="1568.0645161290322" y="570">2025-11-09</text><rect fill="#4DD2FF" height="307.8703703703703" width="30" x="1607.9032258064517" y="242.12962962962968" /><text fill="white" font-size="12" text-anchor="middle" x="1622.9032258064517" y="237.12962962962968">1197</text><text fill="white" font-size="12" text-anchor="middle" transform="rotate(-45,1622.9032258064517,570)" x="1622.9032258064517" y="570">2025-11-16</text><rect fill="#4DD2FF" height="10.2880658436214" width="30" x="1662.741935483871" y="539.7119341563786" /><text fill="white" font-size="12" text-anchor="middle" x="1677.741935483871" y="534.7119341563786">40</text><text fill="white" font-size="12" text-anchor="middle" transform="rotate(-45,1677.741935483871,570)" x="1677.741935483871" y="570">2025-11-23</text><rect fill="#4DD2FF" height="54.269547325102884" width="30" x="1717.5806451612902" y="495.7304526748971" /><text fill="white" font-size="12" text-anchor="middle" x="1732.5806451612902" y="490.7304526748971">211</text><text fill="white" font-size="12" text-anchor="middle" transform="rotate(-45,1732.5806451612902,570)" x="1732.5806451612902" y="570">2025-11-30</text><line stroke="white" x1="60" x2="60" y1="50" y2="550" /><line stroke="white" x1="60" x2="1760" y1="550" y2="550" /></svg>