<?xml version="1.0" encoding="utf-8" ?>
<svg baseProfile="full" height="600" version="1.1" width="1800" xmlns="http://www.w3.org/2000/svg" xmlns:ev="http://www.w3.org/2001/xml-events" xmlns:xlink="http://www.w3.org/1999/xlink"><defs /><rect fill="#222222" height="100%" width="100%" x="0" y="0" /><text fill="white" font-size="20" text-anchor="middle" x="900.0" y="30">Weekly Totals (Last 52 Weeks)</text><rect fill="#4DD2FF" height="67.12962962962963" width="30" x="80.41666666666666" y="482.8703703703704" /><text fill="white" font-size="12" text-anchor="middle" x="95.41666666666666" y="477.8703703703704">261</text><text fill="white" font-size="12" text-anchor="middle" transform="rotate(-45,95.41666666666666,570)" x="95.41666666666666" y="570">2025-05-04</text><rect fill="#4DD2FF" height="500.0" width="30" x="151.24999999999997" y="50.0" /><text fill="white" font-size="12" text-anchor="middle" x="166.24999999999997" y="45.0">1944</text><text fill="white" font-size="12" text-anchor="middle" transform="rotate(-45,166.24999999999997,570)" x="166.24999999999997" y="570">2025-05-11</text><rect fill="#4DD2FF" height="380.65843621399176" width="30" x="222.08333333333331" y="169.34156378600824" /><text fill="white" font-size="12" text-anchor="middle" x="237.08333333333331" y="164.34156378600824">1480</text><text fill="white" font-size="12" text-anchor="middle" transform="rotate(-45,237.08333333333331,570)" x="237.08333333333331" y="570">2025-05-18</text><rect fill="#4DD2FF" height="450.61728395061726" width="30" x="292.9166666666667" y="99.38271604938274" /><text fill="white" font-size="12" text-anchor="middle" x="307.9166666666667" y="94.38271604938274">1752</text><text fill="white" font-size="12" text-anchor="middle" transform="rotate(-45,307.9166666666667,570)" x="307.9166666666667" y="570">2025-05-25</text><rect fill="#4DD2FF" height="307.61316872427983" width="30" x="363.75" y="242.38683127572017" /><text fill="white" font-size="12" text-anchor="middle" x="378.75" y="237.38683127572017">1196</text><text fill="white" font-size="12" text-anchor="middle" transform="rotate(-45,378.75,570)" x="378.75" y="570">2025-06-01</text><rect fill="#4DD2FF" height="301.6975308641975" width="30" x="434.5833333333333" y="248.30246913580248" /><text fill="white" font-size="12" text-anchor="middle" x="449.5833333333333" y="243.30246913580248">1173</text><text fill="white" font-size="12" text-anchor="middle" transform="rotate(-45,449.5833333333333,570)" x="449.5833333333333" y="570">2025-06-08</text><rect fill="#4DD2FF" height="284.72222222222223" width="30" x="505.4166666666667" y="265.27777777777777" /><text fill="white" font-size="12" text-anchor="middle" x="520.4166666666667" y="260.27777777777777">1107</text><text fill="white" font-size="12" text-anchor="middle" transform="rotate(-45,520.4166666666667,570)" x="520.4166666666667" y="570">2025-06-15</text><rect fill="#4DD2FF" height="323.55967078189303" width="30" x="576.2499999999999" y="226.44032921810697" /><text fill="white" font-size="12" text-anchor="middle" x="591.2499999999999" y="221.44032921810697">1258</text><text fill="white" font-size="12" text-anchor="middle" transform="rotate(-45,591.2499999999999,570)" x="591.2499999999999" y="570">2025-06-22</text><rect fill="#4DD2FF" height="211.41975308641975" width="30" x="647.0833333333333" y="338.58024691358025" /><text fill="white" font-size="12" text-anchor="middle" x="662.0833333333333" y="333.58024691358025">822</text><text fill="white" font-size="12" text-anchor="middle" transform="rotate(-45,662.0833333333333,570)" x="662.0833333333333" y="570">2025-06-29</text><rect fill="#4DD2FF" height="141.71810699588477" width="30" x="717.9166666666666" y="408.2818930041152" /><text fill="white" font-size="12" text-anchor="middle" x="732.9166666666666" y="403.2818930041152">551</text><text fill="white" font-size="12" text-anchor="middle" transform="rotate(-45,732.9166666666666,570)" x="732.9166666666666" y="570">2025-07-06</text><rect fill="#4DD2FF" height="284.72222222222223" width="30" x="788.7499999999999" y="265.27777777777777" /><text fill="white" font-size="12" text-anchor="middle" x="803.7499999999999" y="260.27777777777777">1107</text><text fill="white" font-size="12" text-anchor="middle" transform="rotate(-45,803.7499999999999,570)" x="803.7499999999999" y="570">2025-07-13</text><rect fill="#4DD2FF" height="355.9670781893004" width="30" x="859.5833333333333" y="194.03292181069958" /><text fill="white" font-size="12" text-anchor="middle" x="874.5833333333333" y="189.03292181069958">1384</text><text fill="white" font-size="12" text-anchor="middle" transform="rotate(-45,874.5833333333333,570)" x="874.5833333333333" y="570">2025-07-20</text><rect fill="#4DD2FF" height="96.19341563786008" width="30" x="930.4166666666666" y="453.8065843621399" /><text fill="white" font-size="12" text-anchor="middle" x="945.4166666666666" y="448.8065843621399">374</text><text fill="white" font-size="12" text-anchor="middle" transform="rotate(-45,945.4166666666666,570)" x="945.4166666666666" y="570">2025-07-27</text><rect fill="#4DD2FF" height="195.98765432098767" width="30" x="1001.2499999999999" y="354.01234567901236" /><text fill="white" font-size="12" text-anchor="middle" x="1016.2499999999999" y="349.01234567901236">762</text><text fill="white" font-size="12" text-anchor="middle" transform="rotate(-45,1016.2499999999999,570)" x="1016.2499999999999" y="570">2025-08-03</text><rect fill="#4DD2FF" height="217.33539094650206" width="30" x="1072.0833333333333" y="332.66460905349794" /><text fill="white" font-size="12" text-anchor="middle" x="1087.0833333333333" y="327.66460905349794">845</text><text fill="white" font-size="12" text-anchor="middle" transform="rotate(-45,1087.0833333333333,570)" x="1087.0833333333333" y="570">2025-08-10</text><rect fill="#4DD2FF" height="224.53703703703704" width="30" x="1142.9166666666667" y="325.46296296296293" /><text fill="white" font-size="12" text-anchor="middle" x="1157.9166666666667" y="320.46296296296293">873</text><text fill="white" font-size="12" text-anchor="middle" transform="rotate(-45,1157.9166666666667,570)" x="1157.9166666666667" y="570">2025-08-17</text><rect fill="#4DD2FF" height="153.54938271604937" width="30" x="1213.75" y="396.45061728395063" /><text fill="white" font-size="12" text-anchor="middle" x="1228.75" y="391.45061728395063">597</text><text fill="white" font-size="12" text-anchor="middle" transform="rotate(-45,1228.75,570)" x="1228.75" y="570">2025-08-24</text><rect fill="#4DD2FF" height="180.0411522633745" width="30" x="1284.5833333333333" y="369.9588477366255" /><text fill="white" font-size="12" text-anchor="middle" x="1299.5833333333333" y="364.9588477366255">700</text><text fill="white" font-size="12" text-anchor="middle" transform="rotate(-45,1299.5833333333333,570)" x="1299.5833333333333" y="570">2025-08-31</text><rect fill="#4DD2FF" height="210.13374485596708" width="30" x="1355.4166666666667" y="339.86625514403295" /><text fill="white" font-size="12" text-anchor="middle" x="1370.4166666666667" y="334.86625514403295">817</text><text fill="white" font-size="12" text-anchor="middle" transform="rotate(-45,1370.4166666666667,570)" x="1370.4166666666667" y="570">2025-09-07</text><rect fill="#4DD2FF" height="237.13991769547323" width="30" x="1426.25" y="312.86008230452677" /><text fill="white" font-size="12" text-anchor="middle" x="1441.25" y="307.86008230452677">922</text><text fill="white" font-size="12" text-anchor="middle" transform="rotate(-45,1441.25,570)" x="1441.25" y="570">2025-09-14</text><rect fill="#4DD2FF" height="137.08847736625515" width="30" x="1497.0833333333333" y="412.9115226337449" /><text fill="white" font-size="12" text-anchor="middle" x="1512.0833333333333" y="407.9115226337449">533</text><text fill="white" font-size="12" text-anchor="middle" transform="rotate(-45,1512.0833333333333,570)" x="1512.0833333333333" y="570">2025-09-21</text><rect fill="#4DD2FF" height="160.49382716049382" width="30" x="1567.9166666666667" y="389.5061728395062" /><text fill="white" font-size="12" text-anchor="middle" x="1582.9166666666667" y="384.5061728395062">624</text><text fill="white" font-size="12" text-anchor="middle" transform="rotate(-45,1582.9166666666667,570)" x="1582.9166666666667" y="570">2025-09-28</text><rect fill="#4DD2FF" height="197.53086419753086" width="30" x="1638.75" y="352.46913580246917" /><text fill="white" font-size="12" text-anchor="middle" x="1653.75" y="347.46913580246917">768</text><text fill="white" font-size="12" text-anchor="middle" transform="rotate(-45,1653.75,570)" x="1653.75" y="570">2025-10-05</text><rect fill="#4DD2FF" height="198.04526748971193" width="30" x="1709.5833333333333" y="351.95473251028807" /><text fill="white" font-size="12" text-anchor="middle" x="1724.5833333333333" y="346.95473251028807">770</text><text fill="white" font-size="12" text-anchor="middle" transform="rotate(-45,1724.5833333333333,570)" x="1724.5833333333333" y="570">2025-10-12</text><line stroke="white" x1="60" x2="60" y1="50" y2="550" /><line stroke="white" x1="60" x2="1760" y1="550" y2="550" /></svg>