<?xml version="1.0" encoding="utf-8" ?>
<svg baseProfile="full" height="600" version="1.1" width="1800" xmlns="http://www.w3.org/2000/svg" xmlns:ev="http://www.w3.org/2001/xml-events" xmlns:xlink="http://www.w3.org/1999/xlink"><defs /><rect fill="#222222" height="100%" width="100%" x="0" y="0" /><text fill="white" font-size="20" text-anchor="middle" x="900.0" y="30">Weekly Totals (Last 52 Weeks)</text><rect fill="#4DD2FF" height="67.12962962962963" width="30" x="73.33333333333333" y="482.8703703703704" /><text fill="white" font-size="12" text-anchor="middle" x="88.33333333333333" y="477.8703703703704">261</text><text fill="white" font-size="12" text-anchor="middle" transform="rotate(-45,88.33333333333333,570)" x="88.33333333333333" y="570">2025-05-04</text><rect fill="#4DD2FF" height="500.0" width="30" x="130.0" y="50.0" /><text fill="white" font-size="12" text-anchor="middle" x="145.0" y="45.0">1944</text><text fill="white" font-size="12" text-anchor="middle" transform="rotate(-45,145.0,570)" x="145.0" y="570">2025-05-11</text><rect fill="#4DD2FF" height="380.65843621399176" width="30" x="186.66666666666666" y="169.34156378600824" /><text fill="white" font-size="12" text-anchor="middle" x="201.66666666666666" y="164.34156378600824">1480</text><text fill="white" font-size="12" text-anchor="middle" transform="rotate(-45,201.66666666666666,570)" x="201.66666666666666" y="570">2025-05-18</text><rect fill="#4DD2FF" height="450.61728395061726" width="30" x="243.33333333333334" y="99.38271604938274" /><text fill="white" font-size="12" text-anchor="middle" x="258.33333333333337" y="94.38271604938274">1752</text><text fill="white" font-size="12" text-anchor="middle" transform="rotate(-45,258.33333333333337,570)" x="258.33333333333337" y="570">2025-05-25</text><rect fill="#4DD2FF" height="307.61316872427983" width="30" x="299.99999999999994" y="242.38683127572017" /><text fill="white" font-size="12" text-anchor="middle" x="314.99999999999994" y="237.38683127572017">1196</text><text fill="white" font-size="12" text-anchor="middle" transform="rotate(-45,314.99999999999994,570)" x="314.99999999999994" y="570">2025-06-01</text><rect fill="#4DD2FF" height="301.6975308641975" width="30" x="356.66666666666663" y="248.30246913580248" /><text fill="white" font-size="12" text-anchor="middle" x="371.66666666666663" y="243.30246913580248">1173</text><text fill="white" font-size="12" text-anchor="middle" transform="rotate(-45,371.66666666666663,570)" x="371.66666666666663" y="570">2025-06-08</text><rect fill="#4DD2FF" height="284.72222222222223" width="30" x="413.3333333333333" y="265.27777777777777" /><text fill="white" font-size="12" text-anchor="middle" x="428.3333333333333" y="260.27777777777777">1107</text><text fill="white" font-size="12" text-anchor="middle" transform="rotate(-45,428.3333333333333,570)" x="428.3333333333333" y="570">2025-06-15</text><rect fill="#4DD2FF" height="323.55967078189303" width="30" x="469.99999999999994" y="226.44032921810697" /><text fill="white" font-size="12" text-anchor="middle" x="484.99999999999994" y="221.44032921810697">1258</text><text fill="white" font-size="12" text-anchor="middle" transform="rotate(-45,484.99999999999994,570)" x="484.99999999999994" y="570">2025-06-22</text><rect fill="#4DD2FF" height="211.41975308641975" width="30" x="526.6666666666666" y="338.58024691358025" /><text fill="white" font-size="12" text-anchor="middle" x="541.6666666666666" y="333.58024691358025">822</text><text fill="white" font-size="12" text-anchor="middle" transform="rotate(-45,541.6666666666666,570)" x="541.6666666666666" y="570">2025-06-29</text><rect fill="#4DD2FF" height="141.71810699588477" width="30" x="583.3333333333334" y="408.2818930041152" /><text fill="white" font-size="12" text-anchor="middle" x="598.3333333333334" y="403.2818930041152">551</text><text fill="white" font-size="12" text-anchor="middle" transform="rotate(-45,598.3333333333334,570)" x="598.3333333333334" y="570">2025-07-06</text><rect fill="#4DD2FF" height="284.72222222222223" width="30" x="640.0" y="265.27777777777777" /><text fill="white" font-size="12" text-anchor="middle" x="655.0" y="260.27777777777777">1107</text><text fill="white" font-size="12" text-anchor="middle" transform="rotate(-45,655.0,570)" x="655.0" y="570">2025-07-13</text><rect fill="#4DD2FF" height="355.9670781893004" width="30" x="696.6666666666666" y="194.03292181069958" /><text fill="white" font-size="12" text-anchor="middle" x="711.6666666666666" y="189.03292181069958">1384</text><text fill="white" font-size="12" text-anchor="middle" transform="rotate(-45,711.6666666666666,570)" x="711.6666666666666" y="570">2025-07-20</text><rect fill="#4DD2FF" height="96.19341563786008" width="30" x="753.3333333333334" y="453.8065843621399" /><text fill="white" font-size="12" text-anchor="middle" x="768.3333333333334" y="448.8065843621399">374</text><text fill="white" font-size="12" text-anchor="middle" transform="rotate(-45,768.3333333333334,570)" x="768.3333333333334" y="570">2025-07-27</text><rect fill="#4DD2FF" height="195.98765432098767" width="30" x="810.0" y="354.01234567901236" /><text fill="white" font-size="12" text-anchor="middle" x="825.0" y="349.01234567901236">762</text><text fill="white" font-size="12" text-anchor="middle" transform="rotate(-45,825.0,570)" x="825.0" y="570">2025-08-03</text><rect fill="#4DD2FF" height="217.33539094650206" width="30" x="866.6666666666666" y="332.66460905349794" /><text fill="white" font-size="12" text-anchor="middle" x="881.6666666666666" y="327.66460905349794">845</text><text fill="white" font-size="12" text-anchor="middle" transform="rotate(-45,881.6666666666666,570)" x="881.6666666666666" y="570">2025-08-10</text><rect fill="#4DD2FF" height="224.53703703703704" width="30" x="923.3333333333334" y="325.46296296296293" /><text fill="white" font-size="12" text-anchor="middle" x="938.3333333333334" y="320.46296296296293">873</text><text fill="white" font-size="12" text-anchor="middle" transform="rotate(-45,938.3333333333334,570)" x="938.3333333333334" y="570">2025-08-17</text><rect fill="#4DD2FF" height="153.54938271604937" width="30" x="980.0" y="396.45061728395063" /><text fill="white" font-size="12" text-anchor="middle" x="995.0" y="391.45061728395063">597</text><text fill="white" font-size="12" text-anchor="middle" transform="rotate(-45,995.0,570)" x="995.0" y="570">2025-08-24</text><rect fill="#4DD2FF" height="180.0411522633745" width="30" x="1036.6666666666665" y="369.9588477366255" /><text fill="white" font-size="12" text-anchor="middle" x="1051.6666666666665" y="364.9588477366255">700</text><text fill="white" font-size="12" text-anchor="middle" transform="rotate(-45,1051.6666666666665,570)" x="1051.6666666666665" y="570">2025-08-31</text><rect fill="#4DD2FF" height="210.13374485596708" width="30" x="1093.3333333333333" y="339.86625514403295" /><text fill="white" font-size="12" text-anchor="middle" x="1108.3333333333333" y="334.86625514403295">817</text><text fill="white" font-size="12" text-anchor="middle" transform="rotate(-45,1108.3333333333333,570)" x="1108.3333333333333" y="570">2025-09-07</text><rect fill="#4DD2FF" height="237.13991769547323" width="30" x="1149.9999999999998" y="312.86008230452677" /><text fill="white" font-size="12" text-anchor="middle" x="1164.9999999999998" y="307.86008230452677">922</text><text fill="white" font-size="12" text-anchor="middle" transform="rotate(-45,1164.9999999999998,570)" x="1164.9999999999998" y="570">2025-09-14</text><rect fill="#4DD2FF" height="137.08847736625515" width="30" x="1206.6666666666665" y="412.9115226337449" /><text fill="white" font-size="12" text-anchor="middle" x="1221.6666666666665" y="407.9115226337449">533</text><text fill="white" font-size="12" text-anchor="middle" transform="rotate(-45,1221.6666666666665,570)" x="1221.6666666666665" y="570">2025-09-21</text><rect fill="#4DD2FF" height="160.49382716049382" width="30" x="1263.3333333333333" y="389.5061728395062" /><text fill="white" font-size="12" text-anchor="middle" x="1278.3333333333333" y="384.5061728395062">624</text><text fill="white" font-size="12" text-anchor="middle" transform="rotate(-45,1278.3333333333333,570)" x="1278.3333333333333" y="570">2025-09-28</text><rect fill="#4DD2FF" height="197.53086419753086" width="30" x="1319.9999999999998" y="352.46913580246917" /><text fill="white" font-size="12" text-anchor="middle" x="1334.9999999999998" y="347.46913580246917">768</text><text fill="white" font-size="12" text-anchor="middle" transform="rotate(-45,1334.9999999999998,570)" x="1334.9999999999998" y="570">2025-10-05</text><rect fill="#4DD2FF" height="303.24074074074076" width="30" x="1376.6666666666665" y="246.75925925925924" /><text fill="white" font-size="12" text-anchor="middle" x="1391.6666666666665" y="241.75925925925924">1179</text><text fill="white" font-size="12" text-anchor="middle" transform="rotate(-45,1391.6666666666665,570)" x="1391.6666666666665" y="570">2025-10-12</text><rect fill="#4DD2FF" height="266.7181069958848" width="30" x="1433.3333333333333" y="283.2818930041152" /><text fill="white" font-size="12" text-anchor="middle" x="1448.3333333333333" y="278.2818930041152">1037</text><text fill="white" font-size="12" text-anchor="middle" transform="rotate(-45,1448.3333333333333,570)" x="1448.3333333333333" y="570">2025-10-19</text><rect fill="#4DD2FF" height="184.15637860082305" width="30" x="1489.9999999999998" y="365.843621399177" /><text fill="white" font-size="12" text-anchor="middle" x="1504.9999999999998" y="360.843621399177">716</text><text fill="white" font-size="12" text-anchor="middle" transform="rotate(-45,1504.9999999999998,570)" x="1504.9999999999998" y="570">2025-10-26</text><rect fill="#4DD2FF" height="211.41975308641975" width="30" x="1546.6666666666665" y="338.58024691358025" /><text fill="white" font-size="12" text-anchor="middle" x="1561.6666666666665" y="333.58024691358025">822</text><text fill="white" font-size="12" text-anchor="middle" transform="rotate(-45,1561.6666666666665,570)" x="1561.6666666666665" y="570">2025-11-02</text><rect fill="#4DD2FF" height="122.94238683127571" width="30" x="1603.3333333333333" y="427.0576131687243" /><text fill="white" font-size="12" text-anchor="middle" x="1618.3333333333333" y="422.0576131687243">478</text><text fill="white" font-size="12" text-anchor="middle" transform="rotate(-45,1618.3333333333333,570)" x="1618.3333333333333" y="570">2025-11-09</text><rect fill="#4DD2FF" height="307.8703703703703" width="30" x="1659.9999999999998" y="242.12962962962968" /><text fill="white" font-size="12" text-anchor="middle" x="1674.9999999999998" y="237.12962962962968">1197</text><text fill="white" font-size="12" text-anchor="middle" transform="rotate(-45,1674.9999999999998,570)" x="1674.9999999999998" y="570">2025-11-16</text><rect fill="#4DD2FF" height="10.2880658436214" width="30" x="1716.6666666666665" y="539.7119341563786" /><text fill="white" font-size="12" text-anchor="middle" x="1731.6666666666665" y="534.7119341563786">40</text><text fill="white" font-size="12" text-anchor="middle" transform="rotate(-45,1731.6666666666665,570)" x="1731.6666666666665" y="570">2025-11-23</text><line stroke="white" x1="60" x2="60" y1="50" y2="550" /><line stroke="white" x1="60" x2="1760" y1="550" y2="550" /></svg>