<?xml version="1.0" encoding="utf-8" ?>
<svg baseProfile="full" height="600" version="1.1" width="1800" xmlns="http://www.w3.org/2000/svg" xmlns:ev="http://www.w3.org/2001/xml-events" xmlns:xlink="http://www.w3.org/1999/xlink"><defs /><rect fill="#222222" height="100%" width="100%" x="0" y="0" /><text fill="white" font-size="20" text-anchor="middle" x="900.0" y="30">Weekly Totals (Last 52 Weeks)</text><rect fill="#4DD2FF" height="67.12962962962963" width="30" x="71.5625" y="482.8703703703704" /><text fill="white" font-size="12" text-anchor="middle" x="86.5625" y="477.8703703703704">261</text><text fill="white" font-size="12" text-anchor="middle" transform="rotate(-45,86.5625,570)" x="86.5625" y="570">2025-05-04</text><rect fill="#4DD2FF" height="500.0" width="30" x="124.6875" y="50.0" /><text fill="white" font-size="12" text-anchor="middle" x="139.6875" y="45.0">1944</text><text fill="white" font-size="12" text-anchor="middle" transform="rotate(-45,139.6875,570)" x="139.6875" y="570">2025-05-11</text><rect fill="#4DD2FF" height="380.65843621399176" width="30" x="177.8125" y="169.34156378600824" /><text fill="white" font-size="12" text-anchor="middle" x="192.8125" y="164.34156378600824">1480</text><text fill="white" font-size="12" text-anchor="middle" transform="rotate(-45,192.8125,570)" x="192.8125" y="570">2025-05-18</text><rect fill="#4DD2FF" height="450.61728395061726" width="30" x="230.9375" y="99.38271604938274" /><text fill="white" font-size="12" text-anchor="middle" x="245.9375" y="94.38271604938274">1752</text><text fill="white" font-size="12" text-anchor="middle" transform="rotate(-45,245.9375,570)" x="245.9375" y="570">2025-05-25</text><rect fill="#4DD2FF" height="307.61316872427983" width="30" x="284.0625" y="242.38683127572017" /><text fill="white" font-size="12" text-anchor="middle" x="299.0625" y="237.38683127572017">1196</text><text fill="white" font-size="12" text-anchor="middle" transform="rotate(-45,299.0625,570)" x="299.0625" y="570">2025-06-01</text><rect fill="#4DD2FF" height="301.6975308641975" width="30" x="337.1875" y="248.30246913580248" /><text fill="white" font-size="12" text-anchor="middle" x="352.1875" y="243.30246913580248">1173</text><text fill="white" font-size="12" text-anchor="middle" transform="rotate(-45,352.1875,570)" x="352.1875" y="570">2025-06-08</text><rect fill="#4DD2FF" height="284.72222222222223" width="30" x="390.3125" y="265.27777777777777" /><text fill="white" font-size="12" text-anchor="middle" x="405.3125" y="260.27777777777777">1107</text><text fill="white" font-size="12" text-anchor="middle" transform="rotate(-45,405.3125,570)" x="405.3125" y="570">2025-06-15</text><rect fill="#4DD2FF" height="323.55967078189303" width="30" x="443.4375" y="226.44032921810697" /><text fill="white" font-size="12" text-anchor="middle" x="458.4375" y="221.44032921810697">1258</text><text fill="white" font-size="12" text-anchor="middle" transform="rotate(-45,458.4375,570)" x="458.4375" y="570">2025-06-22</text><rect fill="#4DD2FF" height="211.41975308641975" width="30" x="496.5625" y="338.58024691358025" /><text fill="white" font-size="12" text-anchor="middle" x="511.5625" y="333.58024691358025">822</text><text fill="white" font-size="12" text-anchor="middle" transform="rotate(-45,511.5625,570)" x="511.5625" y="570">2025-06-29</text><rect fill="#4DD2FF" height="141.71810699588477" width="30" x="549.6875" y="408.2818930041152" /><text fill="white" font-size="12" text-anchor="middle" x="564.6875" y="403.2818930041152">551</text><text fill="white" font-size="12" text-anchor="middle" transform="rotate(-45,564.6875,570)" x="564.6875" y="570">2025-07-06</text><rect fill="#4DD2FF" height="284.72222222222223" width="30" x="602.8125" y="265.27777777777777" /><text fill="white" font-size="12" text-anchor="middle" x="617.8125" y="260.27777777777777">1107</text><text fill="white" font-size="12" text-anchor="middle" transform="rotate(-45,617.8125,570)" x="617.8125" y="570">2025-07-13</text><rect fill="#4DD2FF" height="355.9670781893004" width="30" x="655.9375" y="194.03292181069958" /><text fill="white" font-size="12" text-anchor="middle" x="670.9375" y="189.03292181069958">1384</text><text fill="white" font-size="12" text-anchor="middle" transform="rotate(-45,670.9375,570)" x="670.9375" y="570">2025-07-20</text><rect fill="#4DD2FF" height="96.19341563786008" width="30" x="709.0625" y="453.8065843621399" /><text fill="white" font-size="12" text-anchor="middle" x="724.0625" y="448.8065843621399">374</text><text fill="white" font-size="12" text-anchor="middle" transform="rotate(-45,724.0625,570)" x="724.0625" y="570">2025-07-27</text><rect fill="#4DD2FF" height="195.98765432098767" width="30" x="762.1875" y="354.01234567901236" /><text fill="white" font-size="12" text-anchor="middle" x="777.1875" y="349.01234567901236">762</text><text fill="white" font-size="12" text-anchor="middle" transform="rotate(-45,777.1875,570)" x="777.1875" y="570">2025-08-03</text><rect fill="#4DD2FF" height="217.33539094650206" width="30" x="815.3125" y="332.66460905349794" /><text fill="white" font-size="12" text-anchor="middle" x="830.3125" y="327.66460905349794">845</text><text fill="white" font-size="12" text-anchor="middle" transform="rotate(-45,830.3125,570)" x="830.3125" y="570">2025-08-10</text><rect fill="#4DD2FF" height="224.53703703703704" width="30" x="868.4375" y="325.46296296296293" /><text fill="white" font-size="12" text-anchor="middle" x="883.4375" y="320.46296296296293">873</text><text fill="white" font-size="12" text-anchor="middle" transform="rotate(-45,883.4375,570)" x="883.4375" y="570">2025-08-17</text><rect fill="#4DD2FF" height="153.54938271604937" width="30" x="921.5625" y="396.45061728395063" /><text fill="white" font-size="12" text-anchor="middle" x="936.5625" y="391.45061728395063">597</text><text fill="white" font-size="12" text-anchor="middle" transform="rotate(-45,936.5625,570)" x="936.5625" y="570">2025-08-24</text><rect fill="#4DD2FF" height="180.0411522633745" width="30" x="974.6875" y="369.9588477366255" /><text fill="white" font-size="12" text-anchor="middle" x="989.6875" y="364.9588477366255">700</text><text fill="white" font-size="12" text-anchor="middle" transform="rotate(-45,989.6875,570)" x="989.6875" y="570">2025-08-31</text><rect fill="#4DD2FF" height="210.13374485596708" width="30" x="1027.8125" y="339.86625514403295" /><text fill="white" font-size="12" text-anchor="middle" x="1042.8125" y="334.86625514403295">817</text><text fill="white" font-size="12" text-anchor="middle" transform="rotate(-45,1042.8125,570)" x="1042.8125" y="570">2025-09-07</text><rect fill="#4DD2FF" height="237.13991769547323" width="30" x="1080.9375" y="312.86008230452677" /><text fill="white" font-size="12" text-anchor="middle" x="1095.9375" y="307.86008230452677">922</text><text fill="white" font-size="12" text-anchor="middle" transform="rotate(-45,1095.9375,570)" x="1095.9375" y="570">2025-09-14</text><rect fill="#4DD2FF" height="137.08847736625515" width="30" x="1134.0625" y="412.9115226337449" /><text fill="white" font-size="12" text-anchor="middle" x="1149.0625" y="407.9115226337449">533</text><text fill="white" font-size="12" text-anchor="middle" transform="rotate(-45,1149.0625,570)" x="1149.0625" y="570">2025-09-21</text><rect fill="#4DD2FF" height="160.49382716049382" width="30" x="1187.1875" y="389.5061728395062" /><text fill="white" font-size="12" text-anchor="middle" x="1202.1875" y="384.5061728395062">624</text><text fill="white" font-size="12" text-anchor="middle" transform="rotate(-45,1202.1875,570)" x="1202.1875" y="570">2025-09-28</text><rect fill="#4DD2FF" height="197.53086419753086" width="30" x="1240.3125" y="352.46913580246917" /><text fill="white" font-size="12" text-anchor="middle" x="1255.3125" y="347.46913580246917">768</text><text fill="white" font-size="12" text-anchor="middle" transform="rotate(-45,1255.3125,570)" x="1255.3125" y="570">2025-10-05</text><rect fill="#4DD2FF" height="303.24074074074076" width="30" x="1293.4375" y="246.75925925925924" /><text fill="white" font-size="12" text-anchor="middle" x="1308.4375" y="241.75925925925924">1179</text><text fill="white" font-size="12" text-anchor="middle" transform="rotate(-45,1308.4375,570)" x="1308.4375" y="570">2025-10-12</text><rect fill="#4DD2FF" height="266.7181069958848" width="30" x="1346.5625" y="283.2818930041152" /><text fill="white" font-size="12" text-anchor="middle" x="1361.5625" y="278.2818930041152">1037</text><text fill="white" font-size="12" text-anchor="middle" transform="rotate(-45,1361.5625,570)" x="1361.5625" y="570">2025-10-19</text><rect fill="#4DD2FF" height="184.15637860082305" width="30" x="1399.6875" y="365.843621399177" /><text fill="white" font-size="12" text-anchor="middle" x="1414.6875" y="360.843621399177">716</text><text fill="white" font-size="12" text-anchor="middle" transform="rotate(-45,1414.6875,570)" x="1414.6875" y="570">2025-10-26</text><rect fill="#4DD2FF" height="211.41975308641975" width="30" x="1452.8125" y="338.58024691358025" /><text fill="white" font-size="12" text-anchor="middle" x="1467.8125" y="333.58024691358025">822</text><text fill="white" font-size="12" text-anchor="middle" transform="rotate(-45,1467.8125,570)" x="1467.8125" y="570">2025-11-02</text><rect fill="#4DD2FF" height="122.94238683127571" width="30" x="1505.9375" y="427.0576131687243" /><text fill="white" font-size="12" text-anchor="middle" x="1520.9375" y="422.0576131687243">478</text><text fill="white" font-size="12" text-anchor="middle" transform="rotate(-45,1520.9375,570)" x="1520.9375" y="570">2025-11-09</text><rect fill="#4DD2FF" height="307.8703703703703" width="30" x="1559.0625" y="242.12962962962968" /><text fill="white" font-size="12" text-anchor="middle" x="1574.0625" y="237.12962962962968">1197</text><text fill="white" font-size="12" text-anchor="middle" transform="rotate(-45,1574.0625,570)" x="1574.0625" y="570">2025-11-16</text><rect fill="#4DD2FF" height="10.2880658436214" width="30" x="1612.1875" y="539.7119341563786" /><text fill="white" font-size="12" text-anchor="middle" x="1627.1875" y="534.7119341563786">40</text><text fill="white" font-size="12" text-anchor="middle" transform="rotate(-45,1627.1875,570)" x="1627.1875" y="570">2025-11-23</text><rect fill="#4DD2FF" height="111.88271604938271" width="30" x="1665.3125" y="438.1172839506173" /><text fill="white" font-size="12" text-anchor="middle" x="1680.3125" y="433.1172839506173">435</text><text fill="white" font-size="12" text-anchor="middle" transform="rotate(-45,1680.3125,570)" x="1680.3125" y="570">2025-11-30</text><rect fill="#4DD2FF" height="8.23045267489712" width="30" x="1718.4375" y="541.7695473251028" /><text fill="white" font-size="12" text-anchor="middle" x="1733.4375" y="536.7695473251028">32</text><text fill="white" font-size="12" text-anchor="middle" transform="rotate(-45,1733.4375,570)" x="1733.4375" y="570">2025-12-07</text><line stroke="white" x1="60" x2="60" y1="50" y2="550" /><line stroke="white" x1="60" x2="1760" y1="550" y2="550" /></svg>