<?xml version="1.0" encoding="utf-8" ?>
<svg baseProfile="full" height="600" version="1.1" width="1800" xmlns="http://www.w3.org/2000/svg" xmlns:ev="http://www.w3.org/2001/xml-events" xmlns:xlink="http://www.w3.org/1999/xlink"><defs /><rect fill="#222222" height="100%" width="100%" x="0" y="0" /><text fill="white" font-size="20" text-anchor="middle" x="900.0" y="30">Weekly Totals (Last 52 Weeks)</text><rect fill="#4DD2FF" height="67.12962962962963" width="30" x="81.95652173913044" y="482.8703703703704" /><text fill="white" font-size="12" text-anchor="middle" x="96.95652173913044" y="477.8703703703704">261</text><text fill="white" font-size="12" text-anchor="middle" transform="rotate(-45,96.95652173913044,570)" x="96.95652173913044" y="570">2025-05-04</text><rect fill="#4DD2FF" height="500.0" width="30" x="155.8695652173913" y="50.0" /><text fill="white" font-size="12" text-anchor="middle" x="170.8695652173913" y="45.0">1944</text><text fill="white" font-size="12" text-anchor="middle" transform="rotate(-45,170.8695652173913,570)" x="170.8695652173913" y="570">2025-05-11</text><rect fill="#4DD2FF" height="380.65843621399176" width="30" x="229.7826086956522" y="169.34156378600824" /><text fill="white" font-size="12" text-anchor="middle" x="244.7826086956522" y="164.34156378600824">1480</text><text fill="white" font-size="12" text-anchor="middle" transform="rotate(-45,244.7826086956522,570)" x="244.7826086956522" y="570">2025-05-18</text><rect fill="#4DD2FF" height="450.61728395061726" width="30" x="303.69565217391306" y="99.38271604938274" /><text fill="white" font-size="12" text-anchor="middle" x="318.69565217391306" y="94.38271604938274">1752</text><text fill="white" font-size="12" text-anchor="middle" transform="rotate(-45,318.69565217391306,570)" x="318.69565217391306" y="570">2025-05-25</text><rect fill="#4DD2FF" height="307.61316872427983" width="30" x="377.60869565217394" y="242.38683127572017" /><text fill="white" font-size="12" text-anchor="middle" x="392.60869565217394" y="237.38683127572017">1196</text><text fill="white" font-size="12" text-anchor="middle" transform="rotate(-45,392.60869565217394,570)" x="392.60869565217394" y="570">2025-06-01</text><rect fill="#4DD2FF" height="301.6975308641975" width="30" x="451.5217391304348" y="248.30246913580248" /><text fill="white" font-size="12" text-anchor="middle" x="466.5217391304348" y="243.30246913580248">1173</text><text fill="white" font-size="12" text-anchor="middle" transform="rotate(-45,466.5217391304348,570)" x="466.5217391304348" y="570">2025-06-08</text><rect fill="#4DD2FF" height="284.72222222222223" width="30" x="525.4347826086957" y="265.27777777777777" /><text fill="white" font-size="12" text-anchor="middle" x="540.4347826086957" y="260.27777777777777">1107</text><text fill="white" font-size="12" text-anchor="middle" transform="rotate(-45,540.4347826086957,570)" x="540.4347826086957" y="570">2025-06-15</text><rect fill="#4DD2FF" height="323.55967078189303" width="30" x="599.3478260869565" y="226.44032921810697" /><text fill="white" font-size="12" text-anchor="middle" x="614.3478260869565" y="221.44032921810697">1258</text><text fill="white" font-size="12" text-anchor="middle" transform="rotate(-45,614.3478260869565,570)" x="614.3478260869565" y="570">2025-06-22</text><rect fill="#4DD2FF" height="211.41975308641975" width="30" x="673.2608695652175" y="338.58024691358025" /><text fill="white" font-size="12" text-anchor="middle" x="688.2608695652175" y="333.58024691358025">822</text><text fill="white" font-size="12" text-anchor="middle" transform="rotate(-45,688.2608695652175,570)" x="688.2608695652175" y="570">2025-06-29</text><rect fill="#4DD2FF" height="141.71810699588477" width="30" x="747.1739130434783" y="408.2818930041152" /><text fill="white" font-size="12" text-anchor="middle" x="762.1739130434783" y="403.2818930041152">551</text><text fill="white" font-size="12" text-anchor="middle" transform="rotate(-45,762.1739130434783,570)" x="762.1739130434783" y="570">2025-07-06</text><rect fill="#4DD2FF" height="284.72222222222223" width="30" x="821.0869565217392" y="265.27777777777777" /><text fill="white" font-size="12" text-anchor="middle" x="836.0869565217392" y="260.27777777777777">1107</text><text fill="white" font-size="12" text-anchor="middle" transform="rotate(-45,836.0869565217392,570)" x="836.0869565217392" y="570">2025-07-13</text><rect fill="#4DD2FF" height="355.9670781893004" width="30" x="895.0" y="194.03292181069958" /><text fill="white" font-size="12" text-anchor="middle" x="910.0" y="189.03292181069958">1384</text><text fill="white" font-size="12" text-anchor="middle" transform="rotate(-45,910.0,570)" x="910.0" y="570">2025-07-20</text><rect fill="#4DD2FF" height="96.19341563786008" width="30" x="968.913043478261" y="453.8065843621399" /><text fill="white" font-size="12" text-anchor="middle" x="983.913043478261" y="448.8065843621399">374</text><text fill="white" font-size="12" text-anchor="middle" transform="rotate(-45,983.913043478261,570)" x="983.913043478261" y="570">2025-07-27</text><rect fill="#4DD2FF" height="195.98765432098767" width="30" x="1042.8260869565217" y="354.01234567901236" /><text fill="white" font-size="12" text-anchor="middle" x="1057.8260869565217" y="349.01234567901236">762</text><text fill="white" font-size="12" text-anchor="middle" transform="rotate(-45,1057.8260869565217,570)" x="1057.8260869565217" y="570">2025-08-03</text><rect fill="#4DD2FF" height="217.33539094650206" width="30" x="1116.7391304347827" y="332.66460905349794" /><text fill="white" font-size="12" text-anchor="middle" x="1131.7391304347827" y="327.66460905349794">845</text><text fill="white" font-size="12" text-anchor="middle" transform="rotate(-45,1131.7391304347827,570)" x="1131.7391304347827" y="570">2025-08-10</text><rect fill="#4DD2FF" height="224.53703703703704" width="30" x="1190.6521739130435" y="325.46296296296293" /><text fill="white" font-size="12" text-anchor="middle" x="1205.6521739130435" y="320.46296296296293">873</text><text fill="white" font-size="12" text-anchor="middle" transform="rotate(-45,1205.6521739130435,570)" x="1205.6521739130435" y="570">2025-08-17</text><rect fill="#4DD2FF" height="153.54938271604937" width="30" x="1264.5652173913045" y="396.45061728395063" /><text fill="white" font-size="12" text-anchor="middle" x="1279.5652173913045" y="391.45061728395063">597</text><text fill="white" font-size="12" text-anchor="middle" transform="rotate(-45,1279.5652173913045,570)" x="1279.5652173913045" y="570">2025-08-24</text><rect fill="#4DD2FF" height="180.0411522633745" width="30" x="1338.4782608695655" y="369.9588477366255" /><text fill="white" font-size="12" text-anchor="middle" x="1353.4782608695655" y="364.9588477366255">700</text><text fill="white" font-size="12" text-anchor="middle" transform="rotate(-45,1353.4782608695655,570)" x="1353.4782608695655" y="570">2025-08-31</text><rect fill="#4DD2FF" height="210.13374485596708" width="30" x="1412.3913043478262" y="339.86625514403295" /><text fill="white" font-size="12" text-anchor="middle" x="1427.3913043478262" y="334.86625514403295">817</text><text fill="white" font-size="12" text-anchor="middle" transform="rotate(-45,1427.3913043478262,570)" x="1427.3913043478262" y="570">2025-09-07</text><rect fill="#4DD2FF" height="237.13991769547323" width="30" x="1486.304347826087" y="312.86008230452677" /><text fill="white" font-size="12" text-anchor="middle" x="1501.304347826087" y="307.86008230452677">922</text><text fill="white" font-size="12" text-anchor="middle" transform="rotate(-45,1501.304347826087,570)" x="1501.304347826087" y="570">2025-09-14</text><rect fill="#4DD2FF" height="137.08847736625515" width="30" x="1560.217391304348" y="412.9115226337449" /><text fill="white" font-size="12" text-anchor="middle" x="1575.217391304348" y="407.9115226337449">533</text><text fill="white" font-size="12" text-anchor="middle" transform="rotate(-45,1575.217391304348,570)" x="1575.217391304348" y="570">2025-09-21</text><rect fill="#4DD2FF" height="160.49382716049382" width="30" x="1634.130434782609" y="389.5061728395062" /><text fill="white" font-size="12" text-anchor="middle" x="1649.130434782609" y="384.5061728395062">624</text><text fill="white" font-size="12" text-anchor="middle" transform="rotate(-45,1649.130434782609,570)" x="1649.130434782609" y="570">2025-09-28</text><rect fill="#4DD2FF" height="122.17078189300412" width="30" x="1708.0434782608697" y="427.8292181069959" /><text fill="white" font-size="12" text-anchor="middle" x="1723.0434782608697" y="422.8292181069959">475</text><text fill="white" font-size="12" text-anchor="middle" transform="rotate(-45,1723.0434782608697,570)" x="1723.0434782608697" y="570">2025-10-05</text><line stroke="white" x1="60" x2="60" y1="50" y2="550" /><line stroke="white" x1="60" x2="1760" y1="550" y2="550" /></svg>