<?xml version="1.0" encoding="utf-8" ?>
<svg baseProfile="full" height="600" version="1.1" width="1800" xmlns="http://www.w3.org/2000/svg" xmlns:ev="http://www.w3.org/2001/xml-events" xmlns:xlink="http://www.w3.org/1999/xlink"><defs /><rect fill="#222222" height="100%" width="100%" x="0" y="0" /><text fill="white" font-size="20" text-anchor="middle" x="900.0" y="30">Weekly Totals (Last 52 Weeks)</text><rect fill="#4DD2FF" height="67.12962962962963" width="30" x="65.23809523809524" y="482.8703703703704" /><text fill="white" font-size="12" text-anchor="middle" x="80.23809523809524" y="477.8703703703704">261</text><text fill="white" font-size="12" text-anchor="middle" transform="rotate(-45,80.23809523809524,570)" x="80.23809523809524" y="570">2025-05-04</text><rect fill="#4DD2FF" height="500.0" width="30" x="105.71428571428572" y="50.0" /><text fill="white" font-size="12" text-anchor="middle" x="120.71428571428572" y="45.0">1944</text><text fill="white" font-size="12" text-anchor="middle" transform="rotate(-45,120.71428571428572,570)" x="120.71428571428572" y="570">2025-05-11</text><rect fill="#4DD2FF" height="380.65843621399176" width="30" x="146.1904761904762" y="169.34156378600824" /><text fill="white" font-size="12" text-anchor="middle" x="161.1904761904762" y="164.34156378600824">1480</text><text fill="white" font-size="12" text-anchor="middle" transform="rotate(-45,161.1904761904762,570)" x="161.1904761904762" y="570">2025-05-18</text><rect fill="#4DD2FF" height="450.61728395061726" width="30" x="186.66666666666666" y="99.38271604938274" /><text fill="white" font-size="12" text-anchor="middle" x="201.66666666666666" y="94.38271604938274">1752</text><text fill="white" font-size="12" text-anchor="middle" transform="rotate(-45,201.66666666666666,570)" x="201.66666666666666" y="570">2025-05-25</text><rect fill="#4DD2FF" height="307.61316872427983" width="30" x="227.14285714285714" y="242.38683127572017" /><text fill="white" font-size="12" text-anchor="middle" x="242.14285714285714" y="237.38683127572017">1196</text><text fill="white" font-size="12" text-anchor="middle" transform="rotate(-45,242.14285714285714,570)" x="242.14285714285714" y="570">2025-06-01</text><rect fill="#4DD2FF" height="301.6975308641975" width="30" x="267.61904761904765" y="248.30246913580248" /><text fill="white" font-size="12" text-anchor="middle" x="282.61904761904765" y="243.30246913580248">1173</text><text fill="white" font-size="12" text-anchor="middle" transform="rotate(-45,282.61904761904765,570)" x="282.61904761904765" y="570">2025-06-08</text><rect fill="#4DD2FF" height="284.72222222222223" width="30" x="308.0952380952381" y="265.27777777777777" /><text fill="white" font-size="12" text-anchor="middle" x="323.0952380952381" y="260.27777777777777">1107</text><text fill="white" font-size="12" text-anchor="middle" transform="rotate(-45,323.0952380952381,570)" x="323.0952380952381" y="570">2025-06-15</text><rect fill="#4DD2FF" height="323.55967078189303" width="30" x="348.57142857142856" y="226.44032921810697" /><text fill="white" font-size="12" text-anchor="middle" x="363.57142857142856" y="221.44032921810697">1258</text><text fill="white" font-size="12" text-anchor="middle" transform="rotate(-45,363.57142857142856,570)" x="363.57142857142856" y="570">2025-06-22</text><rect fill="#4DD2FF" height="211.41975308641975" width="30" x="389.04761904761904" y="338.58024691358025" /><text fill="white" font-size="12" text-anchor="middle" x="404.04761904761904" y="333.58024691358025">822</text><text fill="white" font-size="12" text-anchor="middle" transform="rotate(-45,404.04761904761904,570)" x="404.04761904761904" y="570">2025-06-29</text><rect fill="#4DD2FF" height="141.71810699588477" width="30" x="429.5238095238095" y="408.2818930041152" /><text fill="white" font-size="12" text-anchor="middle" x="444.5238095238095" y="403.2818930041152">551</text><text fill="white" font-size="12" text-anchor="middle" transform="rotate(-45,444.5238095238095,570)" x="444.5238095238095" y="570">2025-07-06</text><rect fill="#4DD2FF" height="284.72222222222223" width="30" x="470.0" y="265.27777777777777" /><text fill="white" font-size="12" text-anchor="middle" x="485.0" y="260.27777777777777">1107</text><text fill="white" font-size="12" text-anchor="middle" transform="rotate(-45,485.0,570)" x="485.0" y="570">2025-07-13</text><rect fill="#4DD2FF" height="355.9670781893004" width="30" x="510.4761904761905" y="194.03292181069958" /><text fill="white" font-size="12" text-anchor="middle" x="525.4761904761905" y="189.03292181069958">1384</text><text fill="white" font-size="12" text-anchor="middle" transform="rotate(-45,525.4761904761905,570)" x="525.4761904761905" y="570">2025-07-20</text><rect fill="#4DD2FF" height="96.19341563786008" width="30" x="550.9523809523808" y="453.8065843621399" /><text fill="white" font-size="12" text-anchor="middle" x="565.9523809523808" y="448.8065843621399">374</text><text fill="white" font-size="12" text-anchor="middle" transform="rotate(-45,565.9523809523808,570)" x="565.9523809523808" y="570">2025-07-27</text><rect fill="#4DD2FF" height="195.98765432098767" width="30" x="591.4285714285713" y="354.01234567901236" /><text fill="white" font-size="12" text-anchor="middle" x="606.4285714285713" y="349.01234567901236">762</text><text fill="white" font-size="12" text-anchor="middle" transform="rotate(-45,606.4285714285713,570)" x="606.4285714285713" y="570">2025-08-03</text><rect fill="#4DD2FF" height="217.33539094650206" width="30" x="631.9047619047618" y="332.66460905349794" /><text fill="white" font-size="12" text-anchor="middle" x="646.9047619047618" y="327.66460905349794">845</text><text fill="white" font-size="12" text-anchor="middle" transform="rotate(-45,646.9047619047618,570)" x="646.9047619047618" y="570">2025-08-10</text><rect fill="#4DD2FF" height="224.53703703703704" width="30" x="672.3809523809523" y="325.46296296296293" /><text fill="white" font-size="12" text-anchor="middle" x="687.3809523809523" y="320.46296296296293">873</text><text fill="white" font-size="12" text-anchor="middle" transform="rotate(-45,687.3809523809523,570)" x="687.3809523809523" y="570">2025-08-17</text><rect fill="#4DD2FF" height="153.54938271604937" width="30" x="712.8571428571428" y="396.45061728395063" /><text fill="white" font-size="12" text-anchor="middle" x="727.8571428571428" y="391.45061728395063">597</text><text fill="white" font-size="12" text-anchor="middle" transform="rotate(-45,727.8571428571428,570)" x="727.8571428571428" y="570">2025-08-24</text><rect fill="#4DD2FF" height="180.0411522633745" width="30" x="753.3333333333333" y="369.9588477366255" /><text fill="white" font-size="12" text-anchor="middle" x="768.3333333333333" y="364.9588477366255">700</text><text fill="white" font-size="12" text-anchor="middle" transform="rotate(-45,768.3333333333333,570)" x="768.3333333333333" y="570">2025-08-31</text><rect fill="#4DD2FF" height="210.13374485596708" width="30" x="793.8095238095237" y="339.86625514403295" /><text fill="white" font-size="12" text-anchor="middle" x="808.8095238095237" y="334.86625514403295">817</text><text fill="white" font-size="12" text-anchor="middle" transform="rotate(-45,808.8095238095237,570)" x="808.8095238095237" y="570">2025-09-07</text><rect fill="#4DD2FF" height="237.13991769547323" width="30" x="834.2857142857142" y="312.86008230452677" /><text fill="white" font-size="12" text-anchor="middle" x="849.2857142857142" y="307.86008230452677">922</text><text fill="white" font-size="12" text-anchor="middle" transform="rotate(-45,849.2857142857142,570)" x="849.2857142857142" y="570">2025-09-14</text><rect fill="#4DD2FF" height="137.08847736625515" width="30" x="874.7619047619047" y="412.9115226337449" /><text fill="white" font-size="12" text-anchor="middle" x="889.7619047619047" y="407.9115226337449">533</text><text fill="white" font-size="12" text-anchor="middle" transform="rotate(-45,889.7619047619047,570)" x="889.7619047619047" y="570">2025-09-21</text><rect fill="#4DD2FF" height="160.49382716049382" width="30" x="915.2380952380952" y="389.5061728395062" /><text fill="white" font-size="12" text-anchor="middle" x="930.2380952380952" y="384.5061728395062">624</text><text fill="white" font-size="12" text-anchor="middle" transform="rotate(-45,930.2380952380952,570)" x="930.2380952380952" y="570">2025-09-28</text><rect fill="#4DD2FF" height="197.53086419753086" width="30" x="955.7142857142857" y="352.46913580246917" /><text fill="white" font-size="12" text-anchor="middle" x="970.7142857142857" y="347.46913580246917">768</text><text fill="white" font-size="12" text-anchor="middle" transform="rotate(-45,970.7142857142857,570)" x="970.7142857142857" y="570">2025-10-05</text><rect fill="#4DD2FF" height="303.24074074074076" width="30" x="996.1904761904761" y="246.75925925925924" /><text fill="white" font-size="12" text-anchor="middle" x="1011.1904761904761" y="241.75925925925924">1179</text><text fill="white" font-size="12" text-anchor="middle" transform="rotate(-45,1011.1904761904761,570)" x="1011.1904761904761" y="570">2025-10-12</text><rect fill="#4DD2FF" height="266.7181069958848" width="30" x="1036.6666666666665" y="283.2818930041152" /><text fill="white" font-size="12" text-anchor="middle" x="1051.6666666666665" y="278.2818930041152">1037</text><text fill="white" font-size="12" text-anchor="middle" transform="rotate(-45,1051.6666666666665,570)" x="1051.6666666666665" y="570">2025-10-19</text><rect fill="#4DD2FF" height="184.15637860082305" width="30" x="1077.142857142857" y="365.843621399177" /><text fill="white" font-size="12" text-anchor="middle" x="1092.142857142857" y="360.843621399177">716</text><text fill="white" font-size="12" text-anchor="middle" transform="rotate(-45,1092.142857142857,570)" x="1092.142857142857" y="570">2025-10-26</text><rect fill="#4DD2FF" height="211.41975308641975" width="30" x="1117.6190476190475" y="338.58024691358025" /><text fill="white" font-size="12" text-anchor="middle" x="1132.6190476190475" y="333.58024691358025">822</text><text fill="white" font-size="12" text-anchor="middle" transform="rotate(-45,1132.6190476190475,570)" x="1132.6190476190475" y="570">2025-11-02</text><rect fill="#4DD2FF" height="122.94238683127571" width="30" x="1158.095238095238" y="427.0576131687243" /><text fill="white" font-size="12" text-anchor="middle" x="1173.095238095238" y="422.0576131687243">478</text><text fill="white" font-size="12" text-anchor="middle" transform="rotate(-45,1173.095238095238,570)" x="1173.095238095238" y="570">2025-11-09</text><rect fill="#4DD2FF" height="307.8703703703703" width="30" x="1198.5714285714284" y="242.12962962962968" /><text fill="white" font-size="12" text-anchor="middle" x="1213.5714285714284" y="237.12962962962968">1197</text><text fill="white" font-size="12" text-anchor="middle" transform="rotate(-45,1213.5714285714284,570)" x="1213.5714285714284" y="570">2025-11-16</text><rect fill="#4DD2FF" height="10.2880658436214" width="30" x="1239.047619047619" y="539.7119341563786" /><text fill="white" font-size="12" text-anchor="middle" x="1254.047619047619" y="534.7119341563786">40</text><text fill="white" font-size="12" text-anchor="middle" transform="rotate(-45,1254.047619047619,570)" x="1254.047619047619" y="570">2025-11-23</text><rect fill="#4DD2FF" height="111.88271604938271" width="30" x="1279.5238095238094" y="438.1172839506173" /><text fill="white" font-size="12" text-anchor="middle" x="1294.5238095238094" y="433.1172839506173">435</text><text fill="white" font-size="12" text-anchor="middle" transform="rotate(-45,1294.5238095238094,570)" x="1294.5238095238094" y="570">2025-11-30</text><rect fill="#4DD2FF" height="66.61522633744856" width="30" x="1320.0" y="483.3847736625514" /><text fill="white" font-size="12" text-anchor="middle" x="1335.0" y="478.3847736625514">259</text><text fill="white" font-size="12" text-anchor="middle" transform="rotate(-45,1335.0,570)" x="1335.0" y="570">2025-12-07</text><rect fill="#4DD2FF" height="342.5925925925926" width="30" x="1360.4761904761904" y="207.4074074074074" /><text fill="white" font-size="12" text-anchor="middle" x="1375.4761904761904" y="202.4074074074074">1332</text><text fill="white" font-size="12" text-anchor="middle" transform="rotate(-45,1375.4761904761904,570)" x="1375.4761904761904" y="570">2025-12-14</text><rect fill="#4DD2FF" height="326.13168724279836" width="30" x="1400.9523809523807" y="223.86831275720164" /><text fill="white" font-size="12" text-anchor="middle" x="1415.9523809523807" y="218.86831275720164">1268</text><text fill="white" font-size="12" text-anchor="middle" transform="rotate(-45,1415.9523809523807,570)" x="1415.9523809523807" y="570">2025-12-21</text><rect fill="#4DD2FF" height="369.34156378600824" width="30" x="1441.4285714285713" y="180.65843621399176" /><text fill="white" font-size="12" text-anchor="middle" x="1456.4285714285713" y="175.65843621399176">1436</text><text fill="white" font-size="12" text-anchor="middle" transform="rotate(-45,1456.4285714285713,570)" x="1456.4285714285713" y="570">2025-12-28</text><rect fill="#4DD2FF" height="359.82510288065845" width="30" x="1481.9047619047617" y="190.17489711934155" /><text fill="white" font-size="12" text-anchor="middle" x="1496.9047619047617" y="185.17489711934155">1399</text><text fill="white" font-size="12" text-anchor="middle" transform="rotate(-45,1496.9047619047617,570)" x="1496.9047619047617" y="570">2026-01-04</text><rect fill="#4DD2FF" height="382.45884773662556" width="30" x="1522.3809523809523" y="167.54115226337444" /><text fill="white" font-size="12" text-anchor="middle" x="1537.3809523809523" y="162.54115226337444">1487</text><text fill="white" font-size="12" text-anchor="middle" transform="rotate(-45,1537.3809523809523,570)" x="1537.3809523809523" y="570">2026-01-11</text><rect fill="#4DD2FF" height="336.1625514403292" width="30" x="1562.8571428571427" y="213.8374485596708" /><text fill="white" font-size="12" text-anchor="middle" x="1577.8571428571427" y="208.8374485596708">1307</text><text fill="white" font-size="12" text-anchor="middle" transform="rotate(-45,1577.8571428571427,570)" x="1577.8571428571427" y="570">2026-01-18</text><rect fill="#4DD2FF" height="331.79012345679007" width="30" x="1603.3333333333333" y="218.20987654320993" /><text fill="white" font-size="12" text-anchor="middle" x="1618.3333333333333" y="213.20987654320993">1290</text><text fill="white" font-size="12" text-anchor="middle" transform="rotate(-45,1618.3333333333333,570)" x="1618.3333333333333" y="570">2026-01-25</text><rect fill="#4DD2FF" height="314.5576131687243" width="30" x="1643.8095238095236" y="235.4423868312757" /><text fill="white" font-size="12" text-anchor="middle" x="1658.8095238095236" y="230.4423868312757">1223</text><text fill="white" font-size="12" text-anchor="middle" transform="rotate(-45,1658.8095238095236,570)" x="1658.8095238095236" y="570">2026-02-01</text><rect fill="#4DD2FF" height="366.51234567901236" width="30" x="1684.2857142857142" y="183.48765432098764" /><text fill="white" font-size="12" text-anchor="middle" x="1699.2857142857142" y="178.48765432098764">1425</text><text fill="white" font-size="12" text-anchor="middle" transform="rotate(-45,1699.2857142857142,570)" x="1699.2857142857142" y="570">2026-02-08</text><rect fill="#4DD2FF" height="227.36625514403292" width="30" x="1724.7619047619046" y="322.63374485596705" /><text fill="white" font-size="12" text-anchor="middle" x="1739.7619047619046" y="317.63374485596705">884</text><text fill="white" font-size="12" text-anchor="middle" transform="rotate(-45,1739.7619047619046,570)" x="1739.7619047619046" y="570">2026-02-15</text><line stroke="white" x1="60" x2="60" y1="50" y2="550" /><line stroke="white" x1="60" x2="1760" y1="550" y2="550" /></svg>