<?xml version="1.0" encoding="utf-8" ?>
<svg baseProfile="full" height="600" version="1.1" width="1800" xmlns="http://www.w3.org/2000/svg" xmlns:ev="http://www.w3.org/2001/xml-events" xmlns:xlink="http://www.w3.org/1999/xlink"><defs /><rect fill="#222222" height="100%" width="100%" x="0" y="0" /><text fill="white" font-size="20" text-anchor="middle" x="900.0" y="30">Weekly Totals (Last 52 Weeks)</text><rect fill="#4DD2FF" height="67.12962962962963" width="28.333333333333336" x="62.5" y="482.8703703703704" /><text fill="white" font-size="12" text-anchor="middle" x="76.66666666666667" y="477.8703703703704">261</text><text fill="white" font-size="12" text-anchor="middle" transform="rotate(-45,76.66666666666667,570)" x="76.66666666666667" y="570">2025-05-04</text><rect fill="#4DD2FF" height="500.0" width="28.333333333333336" x="95.83333333333334" y="50.0" /><text fill="white" font-size="12" text-anchor="middle" x="110.00000000000001" y="45.0">1944</text><text fill="white" font-size="12" text-anchor="middle" transform="rotate(-45,110.00000000000001,570)" x="110.00000000000001" y="570">2025-05-11</text><rect fill="#4DD2FF" height="380.65843621399176" width="28.333333333333336" x="129.16666666666669" y="169.34156378600824" /><text fill="white" font-size="12" text-anchor="middle" x="143.33333333333334" y="164.34156378600824">1480</text><text fill="white" font-size="12" text-anchor="middle" transform="rotate(-45,143.33333333333334,570)" x="143.33333333333334" y="570">2025-05-18</text><rect fill="#4DD2FF" height="450.61728395061726" width="28.333333333333336" x="162.5" y="99.38271604938274" /><text fill="white" font-size="12" text-anchor="middle" x="176.66666666666666" y="94.38271604938274">1752</text><text fill="white" font-size="12" text-anchor="middle" transform="rotate(-45,176.66666666666666,570)" x="176.66666666666666" y="570">2025-05-25</text><rect fill="#4DD2FF" height="307.61316872427983" width="28.333333333333336" x="195.83333333333334" y="242.38683127572017" /><text fill="white" font-size="12" text-anchor="middle" x="210.0" y="237.38683127572017">1196</text><text fill="white" font-size="12" text-anchor="middle" transform="rotate(-45,210.0,570)" x="210.0" y="570">2025-06-01</text><rect fill="#4DD2FF" height="301.6975308641975" width="28.333333333333336" x="229.16666666666669" y="248.30246913580248" /><text fill="white" font-size="12" text-anchor="middle" x="243.33333333333334" y="243.30246913580248">1173</text><text fill="white" font-size="12" text-anchor="middle" transform="rotate(-45,243.33333333333334,570)" x="243.33333333333334" y="570">2025-06-08</text><rect fill="#4DD2FF" height="284.72222222222223" width="28.333333333333336" x="262.5" y="265.27777777777777" /><text fill="white" font-size="12" text-anchor="middle" x="276.6666666666667" y="260.27777777777777">1107</text><text fill="white" font-size="12" text-anchor="middle" transform="rotate(-45,276.6666666666667,570)" x="276.6666666666667" y="570">2025-06-15</text><rect fill="#4DD2FF" height="323.55967078189303" width="28.333333333333336" x="295.83333333333337" y="226.44032921810697" /><text fill="white" font-size="12" text-anchor="middle" x="310.00000000000006" y="221.44032921810697">1258</text><text fill="white" font-size="12" text-anchor="middle" transform="rotate(-45,310.00000000000006,570)" x="310.00000000000006" y="570">2025-06-22</text><rect fill="#4DD2FF" height="211.41975308641975" width="28.333333333333336" x="329.1666666666667" y="338.58024691358025" /><text fill="white" font-size="12" text-anchor="middle" x="343.33333333333337" y="333.58024691358025">822</text><text fill="white" font-size="12" text-anchor="middle" transform="rotate(-45,343.33333333333337,570)" x="343.33333333333337" y="570">2025-06-29</text><rect fill="#4DD2FF" height="141.71810699588477" width="28.333333333333336" x="362.5" y="408.2818930041152" /><text fill="white" font-size="12" text-anchor="middle" x="376.6666666666667" y="403.2818930041152">551</text><text fill="white" font-size="12" text-anchor="middle" transform="rotate(-45,376.6666666666667,570)" x="376.6666666666667" y="570">2025-07-06</text><rect fill="#4DD2FF" height="284.72222222222223" width="28.333333333333336" x="395.83333333333337" y="265.27777777777777" /><text fill="white" font-size="12" text-anchor="middle" x="410.00000000000006" y="260.27777777777777">1107</text><text fill="white" font-size="12" text-anchor="middle" transform="rotate(-45,410.00000000000006,570)" x="410.00000000000006" y="570">2025-07-13</text><rect fill="#4DD2FF" height="355.9670781893004" width="28.333333333333336" x="429.1666666666667" y="194.03292181069958" /><text fill="white" font-size="12" text-anchor="middle" x="443.33333333333337" y="189.03292181069958">1384</text><text fill="white" font-size="12" text-anchor="middle" transform="rotate(-45,443.33333333333337,570)" x="443.33333333333337" y="570">2025-07-20</text><rect fill="#4DD2FF" height="96.19341563786008" width="28.333333333333336" x="462.5" y="453.8065843621399" /><text fill="white" font-size="12" text-anchor="middle" x="476.6666666666667" y="448.8065843621399">374</text><text fill="white" font-size="12" text-anchor="middle" transform="rotate(-45,476.6666666666667,570)" x="476.6666666666667" y="570">2025-07-27</text><rect fill="#4DD2FF" height="195.98765432098767" width="28.333333333333336" x="495.83333333333337" y="354.01234567901236" /><text fill="white" font-size="12" text-anchor="middle" x="510.00000000000006" y="349.01234567901236">762</text><text fill="white" font-size="12" text-anchor="middle" transform="rotate(-45,510.00000000000006,570)" x="510.00000000000006" y="570">2025-08-03</text><rect fill="#4DD2FF" height="217.33539094650206" width="28.333333333333336" x="529.1666666666667" y="332.66460905349794" /><text fill="white" font-size="12" text-anchor="middle" x="543.3333333333334" y="327.66460905349794">845</text><text fill="white" font-size="12" text-anchor="middle" transform="rotate(-45,543.3333333333334,570)" x="543.3333333333334" y="570">2025-08-10</text><rect fill="#4DD2FF" height="224.53703703703704" width="28.333333333333336" x="562.5" y="325.46296296296293" /><text fill="white" font-size="12" text-anchor="middle" x="576.6666666666666" y="320.46296296296293">873</text><text fill="white" font-size="12" text-anchor="middle" transform="rotate(-45,576.6666666666666,570)" x="576.6666666666666" y="570">2025-08-17</text><rect fill="#4DD2FF" height="153.54938271604937" width="28.333333333333336" x="595.8333333333334" y="396.45061728395063" /><text fill="white" font-size="12" text-anchor="middle" x="610.0" y="391.45061728395063">597</text><text fill="white" font-size="12" text-anchor="middle" transform="rotate(-45,610.0,570)" x="610.0" y="570">2025-08-24</text><rect fill="#4DD2FF" height="180.0411522633745" width="28.333333333333336" x="629.1666666666667" y="369.9588477366255" /><text fill="white" font-size="12" text-anchor="middle" x="643.3333333333334" y="364.9588477366255">700</text><text fill="white" font-size="12" text-anchor="middle" transform="rotate(-45,643.3333333333334,570)" x="643.3333333333334" y="570">2025-08-31</text><rect fill="#4DD2FF" height="210.13374485596708" width="28.333333333333336" x="662.5" y="339.86625514403295" /><text fill="white" font-size="12" text-anchor="middle" x="676.6666666666666" y="334.86625514403295">817</text><text fill="white" font-size="12" text-anchor="middle" transform="rotate(-45,676.6666666666666,570)" x="676.6666666666666" y="570">2025-09-07</text><rect fill="#4DD2FF" height="237.13991769547323" width="28.333333333333336" x="695.8333333333334" y="312.86008230452677" /><text fill="white" font-size="12" text-anchor="middle" x="710.0" y="307.86008230452677">922</text><text fill="white" font-size="12" text-anchor="middle" transform="rotate(-45,710.0,570)" x="710.0" y="570">2025-09-14</text><rect fill="#4DD2FF" height="137.08847736625515" width="28.333333333333336" x="729.1666666666667" y="412.9115226337449" /><text fill="white" font-size="12" text-anchor="middle" x="743.3333333333334" y="407.9115226337449">533</text><text fill="white" font-size="12" text-anchor="middle" transform="rotate(-45,743.3333333333334,570)" x="743.3333333333334" y="570">2025-09-21</text><rect fill="#4DD2FF" height="160.49382716049382" width="28.333333333333336" x="762.5" y="389.5061728395062" /><text fill="white" font-size="12" text-anchor="middle" x="776.6666666666666" y="384.5061728395062">624</text><text fill="white" font-size="12" text-anchor="middle" transform="rotate(-45,776.6666666666666,570)" x="776.6666666666666" y="570">2025-09-28</text><rect fill="#4DD2FF" height="197.53086419753086" width="28.333333333333336" x="795.8333333333334" y="352.46913580246917" /><text fill="white" font-size="12" text-anchor="middle" x="810.0" y="347.46913580246917">768</text><text fill="white" font-size="12" text-anchor="middle" transform="rotate(-45,810.0,570)" x="810.0" y="570">2025-10-05</text><rect fill="#4DD2FF" height="303.24074074074076" width="28.333333333333336" x="829.1666666666667" y="246.75925925925924" /><text fill="white" font-size="12" text-anchor="middle" x="843.3333333333334" y="241.75925925925924">1179</text><text fill="white" font-size="12" text-anchor="middle" transform="rotate(-45,843.3333333333334,570)" x="843.3333333333334" y="570">2025-10-12</text><rect fill="#4DD2FF" height="266.7181069958848" width="28.333333333333336" x="862.5" y="283.2818930041152" /><text fill="white" font-size="12" text-anchor="middle" x="876.6666666666666" y="278.2818930041152">1037</text><text fill="white" font-size="12" text-anchor="middle" transform="rotate(-45,876.6666666666666,570)" x="876.6666666666666" y="570">2025-10-19</text><rect fill="#4DD2FF" height="184.15637860082305" width="28.333333333333336" x="895.8333333333334" y="365.843621399177" /><text fill="white" font-size="12" text-anchor="middle" x="910.0" y="360.843621399177">716</text><text fill="white" font-size="12" text-anchor="middle" transform="rotate(-45,910.0,570)" x="910.0" y="570">2025-10-26</text><rect fill="#4DD2FF" height="211.41975308641975" width="28.333333333333336" x="929.1666666666667" y="338.58024691358025" /><text fill="white" font-size="12" text-anchor="middle" x="943.3333333333334" y="333.58024691358025">822</text><text fill="white" font-size="12" text-anchor="middle" transform="rotate(-45,943.3333333333334,570)" x="943.3333333333334" y="570">2025-11-02</text><rect fill="#4DD2FF" height="122.94238683127571" width="28.333333333333336" x="962.5000000000001" y="427.0576131687243" /><text fill="white" font-size="12" text-anchor="middle" x="976.6666666666667" y="422.0576131687243">478</text><text fill="white" font-size="12" text-anchor="middle" transform="rotate(-45,976.6666666666667,570)" x="976.6666666666667" y="570">2025-11-09</text><rect fill="#4DD2FF" height="307.8703703703703" width="28.333333333333336" x="995.8333333333334" y="242.12962962962968" /><text fill="white" font-size="12" text-anchor="middle" x="1010.0" y="237.12962962962968">1197</text><text fill="white" font-size="12" text-anchor="middle" transform="rotate(-45,1010.0,570)" x="1010.0" y="570">2025-11-16</text><rect fill="#4DD2FF" height="10.2880658436214" width="28.333333333333336" x="1029.1666666666667" y="539.7119341563786" /><text fill="white" font-size="12" text-anchor="middle" x="1043.3333333333335" y="534.7119341563786">40</text><text fill="white" font-size="12" text-anchor="middle" transform="rotate(-45,1043.3333333333335,570)" x="1043.3333333333335" y="570">2025-11-23</text><rect fill="#4DD2FF" height="111.88271604938271" width="28.333333333333336" x="1062.5" y="438.1172839506173" /><text fill="white" font-size="12" text-anchor="middle" x="1076.6666666666667" y="433.1172839506173">435</text><text fill="white" font-size="12" text-anchor="middle" transform="rotate(-45,1076.6666666666667,570)" x="1076.6666666666667" y="570">2025-11-30</text><rect fill="#4DD2FF" height="66.61522633744856" width="28.333333333333336" x="1095.8333333333335" y="483.3847736625514" /><text fill="white" font-size="12" text-anchor="middle" x="1110.0000000000002" y="478.3847736625514">259</text><text fill="white" font-size="12" text-anchor="middle" transform="rotate(-45,1110.0000000000002,570)" x="1110.0000000000002" y="570">2025-12-07</text><rect fill="#4DD2FF" height="342.5925925925926" width="28.333333333333336" x="1129.1666666666667" y="207.4074074074074" /><text fill="white" font-size="12" text-anchor="middle" x="1143.3333333333335" y="202.4074074074074">1332</text><text fill="white" font-size="12" text-anchor="middle" transform="rotate(-45,1143.3333333333335,570)" x="1143.3333333333335" y="570">2025-12-14</text><rect fill="#4DD2FF" height="326.13168724279836" width="28.333333333333336" x="1162.5" y="223.86831275720164" /><text fill="white" font-size="12" text-anchor="middle" x="1176.6666666666667" y="218.86831275720164">1268</text><text fill="white" font-size="12" text-anchor="middle" transform="rotate(-45,1176.6666666666667,570)" x="1176.6666666666667" y="570">2025-12-21</text><rect fill="#4DD2FF" height="369.34156378600824" width="28.333333333333336" x="1195.8333333333335" y="180.65843621399176" /><text fill="white" font-size="12" text-anchor="middle" x="1210.0000000000002" y="175.65843621399176">1436</text><text fill="white" font-size="12" text-anchor="middle" transform="rotate(-45,1210.0000000000002,570)" x="1210.0000000000002" y="570">2025-12-28</text><rect fill="#4DD2FF" height="359.82510288065845" width="28.333333333333336" x="1229.1666666666667" y="190.17489711934155" /><text fill="white" font-size="12" text-anchor="middle" x="1243.3333333333335" y="185.17489711934155">1399</text><text fill="white" font-size="12" text-anchor="middle" transform="rotate(-45,1243.3333333333335,570)" x="1243.3333333333335" y="570">2026-01-04</text><rect fill="#4DD2FF" height="382.45884773662556" width="28.333333333333336" x="1262.5" y="167.54115226337444" /><text fill="white" font-size="12" text-anchor="middle" x="1276.6666666666667" y="162.54115226337444">1487</text><text fill="white" font-size="12" text-anchor="middle" transform="rotate(-45,1276.6666666666667,570)" x="1276.6666666666667" y="570">2026-01-11</text><rect fill="#4DD2FF" height="336.1625514403292" width="28.333333333333336" x="1295.8333333333335" y="213.8374485596708" /><text fill="white" font-size="12" text-anchor="middle" x="1310.0000000000002" y="208.8374485596708">1307</text><text fill="white" font-size="12" text-anchor="middle" transform="rotate(-45,1310.0000000000002,570)" x="1310.0000000000002" y="570">2026-01-18</text><rect fill="#4DD2FF" height="331.79012345679007" width="28.333333333333336" x="1329.1666666666667" y="218.20987654320993" /><text fill="white" font-size="12" text-anchor="middle" x="1343.3333333333335" y="213.20987654320993">1290</text><text fill="white" font-size="12" text-anchor="middle" transform="rotate(-45,1343.3333333333335,570)" x="1343.3333333333335" y="570">2026-01-25</text><rect fill="#4DD2FF" height="314.5576131687243" width="28.333333333333336" x="1362.5" y="235.4423868312757" /><text fill="white" font-size="12" text-anchor="middle" x="1376.6666666666667" y="230.4423868312757">1223</text><text fill="white" font-size="12" text-anchor="middle" transform="rotate(-45,1376.6666666666667,570)" x="1376.6666666666667" y="570">2026-02-01</text><rect fill="#4DD2FF" height="366.51234567901236" width="28.333333333333336" x="1395.8333333333335" y="183.48765432098764" /><text fill="white" font-size="12" text-anchor="middle" x="1410.0000000000002" y="178.48765432098764">1425</text><text fill="white" font-size="12" text-anchor="middle" transform="rotate(-45,1410.0000000000002,570)" x="1410.0000000000002" y="570">2026-02-08</text><rect fill="#4DD2FF" height="280.3497942386831" width="28.333333333333336" x="1429.1666666666667" y="269.6502057613169" /><text fill="white" font-size="12" text-anchor="middle" x="1443.3333333333335" y="264.6502057613169">1090</text><text fill="white" font-size="12" text-anchor="middle" transform="rotate(-45,1443.3333333333335,570)" x="1443.3333333333335" y="570">2026-02-15</text><rect fill="#4DD2FF" height="372.1707818930041" width="28.333333333333336" x="1462.5" y="177.82921810699588" /><text fill="white" font-size="12" text-anchor="middle" x="1476.6666666666667" y="172.82921810699588">1447</text><text fill="white" font-size="12" text-anchor="middle" transform="rotate(-45,1476.6666666666667,570)" x="1476.6666666666667" y="570">2026-02-22</text><rect fill="#4DD2FF" height="309.1563786008231" width="28.333333333333336" x="1495.8333333333335" y="240.84362139917693" /><text fill="white" font-size="12" text-anchor="middle" x="1510.0000000000002" y="235.84362139917693">1202</text><text fill="white" font-size="12" text-anchor="middle" transform="rotate(-45,1510.0000000000002,570)" x="1510.0000000000002" y="570">2026-03-01</text><rect fill="#4DD2FF" height="209.619341563786" width="28.333333333333336" x="1529.1666666666667" y="340.380658436214" /><text fill="white" font-size="12" text-anchor="middle" x="1543.3333333333335" y="335.380658436214">815</text><text fill="white" font-size="12" text-anchor="middle" transform="rotate(-45,1543.3333333333335,570)" x="1543.3333333333335" y="570">2026-03-08</text><rect fill="#4DD2FF" height="139.6604938271605" width="28.333333333333336" x="1562.5" y="410.3395061728395" /><text fill="white" font-size="12" text-anchor="middle" x="1576.6666666666667" y="405.3395061728395">543</text><text fill="white" font-size="12" text-anchor="middle" transform="rotate(-45,1576.6666666666667,570)" x="1576.6666666666667" y="570">2026-03-15</text><rect fill="#4DD2FF" height="128.08641975308643" width="28.333333333333336" x="1595.8333333333335" y="421.91358024691357" /><text fill="white" font-size="12" text-anchor="middle" x="1610.0000000000002" y="416.91358024691357">498</text><text fill="white" font-size="12" text-anchor="middle" transform="rotate(-45,1610.0000000000002,570)" x="1610.0000000000002" y="570">2026-03-22</text><rect fill="#4DD2FF" height="139.6604938271605" width="28.333333333333336" x="1629.1666666666667" y="410.3395061728395" /><text fill="white" font-size="12" text-anchor="middle" x="1643.3333333333335" y="405.3395061728395">543</text><text fill="white" font-size="12" text-anchor="middle" transform="rotate(-45,1643.3333333333335,570)" x="1643.3333333333335" y="570">2026-03-29</text><rect fill="#4DD2FF" height="88.2201646090535" width="28.333333333333336" x="1662.5" y="461.7798353909465" /><text fill="white" font-size="12" text-anchor="middle" x="1676.6666666666667" y="456.7798353909465">343</text><text fill="white" font-size="12" text-anchor="middle" transform="rotate(-45,1676.6666666666667,570)" x="1676.6666666666667" y="570">2026-05-03</text><rect fill="#4DD2FF" height="70.47325102880659" width="28.333333333333336" x="1695.8333333333335" y="479.5267489711934" /><text fill="white" font-size="12" text-anchor="middle" x="1710.0000000000002" y="474.5267489711934">274</text><text fill="white" font-size="12" text-anchor="middle" transform="rotate(-45,1710.0000000000002,570)" x="1710.0000000000002" y="570">2026-05-10</text><rect fill="#4DD2FF" height="56.06995884773663" width="28.333333333333336" x="1729.1666666666667" y="493.93004115226336" /><text fill="white" font-size="12" text-anchor="middle" x="1743.3333333333335" y="488.93004115226336">218</text><text fill="white" font-size="12" text-anchor="middle" transform="rotate(-45,1743.3333333333335,570)" x="1743.3333333333335" y="570">2026-05-17</text><line stroke="white" x1="60" x2="60" y1="50" y2="550" /><line stroke="white" x1="60" x2="1760" y1="550" y2="550" /></svg>