<?xml version="1.0" encoding="utf-8" ?>
<svg baseProfile="full" height="600" version="1.1" width="1800" xmlns="http://www.w3.org/2000/svg" xmlns:ev="http://www.w3.org/2001/xml-events" xmlns:xlink="http://www.w3.org/1999/xlink"><defs /><rect fill="#222222" height="100%" width="100%" x="0" y="0" /><text fill="white" font-size="20" text-anchor="middle" x="900.0" y="30">Weekly Totals (Last 52 Weeks)</text><rect fill="#4DD2FF" height="67.12962962962963" width="30" x="75.35714285714286" y="482.8703703703704" /><text fill="white" font-size="12" text-anchor="middle" x="90.35714285714286" y="477.8703703703704">261</text><text fill="white" font-size="12" text-anchor="middle" transform="rotate(-45,90.35714285714286,570)" x="90.35714285714286" y="570">2025-05-04</text><rect fill="#4DD2FF" height="500.0" width="30" x="136.07142857142858" y="50.0" /><text fill="white" font-size="12" text-anchor="middle" x="151.07142857142858" y="45.0">1944</text><text fill="white" font-size="12" text-anchor="middle" transform="rotate(-45,151.07142857142858,570)" x="151.07142857142858" y="570">2025-05-11</text><rect fill="#4DD2FF" height="380.65843621399176" width="30" x="196.7857142857143" y="169.34156378600824" /><text fill="white" font-size="12" text-anchor="middle" x="211.7857142857143" y="164.34156378600824">1480</text><text fill="white" font-size="12" text-anchor="middle" transform="rotate(-45,211.7857142857143,570)" x="211.7857142857143" y="570">2025-05-18</text><rect fill="#4DD2FF" height="450.61728395061726" width="30" x="257.5" y="99.38271604938274" /><text fill="white" font-size="12" text-anchor="middle" x="272.5" y="94.38271604938274">1752</text><text fill="white" font-size="12" text-anchor="middle" transform="rotate(-45,272.5,570)" x="272.5" y="570">2025-05-25</text><rect fill="#4DD2FF" height="307.61316872427983" width="30" x="318.2142857142857" y="242.38683127572017" /><text fill="white" font-size="12" text-anchor="middle" x="333.2142857142857" y="237.38683127572017">1196</text><text fill="white" font-size="12" text-anchor="middle" transform="rotate(-45,333.2142857142857,570)" x="333.2142857142857" y="570">2025-06-01</text><rect fill="#4DD2FF" height="301.6975308641975" width="30" x="378.9285714285714" y="248.30246913580248" /><text fill="white" font-size="12" text-anchor="middle" x="393.9285714285714" y="243.30246913580248">1173</text><text fill="white" font-size="12" text-anchor="middle" transform="rotate(-45,393.9285714285714,570)" x="393.9285714285714" y="570">2025-06-08</text><rect fill="#4DD2FF" height="284.72222222222223" width="30" x="439.6428571428571" y="265.27777777777777" /><text fill="white" font-size="12" text-anchor="middle" x="454.6428571428571" y="260.27777777777777">1107</text><text fill="white" font-size="12" text-anchor="middle" transform="rotate(-45,454.6428571428571,570)" x="454.6428571428571" y="570">2025-06-15</text><rect fill="#4DD2FF" height="323.55967078189303" width="30" x="500.35714285714283" y="226.44032921810697" /><text fill="white" font-size="12" text-anchor="middle" x="515.3571428571429" y="221.44032921810697">1258</text><text fill="white" font-size="12" text-anchor="middle" transform="rotate(-45,515.3571428571429,570)" x="515.3571428571429" y="570">2025-06-22</text><rect fill="#4DD2FF" height="211.41975308641975" width="30" x="561.0714285714287" y="338.58024691358025" /><text fill="white" font-size="12" text-anchor="middle" x="576.0714285714287" y="333.58024691358025">822</text><text fill="white" font-size="12" text-anchor="middle" transform="rotate(-45,576.0714285714287,570)" x="576.0714285714287" y="570">2025-06-29</text><rect fill="#4DD2FF" height="141.71810699588477" width="30" x="621.7857142857143" y="408.2818930041152" /><text fill="white" font-size="12" text-anchor="middle" x="636.7857142857143" y="403.2818930041152">551</text><text fill="white" font-size="12" text-anchor="middle" transform="rotate(-45,636.7857142857143,570)" x="636.7857142857143" y="570">2025-07-06</text><rect fill="#4DD2FF" height="284.72222222222223" width="30" x="682.5" y="265.27777777777777" /><text fill="white" font-size="12" text-anchor="middle" x="697.5" y="260.27777777777777">1107</text><text fill="white" font-size="12" text-anchor="middle" transform="rotate(-45,697.5,570)" x="697.5" y="570">2025-07-13</text><rect fill="#4DD2FF" height="355.9670781893004" width="30" x="743.2142857142858" y="194.03292181069958" /><text fill="white" font-size="12" text-anchor="middle" x="758.2142857142858" y="189.03292181069958">1384</text><text fill="white" font-size="12" text-anchor="middle" transform="rotate(-45,758.2142857142858,570)" x="758.2142857142858" y="570">2025-07-20</text><rect fill="#4DD2FF" height="96.19341563786008" width="30" x="803.9285714285714" y="453.8065843621399" /><text fill="white" font-size="12" text-anchor="middle" x="818.9285714285714" y="448.8065843621399">374</text><text fill="white" font-size="12" text-anchor="middle" transform="rotate(-45,818.9285714285714,570)" x="818.9285714285714" y="570">2025-07-27</text><rect fill="#4DD2FF" height="195.98765432098767" width="30" x="864.6428571428572" y="354.01234567901236" /><text fill="white" font-size="12" text-anchor="middle" x="879.6428571428572" y="349.01234567901236">762</text><text fill="white" font-size="12" text-anchor="middle" transform="rotate(-45,879.6428571428572,570)" x="879.6428571428572" y="570">2025-08-03</text><rect fill="#4DD2FF" height="217.33539094650206" width="30" x="925.3571428571429" y="332.66460905349794" /><text fill="white" font-size="12" text-anchor="middle" x="940.3571428571429" y="327.66460905349794">845</text><text fill="white" font-size="12" text-anchor="middle" transform="rotate(-45,940.3571428571429,570)" x="940.3571428571429" y="570">2025-08-10</text><rect fill="#4DD2FF" height="224.53703703703704" width="30" x="986.0714285714287" y="325.46296296296293" /><text fill="white" font-size="12" text-anchor="middle" x="1001.0714285714287" y="320.46296296296293">873</text><text fill="white" font-size="12" text-anchor="middle" transform="rotate(-45,1001.0714285714287,570)" x="1001.0714285714287" y="570">2025-08-17</text><rect fill="#4DD2FF" height="153.54938271604937" width="30" x="1046.7857142857144" y="396.45061728395063" /><text fill="white" font-size="12" text-anchor="middle" x="1061.7857142857144" y="391.45061728395063">597</text><text fill="white" font-size="12" text-anchor="middle" transform="rotate(-45,1061.7857142857144,570)" x="1061.7857142857144" y="570">2025-08-24</text><rect fill="#4DD2FF" height="180.0411522633745" width="30" x="1107.5" y="369.9588477366255" /><text fill="white" font-size="12" text-anchor="middle" x="1122.5" y="364.9588477366255">700</text><text fill="white" font-size="12" text-anchor="middle" transform="rotate(-45,1122.5,570)" x="1122.5" y="570">2025-08-31</text><rect fill="#4DD2FF" height="210.13374485596708" width="30" x="1168.2142857142858" y="339.86625514403295" /><text fill="white" font-size="12" text-anchor="middle" x="1183.2142857142858" y="334.86625514403295">817</text><text fill="white" font-size="12" text-anchor="middle" transform="rotate(-45,1183.2142857142858,570)" x="1183.2142857142858" y="570">2025-09-07</text><rect fill="#4DD2FF" height="237.13991769547323" width="30" x="1228.9285714285716" y="312.86008230452677" /><text fill="white" font-size="12" text-anchor="middle" x="1243.9285714285716" y="307.86008230452677">922</text><text fill="white" font-size="12" text-anchor="middle" transform="rotate(-45,1243.9285714285716,570)" x="1243.9285714285716" y="570">2025-09-14</text><rect fill="#4DD2FF" height="137.08847736625515" width="30" x="1289.642857142857" y="412.9115226337449" /><text fill="white" font-size="12" text-anchor="middle" x="1304.642857142857" y="407.9115226337449">533</text><text fill="white" font-size="12" text-anchor="middle" transform="rotate(-45,1304.642857142857,570)" x="1304.642857142857" y="570">2025-09-21</text><rect fill="#4DD2FF" height="160.49382716049382" width="30" x="1350.357142857143" y="389.5061728395062" /><text fill="white" font-size="12" text-anchor="middle" x="1365.357142857143" y="384.5061728395062">624</text><text fill="white" font-size="12" text-anchor="middle" transform="rotate(-45,1365.357142857143,570)" x="1365.357142857143" y="570">2025-09-28</text><rect fill="#4DD2FF" height="197.53086419753086" width="30" x="1411.0714285714287" y="352.46913580246917" /><text fill="white" font-size="12" text-anchor="middle" x="1426.0714285714287" y="347.46913580246917">768</text><text fill="white" font-size="12" text-anchor="middle" transform="rotate(-45,1426.0714285714287,570)" x="1426.0714285714287" y="570">2025-10-05</text><rect fill="#4DD2FF" height="303.24074074074076" width="30" x="1471.7857142857144" y="246.75925925925924" /><text fill="white" font-size="12" text-anchor="middle" x="1486.7857142857144" y="241.75925925925924">1179</text><text fill="white" font-size="12" text-anchor="middle" transform="rotate(-45,1486.7857142857144,570)" x="1486.7857142857144" y="570">2025-10-12</text><rect fill="#4DD2FF" height="266.7181069958848" width="30" x="1532.5" y="283.2818930041152" /><text fill="white" font-size="12" text-anchor="middle" x="1547.5" y="278.2818930041152">1037</text><text fill="white" font-size="12" text-anchor="middle" transform="rotate(-45,1547.5,570)" x="1547.5" y="570">2025-10-19</text><rect fill="#4DD2FF" height="184.15637860082305" width="30" x="1593.2142857142858" y="365.843621399177" /><text fill="white" font-size="12" text-anchor="middle" x="1608.2142857142858" y="360.843621399177">716</text><text fill="white" font-size="12" text-anchor="middle" transform="rotate(-45,1608.2142857142858,570)" x="1608.2142857142858" y="570">2025-10-26</text><rect fill="#4DD2FF" height="211.41975308641975" width="30" x="1653.9285714285716" y="338.58024691358025" /><text fill="white" font-size="12" text-anchor="middle" x="1668.9285714285716" y="333.58024691358025">822</text><text fill="white" font-size="12" text-anchor="middle" transform="rotate(-45,1668.9285714285716,570)" x="1668.9285714285716" y="570">2025-11-02</text><rect fill="#4DD2FF" height="71.50205761316872" width="30" x="1714.642857142857" y="478.49794238683126" /><text fill="white" font-size="12" text-anchor="middle" x="1729.642857142857" y="473.49794238683126">278</text><text fill="white" font-size="12" text-anchor="middle" transform="rotate(-45,1729.642857142857,570)" x="1729.642857142857" y="570">2025-11-09</text><line stroke="white" x1="60" x2="60" y1="50" y2="550" /><line stroke="white" x1="60" x2="1760" y1="550" y2="550" /></svg>