<?xml version="1.0" encoding="utf-8" ?>
<svg baseProfile="full" height="600" version="1.1" width="1800" xmlns="http://www.w3.org/2000/svg" xmlns:ev="http://www.w3.org/2001/xml-events" xmlns:xlink="http://www.w3.org/1999/xlink"><defs /><rect fill="#222222" height="100%" width="100%" x="0" y="0" /><text fill="white" font-size="20" text-anchor="middle" x="900.0" y="30">Weekly Totals (Last 52 Weeks)</text><rect fill="#4DD2FF" height="67.12962962962963" width="30" x="68.61111111111111" y="482.8703703703704" /><text fill="white" font-size="12" text-anchor="middle" x="83.61111111111111" y="477.8703703703704">261</text><text fill="white" font-size="12" text-anchor="middle" transform="rotate(-45,83.61111111111111,570)" x="83.61111111111111" y="570">2025-05-04</text><rect fill="#4DD2FF" height="500.0" width="30" x="115.83333333333334" y="50.0" /><text fill="white" font-size="12" text-anchor="middle" x="130.83333333333334" y="45.0">1944</text><text fill="white" font-size="12" text-anchor="middle" transform="rotate(-45,130.83333333333334,570)" x="130.83333333333334" y="570">2025-05-11</text><rect fill="#4DD2FF" height="380.65843621399176" width="30" x="163.05555555555557" y="169.34156378600824" /><text fill="white" font-size="12" text-anchor="middle" x="178.05555555555557" y="164.34156378600824">1480</text><text fill="white" font-size="12" text-anchor="middle" transform="rotate(-45,178.05555555555557,570)" x="178.05555555555557" y="570">2025-05-18</text><rect fill="#4DD2FF" height="450.61728395061726" width="30" x="210.27777777777777" y="99.38271604938274" /><text fill="white" font-size="12" text-anchor="middle" x="225.27777777777777" y="94.38271604938274">1752</text><text fill="white" font-size="12" text-anchor="middle" transform="rotate(-45,225.27777777777777,570)" x="225.27777777777777" y="570">2025-05-25</text><rect fill="#4DD2FF" height="307.61316872427983" width="30" x="257.5" y="242.38683127572017" /><text fill="white" font-size="12" text-anchor="middle" x="272.5" y="237.38683127572017">1196</text><text fill="white" font-size="12" text-anchor="middle" transform="rotate(-45,272.5,570)" x="272.5" y="570">2025-06-01</text><rect fill="#4DD2FF" height="301.6975308641975" width="30" x="304.7222222222222" y="248.30246913580248" /><text fill="white" font-size="12" text-anchor="middle" x="319.7222222222222" y="243.30246913580248">1173</text><text fill="white" font-size="12" text-anchor="middle" transform="rotate(-45,319.7222222222222,570)" x="319.7222222222222" y="570">2025-06-08</text><rect fill="#4DD2FF" height="284.72222222222223" width="30" x="351.9444444444444" y="265.27777777777777" /><text fill="white" font-size="12" text-anchor="middle" x="366.9444444444444" y="260.27777777777777">1107</text><text fill="white" font-size="12" text-anchor="middle" transform="rotate(-45,366.9444444444444,570)" x="366.9444444444444" y="570">2025-06-15</text><rect fill="#4DD2FF" height="323.55967078189303" width="30" x="399.16666666666663" y="226.44032921810697" /><text fill="white" font-size="12" text-anchor="middle" x="414.16666666666663" y="221.44032921810697">1258</text><text fill="white" font-size="12" text-anchor="middle" transform="rotate(-45,414.16666666666663,570)" x="414.16666666666663" y="570">2025-06-22</text><rect fill="#4DD2FF" height="211.41975308641975" width="30" x="446.38888888888886" y="338.58024691358025" /><text fill="white" font-size="12" text-anchor="middle" x="461.38888888888886" y="333.58024691358025">822</text><text fill="white" font-size="12" text-anchor="middle" transform="rotate(-45,461.38888888888886,570)" x="461.38888888888886" y="570">2025-06-29</text><rect fill="#4DD2FF" height="141.71810699588477" width="30" x="493.6111111111111" y="408.2818930041152" /><text fill="white" font-size="12" text-anchor="middle" x="508.6111111111111" y="403.2818930041152">551</text><text fill="white" font-size="12" text-anchor="middle" transform="rotate(-45,508.6111111111111,570)" x="508.6111111111111" y="570">2025-07-06</text><rect fill="#4DD2FF" height="284.72222222222223" width="30" x="540.8333333333333" y="265.27777777777777" /><text fill="white" font-size="12" text-anchor="middle" x="555.8333333333333" y="260.27777777777777">1107</text><text fill="white" font-size="12" text-anchor="middle" transform="rotate(-45,555.8333333333333,570)" x="555.8333333333333" y="570">2025-07-13</text><rect fill="#4DD2FF" height="355.9670781893004" width="30" x="588.0555555555555" y="194.03292181069958" /><text fill="white" font-size="12" text-anchor="middle" x="603.0555555555555" y="189.03292181069958">1384</text><text fill="white" font-size="12" text-anchor="middle" transform="rotate(-45,603.0555555555555,570)" x="603.0555555555555" y="570">2025-07-20</text><rect fill="#4DD2FF" height="96.19341563786008" width="30" x="635.2777777777777" y="453.8065843621399" /><text fill="white" font-size="12" text-anchor="middle" x="650.2777777777777" y="448.8065843621399">374</text><text fill="white" font-size="12" text-anchor="middle" transform="rotate(-45,650.2777777777777,570)" x="650.2777777777777" y="570">2025-07-27</text><rect fill="#4DD2FF" height="195.98765432098767" width="30" x="682.5" y="354.01234567901236" /><text fill="white" font-size="12" text-anchor="middle" x="697.5" y="349.01234567901236">762</text><text fill="white" font-size="12" text-anchor="middle" transform="rotate(-45,697.5,570)" x="697.5" y="570">2025-08-03</text><rect fill="#4DD2FF" height="217.33539094650206" width="30" x="729.7222222222222" y="332.66460905349794" /><text fill="white" font-size="12" text-anchor="middle" x="744.7222222222222" y="327.66460905349794">845</text><text fill="white" font-size="12" text-anchor="middle" transform="rotate(-45,744.7222222222222,570)" x="744.7222222222222" y="570">2025-08-10</text><rect fill="#4DD2FF" height="224.53703703703704" width="30" x="776.9444444444445" y="325.46296296296293" /><text fill="white" font-size="12" text-anchor="middle" x="791.9444444444445" y="320.46296296296293">873</text><text fill="white" font-size="12" text-anchor="middle" transform="rotate(-45,791.9444444444445,570)" x="791.9444444444445" y="570">2025-08-17</text><rect fill="#4DD2FF" height="153.54938271604937" width="30" x="824.1666666666666" y="396.45061728395063" /><text fill="white" font-size="12" text-anchor="middle" x="839.1666666666666" y="391.45061728395063">597</text><text fill="white" font-size="12" text-anchor="middle" transform="rotate(-45,839.1666666666666,570)" x="839.1666666666666" y="570">2025-08-24</text><rect fill="#4DD2FF" height="180.0411522633745" width="30" x="871.3888888888888" y="369.9588477366255" /><text fill="white" font-size="12" text-anchor="middle" x="886.3888888888888" y="364.9588477366255">700</text><text fill="white" font-size="12" text-anchor="middle" transform="rotate(-45,886.3888888888888,570)" x="886.3888888888888" y="570">2025-08-31</text><rect fill="#4DD2FF" height="210.13374485596708" width="30" x="918.6111111111111" y="339.86625514403295" /><text fill="white" font-size="12" text-anchor="middle" x="933.6111111111111" y="334.86625514403295">817</text><text fill="white" font-size="12" text-anchor="middle" transform="rotate(-45,933.6111111111111,570)" x="933.6111111111111" y="570">2025-09-07</text><rect fill="#4DD2FF" height="237.13991769547323" width="30" x="965.8333333333333" y="312.86008230452677" /><text fill="white" font-size="12" text-anchor="middle" x="980.8333333333333" y="307.86008230452677">922</text><text fill="white" font-size="12" text-anchor="middle" transform="rotate(-45,980.8333333333333,570)" x="980.8333333333333" y="570">2025-09-14</text><rect fill="#4DD2FF" height="137.08847736625515" width="30" x="1013.0555555555555" y="412.9115226337449" /><text fill="white" font-size="12" text-anchor="middle" x="1028.0555555555557" y="407.9115226337449">533</text><text fill="white" font-size="12" text-anchor="middle" transform="rotate(-45,1028.0555555555557,570)" x="1028.0555555555557" y="570">2025-09-21</text><rect fill="#4DD2FF" height="160.49382716049382" width="30" x="1060.2777777777776" y="389.5061728395062" /><text fill="white" font-size="12" text-anchor="middle" x="1075.2777777777776" y="384.5061728395062">624</text><text fill="white" font-size="12" text-anchor="middle" transform="rotate(-45,1075.2777777777776,570)" x="1075.2777777777776" y="570">2025-09-28</text><rect fill="#4DD2FF" height="197.53086419753086" width="30" x="1107.5" y="352.46913580246917" /><text fill="white" font-size="12" text-anchor="middle" x="1122.5" y="347.46913580246917">768</text><text fill="white" font-size="12" text-anchor="middle" transform="rotate(-45,1122.5,570)" x="1122.5" y="570">2025-10-05</text><rect fill="#4DD2FF" height="303.24074074074076" width="30" x="1154.7222222222222" y="246.75925925925924" /><text fill="white" font-size="12" text-anchor="middle" x="1169.7222222222222" y="241.75925925925924">1179</text><text fill="white" font-size="12" text-anchor="middle" transform="rotate(-45,1169.7222222222222,570)" x="1169.7222222222222" y="570">2025-10-12</text><rect fill="#4DD2FF" height="266.7181069958848" width="30" x="1201.9444444444443" y="283.2818930041152" /><text fill="white" font-size="12" text-anchor="middle" x="1216.9444444444443" y="278.2818930041152">1037</text><text fill="white" font-size="12" text-anchor="middle" transform="rotate(-45,1216.9444444444443,570)" x="1216.9444444444443" y="570">2025-10-19</text><rect fill="#4DD2FF" height="184.15637860082305" width="30" x="1249.1666666666665" y="365.843621399177" /><text fill="white" font-size="12" text-anchor="middle" x="1264.1666666666665" y="360.843621399177">716</text><text fill="white" font-size="12" text-anchor="middle" transform="rotate(-45,1264.1666666666665,570)" x="1264.1666666666665" y="570">2025-10-26</text><rect fill="#4DD2FF" height="211.41975308641975" width="30" x="1296.388888888889" y="338.58024691358025" /><text fill="white" font-size="12" text-anchor="middle" x="1311.388888888889" y="333.58024691358025">822</text><text fill="white" font-size="12" text-anchor="middle" transform="rotate(-45,1311.388888888889,570)" x="1311.388888888889" y="570">2025-11-02</text><rect fill="#4DD2FF" height="122.94238683127571" width="30" x="1343.611111111111" y="427.0576131687243" /><text fill="white" font-size="12" text-anchor="middle" x="1358.611111111111" y="422.0576131687243">478</text><text fill="white" font-size="12" text-anchor="middle" transform="rotate(-45,1358.611111111111,570)" x="1358.611111111111" y="570">2025-11-09</text><rect fill="#4DD2FF" height="307.8703703703703" width="30" x="1390.8333333333333" y="242.12962962962968" /><text fill="white" font-size="12" text-anchor="middle" x="1405.8333333333333" y="237.12962962962968">1197</text><text fill="white" font-size="12" text-anchor="middle" transform="rotate(-45,1405.8333333333333,570)" x="1405.8333333333333" y="570">2025-11-16</text><rect fill="#4DD2FF" height="10.2880658436214" width="30" x="1438.0555555555554" y="539.7119341563786" /><text fill="white" font-size="12" text-anchor="middle" x="1453.0555555555554" y="534.7119341563786">40</text><text fill="white" font-size="12" text-anchor="middle" transform="rotate(-45,1453.0555555555554,570)" x="1453.0555555555554" y="570">2025-11-23</text><rect fill="#4DD2FF" height="111.88271604938271" width="30" x="1485.2777777777778" y="438.1172839506173" /><text fill="white" font-size="12" text-anchor="middle" x="1500.2777777777778" y="433.1172839506173">435</text><text fill="white" font-size="12" text-anchor="middle" transform="rotate(-45,1500.2777777777778,570)" x="1500.2777777777778" y="570">2025-11-30</text><rect fill="#4DD2FF" height="66.61522633744856" width="30" x="1532.5" y="483.3847736625514" /><text fill="white" font-size="12" text-anchor="middle" x="1547.5" y="478.3847736625514">259</text><text fill="white" font-size="12" text-anchor="middle" transform="rotate(-45,1547.5,570)" x="1547.5" y="570">2025-12-07</text><rect fill="#4DD2FF" height="342.5925925925926" width="30" x="1579.7222222222222" y="207.4074074074074" /><text fill="white" font-size="12" text-anchor="middle" x="1594.7222222222222" y="202.4074074074074">1332</text><text fill="white" font-size="12" text-anchor="middle" transform="rotate(-45,1594.7222222222222,570)" x="1594.7222222222222" y="570">2025-12-14</text><rect fill="#4DD2FF" height="326.13168724279836" width="30" x="1626.9444444444443" y="223.86831275720164" /><text fill="white" font-size="12" text-anchor="middle" x="1641.9444444444443" y="218.86831275720164">1268</text><text fill="white" font-size="12" text-anchor="middle" transform="rotate(-45,1641.9444444444443,570)" x="1641.9444444444443" y="570">2025-12-21</text><rect fill="#4DD2FF" height="369.34156378600824" width="30" x="1674.1666666666665" y="180.65843621399176" /><text fill="white" font-size="12" text-anchor="middle" x="1689.1666666666665" y="175.65843621399176">1436</text><text fill="white" font-size="12" text-anchor="middle" transform="rotate(-45,1689.1666666666665,570)" x="1689.1666666666665" y="570">2025-12-28</text><rect fill="#4DD2FF" height="157.66460905349794" width="30" x="1721.388888888889" y="392.33539094650206" /><text fill="white" font-size="12" text-anchor="middle" x="1736.388888888889" y="387.33539094650206">613</text><text fill="white" font-size="12" text-anchor="middle" transform="rotate(-45,1736.388888888889,570)" x="1736.388888888889" y="570">2026-01-04</text><line stroke="white" x1="60" x2="60" y1="50" y2="550" /><line stroke="white" x1="60" x2="1760" y1="550" y2="550" /></svg>