<?xml version="1.0" encoding="utf-8" ?>
<svg baseProfile="full" height="600" version="1.1" width="1800" xmlns="http://www.w3.org/2000/svg" xmlns:ev="http://www.w3.org/2001/xml-events" xmlns:xlink="http://www.w3.org/1999/xlink"><defs /><rect fill="#222222" height="100%" width="100%" x="0" y="0" /><text fill="white" font-size="20" text-anchor="middle" x="900.0" y="30">Weekly Totals (Last 52 Weeks)</text><rect fill="#4DD2FF" height="67.12962962962963" width="30" x="63.888888888888886" y="482.8703703703704" /><text fill="white" font-size="12" text-anchor="middle" x="78.88888888888889" y="477.8703703703704">261</text><text fill="white" font-size="12" text-anchor="middle" transform="rotate(-45,78.88888888888889,570)" x="78.88888888888889" y="570">2025-05-04</text><rect fill="#4DD2FF" height="500.0" width="30" x="101.66666666666666" y="50.0" /><text fill="white" font-size="12" text-anchor="middle" x="116.66666666666666" y="45.0">1944</text><text fill="white" font-size="12" text-anchor="middle" transform="rotate(-45,116.66666666666666,570)" x="116.66666666666666" y="570">2025-05-11</text><rect fill="#4DD2FF" height="380.65843621399176" width="30" x="139.44444444444443" y="169.34156378600824" /><text fill="white" font-size="12" text-anchor="middle" x="154.44444444444443" y="164.34156378600824">1480</text><text fill="white" font-size="12" text-anchor="middle" transform="rotate(-45,154.44444444444443,570)" x="154.44444444444443" y="570">2025-05-18</text><rect fill="#4DD2FF" height="450.61728395061726" width="30" x="177.22222222222223" y="99.38271604938274" /><text fill="white" font-size="12" text-anchor="middle" x="192.22222222222223" y="94.38271604938274">1752</text><text fill="white" font-size="12" text-anchor="middle" transform="rotate(-45,192.22222222222223,570)" x="192.22222222222223" y="570">2025-05-25</text><rect fill="#4DD2FF" height="307.61316872427983" width="30" x="215.0" y="242.38683127572017" /><text fill="white" font-size="12" text-anchor="middle" x="230.0" y="237.38683127572017">1196</text><text fill="white" font-size="12" text-anchor="middle" transform="rotate(-45,230.0,570)" x="230.0" y="570">2025-06-01</text><rect fill="#4DD2FF" height="301.6975308641975" width="30" x="252.77777777777777" y="248.30246913580248" /><text fill="white" font-size="12" text-anchor="middle" x="267.77777777777777" y="243.30246913580248">1173</text><text fill="white" font-size="12" text-anchor="middle" transform="rotate(-45,267.77777777777777,570)" x="267.77777777777777" y="570">2025-06-08</text><rect fill="#4DD2FF" height="284.72222222222223" width="30" x="290.5555555555556" y="265.27777777777777" /><text fill="white" font-size="12" text-anchor="middle" x="305.5555555555556" y="260.27777777777777">1107</text><text fill="white" font-size="12" text-anchor="middle" transform="rotate(-45,305.5555555555556,570)" x="305.5555555555556" y="570">2025-06-15</text><rect fill="#4DD2FF" height="323.55967078189303" width="30" x="328.33333333333337" y="226.44032921810697" /><text fill="white" font-size="12" text-anchor="middle" x="343.33333333333337" y="221.44032921810697">1258</text><text fill="white" font-size="12" text-anchor="middle" transform="rotate(-45,343.33333333333337,570)" x="343.33333333333337" y="570">2025-06-22</text><rect fill="#4DD2FF" height="211.41975308641975" width="30" x="366.11111111111114" y="338.58024691358025" /><text fill="white" font-size="12" text-anchor="middle" x="381.11111111111114" y="333.58024691358025">822</text><text fill="white" font-size="12" text-anchor="middle" transform="rotate(-45,381.11111111111114,570)" x="381.11111111111114" y="570">2025-06-29</text><rect fill="#4DD2FF" height="141.71810699588477" width="30" x="403.8888888888889" y="408.2818930041152" /><text fill="white" font-size="12" text-anchor="middle" x="418.8888888888889" y="403.2818930041152">551</text><text fill="white" font-size="12" text-anchor="middle" transform="rotate(-45,418.8888888888889,570)" x="418.8888888888889" y="570">2025-07-06</text><rect fill="#4DD2FF" height="284.72222222222223" width="30" x="441.6666666666667" y="265.27777777777777" /><text fill="white" font-size="12" text-anchor="middle" x="456.6666666666667" y="260.27777777777777">1107</text><text fill="white" font-size="12" text-anchor="middle" transform="rotate(-45,456.6666666666667,570)" x="456.6666666666667" y="570">2025-07-13</text><rect fill="#4DD2FF" height="355.9670781893004" width="30" x="479.44444444444446" y="194.03292181069958" /><text fill="white" font-size="12" text-anchor="middle" x="494.44444444444446" y="189.03292181069958">1384</text><text fill="white" font-size="12" text-anchor="middle" transform="rotate(-45,494.44444444444446,570)" x="494.44444444444446" y="570">2025-07-20</text><rect fill="#4DD2FF" height="96.19341563786008" width="30" x="517.2222222222223" y="453.8065843621399" /><text fill="white" font-size="12" text-anchor="middle" x="532.2222222222223" y="448.8065843621399">374</text><text fill="white" font-size="12" text-anchor="middle" transform="rotate(-45,532.2222222222223,570)" x="532.2222222222223" y="570">2025-07-27</text><rect fill="#4DD2FF" height="195.98765432098767" width="30" x="555.0" y="354.01234567901236" /><text fill="white" font-size="12" text-anchor="middle" x="570.0" y="349.01234567901236">762</text><text fill="white" font-size="12" text-anchor="middle" transform="rotate(-45,570.0,570)" x="570.0" y="570">2025-08-03</text><rect fill="#4DD2FF" height="217.33539094650206" width="30" x="592.7777777777778" y="332.66460905349794" /><text fill="white" font-size="12" text-anchor="middle" x="607.7777777777778" y="327.66460905349794">845</text><text fill="white" font-size="12" text-anchor="middle" transform="rotate(-45,607.7777777777778,570)" x="607.7777777777778" y="570">2025-08-10</text><rect fill="#4DD2FF" height="224.53703703703704" width="30" x="630.5555555555555" y="325.46296296296293" /><text fill="white" font-size="12" text-anchor="middle" x="645.5555555555555" y="320.46296296296293">873</text><text fill="white" font-size="12" text-anchor="middle" transform="rotate(-45,645.5555555555555,570)" x="645.5555555555555" y="570">2025-08-17</text><rect fill="#4DD2FF" height="153.54938271604937" width="30" x="668.3333333333334" y="396.45061728395063" /><text fill="white" font-size="12" text-anchor="middle" x="683.3333333333334" y="391.45061728395063">597</text><text fill="white" font-size="12" text-anchor="middle" transform="rotate(-45,683.3333333333334,570)" x="683.3333333333334" y="570">2025-08-24</text><rect fill="#4DD2FF" height="180.0411522633745" width="30" x="706.1111111111112" y="369.9588477366255" /><text fill="white" font-size="12" text-anchor="middle" x="721.1111111111112" y="364.9588477366255">700</text><text fill="white" font-size="12" text-anchor="middle" transform="rotate(-45,721.1111111111112,570)" x="721.1111111111112" y="570">2025-08-31</text><rect fill="#4DD2FF" height="210.13374485596708" width="30" x="743.8888888888889" y="339.86625514403295" /><text fill="white" font-size="12" text-anchor="middle" x="758.8888888888889" y="334.86625514403295">817</text><text fill="white" font-size="12" text-anchor="middle" transform="rotate(-45,758.8888888888889,570)" x="758.8888888888889" y="570">2025-09-07</text><rect fill="#4DD2FF" height="237.13991769547323" width="30" x="781.6666666666667" y="312.86008230452677" /><text fill="white" font-size="12" text-anchor="middle" x="796.6666666666667" y="307.86008230452677">922</text><text fill="white" font-size="12" text-anchor="middle" transform="rotate(-45,796.6666666666667,570)" x="796.6666666666667" y="570">2025-09-14</text><rect fill="#4DD2FF" height="137.08847736625515" width="30" x="819.4444444444445" y="412.9115226337449" /><text fill="white" font-size="12" text-anchor="middle" x="834.4444444444445" y="407.9115226337449">533</text><text fill="white" font-size="12" text-anchor="middle" transform="rotate(-45,834.4444444444445,570)" x="834.4444444444445" y="570">2025-09-21</text><rect fill="#4DD2FF" height="160.49382716049382" width="30" x="857.2222222222223" y="389.5061728395062" /><text fill="white" font-size="12" text-anchor="middle" x="872.2222222222223" y="384.5061728395062">624</text><text fill="white" font-size="12" text-anchor="middle" transform="rotate(-45,872.2222222222223,570)" x="872.2222222222223" y="570">2025-09-28</text><rect fill="#4DD2FF" height="197.53086419753086" width="30" x="895.0" y="352.46913580246917" /><text fill="white" font-size="12" text-anchor="middle" x="910.0" y="347.46913580246917">768</text><text fill="white" font-size="12" text-anchor="middle" transform="rotate(-45,910.0,570)" x="910.0" y="570">2025-10-05</text><rect fill="#4DD2FF" height="303.24074074074076" width="30" x="932.7777777777778" y="246.75925925925924" /><text fill="white" font-size="12" text-anchor="middle" x="947.7777777777778" y="241.75925925925924">1179</text><text fill="white" font-size="12" text-anchor="middle" transform="rotate(-45,947.7777777777778,570)" x="947.7777777777778" y="570">2025-10-12</text><rect fill="#4DD2FF" height="266.7181069958848" width="30" x="970.5555555555557" y="283.2818930041152" /><text fill="white" font-size="12" text-anchor="middle" x="985.5555555555557" y="278.2818930041152">1037</text><text fill="white" font-size="12" text-anchor="middle" transform="rotate(-45,985.5555555555557,570)" x="985.5555555555557" y="570">2025-10-19</text><rect fill="#4DD2FF" height="184.15637860082305" width="30" x="1008.3333333333334" y="365.843621399177" /><text fill="white" font-size="12" text-anchor="middle" x="1023.3333333333334" y="360.843621399177">716</text><text fill="white" font-size="12" text-anchor="middle" transform="rotate(-45,1023.3333333333334,570)" x="1023.3333333333334" y="570">2025-10-26</text><rect fill="#4DD2FF" height="211.41975308641975" width="30" x="1046.111111111111" y="338.58024691358025" /><text fill="white" font-size="12" text-anchor="middle" x="1061.111111111111" y="333.58024691358025">822</text><text fill="white" font-size="12" text-anchor="middle" transform="rotate(-45,1061.111111111111,570)" x="1061.111111111111" y="570">2025-11-02</text><rect fill="#4DD2FF" height="122.94238683127571" width="30" x="1083.888888888889" y="427.0576131687243" /><text fill="white" font-size="12" text-anchor="middle" x="1098.888888888889" y="422.0576131687243">478</text><text fill="white" font-size="12" text-anchor="middle" transform="rotate(-45,1098.888888888889,570)" x="1098.888888888889" y="570">2025-11-09</text><rect fill="#4DD2FF" height="307.8703703703703" width="30" x="1121.6666666666667" y="242.12962962962968" /><text fill="white" font-size="12" text-anchor="middle" x="1136.6666666666667" y="237.12962962962968">1197</text><text fill="white" font-size="12" text-anchor="middle" transform="rotate(-45,1136.6666666666667,570)" x="1136.6666666666667" y="570">2025-11-16</text><rect fill="#4DD2FF" height="10.2880658436214" width="30" x="1159.4444444444446" y="539.7119341563786" /><text fill="white" font-size="12" text-anchor="middle" x="1174.4444444444446" y="534.7119341563786">40</text><text fill="white" font-size="12" text-anchor="middle" transform="rotate(-45,1174.4444444444446,570)" x="1174.4444444444446" y="570">2025-11-23</text><rect fill="#4DD2FF" height="111.88271604938271" width="30" x="1197.2222222222222" y="438.1172839506173" /><text fill="white" font-size="12" text-anchor="middle" x="1212.2222222222222" y="433.1172839506173">435</text><text fill="white" font-size="12" text-anchor="middle" transform="rotate(-45,1212.2222222222222,570)" x="1212.2222222222222" y="570">2025-11-30</text><rect fill="#4DD2FF" height="66.61522633744856" width="30" x="1235.0" y="483.3847736625514" /><text fill="white" font-size="12" text-anchor="middle" x="1250.0" y="478.3847736625514">259</text><text fill="white" font-size="12" text-anchor="middle" transform="rotate(-45,1250.0,570)" x="1250.0" y="570">2025-12-07</text><rect fill="#4DD2FF" height="342.5925925925926" width="30" x="1272.7777777777778" y="207.4074074074074" /><text fill="white" font-size="12" text-anchor="middle" x="1287.7777777777778" y="202.4074074074074">1332</text><text fill="white" font-size="12" text-anchor="middle" transform="rotate(-45,1287.7777777777778,570)" x="1287.7777777777778" y="570">2025-12-14</text><rect fill="#4DD2FF" height="326.13168724279836" width="30" x="1310.5555555555557" y="223.86831275720164" /><text fill="white" font-size="12" text-anchor="middle" x="1325.5555555555557" y="218.86831275720164">1268</text><text fill="white" font-size="12" text-anchor="middle" transform="rotate(-45,1325.5555555555557,570)" x="1325.5555555555557" y="570">2025-12-21</text><rect fill="#4DD2FF" height="369.34156378600824" width="30" x="1348.3333333333335" y="180.65843621399176" /><text fill="white" font-size="12" text-anchor="middle" x="1363.3333333333335" y="175.65843621399176">1436</text><text fill="white" font-size="12" text-anchor="middle" transform="rotate(-45,1363.3333333333335,570)" x="1363.3333333333335" y="570">2025-12-28</text><rect fill="#4DD2FF" height="359.82510288065845" width="30" x="1386.111111111111" y="190.17489711934155" /><text fill="white" font-size="12" text-anchor="middle" x="1401.111111111111" y="185.17489711934155">1399</text><text fill="white" font-size="12" text-anchor="middle" transform="rotate(-45,1401.111111111111,570)" x="1401.111111111111" y="570">2026-01-04</text><rect fill="#4DD2FF" height="382.45884773662556" width="30" x="1423.888888888889" y="167.54115226337444" /><text fill="white" font-size="12" text-anchor="middle" x="1438.888888888889" y="162.54115226337444">1487</text><text fill="white" font-size="12" text-anchor="middle" transform="rotate(-45,1438.888888888889,570)" x="1438.888888888889" y="570">2026-01-11</text><rect fill="#4DD2FF" height="336.1625514403292" width="30" x="1461.6666666666667" y="213.8374485596708" /><text fill="white" font-size="12" text-anchor="middle" x="1476.6666666666667" y="208.8374485596708">1307</text><text fill="white" font-size="12" text-anchor="middle" transform="rotate(-45,1476.6666666666667,570)" x="1476.6666666666667" y="570">2026-01-18</text><rect fill="#4DD2FF" height="331.79012345679007" width="30" x="1499.4444444444446" y="218.20987654320993" /><text fill="white" font-size="12" text-anchor="middle" x="1514.4444444444446" y="213.20987654320993">1290</text><text fill="white" font-size="12" text-anchor="middle" transform="rotate(-45,1514.4444444444446,570)" x="1514.4444444444446" y="570">2026-01-25</text><rect fill="#4DD2FF" height="314.5576131687243" width="30" x="1537.2222222222222" y="235.4423868312757" /><text fill="white" font-size="12" text-anchor="middle" x="1552.2222222222222" y="230.4423868312757">1223</text><text fill="white" font-size="12" text-anchor="middle" transform="rotate(-45,1552.2222222222222,570)" x="1552.2222222222222" y="570">2026-02-01</text><rect fill="#4DD2FF" height="366.51234567901236" width="30" x="1575.0" y="183.48765432098764" /><text fill="white" font-size="12" text-anchor="middle" x="1590.0" y="178.48765432098764">1425</text><text fill="white" font-size="12" text-anchor="middle" transform="rotate(-45,1590.0,570)" x="1590.0" y="570">2026-02-08</text><rect fill="#4DD2FF" height="280.3497942386831" width="30" x="1612.7777777777778" y="269.6502057613169" /><text fill="white" font-size="12" text-anchor="middle" x="1627.7777777777778" y="264.6502057613169">1090</text><text fill="white" font-size="12" text-anchor="middle" transform="rotate(-45,1627.7777777777778,570)" x="1627.7777777777778" y="570">2026-02-15</text><rect fill="#4DD2FF" height="372.1707818930041" width="30" x="1650.5555555555557" y="177.82921810699588" /><text fill="white" font-size="12" text-anchor="middle" x="1665.5555555555557" y="172.82921810699588">1447</text><text fill="white" font-size="12" text-anchor="middle" transform="rotate(-45,1665.5555555555557,570)" x="1665.5555555555557" y="570">2026-02-22</text><rect fill="#4DD2FF" height="309.1563786008231" width="30" x="1688.3333333333335" y="240.84362139917693" /><text fill="white" font-size="12" text-anchor="middle" x="1703.3333333333335" y="235.84362139917693">1202</text><text fill="white" font-size="12" text-anchor="middle" transform="rotate(-45,1703.3333333333335,570)" x="1703.3333333333335" y="570">2026-03-01</text><rect fill="#4DD2FF" height="186.98559670781893" width="30" x="1726.111111111111" y="363.0144032921811" /><text fill="white" font-size="12" text-anchor="middle" x="1741.111111111111" y="358.0144032921811">727</text><text fill="white" font-size="12" text-anchor="middle" transform="rotate(-45,1741.111111111111,570)" x="1741.111111111111" y="570">2026-03-08</text><line stroke="white" x1="60" x2="60" y1="50" y2="550" /><line stroke="white" x1="60" x2="1760" y1="550" y2="550" /></svg>