<?xml version="1.0" encoding="utf-8" ?>
<svg baseProfile="full" height="600" version="1.1" width="1800" xmlns="http://www.w3.org/2000/svg" xmlns:ev="http://www.w3.org/2001/xml-events" xmlns:xlink="http://www.w3.org/1999/xlink"><defs /><rect fill="#222222" height="100%" width="100%" x="0" y="0" /><text fill="white" font-size="20" text-anchor="middle" x="900.0" y="30">Weekly Totals (Last 52 Weeks)</text><rect fill="#4DD2FF" height="67.12962962962963" width="29.0" x="62.5" y="482.8703703703704" /><text fill="white" font-size="12" text-anchor="middle" x="77.0" y="477.8703703703704">261</text><text fill="white" font-size="12" text-anchor="middle" transform="rotate(-45,77.0,570)" x="77.0" y="570">2025-05-04</text><rect fill="#4DD2FF" height="500.0" width="29.0" x="96.5" y="50.0" /><text fill="white" font-size="12" text-anchor="middle" x="111.0" y="45.0">1944</text><text fill="white" font-size="12" text-anchor="middle" transform="rotate(-45,111.0,570)" x="111.0" y="570">2025-05-11</text><rect fill="#4DD2FF" height="380.65843621399176" width="29.0" x="130.5" y="169.34156378600824" /><text fill="white" font-size="12" text-anchor="middle" x="145.0" y="164.34156378600824">1480</text><text fill="white" font-size="12" text-anchor="middle" transform="rotate(-45,145.0,570)" x="145.0" y="570">2025-05-18</text><rect fill="#4DD2FF" height="450.61728395061726" width="29.0" x="164.5" y="99.38271604938274" /><text fill="white" font-size="12" text-anchor="middle" x="179.0" y="94.38271604938274">1752</text><text fill="white" font-size="12" text-anchor="middle" transform="rotate(-45,179.0,570)" x="179.0" y="570">2025-05-25</text><rect fill="#4DD2FF" height="307.61316872427983" width="29.0" x="198.5" y="242.38683127572017" /><text fill="white" font-size="12" text-anchor="middle" x="213.0" y="237.38683127572017">1196</text><text fill="white" font-size="12" text-anchor="middle" transform="rotate(-45,213.0,570)" x="213.0" y="570">2025-06-01</text><rect fill="#4DD2FF" height="301.6975308641975" width="29.0" x="232.5" y="248.30246913580248" /><text fill="white" font-size="12" text-anchor="middle" x="247.0" y="243.30246913580248">1173</text><text fill="white" font-size="12" text-anchor="middle" transform="rotate(-45,247.0,570)" x="247.0" y="570">2025-06-08</text><rect fill="#4DD2FF" height="284.72222222222223" width="29.0" x="266.5" y="265.27777777777777" /><text fill="white" font-size="12" text-anchor="middle" x="281.0" y="260.27777777777777">1107</text><text fill="white" font-size="12" text-anchor="middle" transform="rotate(-45,281.0,570)" x="281.0" y="570">2025-06-15</text><rect fill="#4DD2FF" height="323.55967078189303" width="29.0" x="300.5" y="226.44032921810697" /><text fill="white" font-size="12" text-anchor="middle" x="315.0" y="221.44032921810697">1258</text><text fill="white" font-size="12" text-anchor="middle" transform="rotate(-45,315.0,570)" x="315.0" y="570">2025-06-22</text><rect fill="#4DD2FF" height="211.41975308641975" width="29.0" x="334.5" y="338.58024691358025" /><text fill="white" font-size="12" text-anchor="middle" x="349.0" y="333.58024691358025">822</text><text fill="white" font-size="12" text-anchor="middle" transform="rotate(-45,349.0,570)" x="349.0" y="570">2025-06-29</text><rect fill="#4DD2FF" height="141.71810699588477" width="29.0" x="368.5" y="408.2818930041152" /><text fill="white" font-size="12" text-anchor="middle" x="383.0" y="403.2818930041152">551</text><text fill="white" font-size="12" text-anchor="middle" transform="rotate(-45,383.0,570)" x="383.0" y="570">2025-07-06</text><rect fill="#4DD2FF" height="284.72222222222223" width="29.0" x="402.5" y="265.27777777777777" /><text fill="white" font-size="12" text-anchor="middle" x="417.0" y="260.27777777777777">1107</text><text fill="white" font-size="12" text-anchor="middle" transform="rotate(-45,417.0,570)" x="417.0" y="570">2025-07-13</text><rect fill="#4DD2FF" height="355.9670781893004" width="29.0" x="436.5" y="194.03292181069958" /><text fill="white" font-size="12" text-anchor="middle" x="451.0" y="189.03292181069958">1384</text><text fill="white" font-size="12" text-anchor="middle" transform="rotate(-45,451.0,570)" x="451.0" y="570">2025-07-20</text><rect fill="#4DD2FF" height="96.19341563786008" width="29.0" x="470.5" y="453.8065843621399" /><text fill="white" font-size="12" text-anchor="middle" x="485.0" y="448.8065843621399">374</text><text fill="white" font-size="12" text-anchor="middle" transform="rotate(-45,485.0,570)" x="485.0" y="570">2025-07-27</text><rect fill="#4DD2FF" height="195.98765432098767" width="29.0" x="504.5" y="354.01234567901236" /><text fill="white" font-size="12" text-anchor="middle" x="519.0" y="349.01234567901236">762</text><text fill="white" font-size="12" text-anchor="middle" transform="rotate(-45,519.0,570)" x="519.0" y="570">2025-08-03</text><rect fill="#4DD2FF" height="217.33539094650206" width="29.0" x="538.5" y="332.66460905349794" /><text fill="white" font-size="12" text-anchor="middle" x="553.0" y="327.66460905349794">845</text><text fill="white" font-size="12" text-anchor="middle" transform="rotate(-45,553.0,570)" x="553.0" y="570">2025-08-10</text><rect fill="#4DD2FF" height="224.53703703703704" width="29.0" x="572.5" y="325.46296296296293" /><text fill="white" font-size="12" text-anchor="middle" x="587.0" y="320.46296296296293">873</text><text fill="white" font-size="12" text-anchor="middle" transform="rotate(-45,587.0,570)" x="587.0" y="570">2025-08-17</text><rect fill="#4DD2FF" height="153.54938271604937" width="29.0" x="606.5" y="396.45061728395063" /><text fill="white" font-size="12" text-anchor="middle" x="621.0" y="391.45061728395063">597</text><text fill="white" font-size="12" text-anchor="middle" transform="rotate(-45,621.0,570)" x="621.0" y="570">2025-08-24</text><rect fill="#4DD2FF" height="180.0411522633745" width="29.0" x="640.5" y="369.9588477366255" /><text fill="white" font-size="12" text-anchor="middle" x="655.0" y="364.9588477366255">700</text><text fill="white" font-size="12" text-anchor="middle" transform="rotate(-45,655.0,570)" x="655.0" y="570">2025-08-31</text><rect fill="#4DD2FF" height="210.13374485596708" width="29.0" x="674.5" y="339.86625514403295" /><text fill="white" font-size="12" text-anchor="middle" x="689.0" y="334.86625514403295">817</text><text fill="white" font-size="12" text-anchor="middle" transform="rotate(-45,689.0,570)" x="689.0" y="570">2025-09-07</text><rect fill="#4DD2FF" height="237.13991769547323" width="29.0" x="708.5" y="312.86008230452677" /><text fill="white" font-size="12" text-anchor="middle" x="723.0" y="307.86008230452677">922</text><text fill="white" font-size="12" text-anchor="middle" transform="rotate(-45,723.0,570)" x="723.0" y="570">2025-09-14</text><rect fill="#4DD2FF" height="137.08847736625515" width="29.0" x="742.5" y="412.9115226337449" /><text fill="white" font-size="12" text-anchor="middle" x="757.0" y="407.9115226337449">533</text><text fill="white" font-size="12" text-anchor="middle" transform="rotate(-45,757.0,570)" x="757.0" y="570">2025-09-21</text><rect fill="#4DD2FF" height="160.49382716049382" width="29.0" x="776.5" y="389.5061728395062" /><text fill="white" font-size="12" text-anchor="middle" x="791.0" y="384.5061728395062">624</text><text fill="white" font-size="12" text-anchor="middle" transform="rotate(-45,791.0,570)" x="791.0" y="570">2025-09-28</text><rect fill="#4DD2FF" height="197.53086419753086" width="29.0" x="810.5" y="352.46913580246917" /><text fill="white" font-size="12" text-anchor="middle" x="825.0" y="347.46913580246917">768</text><text fill="white" font-size="12" text-anchor="middle" transform="rotate(-45,825.0,570)" x="825.0" y="570">2025-10-05</text><rect fill="#4DD2FF" height="303.24074074074076" width="29.0" x="844.5" y="246.75925925925924" /><text fill="white" font-size="12" text-anchor="middle" x="859.0" y="241.75925925925924">1179</text><text fill="white" font-size="12" text-anchor="middle" transform="rotate(-45,859.0,570)" x="859.0" y="570">2025-10-12</text><rect fill="#4DD2FF" height="266.7181069958848" width="29.0" x="878.5" y="283.2818930041152" /><text fill="white" font-size="12" text-anchor="middle" x="893.0" y="278.2818930041152">1037</text><text fill="white" font-size="12" text-anchor="middle" transform="rotate(-45,893.0,570)" x="893.0" y="570">2025-10-19</text><rect fill="#4DD2FF" height="184.15637860082305" width="29.0" x="912.5" y="365.843621399177" /><text fill="white" font-size="12" text-anchor="middle" x="927.0" y="360.843621399177">716</text><text fill="white" font-size="12" text-anchor="middle" transform="rotate(-45,927.0,570)" x="927.0" y="570">2025-10-26</text><rect fill="#4DD2FF" height="211.41975308641975" width="29.0" x="946.5" y="338.58024691358025" /><text fill="white" font-size="12" text-anchor="middle" x="961.0" y="333.58024691358025">822</text><text fill="white" font-size="12" text-anchor="middle" transform="rotate(-45,961.0,570)" x="961.0" y="570">2025-11-02</text><rect fill="#4DD2FF" height="122.94238683127571" width="29.0" x="980.5" y="427.0576131687243" /><text fill="white" font-size="12" text-anchor="middle" x="995.0" y="422.0576131687243">478</text><text fill="white" font-size="12" text-anchor="middle" transform="rotate(-45,995.0,570)" x="995.0" y="570">2025-11-09</text><rect fill="#4DD2FF" height="307.8703703703703" width="29.0" x="1014.5" y="242.12962962962968" /><text fill="white" font-size="12" text-anchor="middle" x="1029.0" y="237.12962962962968">1197</text><text fill="white" font-size="12" text-anchor="middle" transform="rotate(-45,1029.0,570)" x="1029.0" y="570">2025-11-16</text><rect fill="#4DD2FF" height="10.2880658436214" width="29.0" x="1048.5" y="539.7119341563786" /><text fill="white" font-size="12" text-anchor="middle" x="1063.0" y="534.7119341563786">40</text><text fill="white" font-size="12" text-anchor="middle" transform="rotate(-45,1063.0,570)" x="1063.0" y="570">2025-11-23</text><rect fill="#4DD2FF" height="111.88271604938271" width="29.0" x="1082.5" y="438.1172839506173" /><text fill="white" font-size="12" text-anchor="middle" x="1097.0" y="433.1172839506173">435</text><text fill="white" font-size="12" text-anchor="middle" transform="rotate(-45,1097.0,570)" x="1097.0" y="570">2025-11-30</text><rect fill="#4DD2FF" height="66.61522633744856" width="29.0" x="1116.5" y="483.3847736625514" /><text fill="white" font-size="12" text-anchor="middle" x="1131.0" y="478.3847736625514">259</text><text fill="white" font-size="12" text-anchor="middle" transform="rotate(-45,1131.0,570)" x="1131.0" y="570">2025-12-07</text><rect fill="#4DD2FF" height="342.5925925925926" width="29.0" x="1150.5" y="207.4074074074074" /><text fill="white" font-size="12" text-anchor="middle" x="1165.0" y="202.4074074074074">1332</text><text fill="white" font-size="12" text-anchor="middle" transform="rotate(-45,1165.0,570)" x="1165.0" y="570">2025-12-14</text><rect fill="#4DD2FF" height="326.13168724279836" width="29.0" x="1184.5" y="223.86831275720164" /><text fill="white" font-size="12" text-anchor="middle" x="1199.0" y="218.86831275720164">1268</text><text fill="white" font-size="12" text-anchor="middle" transform="rotate(-45,1199.0,570)" x="1199.0" y="570">2025-12-21</text><rect fill="#4DD2FF" height="369.34156378600824" width="29.0" x="1218.5" y="180.65843621399176" /><text fill="white" font-size="12" text-anchor="middle" x="1233.0" y="175.65843621399176">1436</text><text fill="white" font-size="12" text-anchor="middle" transform="rotate(-45,1233.0,570)" x="1233.0" y="570">2025-12-28</text><rect fill="#4DD2FF" height="359.82510288065845" width="29.0" x="1252.5" y="190.17489711934155" /><text fill="white" font-size="12" text-anchor="middle" x="1267.0" y="185.17489711934155">1399</text><text fill="white" font-size="12" text-anchor="middle" transform="rotate(-45,1267.0,570)" x="1267.0" y="570">2026-01-04</text><rect fill="#4DD2FF" height="382.45884773662556" width="29.0" x="1286.5" y="167.54115226337444" /><text fill="white" font-size="12" text-anchor="middle" x="1301.0" y="162.54115226337444">1487</text><text fill="white" font-size="12" text-anchor="middle" transform="rotate(-45,1301.0,570)" x="1301.0" y="570">2026-01-11</text><rect fill="#4DD2FF" height="336.1625514403292" width="29.0" x="1320.5" y="213.8374485596708" /><text fill="white" font-size="12" text-anchor="middle" x="1335.0" y="208.8374485596708">1307</text><text fill="white" font-size="12" text-anchor="middle" transform="rotate(-45,1335.0,570)" x="1335.0" y="570">2026-01-18</text><rect fill="#4DD2FF" height="331.79012345679007" width="29.0" x="1354.5" y="218.20987654320993" /><text fill="white" font-size="12" text-anchor="middle" x="1369.0" y="213.20987654320993">1290</text><text fill="white" font-size="12" text-anchor="middle" transform="rotate(-45,1369.0,570)" x="1369.0" y="570">2026-01-25</text><rect fill="#4DD2FF" height="314.5576131687243" width="29.0" x="1388.5" y="235.4423868312757" /><text fill="white" font-size="12" text-anchor="middle" x="1403.0" y="230.4423868312757">1223</text><text fill="white" font-size="12" text-anchor="middle" transform="rotate(-45,1403.0,570)" x="1403.0" y="570">2026-02-01</text><rect fill="#4DD2FF" height="366.51234567901236" width="29.0" x="1422.5" y="183.48765432098764" /><text fill="white" font-size="12" text-anchor="middle" x="1437.0" y="178.48765432098764">1425</text><text fill="white" font-size="12" text-anchor="middle" transform="rotate(-45,1437.0,570)" x="1437.0" y="570">2026-02-08</text><rect fill="#4DD2FF" height="280.3497942386831" width="29.0" x="1456.5" y="269.6502057613169" /><text fill="white" font-size="12" text-anchor="middle" x="1471.0" y="264.6502057613169">1090</text><text fill="white" font-size="12" text-anchor="middle" transform="rotate(-45,1471.0,570)" x="1471.0" y="570">2026-02-15</text><rect fill="#4DD2FF" height="372.1707818930041" width="29.0" x="1490.5" y="177.82921810699588" /><text fill="white" font-size="12" text-anchor="middle" x="1505.0" y="172.82921810699588">1447</text><text fill="white" font-size="12" text-anchor="middle" transform="rotate(-45,1505.0,570)" x="1505.0" y="570">2026-02-22</text><rect fill="#4DD2FF" height="309.1563786008231" width="29.0" x="1524.5" y="240.84362139917693" /><text fill="white" font-size="12" text-anchor="middle" x="1539.0" y="235.84362139917693">1202</text><text fill="white" font-size="12" text-anchor="middle" transform="rotate(-45,1539.0,570)" x="1539.0" y="570">2026-03-01</text><rect fill="#4DD2FF" height="209.619341563786" width="29.0" x="1558.5" y="340.380658436214" /><text fill="white" font-size="12" text-anchor="middle" x="1573.0" y="335.380658436214">815</text><text fill="white" font-size="12" text-anchor="middle" transform="rotate(-45,1573.0,570)" x="1573.0" y="570">2026-03-08</text><rect fill="#4DD2FF" height="139.6604938271605" width="29.0" x="1592.5" y="410.3395061728395" /><text fill="white" font-size="12" text-anchor="middle" x="1607.0" y="405.3395061728395">543</text><text fill="white" font-size="12" text-anchor="middle" transform="rotate(-45,1607.0,570)" x="1607.0" y="570">2026-03-15</text><rect fill="#4DD2FF" height="128.08641975308643" width="29.0" x="1626.5" y="421.91358024691357" /><text fill="white" font-size="12" text-anchor="middle" x="1641.0" y="416.91358024691357">498</text><text fill="white" font-size="12" text-anchor="middle" transform="rotate(-45,1641.0,570)" x="1641.0" y="570">2026-03-22</text><rect fill="#4DD2FF" height="139.6604938271605" width="29.0" x="1660.5" y="410.3395061728395" /><text fill="white" font-size="12" text-anchor="middle" x="1675.0" y="405.3395061728395">543</text><text fill="white" font-size="12" text-anchor="middle" transform="rotate(-45,1675.0,570)" x="1675.0" y="570">2026-03-29</text><rect fill="#4DD2FF" height="88.2201646090535" width="29.0" x="1694.5" y="461.7798353909465" /><text fill="white" font-size="12" text-anchor="middle" x="1709.0" y="456.7798353909465">343</text><text fill="white" font-size="12" text-anchor="middle" transform="rotate(-45,1709.0,570)" x="1709.0" y="570">2026-05-03</text><rect fill="#4DD2FF" height="52.2119341563786" width="29.0" x="1728.5" y="497.7880658436214" /><text fill="white" font-size="12" text-anchor="middle" x="1743.0" y="492.7880658436214">203</text><text fill="white" font-size="12" text-anchor="middle" transform="rotate(-45,1743.0,570)" x="1743.0" y="570">2026-05-10</text><line stroke="white" x1="60" x2="60" y1="50" y2="550" /><line stroke="white" x1="60" x2="1760" y1="550" y2="550" /></svg>