<?xml version="1.0" encoding="utf-8" ?>
<svg baseProfile="full" height="600" version="1.1" width="1800" xmlns="http://www.w3.org/2000/svg" xmlns:ev="http://www.w3.org/2001/xml-events" xmlns:xlink="http://www.w3.org/1999/xlink"><defs /><rect fill="#222222" height="100%" width="100%" x="0" y="0" /><text fill="white" font-size="20" text-anchor="middle" x="900.0" y="30">Weekly Totals (Last 52 Weeks)</text><rect fill="#4DD2FF" height="67.12962962962963" width="30" x="63.47826086956522" y="482.8703703703704" /><text fill="white" font-size="12" text-anchor="middle" x="78.47826086956522" y="477.8703703703704">261</text><text fill="white" font-size="12" text-anchor="middle" transform="rotate(-45,78.47826086956522,570)" x="78.47826086956522" y="570">2025-05-04</text><rect fill="#4DD2FF" height="500.0" width="30" x="100.43478260869566" y="50.0" /><text fill="white" font-size="12" text-anchor="middle" x="115.43478260869566" y="45.0">1944</text><text fill="white" font-size="12" text-anchor="middle" transform="rotate(-45,115.43478260869566,570)" x="115.43478260869566" y="570">2025-05-11</text><rect fill="#4DD2FF" height="380.65843621399176" width="30" x="137.3913043478261" y="169.34156378600824" /><text fill="white" font-size="12" text-anchor="middle" x="152.3913043478261" y="164.34156378600824">1480</text><text fill="white" font-size="12" text-anchor="middle" transform="rotate(-45,152.3913043478261,570)" x="152.3913043478261" y="570">2025-05-18</text><rect fill="#4DD2FF" height="450.61728395061726" width="30" x="174.34782608695653" y="99.38271604938274" /><text fill="white" font-size="12" text-anchor="middle" x="189.34782608695653" y="94.38271604938274">1752</text><text fill="white" font-size="12" text-anchor="middle" transform="rotate(-45,189.34782608695653,570)" x="189.34782608695653" y="570">2025-05-25</text><rect fill="#4DD2FF" height="307.61316872427983" width="30" x="211.30434782608697" y="242.38683127572017" /><text fill="white" font-size="12" text-anchor="middle" x="226.30434782608697" y="237.38683127572017">1196</text><text fill="white" font-size="12" text-anchor="middle" transform="rotate(-45,226.30434782608697,570)" x="226.30434782608697" y="570">2025-06-01</text><rect fill="#4DD2FF" height="301.6975308641975" width="30" x="248.2608695652174" y="248.30246913580248" /><text fill="white" font-size="12" text-anchor="middle" x="263.2608695652174" y="243.30246913580248">1173</text><text fill="white" font-size="12" text-anchor="middle" transform="rotate(-45,263.2608695652174,570)" x="263.2608695652174" y="570">2025-06-08</text><rect fill="#4DD2FF" height="284.72222222222223" width="30" x="285.21739130434787" y="265.27777777777777" /><text fill="white" font-size="12" text-anchor="middle" x="300.21739130434787" y="260.27777777777777">1107</text><text fill="white" font-size="12" text-anchor="middle" transform="rotate(-45,300.21739130434787,570)" x="300.21739130434787" y="570">2025-06-15</text><rect fill="#4DD2FF" height="323.55967078189303" width="30" x="322.17391304347825" y="226.44032921810697" /><text fill="white" font-size="12" text-anchor="middle" x="337.17391304347825" y="221.44032921810697">1258</text><text fill="white" font-size="12" text-anchor="middle" transform="rotate(-45,337.17391304347825,570)" x="337.17391304347825" y="570">2025-06-22</text><rect fill="#4DD2FF" height="211.41975308641975" width="30" x="359.13043478260875" y="338.58024691358025" /><text fill="white" font-size="12" text-anchor="middle" x="374.13043478260875" y="333.58024691358025">822</text><text fill="white" font-size="12" text-anchor="middle" transform="rotate(-45,374.13043478260875,570)" x="374.13043478260875" y="570">2025-06-29</text><rect fill="#4DD2FF" height="141.71810699588477" width="30" x="396.0869565217391" y="408.2818930041152" /><text fill="white" font-size="12" text-anchor="middle" x="411.0869565217391" y="403.2818930041152">551</text><text fill="white" font-size="12" text-anchor="middle" transform="rotate(-45,411.0869565217391,570)" x="411.0869565217391" y="570">2025-07-06</text><rect fill="#4DD2FF" height="284.72222222222223" width="30" x="433.0434782608696" y="265.27777777777777" /><text fill="white" font-size="12" text-anchor="middle" x="448.0434782608696" y="260.27777777777777">1107</text><text fill="white" font-size="12" text-anchor="middle" transform="rotate(-45,448.0434782608696,570)" x="448.0434782608696" y="570">2025-07-13</text><rect fill="#4DD2FF" height="355.9670781893004" width="30" x="470.0" y="194.03292181069958" /><text fill="white" font-size="12" text-anchor="middle" x="485.0" y="189.03292181069958">1384</text><text fill="white" font-size="12" text-anchor="middle" transform="rotate(-45,485.0,570)" x="485.0" y="570">2025-07-20</text><rect fill="#4DD2FF" height="96.19341563786008" width="30" x="506.9565217391305" y="453.8065843621399" /><text fill="white" font-size="12" text-anchor="middle" x="521.9565217391305" y="448.8065843621399">374</text><text fill="white" font-size="12" text-anchor="middle" transform="rotate(-45,521.9565217391305,570)" x="521.9565217391305" y="570">2025-07-27</text><rect fill="#4DD2FF" height="195.98765432098767" width="30" x="543.913043478261" y="354.01234567901236" /><text fill="white" font-size="12" text-anchor="middle" x="558.913043478261" y="349.01234567901236">762</text><text fill="white" font-size="12" text-anchor="middle" transform="rotate(-45,558.913043478261,570)" x="558.913043478261" y="570">2025-08-03</text><rect fill="#4DD2FF" height="217.33539094650206" width="30" x="580.8695652173914" y="332.66460905349794" /><text fill="white" font-size="12" text-anchor="middle" x="595.8695652173914" y="327.66460905349794">845</text><text fill="white" font-size="12" text-anchor="middle" transform="rotate(-45,595.8695652173914,570)" x="595.8695652173914" y="570">2025-08-10</text><rect fill="#4DD2FF" height="224.53703703703704" width="30" x="617.8260869565217" y="325.46296296296293" /><text fill="white" font-size="12" text-anchor="middle" x="632.8260869565217" y="320.46296296296293">873</text><text fill="white" font-size="12" text-anchor="middle" transform="rotate(-45,632.8260869565217,570)" x="632.8260869565217" y="570">2025-08-17</text><rect fill="#4DD2FF" height="153.54938271604937" width="30" x="654.7826086956522" y="396.45061728395063" /><text fill="white" font-size="12" text-anchor="middle" x="669.7826086956522" y="391.45061728395063">597</text><text fill="white" font-size="12" text-anchor="middle" transform="rotate(-45,669.7826086956522,570)" x="669.7826086956522" y="570">2025-08-24</text><rect fill="#4DD2FF" height="180.0411522633745" width="30" x="691.7391304347827" y="369.9588477366255" /><text fill="white" font-size="12" text-anchor="middle" x="706.7391304347827" y="364.9588477366255">700</text><text fill="white" font-size="12" text-anchor="middle" transform="rotate(-45,706.7391304347827,570)" x="706.7391304347827" y="570">2025-08-31</text><rect fill="#4DD2FF" height="210.13374485596708" width="30" x="728.6956521739131" y="339.86625514403295" /><text fill="white" font-size="12" text-anchor="middle" x="743.6956521739131" y="334.86625514403295">817</text><text fill="white" font-size="12" text-anchor="middle" transform="rotate(-45,743.6956521739131,570)" x="743.6956521739131" y="570">2025-09-07</text><rect fill="#4DD2FF" height="237.13991769547323" width="30" x="765.6521739130435" y="312.86008230452677" /><text fill="white" font-size="12" text-anchor="middle" x="780.6521739130435" y="307.86008230452677">922</text><text fill="white" font-size="12" text-anchor="middle" transform="rotate(-45,780.6521739130435,570)" x="780.6521739130435" y="570">2025-09-14</text><rect fill="#4DD2FF" height="137.08847736625515" width="30" x="802.608695652174" y="412.9115226337449" /><text fill="white" font-size="12" text-anchor="middle" x="817.608695652174" y="407.9115226337449">533</text><text fill="white" font-size="12" text-anchor="middle" transform="rotate(-45,817.608695652174,570)" x="817.608695652174" y="570">2025-09-21</text><rect fill="#4DD2FF" height="160.49382716049382" width="30" x="839.5652173913045" y="389.5061728395062" /><text fill="white" font-size="12" text-anchor="middle" x="854.5652173913045" y="384.5061728395062">624</text><text fill="white" font-size="12" text-anchor="middle" transform="rotate(-45,854.5652173913045,570)" x="854.5652173913045" y="570">2025-09-28</text><rect fill="#4DD2FF" height="197.53086419753086" width="30" x="876.5217391304349" y="352.46913580246917" /><text fill="white" font-size="12" text-anchor="middle" x="891.5217391304349" y="347.46913580246917">768</text><text fill="white" font-size="12" text-anchor="middle" transform="rotate(-45,891.5217391304349,570)" x="891.5217391304349" y="570">2025-10-05</text><rect fill="#4DD2FF" height="303.24074074074076" width="30" x="913.4782608695652" y="246.75925925925924" /><text fill="white" font-size="12" text-anchor="middle" x="928.4782608695652" y="241.75925925925924">1179</text><text fill="white" font-size="12" text-anchor="middle" transform="rotate(-45,928.4782608695652,570)" x="928.4782608695652" y="570">2025-10-12</text><rect fill="#4DD2FF" height="266.7181069958848" width="30" x="950.4347826086957" y="283.2818930041152" /><text fill="white" font-size="12" text-anchor="middle" x="965.4347826086957" y="278.2818930041152">1037</text><text fill="white" font-size="12" text-anchor="middle" transform="rotate(-45,965.4347826086957,570)" x="965.4347826086957" y="570">2025-10-19</text><rect fill="#4DD2FF" height="184.15637860082305" width="30" x="987.3913043478262" y="365.843621399177" /><text fill="white" font-size="12" text-anchor="middle" x="1002.3913043478262" y="360.843621399177">716</text><text fill="white" font-size="12" text-anchor="middle" transform="rotate(-45,1002.3913043478262,570)" x="1002.3913043478262" y="570">2025-10-26</text><rect fill="#4DD2FF" height="211.41975308641975" width="30" x="1024.3478260869565" y="338.58024691358025" /><text fill="white" font-size="12" text-anchor="middle" x="1039.3478260869565" y="333.58024691358025">822</text><text fill="white" font-size="12" text-anchor="middle" transform="rotate(-45,1039.3478260869565,570)" x="1039.3478260869565" y="570">2025-11-02</text><rect fill="#4DD2FF" height="122.94238683127571" width="30" x="1061.304347826087" y="427.0576131687243" /><text fill="white" font-size="12" text-anchor="middle" x="1076.304347826087" y="422.0576131687243">478</text><text fill="white" font-size="12" text-anchor="middle" transform="rotate(-45,1076.304347826087,570)" x="1076.304347826087" y="570">2025-11-09</text><rect fill="#4DD2FF" height="307.8703703703703" width="30" x="1098.2608695652175" y="242.12962962962968" /><text fill="white" font-size="12" text-anchor="middle" x="1113.2608695652175" y="237.12962962962968">1197</text><text fill="white" font-size="12" text-anchor="middle" transform="rotate(-45,1113.2608695652175,570)" x="1113.2608695652175" y="570">2025-11-16</text><rect fill="#4DD2FF" height="10.2880658436214" width="30" x="1135.217391304348" y="539.7119341563786" /><text fill="white" font-size="12" text-anchor="middle" x="1150.217391304348" y="534.7119341563786">40</text><text fill="white" font-size="12" text-anchor="middle" transform="rotate(-45,1150.217391304348,570)" x="1150.217391304348" y="570">2025-11-23</text><rect fill="#4DD2FF" height="111.88271604938271" width="30" x="1172.1739130434783" y="438.1172839506173" /><text fill="white" font-size="12" text-anchor="middle" x="1187.1739130434783" y="433.1172839506173">435</text><text fill="white" font-size="12" text-anchor="middle" transform="rotate(-45,1187.1739130434783,570)" x="1187.1739130434783" y="570">2025-11-30</text><rect fill="#4DD2FF" height="66.61522633744856" width="30" x="1209.1304347826087" y="483.3847736625514" /><text fill="white" font-size="12" text-anchor="middle" x="1224.1304347826087" y="478.3847736625514">259</text><text fill="white" font-size="12" text-anchor="middle" transform="rotate(-45,1224.1304347826087,570)" x="1224.1304347826087" y="570">2025-12-07</text><rect fill="#4DD2FF" height="342.5925925925926" width="30" x="1246.0869565217392" y="207.4074074074074" /><text fill="white" font-size="12" text-anchor="middle" x="1261.0869565217392" y="202.4074074074074">1332</text><text fill="white" font-size="12" text-anchor="middle" transform="rotate(-45,1261.0869565217392,570)" x="1261.0869565217392" y="570">2025-12-14</text><rect fill="#4DD2FF" height="326.13168724279836" width="30" x="1283.0434782608697" y="223.86831275720164" /><text fill="white" font-size="12" text-anchor="middle" x="1298.0434782608697" y="218.86831275720164">1268</text><text fill="white" font-size="12" text-anchor="middle" transform="rotate(-45,1298.0434782608697,570)" x="1298.0434782608697" y="570">2025-12-21</text><rect fill="#4DD2FF" height="369.34156378600824" width="30" x="1320.0000000000002" y="180.65843621399176" /><text fill="white" font-size="12" text-anchor="middle" x="1335.0000000000002" y="175.65843621399176">1436</text><text fill="white" font-size="12" text-anchor="middle" transform="rotate(-45,1335.0000000000002,570)" x="1335.0000000000002" y="570">2025-12-28</text><rect fill="#4DD2FF" height="359.82510288065845" width="30" x="1356.9565217391305" y="190.17489711934155" /><text fill="white" font-size="12" text-anchor="middle" x="1371.9565217391305" y="185.17489711934155">1399</text><text fill="white" font-size="12" text-anchor="middle" transform="rotate(-45,1371.9565217391305,570)" x="1371.9565217391305" y="570">2026-01-04</text><rect fill="#4DD2FF" height="382.45884773662556" width="30" x="1393.913043478261" y="167.54115226337444" /><text fill="white" font-size="12" text-anchor="middle" x="1408.913043478261" y="162.54115226337444">1487</text><text fill="white" font-size="12" text-anchor="middle" transform="rotate(-45,1408.913043478261,570)" x="1408.913043478261" y="570">2026-01-11</text><rect fill="#4DD2FF" height="336.1625514403292" width="30" x="1430.8695652173915" y="213.8374485596708" /><text fill="white" font-size="12" text-anchor="middle" x="1445.8695652173915" y="208.8374485596708">1307</text><text fill="white" font-size="12" text-anchor="middle" transform="rotate(-45,1445.8695652173915,570)" x="1445.8695652173915" y="570">2026-01-18</text><rect fill="#4DD2FF" height="331.79012345679007" width="30" x="1467.8260869565217" y="218.20987654320993" /><text fill="white" font-size="12" text-anchor="middle" x="1482.8260869565217" y="213.20987654320993">1290</text><text fill="white" font-size="12" text-anchor="middle" transform="rotate(-45,1482.8260869565217,570)" x="1482.8260869565217" y="570">2026-01-25</text><rect fill="#4DD2FF" height="314.5576131687243" width="30" x="1504.7826086956522" y="235.4423868312757" /><text fill="white" font-size="12" text-anchor="middle" x="1519.7826086956522" y="230.4423868312757">1223</text><text fill="white" font-size="12" text-anchor="middle" transform="rotate(-45,1519.7826086956522,570)" x="1519.7826086956522" y="570">2026-02-01</text><rect fill="#4DD2FF" height="366.51234567901236" width="30" x="1541.7391304347827" y="183.48765432098764" /><text fill="white" font-size="12" text-anchor="middle" x="1556.7391304347827" y="178.48765432098764">1425</text><text fill="white" font-size="12" text-anchor="middle" transform="rotate(-45,1556.7391304347827,570)" x="1556.7391304347827" y="570">2026-02-08</text><rect fill="#4DD2FF" height="280.3497942386831" width="30" x="1578.6956521739132" y="269.6502057613169" /><text fill="white" font-size="12" text-anchor="middle" x="1593.6956521739132" y="264.6502057613169">1090</text><text fill="white" font-size="12" text-anchor="middle" transform="rotate(-45,1593.6956521739132,570)" x="1593.6956521739132" y="570">2026-02-15</text><rect fill="#4DD2FF" height="372.1707818930041" width="30" x="1615.6521739130437" y="177.82921810699588" /><text fill="white" font-size="12" text-anchor="middle" x="1630.6521739130437" y="172.82921810699588">1447</text><text fill="white" font-size="12" text-anchor="middle" transform="rotate(-45,1630.6521739130437,570)" x="1630.6521739130437" y="570">2026-02-22</text><rect fill="#4DD2FF" height="309.1563786008231" width="30" x="1652.608695652174" y="240.84362139917693" /><text fill="white" font-size="12" text-anchor="middle" x="1667.608695652174" y="235.84362139917693">1202</text><text fill="white" font-size="12" text-anchor="middle" transform="rotate(-45,1667.608695652174,570)" x="1667.608695652174" y="570">2026-03-01</text><rect fill="#4DD2FF" height="209.619341563786" width="30" x="1689.5652173913045" y="340.380658436214" /><text fill="white" font-size="12" text-anchor="middle" x="1704.5652173913045" y="335.380658436214">815</text><text fill="white" font-size="12" text-anchor="middle" transform="rotate(-45,1704.5652173913045,570)" x="1704.5652173913045" y="570">2026-03-08</text><rect fill="#4DD2FF" height="13.888888888888888" width="30" x="1726.521739130435" y="536.1111111111111" /><text fill="white" font-size="12" text-anchor="middle" x="1741.521739130435" y="531.1111111111111">54</text><text fill="white" font-size="12" text-anchor="middle" transform="rotate(-45,1741.521739130435,570)" x="1741.521739130435" y="570">2026-03-15</text><line stroke="white" x1="60" x2="60" y1="50" y2="550" /><line stroke="white" x1="60" x2="1760" y1="550" y2="550" /></svg>