<?xml version="1.0" encoding="utf-8" ?>
<svg baseProfile="full" height="600" version="1.1" width="1800" xmlns="http://www.w3.org/2000/svg" xmlns:ev="http://www.w3.org/2001/xml-events" xmlns:xlink="http://www.w3.org/1999/xlink"><defs /><rect fill="#222222" height="100%" width="100%" x="0" y="0" /><text fill="white" font-size="20" text-anchor="middle" x="900.0" y="30">Weekly Totals (Last 52 Weeks)</text><rect fill="#4DD2FF" height="67.12962962962963" width="30" x="83.63636363636363" y="482.8703703703704" /><text fill="white" font-size="12" text-anchor="middle" x="98.63636363636363" y="477.8703703703704">261</text><text fill="white" font-size="12" text-anchor="middle" transform="rotate(-45,98.63636363636363,570)" x="98.63636363636363" y="570">2025-05-04</text><rect fill="#4DD2FF" height="500.0" width="30" x="160.90909090909088" y="50.0" /><text fill="white" font-size="12" text-anchor="middle" x="175.90909090909088" y="45.0">1944</text><text fill="white" font-size="12" text-anchor="middle" transform="rotate(-45,175.90909090909088,570)" x="175.90909090909088" y="570">2025-05-11</text><rect fill="#4DD2FF" height="380.65843621399176" width="30" x="238.18181818181816" y="169.34156378600824" /><text fill="white" font-size="12" text-anchor="middle" x="253.18181818181816" y="164.34156378600824">1480</text><text fill="white" font-size="12" text-anchor="middle" transform="rotate(-45,253.18181818181816,570)" x="253.18181818181816" y="570">2025-05-18</text><rect fill="#4DD2FF" height="450.61728395061726" width="30" x="315.45454545454544" y="99.38271604938274" /><text fill="white" font-size="12" text-anchor="middle" x="330.45454545454544" y="94.38271604938274">1752</text><text fill="white" font-size="12" text-anchor="middle" transform="rotate(-45,330.45454545454544,570)" x="330.45454545454544" y="570">2025-05-25</text><rect fill="#4DD2FF" height="307.61316872427983" width="30" x="392.7272727272727" y="242.38683127572017" /><text fill="white" font-size="12" text-anchor="middle" x="407.7272727272727" y="237.38683127572017">1196</text><text fill="white" font-size="12" text-anchor="middle" transform="rotate(-45,407.7272727272727,570)" x="407.7272727272727" y="570">2025-06-01</text><rect fill="#4DD2FF" height="301.6975308641975" width="30" x="469.99999999999994" y="248.30246913580248" /><text fill="white" font-size="12" text-anchor="middle" x="484.99999999999994" y="243.30246913580248">1173</text><text fill="white" font-size="12" text-anchor="middle" transform="rotate(-45,484.99999999999994,570)" x="484.99999999999994" y="570">2025-06-08</text><rect fill="#4DD2FF" height="284.72222222222223" width="30" x="547.2727272727273" y="265.27777777777777" /><text fill="white" font-size="12" text-anchor="middle" x="562.2727272727273" y="260.27777777777777">1107</text><text fill="white" font-size="12" text-anchor="middle" transform="rotate(-45,562.2727272727273,570)" x="562.2727272727273" y="570">2025-06-15</text><rect fill="#4DD2FF" height="323.55967078189303" width="30" x="624.5454545454545" y="226.44032921810697" /><text fill="white" font-size="12" text-anchor="middle" x="639.5454545454545" y="221.44032921810697">1258</text><text fill="white" font-size="12" text-anchor="middle" transform="rotate(-45,639.5454545454545,570)" x="639.5454545454545" y="570">2025-06-22</text><rect fill="#4DD2FF" height="211.41975308641975" width="30" x="701.8181818181818" y="338.58024691358025" /><text fill="white" font-size="12" text-anchor="middle" x="716.8181818181818" y="333.58024691358025">822</text><text fill="white" font-size="12" text-anchor="middle" transform="rotate(-45,716.8181818181818,570)" x="716.8181818181818" y="570">2025-06-29</text><rect fill="#4DD2FF" height="141.71810699588477" width="30" x="779.090909090909" y="408.2818930041152" /><text fill="white" font-size="12" text-anchor="middle" x="794.090909090909" y="403.2818930041152">551</text><text fill="white" font-size="12" text-anchor="middle" transform="rotate(-45,794.090909090909,570)" x="794.090909090909" y="570">2025-07-06</text><rect fill="#4DD2FF" height="284.72222222222223" width="30" x="856.3636363636363" y="265.27777777777777" /><text fill="white" font-size="12" text-anchor="middle" x="871.3636363636363" y="260.27777777777777">1107</text><text fill="white" font-size="12" text-anchor="middle" transform="rotate(-45,871.3636363636363,570)" x="871.3636363636363" y="570">2025-07-13</text><rect fill="#4DD2FF" height="355.9670781893004" width="30" x="933.6363636363635" y="194.03292181069958" /><text fill="white" font-size="12" text-anchor="middle" x="948.6363636363635" y="189.03292181069958">1384</text><text fill="white" font-size="12" text-anchor="middle" transform="rotate(-45,948.6363636363635,570)" x="948.6363636363635" y="570">2025-07-20</text><rect fill="#4DD2FF" height="96.19341563786008" width="30" x="1010.9090909090909" y="453.8065843621399" /><text fill="white" font-size="12" text-anchor="middle" x="1025.909090909091" y="448.8065843621399">374</text><text fill="white" font-size="12" text-anchor="middle" transform="rotate(-45,1025.909090909091,570)" x="1025.909090909091" y="570">2025-07-27</text><rect fill="#4DD2FF" height="195.98765432098767" width="30" x="1088.1818181818182" y="354.01234567901236" /><text fill="white" font-size="12" text-anchor="middle" x="1103.1818181818182" y="349.01234567901236">762</text><text fill="white" font-size="12" text-anchor="middle" transform="rotate(-45,1103.1818181818182,570)" x="1103.1818181818182" y="570">2025-08-03</text><rect fill="#4DD2FF" height="217.33539094650206" width="30" x="1165.4545454545455" y="332.66460905349794" /><text fill="white" font-size="12" text-anchor="middle" x="1180.4545454545455" y="327.66460905349794">845</text><text fill="white" font-size="12" text-anchor="middle" transform="rotate(-45,1180.4545454545455,570)" x="1180.4545454545455" y="570">2025-08-10</text><rect fill="#4DD2FF" height="224.53703703703704" width="30" x="1242.7272727272727" y="325.46296296296293" /><text fill="white" font-size="12" text-anchor="middle" x="1257.7272727272727" y="320.46296296296293">873</text><text fill="white" font-size="12" text-anchor="middle" transform="rotate(-45,1257.7272727272727,570)" x="1257.7272727272727" y="570">2025-08-17</text><rect fill="#4DD2FF" height="153.54938271604937" width="30" x="1320.0" y="396.45061728395063" /><text fill="white" font-size="12" text-anchor="middle" x="1335.0" y="391.45061728395063">597</text><text fill="white" font-size="12" text-anchor="middle" transform="rotate(-45,1335.0,570)" x="1335.0" y="570">2025-08-24</text><rect fill="#4DD2FF" height="180.0411522633745" width="30" x="1397.2727272727273" y="369.9588477366255" /><text fill="white" font-size="12" text-anchor="middle" x="1412.2727272727273" y="364.9588477366255">700</text><text fill="white" font-size="12" text-anchor="middle" transform="rotate(-45,1412.2727272727273,570)" x="1412.2727272727273" y="570">2025-08-31</text><rect fill="#4DD2FF" height="210.13374485596708" width="30" x="1474.5454545454545" y="339.86625514403295" /><text fill="white" font-size="12" text-anchor="middle" x="1489.5454545454545" y="334.86625514403295">817</text><text fill="white" font-size="12" text-anchor="middle" transform="rotate(-45,1489.5454545454545,570)" x="1489.5454545454545" y="570">2025-09-07</text><rect fill="#4DD2FF" height="237.13991769547323" width="30" x="1551.8181818181818" y="312.86008230452677" /><text fill="white" font-size="12" text-anchor="middle" x="1566.8181818181818" y="307.86008230452677">922</text><text fill="white" font-size="12" text-anchor="middle" transform="rotate(-45,1566.8181818181818,570)" x="1566.8181818181818" y="570">2025-09-14</text><rect fill="#4DD2FF" height="137.08847736625515" width="30" x="1629.090909090909" y="412.9115226337449" /><text fill="white" font-size="12" text-anchor="middle" x="1644.090909090909" y="407.9115226337449">533</text><text fill="white" font-size="12" text-anchor="middle" transform="rotate(-45,1644.090909090909,570)" x="1644.090909090909" y="570">2025-09-21</text><rect fill="#4DD2FF" height="160.49382716049382" width="30" x="1706.3636363636363" y="389.5061728395062" /><text fill="white" font-size="12" text-anchor="middle" x="1721.3636363636363" y="384.5061728395062">624</text><text fill="white" font-size="12" text-anchor="middle" transform="rotate(-45,1721.3636363636363,570)" x="1721.3636363636363" y="570">2025-09-28</text><line stroke="white" x1="60" x2="60" y1="50" y2="550" /><line stroke="white" x1="60" x2="1760" y1="550" y2="550" /></svg>