<?xml version="1.0" encoding="utf-8" ?>
<svg baseProfile="full" height="600" version="1.1" width="1800" xmlns="http://www.w3.org/2000/svg" xmlns:ev="http://www.w3.org/2001/xml-events" xmlns:xlink="http://www.w3.org/1999/xlink"><defs /><rect fill="#222222" height="100%" width="100%" x="0" y="0" /><text fill="white" font-size="20" text-anchor="middle" x="900.0" y="30">Weekly Totals (Last 52 Weeks)</text><rect fill="#4DD2FF" height="67.12962962962963" width="30" x="64.31818181818181" y="482.8703703703704" /><text fill="white" font-size="12" text-anchor="middle" x="79.31818181818181" y="477.8703703703704">261</text><text fill="white" font-size="12" text-anchor="middle" transform="rotate(-45,79.31818181818181,570)" x="79.31818181818181" y="570">2025-05-04</text><rect fill="#4DD2FF" height="500.0" width="30" x="102.95454545454544" y="50.0" /><text fill="white" font-size="12" text-anchor="middle" x="117.95454545454544" y="45.0">1944</text><text fill="white" font-size="12" text-anchor="middle" transform="rotate(-45,117.95454545454544,570)" x="117.95454545454544" y="570">2025-05-11</text><rect fill="#4DD2FF" height="380.65843621399176" width="30" x="141.59090909090907" y="169.34156378600824" /><text fill="white" font-size="12" text-anchor="middle" x="156.59090909090907" y="164.34156378600824">1480</text><text fill="white" font-size="12" text-anchor="middle" transform="rotate(-45,156.59090909090907,570)" x="156.59090909090907" y="570">2025-05-18</text><rect fill="#4DD2FF" height="450.61728395061726" width="30" x="180.22727272727272" y="99.38271604938274" /><text fill="white" font-size="12" text-anchor="middle" x="195.22727272727272" y="94.38271604938274">1752</text><text fill="white" font-size="12" text-anchor="middle" transform="rotate(-45,195.22727272727272,570)" x="195.22727272727272" y="570">2025-05-25</text><rect fill="#4DD2FF" height="307.61316872427983" width="30" x="218.86363636363635" y="242.38683127572017" /><text fill="white" font-size="12" text-anchor="middle" x="233.86363636363635" y="237.38683127572017">1196</text><text fill="white" font-size="12" text-anchor="middle" transform="rotate(-45,233.86363636363635,570)" x="233.86363636363635" y="570">2025-06-01</text><rect fill="#4DD2FF" height="301.6975308641975" width="30" x="257.5" y="248.30246913580248" /><text fill="white" font-size="12" text-anchor="middle" x="272.5" y="243.30246913580248">1173</text><text fill="white" font-size="12" text-anchor="middle" transform="rotate(-45,272.5,570)" x="272.5" y="570">2025-06-08</text><rect fill="#4DD2FF" height="284.72222222222223" width="30" x="296.1363636363636" y="265.27777777777777" /><text fill="white" font-size="12" text-anchor="middle" x="311.1363636363636" y="260.27777777777777">1107</text><text fill="white" font-size="12" text-anchor="middle" transform="rotate(-45,311.1363636363636,570)" x="311.1363636363636" y="570">2025-06-15</text><rect fill="#4DD2FF" height="323.55967078189303" width="30" x="334.77272727272725" y="226.44032921810697" /><text fill="white" font-size="12" text-anchor="middle" x="349.77272727272725" y="221.44032921810697">1258</text><text fill="white" font-size="12" text-anchor="middle" transform="rotate(-45,349.77272727272725,570)" x="349.77272727272725" y="570">2025-06-22</text><rect fill="#4DD2FF" height="211.41975308641975" width="30" x="373.4090909090909" y="338.58024691358025" /><text fill="white" font-size="12" text-anchor="middle" x="388.4090909090909" y="333.58024691358025">822</text><text fill="white" font-size="12" text-anchor="middle" transform="rotate(-45,388.4090909090909,570)" x="388.4090909090909" y="570">2025-06-29</text><rect fill="#4DD2FF" height="141.71810699588477" width="30" x="412.0454545454545" y="408.2818930041152" /><text fill="white" font-size="12" text-anchor="middle" x="427.0454545454545" y="403.2818930041152">551</text><text fill="white" font-size="12" text-anchor="middle" transform="rotate(-45,427.0454545454545,570)" x="427.0454545454545" y="570">2025-07-06</text><rect fill="#4DD2FF" height="284.72222222222223" width="30" x="450.68181818181813" y="265.27777777777777" /><text fill="white" font-size="12" text-anchor="middle" x="465.68181818181813" y="260.27777777777777">1107</text><text fill="white" font-size="12" text-anchor="middle" transform="rotate(-45,465.68181818181813,570)" x="465.68181818181813" y="570">2025-07-13</text><rect fill="#4DD2FF" height="355.9670781893004" width="30" x="489.31818181818176" y="194.03292181069958" /><text fill="white" font-size="12" text-anchor="middle" x="504.31818181818176" y="189.03292181069958">1384</text><text fill="white" font-size="12" text-anchor="middle" transform="rotate(-45,504.31818181818176,570)" x="504.31818181818176" y="570">2025-07-20</text><rect fill="#4DD2FF" height="96.19341563786008" width="30" x="527.9545454545455" y="453.8065843621399" /><text fill="white" font-size="12" text-anchor="middle" x="542.9545454545455" y="448.8065843621399">374</text><text fill="white" font-size="12" text-anchor="middle" transform="rotate(-45,542.9545454545455,570)" x="542.9545454545455" y="570">2025-07-27</text><rect fill="#4DD2FF" height="195.98765432098767" width="30" x="566.5909090909091" y="354.01234567901236" /><text fill="white" font-size="12" text-anchor="middle" x="581.5909090909091" y="349.01234567901236">762</text><text fill="white" font-size="12" text-anchor="middle" transform="rotate(-45,581.5909090909091,570)" x="581.5909090909091" y="570">2025-08-03</text><rect fill="#4DD2FF" height="217.33539094650206" width="30" x="605.2272727272727" y="332.66460905349794" /><text fill="white" font-size="12" text-anchor="middle" x="620.2272727272727" y="327.66460905349794">845</text><text fill="white" font-size="12" text-anchor="middle" transform="rotate(-45,620.2272727272727,570)" x="620.2272727272727" y="570">2025-08-10</text><rect fill="#4DD2FF" height="224.53703703703704" width="30" x="643.8636363636364" y="325.46296296296293" /><text fill="white" font-size="12" text-anchor="middle" x="658.8636363636364" y="320.46296296296293">873</text><text fill="white" font-size="12" text-anchor="middle" transform="rotate(-45,658.8636363636364,570)" x="658.8636363636364" y="570">2025-08-17</text><rect fill="#4DD2FF" height="153.54938271604937" width="30" x="682.5" y="396.45061728395063" /><text fill="white" font-size="12" text-anchor="middle" x="697.5" y="391.45061728395063">597</text><text fill="white" font-size="12" text-anchor="middle" transform="rotate(-45,697.5,570)" x="697.5" y="570">2025-08-24</text><rect fill="#4DD2FF" height="180.0411522633745" width="30" x="721.1363636363636" y="369.9588477366255" /><text fill="white" font-size="12" text-anchor="middle" x="736.1363636363636" y="364.9588477366255">700</text><text fill="white" font-size="12" text-anchor="middle" transform="rotate(-45,736.1363636363636,570)" x="736.1363636363636" y="570">2025-08-31</text><rect fill="#4DD2FF" height="210.13374485596708" width="30" x="759.7727272727273" y="339.86625514403295" /><text fill="white" font-size="12" text-anchor="middle" x="774.7727272727273" y="334.86625514403295">817</text><text fill="white" font-size="12" text-anchor="middle" transform="rotate(-45,774.7727272727273,570)" x="774.7727272727273" y="570">2025-09-07</text><rect fill="#4DD2FF" height="237.13991769547323" width="30" x="798.4090909090909" y="312.86008230452677" /><text fill="white" font-size="12" text-anchor="middle" x="813.4090909090909" y="307.86008230452677">922</text><text fill="white" font-size="12" text-anchor="middle" transform="rotate(-45,813.4090909090909,570)" x="813.4090909090909" y="570">2025-09-14</text><rect fill="#4DD2FF" height="137.08847736625515" width="30" x="837.0454545454545" y="412.9115226337449" /><text fill="white" font-size="12" text-anchor="middle" x="852.0454545454545" y="407.9115226337449">533</text><text fill="white" font-size="12" text-anchor="middle" transform="rotate(-45,852.0454545454545,570)" x="852.0454545454545" y="570">2025-09-21</text><rect fill="#4DD2FF" height="160.49382716049382" width="30" x="875.6818181818181" y="389.5061728395062" /><text fill="white" font-size="12" text-anchor="middle" x="890.6818181818181" y="384.5061728395062">624</text><text fill="white" font-size="12" text-anchor="middle" transform="rotate(-45,890.6818181818181,570)" x="890.6818181818181" y="570">2025-09-28</text><rect fill="#4DD2FF" height="197.53086419753086" width="30" x="914.3181818181818" y="352.46913580246917" /><text fill="white" font-size="12" text-anchor="middle" x="929.3181818181818" y="347.46913580246917">768</text><text fill="white" font-size="12" text-anchor="middle" transform="rotate(-45,929.3181818181818,570)" x="929.3181818181818" y="570">2025-10-05</text><rect fill="#4DD2FF" height="303.24074074074076" width="30" x="952.9545454545454" y="246.75925925925924" /><text fill="white" font-size="12" text-anchor="middle" x="967.9545454545454" y="241.75925925925924">1179</text><text fill="white" font-size="12" text-anchor="middle" transform="rotate(-45,967.9545454545454,570)" x="967.9545454545454" y="570">2025-10-12</text><rect fill="#4DD2FF" height="266.7181069958848" width="30" x="991.5909090909091" y="283.2818930041152" /><text fill="white" font-size="12" text-anchor="middle" x="1006.5909090909091" y="278.2818930041152">1037</text><text fill="white" font-size="12" text-anchor="middle" transform="rotate(-45,1006.5909090909091,570)" x="1006.5909090909091" y="570">2025-10-19</text><rect fill="#4DD2FF" height="184.15637860082305" width="30" x="1030.2272727272727" y="365.843621399177" /><text fill="white" font-size="12" text-anchor="middle" x="1045.2272727272727" y="360.843621399177">716</text><text fill="white" font-size="12" text-anchor="middle" transform="rotate(-45,1045.2272727272727,570)" x="1045.2272727272727" y="570">2025-10-26</text><rect fill="#4DD2FF" height="211.41975308641975" width="30" x="1068.8636363636363" y="338.58024691358025" /><text fill="white" font-size="12" text-anchor="middle" x="1083.8636363636363" y="333.58024691358025">822</text><text fill="white" font-size="12" text-anchor="middle" transform="rotate(-45,1083.8636363636363,570)" x="1083.8636363636363" y="570">2025-11-02</text><rect fill="#4DD2FF" height="122.94238683127571" width="30" x="1107.4999999999998" y="427.0576131687243" /><text fill="white" font-size="12" text-anchor="middle" x="1122.4999999999998" y="422.0576131687243">478</text><text fill="white" font-size="12" text-anchor="middle" transform="rotate(-45,1122.4999999999998,570)" x="1122.4999999999998" y="570">2025-11-09</text><rect fill="#4DD2FF" height="307.8703703703703" width="30" x="1146.1363636363635" y="242.12962962962968" /><text fill="white" font-size="12" text-anchor="middle" x="1161.1363636363635" y="237.12962962962968">1197</text><text fill="white" font-size="12" text-anchor="middle" transform="rotate(-45,1161.1363636363635,570)" x="1161.1363636363635" y="570">2025-11-16</text><rect fill="#4DD2FF" height="10.2880658436214" width="30" x="1184.772727272727" y="539.7119341563786" /><text fill="white" font-size="12" text-anchor="middle" x="1199.772727272727" y="534.7119341563786">40</text><text fill="white" font-size="12" text-anchor="middle" transform="rotate(-45,1199.772727272727,570)" x="1199.772727272727" y="570">2025-11-23</text><rect fill="#4DD2FF" height="111.88271604938271" width="30" x="1223.4090909090908" y="438.1172839506173" /><text fill="white" font-size="12" text-anchor="middle" x="1238.4090909090908" y="433.1172839506173">435</text><text fill="white" font-size="12" text-anchor="middle" transform="rotate(-45,1238.4090909090908,570)" x="1238.4090909090908" y="570">2025-11-30</text><rect fill="#4DD2FF" height="66.61522633744856" width="30" x="1262.0454545454543" y="483.3847736625514" /><text fill="white" font-size="12" text-anchor="middle" x="1277.0454545454543" y="478.3847736625514">259</text><text fill="white" font-size="12" text-anchor="middle" transform="rotate(-45,1277.0454545454543,570)" x="1277.0454545454543" y="570">2025-12-07</text><rect fill="#4DD2FF" height="342.5925925925926" width="30" x="1300.681818181818" y="207.4074074074074" /><text fill="white" font-size="12" text-anchor="middle" x="1315.681818181818" y="202.4074074074074">1332</text><text fill="white" font-size="12" text-anchor="middle" transform="rotate(-45,1315.681818181818,570)" x="1315.681818181818" y="570">2025-12-14</text><rect fill="#4DD2FF" height="326.13168724279836" width="30" x="1339.3181818181818" y="223.86831275720164" /><text fill="white" font-size="12" text-anchor="middle" x="1354.3181818181818" y="218.86831275720164">1268</text><text fill="white" font-size="12" text-anchor="middle" transform="rotate(-45,1354.3181818181818,570)" x="1354.3181818181818" y="570">2025-12-21</text><rect fill="#4DD2FF" height="369.34156378600824" width="30" x="1377.9545454545453" y="180.65843621399176" /><text fill="white" font-size="12" text-anchor="middle" x="1392.9545454545453" y="175.65843621399176">1436</text><text fill="white" font-size="12" text-anchor="middle" transform="rotate(-45,1392.9545454545453,570)" x="1392.9545454545453" y="570">2025-12-28</text><rect fill="#4DD2FF" height="359.82510288065845" width="30" x="1416.590909090909" y="190.17489711934155" /><text fill="white" font-size="12" text-anchor="middle" x="1431.590909090909" y="185.17489711934155">1399</text><text fill="white" font-size="12" text-anchor="middle" transform="rotate(-45,1431.590909090909,570)" x="1431.590909090909" y="570">2026-01-04</text><rect fill="#4DD2FF" height="382.45884773662556" width="30" x="1455.2272727272725" y="167.54115226337444" /><text fill="white" font-size="12" text-anchor="middle" x="1470.2272727272725" y="162.54115226337444">1487</text><text fill="white" font-size="12" text-anchor="middle" transform="rotate(-45,1470.2272727272725,570)" x="1470.2272727272725" y="570">2026-01-11</text><rect fill="#4DD2FF" height="336.1625514403292" width="30" x="1493.8636363636363" y="213.8374485596708" /><text fill="white" font-size="12" text-anchor="middle" x="1508.8636363636363" y="208.8374485596708">1307</text><text fill="white" font-size="12" text-anchor="middle" transform="rotate(-45,1508.8636363636363,570)" x="1508.8636363636363" y="570">2026-01-18</text><rect fill="#4DD2FF" height="331.79012345679007" width="30" x="1532.4999999999998" y="218.20987654320993" /><text fill="white" font-size="12" text-anchor="middle" x="1547.4999999999998" y="213.20987654320993">1290</text><text fill="white" font-size="12" text-anchor="middle" transform="rotate(-45,1547.4999999999998,570)" x="1547.4999999999998" y="570">2026-01-25</text><rect fill="#4DD2FF" height="314.5576131687243" width="30" x="1571.1363636363635" y="235.4423868312757" /><text fill="white" font-size="12" text-anchor="middle" x="1586.1363636363635" y="230.4423868312757">1223</text><text fill="white" font-size="12" text-anchor="middle" transform="rotate(-45,1586.1363636363635,570)" x="1586.1363636363635" y="570">2026-02-01</text><rect fill="#4DD2FF" height="366.51234567901236" width="30" x="1609.772727272727" y="183.48765432098764" /><text fill="white" font-size="12" text-anchor="middle" x="1624.772727272727" y="178.48765432098764">1425</text><text fill="white" font-size="12" text-anchor="middle" transform="rotate(-45,1624.772727272727,570)" x="1624.772727272727" y="570">2026-02-08</text><rect fill="#4DD2FF" height="280.3497942386831" width="30" x="1648.4090909090908" y="269.6502057613169" /><text fill="white" font-size="12" text-anchor="middle" x="1663.4090909090908" y="264.6502057613169">1090</text><text fill="white" font-size="12" text-anchor="middle" transform="rotate(-45,1663.4090909090908,570)" x="1663.4090909090908" y="570">2026-02-15</text><rect fill="#4DD2FF" height="372.1707818930041" width="30" x="1687.0454545454543" y="177.82921810699588" /><text fill="white" font-size="12" text-anchor="middle" x="1702.0454545454543" y="172.82921810699588">1447</text><text fill="white" font-size="12" text-anchor="middle" transform="rotate(-45,1702.0454545454543,570)" x="1702.0454545454543" y="570">2026-02-22</text><rect fill="#4DD2FF" height="174.3827160493827" width="30" x="1725.681818181818" y="375.6172839506173" /><text fill="white" font-size="12" text-anchor="middle" x="1740.681818181818" y="370.6172839506173">678</text><text fill="white" font-size="12" text-anchor="middle" transform="rotate(-45,1740.681818181818,570)" x="1740.681818181818" y="570">2026-03-01</text><line stroke="white" x1="60" x2="60" y1="50" y2="550" /><line stroke="white" x1="60" x2="1760" y1="550" y2="550" /></svg>