<?xml version="1.0" encoding="utf-8" ?>
<svg baseProfile="full" height="600" version="1.1" width="1800" xmlns="http://www.w3.org/2000/svg" xmlns:ev="http://www.w3.org/2001/xml-events" xmlns:xlink="http://www.w3.org/1999/xlink"><defs /><rect fill="#222222" height="100%" width="100%" x="0" y="0" /><text fill="white" font-size="20" text-anchor="middle" x="900.0" y="30">Weekly Totals (Last 52 Weeks)</text><rect fill="#4DD2FF" height="67.12962962962963" width="30" x="63.08510638297872" y="482.8703703703704" /><text fill="white" font-size="12" text-anchor="middle" x="78.08510638297872" y="477.8703703703704">261</text><text fill="white" font-size="12" text-anchor="middle" transform="rotate(-45,78.08510638297872,570)" x="78.08510638297872" y="570">2025-05-04</text><rect fill="#4DD2FF" height="500.0" width="30" x="99.25531914893617" y="50.0" /><text fill="white" font-size="12" text-anchor="middle" x="114.25531914893617" y="45.0">1944</text><text fill="white" font-size="12" text-anchor="middle" transform="rotate(-45,114.25531914893617,570)" x="114.25531914893617" y="570">2025-05-11</text><rect fill="#4DD2FF" height="380.65843621399176" width="30" x="135.4255319148936" y="169.34156378600824" /><text fill="white" font-size="12" text-anchor="middle" x="150.4255319148936" y="164.34156378600824">1480</text><text fill="white" font-size="12" text-anchor="middle" transform="rotate(-45,150.4255319148936,570)" x="150.4255319148936" y="570">2025-05-18</text><rect fill="#4DD2FF" height="450.61728395061726" width="30" x="171.59574468085106" y="99.38271604938274" /><text fill="white" font-size="12" text-anchor="middle" x="186.59574468085106" y="94.38271604938274">1752</text><text fill="white" font-size="12" text-anchor="middle" transform="rotate(-45,186.59574468085106,570)" x="186.59574468085106" y="570">2025-05-25</text><rect fill="#4DD2FF" height="307.61316872427983" width="30" x="207.7659574468085" y="242.38683127572017" /><text fill="white" font-size="12" text-anchor="middle" x="222.7659574468085" y="237.38683127572017">1196</text><text fill="white" font-size="12" text-anchor="middle" transform="rotate(-45,222.7659574468085,570)" x="222.7659574468085" y="570">2025-06-01</text><rect fill="#4DD2FF" height="301.6975308641975" width="30" x="243.93617021276594" y="248.30246913580248" /><text fill="white" font-size="12" text-anchor="middle" x="258.93617021276594" y="243.30246913580248">1173</text><text fill="white" font-size="12" text-anchor="middle" transform="rotate(-45,258.93617021276594,570)" x="258.93617021276594" y="570">2025-06-08</text><rect fill="#4DD2FF" height="284.72222222222223" width="30" x="280.1063829787234" y="265.27777777777777" /><text fill="white" font-size="12" text-anchor="middle" x="295.1063829787234" y="260.27777777777777">1107</text><text fill="white" font-size="12" text-anchor="middle" transform="rotate(-45,295.1063829787234,570)" x="295.1063829787234" y="570">2025-06-15</text><rect fill="#4DD2FF" height="323.55967078189303" width="30" x="316.27659574468083" y="226.44032921810697" /><text fill="white" font-size="12" text-anchor="middle" x="331.27659574468083" y="221.44032921810697">1258</text><text fill="white" font-size="12" text-anchor="middle" transform="rotate(-45,331.27659574468083,570)" x="331.27659574468083" y="570">2025-06-22</text><rect fill="#4DD2FF" height="211.41975308641975" width="30" x="352.4468085106383" y="338.58024691358025" /><text fill="white" font-size="12" text-anchor="middle" x="367.4468085106383" y="333.58024691358025">822</text><text fill="white" font-size="12" text-anchor="middle" transform="rotate(-45,367.4468085106383,570)" x="367.4468085106383" y="570">2025-06-29</text><rect fill="#4DD2FF" height="141.71810699588477" width="30" x="388.6170212765957" y="408.2818930041152" /><text fill="white" font-size="12" text-anchor="middle" x="403.6170212765957" y="403.2818930041152">551</text><text fill="white" font-size="12" text-anchor="middle" transform="rotate(-45,403.6170212765957,570)" x="403.6170212765957" y="570">2025-07-06</text><rect fill="#4DD2FF" height="284.72222222222223" width="30" x="424.78723404255317" y="265.27777777777777" /><text fill="white" font-size="12" text-anchor="middle" x="439.78723404255317" y="260.27777777777777">1107</text><text fill="white" font-size="12" text-anchor="middle" transform="rotate(-45,439.78723404255317,570)" x="439.78723404255317" y="570">2025-07-13</text><rect fill="#4DD2FF" height="355.9670781893004" width="30" x="460.9574468085106" y="194.03292181069958" /><text fill="white" font-size="12" text-anchor="middle" x="475.9574468085106" y="189.03292181069958">1384</text><text fill="white" font-size="12" text-anchor="middle" transform="rotate(-45,475.9574468085106,570)" x="475.9574468085106" y="570">2025-07-20</text><rect fill="#4DD2FF" height="96.19341563786008" width="30" x="497.12765957446805" y="453.8065843621399" /><text fill="white" font-size="12" text-anchor="middle" x="512.127659574468" y="448.8065843621399">374</text><text fill="white" font-size="12" text-anchor="middle" transform="rotate(-45,512.127659574468,570)" x="512.127659574468" y="570">2025-07-27</text><rect fill="#4DD2FF" height="195.98765432098767" width="30" x="533.2978723404256" y="354.01234567901236" /><text fill="white" font-size="12" text-anchor="middle" x="548.2978723404256" y="349.01234567901236">762</text><text fill="white" font-size="12" text-anchor="middle" transform="rotate(-45,548.2978723404256,570)" x="548.2978723404256" y="570">2025-08-03</text><rect fill="#4DD2FF" height="217.33539094650206" width="30" x="569.4680851063829" y="332.66460905349794" /><text fill="white" font-size="12" text-anchor="middle" x="584.4680851063829" y="327.66460905349794">845</text><text fill="white" font-size="12" text-anchor="middle" transform="rotate(-45,584.4680851063829,570)" x="584.4680851063829" y="570">2025-08-10</text><rect fill="#4DD2FF" height="224.53703703703704" width="30" x="605.6382978723404" y="325.46296296296293" /><text fill="white" font-size="12" text-anchor="middle" x="620.6382978723404" y="320.46296296296293">873</text><text fill="white" font-size="12" text-anchor="middle" transform="rotate(-45,620.6382978723404,570)" x="620.6382978723404" y="570">2025-08-17</text><rect fill="#4DD2FF" height="153.54938271604937" width="30" x="641.8085106382978" y="396.45061728395063" /><text fill="white" font-size="12" text-anchor="middle" x="656.8085106382978" y="391.45061728395063">597</text><text fill="white" font-size="12" text-anchor="middle" transform="rotate(-45,656.8085106382978,570)" x="656.8085106382978" y="570">2025-08-24</text><rect fill="#4DD2FF" height="180.0411522633745" width="30" x="677.9787234042553" y="369.9588477366255" /><text fill="white" font-size="12" text-anchor="middle" x="692.9787234042553" y="364.9588477366255">700</text><text fill="white" font-size="12" text-anchor="middle" transform="rotate(-45,692.9787234042553,570)" x="692.9787234042553" y="570">2025-08-31</text><rect fill="#4DD2FF" height="210.13374485596708" width="30" x="714.1489361702127" y="339.86625514403295" /><text fill="white" font-size="12" text-anchor="middle" x="729.1489361702127" y="334.86625514403295">817</text><text fill="white" font-size="12" text-anchor="middle" transform="rotate(-45,729.1489361702127,570)" x="729.1489361702127" y="570">2025-09-07</text><rect fill="#4DD2FF" height="237.13991769547323" width="30" x="750.3191489361702" y="312.86008230452677" /><text fill="white" font-size="12" text-anchor="middle" x="765.3191489361702" y="307.86008230452677">922</text><text fill="white" font-size="12" text-anchor="middle" transform="rotate(-45,765.3191489361702,570)" x="765.3191489361702" y="570">2025-09-14</text><rect fill="#4DD2FF" height="137.08847736625515" width="30" x="786.4893617021276" y="412.9115226337449" /><text fill="white" font-size="12" text-anchor="middle" x="801.4893617021276" y="407.9115226337449">533</text><text fill="white" font-size="12" text-anchor="middle" transform="rotate(-45,801.4893617021276,570)" x="801.4893617021276" y="570">2025-09-21</text><rect fill="#4DD2FF" height="160.49382716049382" width="30" x="822.6595744680851" y="389.5061728395062" /><text fill="white" font-size="12" text-anchor="middle" x="837.6595744680851" y="384.5061728395062">624</text><text fill="white" font-size="12" text-anchor="middle" transform="rotate(-45,837.6595744680851,570)" x="837.6595744680851" y="570">2025-09-28</text><rect fill="#4DD2FF" height="197.53086419753086" width="30" x="858.8297872340424" y="352.46913580246917" /><text fill="white" font-size="12" text-anchor="middle" x="873.8297872340424" y="347.46913580246917">768</text><text fill="white" font-size="12" text-anchor="middle" transform="rotate(-45,873.8297872340424,570)" x="873.8297872340424" y="570">2025-10-05</text><rect fill="#4DD2FF" height="303.24074074074076" width="30" x="895.0" y="246.75925925925924" /><text fill="white" font-size="12" text-anchor="middle" x="910.0" y="241.75925925925924">1179</text><text fill="white" font-size="12" text-anchor="middle" transform="rotate(-45,910.0,570)" x="910.0" y="570">2025-10-12</text><rect fill="#4DD2FF" height="266.7181069958848" width="30" x="931.1702127659573" y="283.2818930041152" /><text fill="white" font-size="12" text-anchor="middle" x="946.1702127659573" y="278.2818930041152">1037</text><text fill="white" font-size="12" text-anchor="middle" transform="rotate(-45,946.1702127659573,570)" x="946.1702127659573" y="570">2025-10-19</text><rect fill="#4DD2FF" height="184.15637860082305" width="30" x="967.3404255319149" y="365.843621399177" /><text fill="white" font-size="12" text-anchor="middle" x="982.3404255319149" y="360.843621399177">716</text><text fill="white" font-size="12" text-anchor="middle" transform="rotate(-45,982.3404255319149,570)" x="982.3404255319149" y="570">2025-10-26</text><rect fill="#4DD2FF" height="211.41975308641975" width="30" x="1003.5106382978722" y="338.58024691358025" /><text fill="white" font-size="12" text-anchor="middle" x="1018.5106382978722" y="333.58024691358025">822</text><text fill="white" font-size="12" text-anchor="middle" transform="rotate(-45,1018.5106382978722,570)" x="1018.5106382978722" y="570">2025-11-02</text><rect fill="#4DD2FF" height="122.94238683127571" width="30" x="1039.6808510638298" y="427.0576131687243" /><text fill="white" font-size="12" text-anchor="middle" x="1054.6808510638298" y="422.0576131687243">478</text><text fill="white" font-size="12" text-anchor="middle" transform="rotate(-45,1054.6808510638298,570)" x="1054.6808510638298" y="570">2025-11-09</text><rect fill="#4DD2FF" height="307.8703703703703" width="30" x="1075.851063829787" y="242.12962962962968" /><text fill="white" font-size="12" text-anchor="middle" x="1090.851063829787" y="237.12962962962968">1197</text><text fill="white" font-size="12" text-anchor="middle" transform="rotate(-45,1090.851063829787,570)" x="1090.851063829787" y="570">2025-11-16</text><rect fill="#4DD2FF" height="10.2880658436214" width="30" x="1112.0212765957444" y="539.7119341563786" /><text fill="white" font-size="12" text-anchor="middle" x="1127.0212765957444" y="534.7119341563786">40</text><text fill="white" font-size="12" text-anchor="middle" transform="rotate(-45,1127.0212765957444,570)" x="1127.0212765957444" y="570">2025-11-23</text><rect fill="#4DD2FF" height="111.88271604938271" width="30" x="1148.191489361702" y="438.1172839506173" /><text fill="white" font-size="12" text-anchor="middle" x="1163.191489361702" y="433.1172839506173">435</text><text fill="white" font-size="12" text-anchor="middle" transform="rotate(-45,1163.191489361702,570)" x="1163.191489361702" y="570">2025-11-30</text><rect fill="#4DD2FF" height="66.61522633744856" width="30" x="1184.3617021276596" y="483.3847736625514" /><text fill="white" font-size="12" text-anchor="middle" x="1199.3617021276596" y="478.3847736625514">259</text><text fill="white" font-size="12" text-anchor="middle" transform="rotate(-45,1199.3617021276596,570)" x="1199.3617021276596" y="570">2025-12-07</text><rect fill="#4DD2FF" height="342.5925925925926" width="30" x="1220.5319148936169" y="207.4074074074074" /><text fill="white" font-size="12" text-anchor="middle" x="1235.5319148936169" y="202.4074074074074">1332</text><text fill="white" font-size="12" text-anchor="middle" transform="rotate(-45,1235.5319148936169,570)" x="1235.5319148936169" y="570">2025-12-14</text><rect fill="#4DD2FF" height="326.13168724279836" width="30" x="1256.7021276595742" y="223.86831275720164" /><text fill="white" font-size="12" text-anchor="middle" x="1271.7021276595742" y="218.86831275720164">1268</text><text fill="white" font-size="12" text-anchor="middle" transform="rotate(-45,1271.7021276595742,570)" x="1271.7021276595742" y="570">2025-12-21</text><rect fill="#4DD2FF" height="369.34156378600824" width="30" x="1292.8723404255318" y="180.65843621399176" /><text fill="white" font-size="12" text-anchor="middle" x="1307.8723404255318" y="175.65843621399176">1436</text><text fill="white" font-size="12" text-anchor="middle" transform="rotate(-45,1307.8723404255318,570)" x="1307.8723404255318" y="570">2025-12-28</text><rect fill="#4DD2FF" height="359.82510288065845" width="30" x="1329.0425531914893" y="190.17489711934155" /><text fill="white" font-size="12" text-anchor="middle" x="1344.0425531914893" y="185.17489711934155">1399</text><text fill="white" font-size="12" text-anchor="middle" transform="rotate(-45,1344.0425531914893,570)" x="1344.0425531914893" y="570">2026-01-04</text><rect fill="#4DD2FF" height="382.45884773662556" width="30" x="1365.2127659574467" y="167.54115226337444" /><text fill="white" font-size="12" text-anchor="middle" x="1380.2127659574467" y="162.54115226337444">1487</text><text fill="white" font-size="12" text-anchor="middle" transform="rotate(-45,1380.2127659574467,570)" x="1380.2127659574467" y="570">2026-01-11</text><rect fill="#4DD2FF" height="336.1625514403292" width="30" x="1401.382978723404" y="213.8374485596708" /><text fill="white" font-size="12" text-anchor="middle" x="1416.382978723404" y="208.8374485596708">1307</text><text fill="white" font-size="12" text-anchor="middle" transform="rotate(-45,1416.382978723404,570)" x="1416.382978723404" y="570">2026-01-18</text><rect fill="#4DD2FF" height="331.79012345679007" width="30" x="1437.5531914893616" y="218.20987654320993" /><text fill="white" font-size="12" text-anchor="middle" x="1452.5531914893616" y="213.20987654320993">1290</text><text fill="white" font-size="12" text-anchor="middle" transform="rotate(-45,1452.5531914893616,570)" x="1452.5531914893616" y="570">2026-01-25</text><rect fill="#4DD2FF" height="314.5576131687243" width="30" x="1473.723404255319" y="235.4423868312757" /><text fill="white" font-size="12" text-anchor="middle" x="1488.723404255319" y="230.4423868312757">1223</text><text fill="white" font-size="12" text-anchor="middle" transform="rotate(-45,1488.723404255319,570)" x="1488.723404255319" y="570">2026-02-01</text><rect fill="#4DD2FF" height="366.51234567901236" width="30" x="1509.8936170212764" y="183.48765432098764" /><text fill="white" font-size="12" text-anchor="middle" x="1524.8936170212764" y="178.48765432098764">1425</text><text fill="white" font-size="12" text-anchor="middle" transform="rotate(-45,1524.8936170212764,570)" x="1524.8936170212764" y="570">2026-02-08</text><rect fill="#4DD2FF" height="280.3497942386831" width="30" x="1546.0638297872338" y="269.6502057613169" /><text fill="white" font-size="12" text-anchor="middle" x="1561.0638297872338" y="264.6502057613169">1090</text><text fill="white" font-size="12" text-anchor="middle" transform="rotate(-45,1561.0638297872338,570)" x="1561.0638297872338" y="570">2026-02-15</text><rect fill="#4DD2FF" height="372.1707818930041" width="30" x="1582.2340425531913" y="177.82921810699588" /><text fill="white" font-size="12" text-anchor="middle" x="1597.2340425531913" y="172.82921810699588">1447</text><text fill="white" font-size="12" text-anchor="middle" transform="rotate(-45,1597.2340425531913,570)" x="1597.2340425531913" y="570">2026-02-22</text><rect fill="#4DD2FF" height="309.1563786008231" width="30" x="1618.404255319149" y="240.84362139917693" /><text fill="white" font-size="12" text-anchor="middle" x="1633.404255319149" y="235.84362139917693">1202</text><text fill="white" font-size="12" text-anchor="middle" transform="rotate(-45,1633.404255319149,570)" x="1633.404255319149" y="570">2026-03-01</text><rect fill="#4DD2FF" height="209.619341563786" width="30" x="1654.5744680851062" y="340.380658436214" /><text fill="white" font-size="12" text-anchor="middle" x="1669.5744680851062" y="335.380658436214">815</text><text fill="white" font-size="12" text-anchor="middle" transform="rotate(-45,1669.5744680851062,570)" x="1669.5744680851062" y="570">2026-03-08</text><rect fill="#4DD2FF" height="139.6604938271605" width="30" x="1690.7446808510635" y="410.3395061728395" /><text fill="white" font-size="12" text-anchor="middle" x="1705.7446808510635" y="405.3395061728395">543</text><text fill="white" font-size="12" text-anchor="middle" transform="rotate(-45,1705.7446808510635,570)" x="1705.7446808510635" y="570">2026-03-15</text><rect fill="#4DD2FF" height="91.56378600823045" width="30" x="1726.914893617021" y="458.43621399176953" /><text fill="white" font-size="12" text-anchor="middle" x="1741.914893617021" y="453.43621399176953">356</text><text fill="white" font-size="12" text-anchor="middle" transform="rotate(-45,1741.914893617021,570)" x="1741.914893617021" y="570">2026-03-22</text><line stroke="white" x1="60" x2="60" y1="50" y2="550" /><line stroke="white" x1="60" x2="1760" y1="550" y2="550" /></svg>