<?xml version="1.0" encoding="utf-8" ?>
<svg baseProfile="full" height="600" version="1.1" width="1800" xmlns="http://www.w3.org/2000/svg" xmlns:ev="http://www.w3.org/2001/xml-events" xmlns:xlink="http://www.w3.org/1999/xlink"><defs /><rect fill="#222222" height="100%" width="100%" x="0" y="0" /><text fill="white" font-size="20" text-anchor="middle" x="900.0" y="30">Weekly Totals (Last 52 Weeks)</text><rect fill="#4DD2FF" height="67.12962962962963" width="30" x="70.0" y="482.8703703703704" /><text fill="white" font-size="12" text-anchor="middle" x="85.0" y="477.8703703703704">261</text><text fill="white" font-size="12" text-anchor="middle" transform="rotate(-45,85.0,570)" x="85.0" y="570">2025-05-04</text><rect fill="#4DD2FF" height="500.0" width="30" x="120.0" y="50.0" /><text fill="white" font-size="12" text-anchor="middle" x="135.0" y="45.0">1944</text><text fill="white" font-size="12" text-anchor="middle" transform="rotate(-45,135.0,570)" x="135.0" y="570">2025-05-11</text><rect fill="#4DD2FF" height="380.65843621399176" width="30" x="170.0" y="169.34156378600824" /><text fill="white" font-size="12" text-anchor="middle" x="185.0" y="164.34156378600824">1480</text><text fill="white" font-size="12" text-anchor="middle" transform="rotate(-45,185.0,570)" x="185.0" y="570">2025-05-18</text><rect fill="#4DD2FF" height="450.61728395061726" width="30" x="220.0" y="99.38271604938274" /><text fill="white" font-size="12" text-anchor="middle" x="235.0" y="94.38271604938274">1752</text><text fill="white" font-size="12" text-anchor="middle" transform="rotate(-45,235.0,570)" x="235.0" y="570">2025-05-25</text><rect fill="#4DD2FF" height="307.61316872427983" width="30" x="270.0" y="242.38683127572017" /><text fill="white" font-size="12" text-anchor="middle" x="285.0" y="237.38683127572017">1196</text><text fill="white" font-size="12" text-anchor="middle" transform="rotate(-45,285.0,570)" x="285.0" y="570">2025-06-01</text><rect fill="#4DD2FF" height="301.6975308641975" width="30" x="320.0" y="248.30246913580248" /><text fill="white" font-size="12" text-anchor="middle" x="335.0" y="243.30246913580248">1173</text><text fill="white" font-size="12" text-anchor="middle" transform="rotate(-45,335.0,570)" x="335.0" y="570">2025-06-08</text><rect fill="#4DD2FF" height="284.72222222222223" width="30" x="370.0" y="265.27777777777777" /><text fill="white" font-size="12" text-anchor="middle" x="385.0" y="260.27777777777777">1107</text><text fill="white" font-size="12" text-anchor="middle" transform="rotate(-45,385.0,570)" x="385.0" y="570">2025-06-15</text><rect fill="#4DD2FF" height="323.55967078189303" width="30" x="420.0" y="226.44032921810697" /><text fill="white" font-size="12" text-anchor="middle" x="435.0" y="221.44032921810697">1258</text><text fill="white" font-size="12" text-anchor="middle" transform="rotate(-45,435.0,570)" x="435.0" y="570">2025-06-22</text><rect fill="#4DD2FF" height="211.41975308641975" width="30" x="470.0" y="338.58024691358025" /><text fill="white" font-size="12" text-anchor="middle" x="485.0" y="333.58024691358025">822</text><text fill="white" font-size="12" text-anchor="middle" transform="rotate(-45,485.0,570)" x="485.0" y="570">2025-06-29</text><rect fill="#4DD2FF" height="141.71810699588477" width="30" x="520.0" y="408.2818930041152" /><text fill="white" font-size="12" text-anchor="middle" x="535.0" y="403.2818930041152">551</text><text fill="white" font-size="12" text-anchor="middle" transform="rotate(-45,535.0,570)" x="535.0" y="570">2025-07-06</text><rect fill="#4DD2FF" height="284.72222222222223" width="30" x="570.0" y="265.27777777777777" /><text fill="white" font-size="12" text-anchor="middle" x="585.0" y="260.27777777777777">1107</text><text fill="white" font-size="12" text-anchor="middle" transform="rotate(-45,585.0,570)" x="585.0" y="570">2025-07-13</text><rect fill="#4DD2FF" height="355.9670781893004" width="30" x="620.0" y="194.03292181069958" /><text fill="white" font-size="12" text-anchor="middle" x="635.0" y="189.03292181069958">1384</text><text fill="white" font-size="12" text-anchor="middle" transform="rotate(-45,635.0,570)" x="635.0" y="570">2025-07-20</text><rect fill="#4DD2FF" height="96.19341563786008" width="30" x="670.0" y="453.8065843621399" /><text fill="white" font-size="12" text-anchor="middle" x="685.0" y="448.8065843621399">374</text><text fill="white" font-size="12" text-anchor="middle" transform="rotate(-45,685.0,570)" x="685.0" y="570">2025-07-27</text><rect fill="#4DD2FF" height="195.98765432098767" width="30" x="720.0" y="354.01234567901236" /><text fill="white" font-size="12" text-anchor="middle" x="735.0" y="349.01234567901236">762</text><text fill="white" font-size="12" text-anchor="middle" transform="rotate(-45,735.0,570)" x="735.0" y="570">2025-08-03</text><rect fill="#4DD2FF" height="217.33539094650206" width="30" x="770.0" y="332.66460905349794" /><text fill="white" font-size="12" text-anchor="middle" x="785.0" y="327.66460905349794">845</text><text fill="white" font-size="12" text-anchor="middle" transform="rotate(-45,785.0,570)" x="785.0" y="570">2025-08-10</text><rect fill="#4DD2FF" height="224.53703703703704" width="30" x="820.0" y="325.46296296296293" /><text fill="white" font-size="12" text-anchor="middle" x="835.0" y="320.46296296296293">873</text><text fill="white" font-size="12" text-anchor="middle" transform="rotate(-45,835.0,570)" x="835.0" y="570">2025-08-17</text><rect fill="#4DD2FF" height="153.54938271604937" width="30" x="870.0" y="396.45061728395063" /><text fill="white" font-size="12" text-anchor="middle" x="885.0" y="391.45061728395063">597</text><text fill="white" font-size="12" text-anchor="middle" transform="rotate(-45,885.0,570)" x="885.0" y="570">2025-08-24</text><rect fill="#4DD2FF" height="180.0411522633745" width="30" x="920.0" y="369.9588477366255" /><text fill="white" font-size="12" text-anchor="middle" x="935.0" y="364.9588477366255">700</text><text fill="white" font-size="12" text-anchor="middle" transform="rotate(-45,935.0,570)" x="935.0" y="570">2025-08-31</text><rect fill="#4DD2FF" height="210.13374485596708" width="30" x="970.0" y="339.86625514403295" /><text fill="white" font-size="12" text-anchor="middle" x="985.0" y="334.86625514403295">817</text><text fill="white" font-size="12" text-anchor="middle" transform="rotate(-45,985.0,570)" x="985.0" y="570">2025-09-07</text><rect fill="#4DD2FF" height="237.13991769547323" width="30" x="1020.0" y="312.86008230452677" /><text fill="white" font-size="12" text-anchor="middle" x="1035.0" y="307.86008230452677">922</text><text fill="white" font-size="12" text-anchor="middle" transform="rotate(-45,1035.0,570)" x="1035.0" y="570">2025-09-14</text><rect fill="#4DD2FF" height="137.08847736625515" width="30" x="1070.0" y="412.9115226337449" /><text fill="white" font-size="12" text-anchor="middle" x="1085.0" y="407.9115226337449">533</text><text fill="white" font-size="12" text-anchor="middle" transform="rotate(-45,1085.0,570)" x="1085.0" y="570">2025-09-21</text><rect fill="#4DD2FF" height="160.49382716049382" width="30" x="1120.0" y="389.5061728395062" /><text fill="white" font-size="12" text-anchor="middle" x="1135.0" y="384.5061728395062">624</text><text fill="white" font-size="12" text-anchor="middle" transform="rotate(-45,1135.0,570)" x="1135.0" y="570">2025-09-28</text><rect fill="#4DD2FF" height="197.53086419753086" width="30" x="1170.0" y="352.46913580246917" /><text fill="white" font-size="12" text-anchor="middle" x="1185.0" y="347.46913580246917">768</text><text fill="white" font-size="12" text-anchor="middle" transform="rotate(-45,1185.0,570)" x="1185.0" y="570">2025-10-05</text><rect fill="#4DD2FF" height="303.24074074074076" width="30" x="1220.0" y="246.75925925925924" /><text fill="white" font-size="12" text-anchor="middle" x="1235.0" y="241.75925925925924">1179</text><text fill="white" font-size="12" text-anchor="middle" transform="rotate(-45,1235.0,570)" x="1235.0" y="570">2025-10-12</text><rect fill="#4DD2FF" height="266.7181069958848" width="30" x="1270.0" y="283.2818930041152" /><text fill="white" font-size="12" text-anchor="middle" x="1285.0" y="278.2818930041152">1037</text><text fill="white" font-size="12" text-anchor="middle" transform="rotate(-45,1285.0,570)" x="1285.0" y="570">2025-10-19</text><rect fill="#4DD2FF" height="184.15637860082305" width="30" x="1320.0" y="365.843621399177" /><text fill="white" font-size="12" text-anchor="middle" x="1335.0" y="360.843621399177">716</text><text fill="white" font-size="12" text-anchor="middle" transform="rotate(-45,1335.0,570)" x="1335.0" y="570">2025-10-26</text><rect fill="#4DD2FF" height="211.41975308641975" width="30" x="1370.0" y="338.58024691358025" /><text fill="white" font-size="12" text-anchor="middle" x="1385.0" y="333.58024691358025">822</text><text fill="white" font-size="12" text-anchor="middle" transform="rotate(-45,1385.0,570)" x="1385.0" y="570">2025-11-02</text><rect fill="#4DD2FF" height="122.94238683127571" width="30" x="1420.0" y="427.0576131687243" /><text fill="white" font-size="12" text-anchor="middle" x="1435.0" y="422.0576131687243">478</text><text fill="white" font-size="12" text-anchor="middle" transform="rotate(-45,1435.0,570)" x="1435.0" y="570">2025-11-09</text><rect fill="#4DD2FF" height="307.8703703703703" width="30" x="1470.0" y="242.12962962962968" /><text fill="white" font-size="12" text-anchor="middle" x="1485.0" y="237.12962962962968">1197</text><text fill="white" font-size="12" text-anchor="middle" transform="rotate(-45,1485.0,570)" x="1485.0" y="570">2025-11-16</text><rect fill="#4DD2FF" height="10.2880658436214" width="30" x="1520.0" y="539.7119341563786" /><text fill="white" font-size="12" text-anchor="middle" x="1535.0" y="534.7119341563786">40</text><text fill="white" font-size="12" text-anchor="middle" transform="rotate(-45,1535.0,570)" x="1535.0" y="570">2025-11-23</text><rect fill="#4DD2FF" height="111.88271604938271" width="30" x="1570.0" y="438.1172839506173" /><text fill="white" font-size="12" text-anchor="middle" x="1585.0" y="433.1172839506173">435</text><text fill="white" font-size="12" text-anchor="middle" transform="rotate(-45,1585.0,570)" x="1585.0" y="570">2025-11-30</text><rect fill="#4DD2FF" height="66.61522633744856" width="30" x="1620.0" y="483.3847736625514" /><text fill="white" font-size="12" text-anchor="middle" x="1635.0" y="478.3847736625514">259</text><text fill="white" font-size="12" text-anchor="middle" transform="rotate(-45,1635.0,570)" x="1635.0" y="570">2025-12-07</text><rect fill="#4DD2FF" height="342.5925925925926" width="30" x="1670.0" y="207.4074074074074" /><text fill="white" font-size="12" text-anchor="middle" x="1685.0" y="202.4074074074074">1332</text><text fill="white" font-size="12" text-anchor="middle" transform="rotate(-45,1685.0,570)" x="1685.0" y="570">2025-12-14</text><rect fill="#4DD2FF" height="326.13168724279836" width="30" x="1720.0" y="223.86831275720164" /><text fill="white" font-size="12" text-anchor="middle" x="1735.0" y="218.86831275720164">1268</text><text fill="white" font-size="12" text-anchor="middle" transform="rotate(-45,1735.0,570)" x="1735.0" y="570">2025-12-21</text><line stroke="white" x1="60" x2="60" y1="50" y2="550" /><line stroke="white" x1="60" x2="1760" y1="550" y2="550" /></svg>