<?xml version="1.0" encoding="utf-8" ?>
<svg baseProfile="full" height="600" version="1.1" width="1800" xmlns="http://www.w3.org/2000/svg" xmlns:ev="http://www.w3.org/2001/xml-events" xmlns:xlink="http://www.w3.org/1999/xlink"><defs /><rect fill="#222222" height="100%" width="100%" x="0" y="0" /><text fill="white" font-size="20" text-anchor="middle" x="900.0" y="30">Weekly Totals (Last 52 Weeks)</text><rect fill="#4DD2FF" height="402.15198386012105" width="27.692307692307693" x="62.5" y="147.84801613987895" /><text fill="white" font-size="12" text-anchor="middle" x="76.34615384615384" y="142.84801613987895">1196</text><text fill="white" font-size="12" text-anchor="middle" transform="rotate(-45,76.34615384615384,570)" x="76.34615384615384" y="570">2025-06-01</text><rect fill="#4DD2FF" height="394.41829186281103" width="27.692307692307693" x="95.1923076923077" y="155.58170813718897" /><text fill="white" font-size="12" text-anchor="middle" x="109.03846153846155" y="150.58170813718897">1173</text><text fill="white" font-size="12" text-anchor="middle" transform="rotate(-45,109.03846153846155,570)" x="109.03846153846155" y="570">2025-06-08</text><rect fill="#4DD2FF" height="372.2259583053127" width="27.692307692307693" x="127.88461538461539" y="177.7740416946873" /><text fill="white" font-size="12" text-anchor="middle" x="141.73076923076923" y="172.7740416946873">1107</text><text fill="white" font-size="12" text-anchor="middle" transform="rotate(-45,141.73076923076923,570)" x="141.73076923076923" y="570">2025-06-15</text><rect fill="#4DD2FF" height="422.9993275050437" width="27.692307692307693" x="160.5769230769231" y="127.00067249495629" /><text fill="white" font-size="12" text-anchor="middle" x="174.42307692307693" y="122.00067249495629">1258</text><text fill="white" font-size="12" text-anchor="middle" transform="rotate(-45,174.42307692307693,570)" x="174.42307692307693" y="570">2025-06-22</text><rect fill="#4DD2FF" height="276.39542703429726" width="27.692307692307693" x="193.26923076923077" y="273.60457296570274" /><text fill="white" font-size="12" text-anchor="middle" x="207.1153846153846" y="268.60457296570274">822</text><text fill="white" font-size="12" text-anchor="middle" transform="rotate(-45,207.1153846153846,570)" x="207.1153846153846" y="570">2025-06-29</text><rect fill="#4DD2FF" height="185.27236045729657" width="27.692307692307693" x="225.96153846153845" y="364.7276395427034" /><text fill="white" font-size="12" text-anchor="middle" x="239.8076923076923" y="359.7276395427034">551</text><text fill="white" font-size="12" text-anchor="middle" transform="rotate(-45,239.8076923076923,570)" x="239.8076923076923" y="570">2025-07-06</text><rect fill="#4DD2FF" height="372.2259583053127" width="27.692307692307693" x="258.6538461538462" y="177.7740416946873" /><text fill="white" font-size="12" text-anchor="middle" x="272.50000000000006" y="172.7740416946873">1107</text><text fill="white" font-size="12" text-anchor="middle" transform="rotate(-45,272.50000000000006,570)" x="272.50000000000006" y="570">2025-07-13</text><rect fill="#4DD2FF" height="465.36650975117686" width="27.692307692307693" x="291.34615384615387" y="84.63349024882314" /><text fill="white" font-size="12" text-anchor="middle" x="305.19230769230774" y="79.63349024882314">1384</text><text fill="white" font-size="12" text-anchor="middle" transform="rotate(-45,305.19230769230774,570)" x="305.19230769230774" y="570">2025-07-20</text><rect fill="#4DD2FF" height="125.75655682582382" width="27.692307692307693" x="324.03846153846155" y="424.24344317417615" /><text fill="white" font-size="12" text-anchor="middle" x="337.8846153846154" y="419.24344317417615">374</text><text fill="white" font-size="12" text-anchor="middle" transform="rotate(-45,337.8846153846154,570)" x="337.8846153846154" y="570">2025-07-27</text><rect fill="#4DD2FF" height="256.22057834566243" width="27.692307692307693" x="356.7307692307692" y="293.77942165433757" /><text fill="white" font-size="12" text-anchor="middle" x="370.5769230769231" y="288.77942165433757">762</text><text fill="white" font-size="12" text-anchor="middle" transform="rotate(-45,370.5769230769231,570)" x="370.5769230769231" y="570">2025-08-03</text><rect fill="#4DD2FF" height="284.1291190316073" width="27.692307692307693" x="389.4230769230769" y="265.8708809683927" /><text fill="white" font-size="12" text-anchor="middle" x="403.2692307692308" y="260.8708809683927">845</text><text fill="white" font-size="12" text-anchor="middle" transform="rotate(-45,403.2692307692308,570)" x="403.2692307692308" y="570">2025-08-10</text><rect fill="#4DD2FF" height="293.54404841963685" width="27.692307692307693" x="422.11538461538464" y="256.45595158036315" /><text fill="white" font-size="12" text-anchor="middle" x="435.9615384615385" y="251.45595158036315">873</text><text fill="white" font-size="12" text-anchor="middle" transform="rotate(-45,435.9615384615385,570)" x="435.9615384615385" y="570">2025-08-17</text><rect fill="#4DD2FF" height="200.7397444519166" width="27.692307692307693" x="454.8076923076923" y="349.26025554808336" /><text fill="white" font-size="12" text-anchor="middle" x="468.6538461538462" y="344.26025554808336">597</text><text fill="white" font-size="12" text-anchor="middle" transform="rotate(-45,468.6538461538462,570)" x="468.6538461538462" y="570">2025-08-24</text><rect fill="#4DD2FF" height="235.37323470073974" width="27.692307692307693" x="487.5" y="314.6267652992602" /><text fill="white" font-size="12" text-anchor="middle" x="501.34615384615387" y="309.6267652992602">700</text><text fill="white" font-size="12" text-anchor="middle" transform="rotate(-45,501.34615384615387,570)" x="501.34615384615387" y="570">2025-08-31</text><rect fill="#4DD2FF" height="274.7141896435777" width="27.692307692307693" x="520.1923076923077" y="275.2858103564223" /><text fill="white" font-size="12" text-anchor="middle" x="534.0384615384615" y="270.2858103564223">817</text><text fill="white" font-size="12" text-anchor="middle" transform="rotate(-45,534.0384615384615,570)" x="534.0384615384615" y="570">2025-09-07</text><rect fill="#4DD2FF" height="310.02017484868867" width="27.692307692307693" x="552.8846153846155" y="239.97982515131133" /><text fill="white" font-size="12" text-anchor="middle" x="566.7307692307693" y="234.97982515131133">922</text><text fill="white" font-size="12" text-anchor="middle" transform="rotate(-45,566.7307692307693,570)" x="566.7307692307693" y="570">2025-09-14</text><rect fill="#4DD2FF" height="179.21990585070614" width="27.692307692307693" x="585.5769230769231" y="370.78009414929386" /><text fill="white" font-size="12" text-anchor="middle" x="599.4230769230769" y="365.78009414929386">533</text><text fill="white" font-size="12" text-anchor="middle" transform="rotate(-45,599.4230769230769,570)" x="599.4230769230769" y="570">2025-09-21</text><rect fill="#4DD2FF" height="209.8184263618023" width="27.692307692307693" x="618.2692307692308" y="340.18157363819773" /><text fill="white" font-size="12" text-anchor="middle" x="632.1153846153846" y="335.18157363819773">624</text><text fill="white" font-size="12" text-anchor="middle" transform="rotate(-45,632.1153846153846,570)" x="632.1153846153846" y="570">2025-09-28</text><rect fill="#4DD2FF" height="258.23806321452594" width="27.692307692307693" x="650.9615384615385" y="291.76193678547406" /><text fill="white" font-size="12" text-anchor="middle" x="664.8076923076923" y="286.76193678547406">768</text><text fill="white" font-size="12" text-anchor="middle" transform="rotate(-45,664.8076923076923,570)" x="664.8076923076923" y="570">2025-10-05</text><rect fill="#4DD2FF" height="396.43577673167454" width="27.692307692307693" x="683.6538461538462" y="153.56422326832546" /><text fill="white" font-size="12" text-anchor="middle" x="697.5" y="148.56422326832546">1179</text><text fill="white" font-size="12" text-anchor="middle" transform="rotate(-45,697.5,570)" x="697.5" y="570">2025-10-12</text><rect fill="#4DD2FF" height="348.6886348352387" width="27.692307692307693" x="716.3461538461538" y="201.3113651647613" /><text fill="white" font-size="12" text-anchor="middle" x="730.1923076923076" y="196.3113651647613">1037</text><text fill="white" font-size="12" text-anchor="middle" transform="rotate(-45,730.1923076923076,570)" x="730.1923076923076" y="570">2025-10-19</text><rect fill="#4DD2FF" height="240.75319435104237" width="27.692307692307693" x="749.0384615384615" y="309.24680564895766" /><text fill="white" font-size="12" text-anchor="middle" x="762.8846153846154" y="304.24680564895766">716</text><text fill="white" font-size="12" text-anchor="middle" transform="rotate(-45,762.8846153846154,570)" x="762.8846153846154" y="570">2025-10-26</text><rect fill="#4DD2FF" height="276.39542703429726" width="27.692307692307693" x="781.7307692307693" y="273.60457296570274" /><text fill="white" font-size="12" text-anchor="middle" x="795.5769230769231" y="268.60457296570274">822</text><text fill="white" font-size="12" text-anchor="middle" transform="rotate(-45,795.5769230769231,570)" x="795.5769230769231" y="570">2025-11-02</text><rect fill="#4DD2FF" height="160.72629455279085" width="27.692307692307693" x="814.4230769230769" y="389.2737054472092" /><text fill="white" font-size="12" text-anchor="middle" x="828.2692307692307" y="384.2737054472092">478</text><text fill="white" font-size="12" text-anchor="middle" transform="rotate(-45,828.2692307692307,570)" x="828.2692307692307" y="570">2025-11-09</text><rect fill="#4DD2FF" height="402.48823133826494" width="27.692307692307693" x="847.1153846153846" y="147.51176866173506" /><text fill="white" font-size="12" text-anchor="middle" x="860.9615384615385" y="142.51176866173506">1197</text><text fill="white" font-size="12" text-anchor="middle" transform="rotate(-45,860.9615384615385,570)" x="860.9615384615385" y="570">2025-11-16</text><rect fill="#4DD2FF" height="13.449899125756557" width="27.692307692307693" x="879.8076923076924" y="536.5501008742434" /><text fill="white" font-size="12" text-anchor="middle" x="893.6538461538462" y="531.5501008742434">40</text><text fill="white" font-size="12" text-anchor="middle" transform="rotate(-45,893.6538461538462,570)" x="893.6538461538462" y="570">2025-11-23</text><rect fill="#4DD2FF" height="146.26765299260256" width="27.692307692307693" x="912.5" y="403.73234700739744" /><text fill="white" font-size="12" text-anchor="middle" x="926.3461538461538" y="398.73234700739744">435</text><text fill="white" font-size="12" text-anchor="middle" transform="rotate(-45,926.3461538461538,570)" x="926.3461538461538" y="570">2025-11-30</text><rect fill="#4DD2FF" height="87.0880968392737" width="27.692307692307693" x="945.1923076923077" y="462.9119031607263" /><text fill="white" font-size="12" text-anchor="middle" x="959.0384615384615" y="457.9119031607263">259</text><text fill="white" font-size="12" text-anchor="middle" transform="rotate(-45,959.0384615384615,570)" x="959.0384615384615" y="570">2025-12-07</text><rect fill="#4DD2FF" height="447.8816408876933" width="27.692307692307693" x="977.8846153846155" y="102.11835911230668" /><text fill="white" font-size="12" text-anchor="middle" x="991.7307692307693" y="97.11835911230668">1332</text><text fill="white" font-size="12" text-anchor="middle" transform="rotate(-45,991.7307692307693,570)" x="991.7307692307693" y="570">2025-12-14</text><rect fill="#4DD2FF" height="426.3618022864828" width="27.692307692307693" x="1010.5769230769231" y="123.63819771351717" /><text fill="white" font-size="12" text-anchor="middle" x="1024.423076923077" y="118.63819771351717">1268</text><text fill="white" font-size="12" text-anchor="middle" transform="rotate(-45,1024.423076923077,570)" x="1024.423076923077" y="570">2025-12-21</text><rect fill="#4DD2FF" height="482.85137861466035" width="27.692307692307693" x="1043.269230769231" y="67.14862138533965" /><text fill="white" font-size="12" text-anchor="middle" x="1057.1153846153848" y="62.14862138533965">1436</text><text fill="white" font-size="12" text-anchor="middle" transform="rotate(-45,1057.1153846153848,570)" x="1057.1153846153848" y="570">2025-12-28</text><rect fill="#4DD2FF" height="470.4102219233356" width="27.692307692307693" x="1075.9615384615386" y="79.5897780766644" /><text fill="white" font-size="12" text-anchor="middle" x="1089.8076923076924" y="74.5897780766644">1399</text><text fill="white" font-size="12" text-anchor="middle" transform="rotate(-45,1089.8076923076924,570)" x="1089.8076923076924" y="570">2026-01-04</text><rect fill="#4DD2FF" height="500.0" width="27.692307692307693" x="1108.6538461538462" y="50.0" /><text fill="white" font-size="12" text-anchor="middle" x="1122.5" y="45.0">1487</text><text fill="white" font-size="12" text-anchor="middle" transform="rotate(-45,1122.5,570)" x="1122.5" y="570">2026-01-11</text><rect fill="#4DD2FF" height="439.47545393409547" width="27.692307692307693" x="1141.3461538461538" y="110.52454606590453" /><text fill="white" font-size="12" text-anchor="middle" x="1155.1923076923076" y="105.52454606590453">1307</text><text fill="white" font-size="12" text-anchor="middle" transform="rotate(-45,1155.1923076923076,570)" x="1155.1923076923076" y="570">2026-01-18</text><rect fill="#4DD2FF" height="433.75924680564896" width="27.692307692307693" x="1174.0384615384617" y="116.24075319435104" /><text fill="white" font-size="12" text-anchor="middle" x="1187.8846153846155" y="111.24075319435104">1290</text><text fill="white" font-size="12" text-anchor="middle" transform="rotate(-45,1187.8846153846155,570)" x="1187.8846153846155" y="570">2026-01-25</text><rect fill="#4DD2FF" height="411.23066577000674" width="27.692307692307693" x="1206.7307692307693" y="138.76933422999326" /><text fill="white" font-size="12" text-anchor="middle" x="1220.576923076923" y="133.76933422999326">1223</text><text fill="white" font-size="12" text-anchor="middle" transform="rotate(-45,1220.576923076923,570)" x="1220.576923076923" y="570">2026-02-01</text><rect fill="#4DD2FF" height="479.1526563550773" width="27.692307692307693" x="1239.423076923077" y="70.84734364492272" /><text fill="white" font-size="12" text-anchor="middle" x="1253.2692307692307" y="65.84734364492272">1425</text><text fill="white" font-size="12" text-anchor="middle" transform="rotate(-45,1253.2692307692307,570)" x="1253.2692307692307" y="570">2026-02-08</text><rect fill="#4DD2FF" height="366.5097511768662" width="27.692307692307693" x="1272.1153846153848" y="183.4902488231338" /><text fill="white" font-size="12" text-anchor="middle" x="1285.9615384615386" y="178.4902488231338">1090</text><text fill="white" font-size="12" text-anchor="middle" transform="rotate(-45,1285.9615384615386,570)" x="1285.9615384615386" y="570">2026-02-15</text><rect fill="#4DD2FF" height="486.5501008742434" width="27.692307692307693" x="1304.8076923076924" y="63.44989912575659" /><text fill="white" font-size="12" text-anchor="middle" x="1318.6538461538462" y="58.44989912575659">1447</text><text fill="white" font-size="12" text-anchor="middle" transform="rotate(-45,1318.6538461538462,570)" x="1318.6538461538462" y="570">2026-02-22</text><rect fill="#4DD2FF" height="404.1694687289845" width="27.692307692307693" x="1337.5" y="145.8305312710155" /><text fill="white" font-size="12" text-anchor="middle" x="1351.3461538461538" y="140.8305312710155">1202</text><text fill="white" font-size="12" text-anchor="middle" transform="rotate(-45,1351.3461538461538,570)" x="1351.3461538461538" y="570">2026-03-01</text><rect fill="#4DD2FF" height="274.04169468728986" width="27.692307692307693" x="1370.1923076923076" y="275.95830531271014" /><text fill="white" font-size="12" text-anchor="middle" x="1384.0384615384614" y="270.95830531271014">815</text><text fill="white" font-size="12" text-anchor="middle" transform="rotate(-45,1384.0384615384614,570)" x="1384.0384615384614" y="570">2026-03-08</text><rect fill="#4DD2FF" height="182.58238063214526" width="27.692307692307693" x="1402.8846153846155" y="367.41761936785474" /><text fill="white" font-size="12" text-anchor="middle" x="1416.7307692307693" y="362.41761936785474">543</text><text fill="white" font-size="12" text-anchor="middle" transform="rotate(-45,1416.7307692307693,570)" x="1416.7307692307693" y="570">2026-03-15</text><rect fill="#4DD2FF" height="167.45124411566914" width="27.692307692307693" x="1435.576923076923" y="382.54875588433083" /><text fill="white" font-size="12" text-anchor="middle" x="1449.423076923077" y="377.54875588433083">498</text><text fill="white" font-size="12" text-anchor="middle" transform="rotate(-45,1449.423076923077,570)" x="1449.423076923077" y="570">2026-03-22</text><rect fill="#4DD2FF" height="182.58238063214526" width="27.692307692307693" x="1468.2692307692307" y="367.41761936785474" /><text fill="white" font-size="12" text-anchor="middle" x="1482.1153846153845" y="362.41761936785474">543</text><text fill="white" font-size="12" text-anchor="middle" transform="rotate(-45,1482.1153846153845,570)" x="1482.1153846153845" y="570">2026-03-29</text><rect fill="#4DD2FF" height="115.33288500336248" width="27.692307692307693" x="1500.9615384615386" y="434.6671149966375" /><text fill="white" font-size="12" text-anchor="middle" x="1514.8076923076924" y="429.6671149966375">343</text><text fill="white" font-size="12" text-anchor="middle" transform="rotate(-45,1514.8076923076924,570)" x="1514.8076923076924" y="570">2026-05-03</text><rect fill="#4DD2FF" height="92.13180901143242" width="27.692307692307693" x="1533.6538461538462" y="457.86819098856756" /><text fill="white" font-size="12" text-anchor="middle" x="1547.5" y="452.86819098856756">274</text><text fill="white" font-size="12" text-anchor="middle" transform="rotate(-45,1547.5,570)" x="1547.5" y="570">2026-05-10</text><rect fill="#4DD2FF" height="73.30195023537324" width="27.692307692307693" x="1566.3461538461538" y="476.6980497646268" /><text fill="white" font-size="12" text-anchor="middle" x="1580.1923076923076" y="471.6980497646268">218</text><text fill="white" font-size="12" text-anchor="middle" transform="rotate(-45,1580.1923076923076,570)" x="1580.1923076923076" y="570">2026-05-17</text><rect fill="#4DD2FF" height="108.9441829186281" width="27.692307692307693" x="1599.0384615384617" y="441.0558170813719" /><text fill="white" font-size="12" text-anchor="middle" x="1612.8846153846155" y="436.0558170813719">324</text><text fill="white" font-size="12" text-anchor="middle" transform="rotate(-45,1612.8846153846155,570)" x="1612.8846153846155" y="570">2026-05-24</text><rect fill="#4DD2FF" height="60.86079354404842" width="27.692307692307693" x="1631.7307692307693" y="489.1392064559516" /><text fill="white" font-size="12" text-anchor="middle" x="1645.576923076923" y="484.1392064559516">181</text><text fill="white" font-size="12" text-anchor="middle" transform="rotate(-45,1645.576923076923,570)" x="1645.576923076923" y="570">2026-05-31</text><rect fill="#4DD2FF" height="13.78614660390047" width="27.692307692307693" x="1664.423076923077" y="536.2138533960996" /><text fill="white" font-size="12" text-anchor="middle" x="1678.2692307692307" y="531.2138533960996">41</text><text fill="white" font-size="12" text-anchor="middle" transform="rotate(-45,1678.2692307692307,570)" x="1678.2692307692307" y="570">2026-06-07</text><rect fill="#4DD2FF" height="183.9273705447209" width="27.692307692307693" x="1697.1153846153848" y="366.07262945527907" /><text fill="white" font-size="12" text-anchor="middle" x="1710.9615384615386" y="361.07262945527907">547</text><text fill="white" font-size="12" text-anchor="middle" transform="rotate(-45,1710.9615384615386,570)" x="1710.9615384615386" y="570">2026-06-14</text><rect fill="#4DD2FF" height="52.790854068594484" width="27.692307692307693" x="1729.8076923076924" y="497.2091459314055" /><text fill="white" font-size="12" text-anchor="middle" x="1743.6538461538462" y="492.2091459314055">157</text><text fill="white" font-size="12" text-anchor="middle" transform="rotate(-45,1743.6538461538462,570)" x="1743.6538461538462" y="570">2026-06-21</text><line stroke="white" x1="60" x2="60" y1="50" y2="550" /><line stroke="white" x1="60" x2="1760" y1="550" y2="550" /></svg>