<?xml version="1.0" encoding="utf-8" ?>
<svg baseProfile="full" height="600" version="1.1" width="1800" xmlns="http://www.w3.org/2000/svg" xmlns:ev="http://www.w3.org/2001/xml-events" xmlns:xlink="http://www.w3.org/1999/xlink"><defs /><rect fill="#222222" height="100%" width="100%" x="0" y="0" /><text fill="white" font-size="20" text-anchor="middle" x="900.0" y="30">Weekly Totals (Last 52 Weeks)</text><rect fill="#4DD2FF" height="67.12962962962963" width="30" x="79.0" y="482.8703703703704" /><text fill="white" font-size="12" text-anchor="middle" x="94.0" y="477.8703703703704">261</text><text fill="white" font-size="12" text-anchor="middle" transform="rotate(-45,94.0,570)" x="94.0" y="570">2025-05-04</text><rect fill="#4DD2FF" height="500.0" width="30" x="147.0" y="50.0" /><text fill="white" font-size="12" text-anchor="middle" x="162.0" y="45.0">1944</text><text fill="white" font-size="12" text-anchor="middle" transform="rotate(-45,162.0,570)" x="162.0" y="570">2025-05-11</text><rect fill="#4DD2FF" height="380.65843621399176" width="30" x="215.0" y="169.34156378600824" /><text fill="white" font-size="12" text-anchor="middle" x="230.0" y="164.34156378600824">1480</text><text fill="white" font-size="12" text-anchor="middle" transform="rotate(-45,230.0,570)" x="230.0" y="570">2025-05-18</text><rect fill="#4DD2FF" height="450.61728395061726" width="30" x="283.0" y="99.38271604938274" /><text fill="white" font-size="12" text-anchor="middle" x="298.0" y="94.38271604938274">1752</text><text fill="white" font-size="12" text-anchor="middle" transform="rotate(-45,298.0,570)" x="298.0" y="570">2025-05-25</text><rect fill="#4DD2FF" height="307.61316872427983" width="30" x="351.0" y="242.38683127572017" /><text fill="white" font-size="12" text-anchor="middle" x="366.0" y="237.38683127572017">1196</text><text fill="white" font-size="12" text-anchor="middle" transform="rotate(-45,366.0,570)" x="366.0" y="570">2025-06-01</text><rect fill="#4DD2FF" height="301.6975308641975" width="30" x="419.0" y="248.30246913580248" /><text fill="white" font-size="12" text-anchor="middle" x="434.0" y="243.30246913580248">1173</text><text fill="white" font-size="12" text-anchor="middle" transform="rotate(-45,434.0,570)" x="434.0" y="570">2025-06-08</text><rect fill="#4DD2FF" height="284.72222222222223" width="30" x="487.0" y="265.27777777777777" /><text fill="white" font-size="12" text-anchor="middle" x="502.0" y="260.27777777777777">1107</text><text fill="white" font-size="12" text-anchor="middle" transform="rotate(-45,502.0,570)" x="502.0" y="570">2025-06-15</text><rect fill="#4DD2FF" height="323.55967078189303" width="30" x="555.0" y="226.44032921810697" /><text fill="white" font-size="12" text-anchor="middle" x="570.0" y="221.44032921810697">1258</text><text fill="white" font-size="12" text-anchor="middle" transform="rotate(-45,570.0,570)" x="570.0" y="570">2025-06-22</text><rect fill="#4DD2FF" height="211.41975308641975" width="30" x="623.0" y="338.58024691358025" /><text fill="white" font-size="12" text-anchor="middle" x="638.0" y="333.58024691358025">822</text><text fill="white" font-size="12" text-anchor="middle" transform="rotate(-45,638.0,570)" x="638.0" y="570">2025-06-29</text><rect fill="#4DD2FF" height="141.71810699588477" width="30" x="691.0" y="408.2818930041152" /><text fill="white" font-size="12" text-anchor="middle" x="706.0" y="403.2818930041152">551</text><text fill="white" font-size="12" text-anchor="middle" transform="rotate(-45,706.0,570)" x="706.0" y="570">2025-07-06</text><rect fill="#4DD2FF" height="284.72222222222223" width="30" x="759.0" y="265.27777777777777" /><text fill="white" font-size="12" text-anchor="middle" x="774.0" y="260.27777777777777">1107</text><text fill="white" font-size="12" text-anchor="middle" transform="rotate(-45,774.0,570)" x="774.0" y="570">2025-07-13</text><rect fill="#4DD2FF" height="355.9670781893004" width="30" x="827.0" y="194.03292181069958" /><text fill="white" font-size="12" text-anchor="middle" x="842.0" y="189.03292181069958">1384</text><text fill="white" font-size="12" text-anchor="middle" transform="rotate(-45,842.0,570)" x="842.0" y="570">2025-07-20</text><rect fill="#4DD2FF" height="96.19341563786008" width="30" x="895.0" y="453.8065843621399" /><text fill="white" font-size="12" text-anchor="middle" x="910.0" y="448.8065843621399">374</text><text fill="white" font-size="12" text-anchor="middle" transform="rotate(-45,910.0,570)" x="910.0" y="570">2025-07-27</text><rect fill="#4DD2FF" height="195.98765432098767" width="30" x="963.0" y="354.01234567901236" /><text fill="white" font-size="12" text-anchor="middle" x="978.0" y="349.01234567901236">762</text><text fill="white" font-size="12" text-anchor="middle" transform="rotate(-45,978.0,570)" x="978.0" y="570">2025-08-03</text><rect fill="#4DD2FF" height="217.33539094650206" width="30" x="1031.0" y="332.66460905349794" /><text fill="white" font-size="12" text-anchor="middle" x="1046.0" y="327.66460905349794">845</text><text fill="white" font-size="12" text-anchor="middle" transform="rotate(-45,1046.0,570)" x="1046.0" y="570">2025-08-10</text><rect fill="#4DD2FF" height="224.53703703703704" width="30" x="1099.0" y="325.46296296296293" /><text fill="white" font-size="12" text-anchor="middle" x="1114.0" y="320.46296296296293">873</text><text fill="white" font-size="12" text-anchor="middle" transform="rotate(-45,1114.0,570)" x="1114.0" y="570">2025-08-17</text><rect fill="#4DD2FF" height="153.54938271604937" width="30" x="1167.0" y="396.45061728395063" /><text fill="white" font-size="12" text-anchor="middle" x="1182.0" y="391.45061728395063">597</text><text fill="white" font-size="12" text-anchor="middle" transform="rotate(-45,1182.0,570)" x="1182.0" y="570">2025-08-24</text><rect fill="#4DD2FF" height="180.0411522633745" width="30" x="1235.0" y="369.9588477366255" /><text fill="white" font-size="12" text-anchor="middle" x="1250.0" y="364.9588477366255">700</text><text fill="white" font-size="12" text-anchor="middle" transform="rotate(-45,1250.0,570)" x="1250.0" y="570">2025-08-31</text><rect fill="#4DD2FF" height="210.13374485596708" width="30" x="1303.0" y="339.86625514403295" /><text fill="white" font-size="12" text-anchor="middle" x="1318.0" y="334.86625514403295">817</text><text fill="white" font-size="12" text-anchor="middle" transform="rotate(-45,1318.0,570)" x="1318.0" y="570">2025-09-07</text><rect fill="#4DD2FF" height="237.13991769547323" width="30" x="1371.0" y="312.86008230452677" /><text fill="white" font-size="12" text-anchor="middle" x="1386.0" y="307.86008230452677">922</text><text fill="white" font-size="12" text-anchor="middle" transform="rotate(-45,1386.0,570)" x="1386.0" y="570">2025-09-14</text><rect fill="#4DD2FF" height="137.08847736625515" width="30" x="1439.0" y="412.9115226337449" /><text fill="white" font-size="12" text-anchor="middle" x="1454.0" y="407.9115226337449">533</text><text fill="white" font-size="12" text-anchor="middle" transform="rotate(-45,1454.0,570)" x="1454.0" y="570">2025-09-21</text><rect fill="#4DD2FF" height="160.49382716049382" width="30" x="1507.0" y="389.5061728395062" /><text fill="white" font-size="12" text-anchor="middle" x="1522.0" y="384.5061728395062">624</text><text fill="white" font-size="12" text-anchor="middle" transform="rotate(-45,1522.0,570)" x="1522.0" y="570">2025-09-28</text><rect fill="#4DD2FF" height="197.53086419753086" width="30" x="1575.0" y="352.46913580246917" /><text fill="white" font-size="12" text-anchor="middle" x="1590.0" y="347.46913580246917">768</text><text fill="white" font-size="12" text-anchor="middle" transform="rotate(-45,1590.0,570)" x="1590.0" y="570">2025-10-05</text><rect fill="#4DD2FF" height="303.24074074074076" width="30" x="1643.0" y="246.75925925925924" /><text fill="white" font-size="12" text-anchor="middle" x="1658.0" y="241.75925925925924">1179</text><text fill="white" font-size="12" text-anchor="middle" transform="rotate(-45,1658.0,570)" x="1658.0" y="570">2025-10-12</text><rect fill="#4DD2FF" height="26.234567901234566" width="30" x="1711.0" y="523.7654320987655" /><text fill="white" font-size="12" text-anchor="middle" x="1726.0" y="518.7654320987655">102</text><text fill="white" font-size="12" text-anchor="middle" transform="rotate(-45,1726.0,570)" x="1726.0" y="570">2025-10-19</text><line stroke="white" x1="60" x2="60" y1="50" y2="550" /><line stroke="white" x1="60" x2="1760" y1="550" y2="550" /></svg>